<?xml version="1.0" encoding="UTF-8" standalone="no"?>
<!-- Created with Inkscape (http://www.inkscape.org/) -->

<svg
   xmlns:dc="http://purl.org/dc/elements/1.1/"
   xmlns:cc="http://creativecommons.org/ns#"
   xmlns:rdf="http://www.w3.org/1999/02/22-rdf-syntax-ns#"
   xmlns:svg="http://www.w3.org/2000/svg"
   xmlns="http://www.w3.org/2000/svg"
   xmlns:xlink="http://www.w3.org/1999/xlink"
   xmlns:sodipodi="http://sodipodi.sourceforge.net/DTD/sodipodi-0.dtd"
   xmlns:inkscape="http://www.inkscape.org/namespaces/inkscape"
   width="420mm"
   height="297mm"
   viewBox="0 0 420 297"
   version="1.1"
   id="svg8"
   inkscape:version="0.92.4 5da689c313, 2019-01-14"
   sodipodi:docname="36c3sign-notices-chaoswest-ffoh.svg">
  <defs
     id="defs2" />
  <sodipodi:namedview
     id="base"
     pagecolor="#ffffff"
     bordercolor="#666666"
     borderopacity="1.0"
     inkscape:pageopacity="0.0"
     inkscape:pageshadow="2"
     inkscape:zoom="0.54614773"
     inkscape:cx="577.98234"
     inkscape:cy="744.70775"
     inkscape:document-units="mm"
     inkscape:current-layer="layer2"
     showgrid="false"
     inkscape:pagecheckerboard="false"
     showguides="true"
     inkscape:guide-bbox="true"
     inkscape:window-width="2556"
     inkscape:window-height="1388"
     inkscape:window-x="0"
     inkscape:window-y="24"
     inkscape:window-maximized="0">
    <sodipodi:guide
       position="30,0"
       orientation="1,0"
       id="guide14"
       inkscape:locked="false"
       inkscape:label=""
       inkscape:color="rgb(0,0,255)" />
    <sodipodi:guide
       position="390,0"
       orientation="1,0"
       id="guide16"
       inkscape:locked="false"
       inkscape:label=""
       inkscape:color="rgb(0,0,255)" />
    <sodipodi:guide
       position="0,30"
       orientation="0,1"
       id="guide20"
       inkscape:locked="false"
       inkscape:label=""
       inkscape:color="rgb(0,0,255)" />
    <sodipodi:guide
       position="0,267"
       orientation="0,1"
       id="guide22"
       inkscape:locked="false"
       inkscape:label=""
       inkscape:color="rgb(0,0,255)" />
  </sodipodi:namedview>
  <metadata
     id="metadata5">
    <rdf:RDF>
      <cc:Work
         rdf:about="">
        <dc:format>image/svg+xml</dc:format>
        <dc:type
           rdf:resource="http://purl.org/dc/dcmitype/StillImage" />
        <dc:title></dc:title>
        <dc:creator>
          <cc:Agent>
            <dc:title>c3sign</dc:title>
          </cc:Agent>
        </dc:creator>
        <dc:publisher>
          <cc:Agent>
            <dc:title>36c3</dc:title>
          </cc:Agent>
        </dc:publisher>
      </cc:Work>
    </rdf:RDF>
  </metadata>
  <g
     inkscape:label="Logo"
     inkscape:groupmode="layer"
     id="layer1"
     sodipodi:insensitive="true"
     style="display:inline">
    <path
       style="font-family:none;mix-blend-mode:normal;fill:none;fill-rule:nonzero;stroke:#00bb31;stroke-width:1.28189933;stroke-linecap:butt;stroke-linejoin:miter;stroke-miterlimit:10;stroke-dasharray:none;stroke-dashoffset:0"
       inkscape:connector-curvature="0"
       id="path32"
       d="" />
    <path
       style="font-family:none;mix-blend-mode:normal;fill:none;fill-rule:nonzero;stroke:#00bb31;stroke-width:1.28189933;stroke-linecap:butt;stroke-linejoin:miter;stroke-miterlimit:10;stroke-dasharray:none;stroke-dashoffset:0"
       inkscape:connector-curvature="0"
       id="path38"
       d="" />
    <path
       style="font-family:none;mix-blend-mode:normal;fill:none;fill-rule:nonzero;stroke:#00bb31;stroke-width:1.28189933;stroke-linecap:butt;stroke-linejoin:miter;stroke-miterlimit:10;stroke-dasharray:none;stroke-dashoffset:0"
       inkscape:connector-curvature="0"
       id="path44"
       d="" />
    <path
       style="font-family:none;mix-blend-mode:normal;fill:none;fill-rule:nonzero;stroke:#00bb31;stroke-width:1.28189933;stroke-linecap:butt;stroke-linejoin:miter;stroke-miterlimit:10;stroke-dasharray:none;stroke-dashoffset:0"
       inkscape:connector-curvature="0"
       id="path106"
       d="" />
    <path
       style="font-family:none;mix-blend-mode:normal;fill:#d0d0ce;fill-opacity:1;fill-rule:nonzero;stroke:none;stroke-width:0.12212653;stroke-linecap:butt;stroke-linejoin:miter;stroke-miterlimit:10;stroke-dasharray:none;stroke-dashoffset:0"
       inkscape:connector-curvature="0"
       id="path6"
       d="m 238.65373,247.64355 c 1.89575,-0.2587 3.74019,-0.14061 5.53334,0.35425 1.79314,0.49485 3.41168,1.29087 4.85563,2.38801 0.9122,0.69314 1.72673,1.48161 2.44358,2.36539 l -0.57187,-0.16326 -1.47289,1.47919 -1.41846,0.2668 -1.23407,0.001 -1.21463,0.132 -1.12487,-0.008 -1.17802,-0.24691 -1.12319,1.23142 -1.39435,-0.7252 -0.8865,0.65003 -0.15474,0.0349 z"
       inkscape:transform-center-x="12.062104"
       inkscape:transform-center-y="-1.4481016" />
    <path
       style="font-family:none;mix-blend-mode:normal;fill:#d0d0ce;fill-opacity:1;fill-rule:nonzero;stroke:none;stroke-width:0.12212653;stroke-linecap:butt;stroke-linejoin:miter;stroke-miterlimit:10;stroke-dasharray:none;stroke-dashoffset:0"
       inkscape:connector-curvature="0"
       id="path12"
       d="m 321.848,217.91884 c 1.41724,1.28539 2.51085,2.73065 3.28084,4.33581 0.76998,1.60516 1.19636,3.25591 1.27912,4.95223 0.0828,1.69633 -0.1809,3.38074 -0.79097,5.05323 -0.61008,1.67249 -1.57148,3.23243 -2.88421,4.67983 l -7.14651,-6.48162 c 0.71106,-0.784 1.04818,-1.70107 1.01136,-2.75119 -0.0368,-1.05012 -0.44724,-1.93072 -1.23124,-2.64178 -0.78401,-0.71106 -1.70037,-1.03381 -2.74909,-0.96823 -0.21359,0.0134 -0.42017,0.0416 -0.61975,0.0848 l -0.11824,-0.43282 0.44154,-1.08151 0.8832,-1.27709 1.30091,-0.85194 0.72566,-1.43201 1.15359,-1.29762 0.57559,-1.85635 0.75401,-0.71756 c 1.45488,0.60907 2.83295,1.50369 4.13419,2.68386 z" />
    <path
       style="font-family:none;mix-blend-mode:normal;fill:#d0d0ce;fill-opacity:1;fill-rule:nonzero;stroke:none;stroke-width:0.12212653;stroke-linecap:butt;stroke-linejoin:miter;stroke-miterlimit:10;stroke-dasharray:none;stroke-dashoffset:0"
       inkscape:connector-curvature="0"
       id="path18"
       d="m 332.53021,252.47142 -4.47468,-8.2709 c -1.02959,-1.98862 -1.74927,-4.11021 -2.15903,-6.36476 -0.40976,-2.25454 -0.4038,-4.46786 0.0179,-6.63995 0.42168,-2.1721 1.31647,-4.2183 2.68435,-6.13861 0.15778,-0.22149 0.32289,-0.4391 0.49533,-0.65283 l 0.39598,0.39211 0.39932,1.52041 1.33614,1.17037 0.63047,1.22242 0.54637,0.97235 1.10053,1.39965 -0.11312,1.2653 0.25027,0.95405 1.23105,1.26149 0.14256,1.25612 0.77703,0.94176 0.39503,1.57608 -0.43157,1.48588 0.2981,1.69363 0.1545,1.09487 0.42343,1.69081 0.58077,1.462 0.15142,1.63564 -1.04762,1.83142 0.80112,1.72256 -0.65704,1.57092 0.13562,1.38175 -1.02351,1.02169 -0.61974,0.98987 c -0.86961,-1.07675 -1.6766,-2.22544 -2.42096,-3.44611 z" />
    <path
       style="font-family:none;mix-blend-mode:normal;fill:#d0d0ce;fill-opacity:1;fill-rule:nonzero;stroke:none;stroke-width:0.12212653;stroke-linecap:butt;stroke-linejoin:miter;stroke-miterlimit:10;stroke-dasharray:none;stroke-dashoffset:0"
       inkscape:connector-curvature="0"
       id="path24"
       d="m 364.92549,255.91368 c -1.85887,0.0698 -3.70013,-0.24617 -5.52378,-0.94794 l 2.57433,-6.68978 0.18844,0.27367 1.39625,0.12994 1.29536,1.25449 0.85706,0.75479 0.51323,1.40966 0.96163,0.80813 0.70796,1.59249 0.45565,0.8765 c -1.10125,0.31427 -2.24329,0.49362 -3.42613,0.53805 z" />
    <path
       style="font-family:none;mix-blend-mode:normal;fill:#d0d0ce;fill-opacity:1;fill-rule:nonzero;stroke:none;stroke-width:0.12212653;stroke-linecap:butt;stroke-linejoin:miter;stroke-miterlimit:10;stroke-dasharray:none;stroke-dashoffset:0"
       inkscape:connector-curvature="0"
       id="path28"
       d="m 389.91764,239.32736 c 0.2934,1.51887 0.35992,2.93643 0.19955,4.25271 -0.16943,1.48388 -0.55803,2.90643 -1.16576,4.26767 -0.60776,1.36124 -1.4082,2.58348 -2.40133,3.66674 -0.99314,1.08326 -2.14285,1.99982 -3.44915,2.74969 -1.30629,0.74987 -2.73886,1.27536 -4.29769,1.57647 -1.91855,0.3706 -3.7767,0.35638 -5.57443,-0.0426 -1.79773,-0.39905 -3.44772,-1.1065 -4.94998,-2.12235 -0.54632,-0.36943 -1.06233,-0.77351 -1.54802,-1.21224 l 0.50215,-0.8507 0.97584,-1.44395 0.17617,-1.2437 0.92388,-1.18193 0.18632,-1.12675 0.37802,-1.76317 -0.62927,-1.25316 0.13233,-0.30478 3.03452,-0.58617 c 0.20075,1.03922 0.73227,1.85906 1.59456,2.45954 0.8623,0.60047 1.81305,0.80033 2.85227,0.59959 0.83937,-0.16214 1.53056,-0.55479 2.07357,-1.17794 0.54301,-0.62316 0.86107,-1.33762 0.9542,-2.14337 0.0659,-0.30295 0.0564,-0.67426 -0.0286,-1.11394 -0.20074,-1.03921 -0.74578,-1.92901 -1.63509,-2.66937 -0.88932,-0.74037 -1.85359,-1.01018 -2.89281,-0.80944 l -2.87784,0.5559 -1.66769,-8.63351 2.87784,-0.5559 c 1.03922,-0.20074 1.83363,-0.81027 2.38323,-1.82858 0.5496,-1.01832 0.72403,-2.04709 0.52329,-3.0863 -0.0772,-0.3997 -0.20666,-0.74785 -0.38833,-1.04445 -0.38652,-0.7131 -0.94778,-1.2577 -1.68382,-1.63379 -0.73603,-0.3761 -1.52372,-0.48307 -2.3631,-0.32093 -1.03921,0.20074 -1.84907,0.73033 -2.42955,1.58876 -0.58049,0.85843 -0.77036,1.80726 -0.56962,2.84648 l -10.07243,1.94565 c -0.36288,-1.87859 -0.34672,-3.72675 0.0485,-5.54446 0.39519,-1.81772 1.1007,-3.4777 2.11655,-4.97996 1.01585,-1.50226 2.28367,-2.77333 3.80344,-3.8132 1.51979,-1.03987 3.23894,-1.74511 5.15751,-2.11571 1.55883,-0.30111 3.08405,-0.34696 4.57564,-0.13755 1.49161,0.20941 2.89997,0.63184 4.22509,1.2673 1.32513,0.63544 2.52319,1.47165 3.59418,2.50861 0.64422,0.62374 1.2231,1.29761 1.73666,2.0216 l -0.10391,0.0687 0.0828,1.26349 -0.77843,1.04268 -1.19217,1.5081 -0.40052,1.12225 -0.18177,1.95765 -0.23343,1.0785 -1.35813,0.95199 -0.01,0.0668 -0.18421,0.13719 -0.5676,1.16601 0.29364,1.38682 -1.18219,0.52353 -0.73467,1.20976 -0.39524,1.06702 0.59138,-0.61963 0.83276,-0.98606 1.28027,-0.29983 -0.19557,-1.16312 0.1599,-0.22635 0.0124,0.44767 1.31188,0.85147 -0.42653,1.8833 0.38796,1.43419 -0.20761,1.61609 0.47325,1.05752 0.30265,1.81086 0.47326,1.05752 -0.13439,1.11791 0.27849,1.56778 0.42419,1.79878 0.48533,1.17906 10e-4,-1.22736 -0.18112,-1.82292 -0.0354,-1.59194 0.37744,-1.14205 -0.23019,-1.08168 -0.0596,-1.835 -0.47326,-1.05753 0.20762,-1.61609 -0.38796,-1.43418 0.42653,-1.8833 -1.31188,-0.85148 -0.0458,-1.6512 0.48799,-0.2757 0.33153,-0.85481 0.27984,-1.73395 0.49859,-0.89856 1.29024,-1.28439 0.87651,-0.81898 0.0153,-1.0398 0.37614,-0.17773 c 0.33187,0.82286 0.59005,1.71183 0.77454,2.66692 0.31655,1.63877 0.344,3.22973 0.0824,4.77288 -0.26164,1.54315 -0.76015,2.98694 -1.49552,4.33137 1.18317,0.97383 2.1816,2.1181 2.9953,3.4328 0.81368,1.3147 1.37879,2.79144 1.69534,4.43021 z" />
    <path
       style="font-family:none;mix-blend-mode:normal;fill:#d0d0ce;fill-opacity:1;fill-rule:nonzero;stroke:none;stroke-width:0.12212653;stroke-linecap:butt;stroke-linejoin:miter;stroke-miterlimit:10;stroke-dasharray:none;stroke-dashoffset:0"
       inkscape:connector-curvature="0"
       id="path34"
       d="m 352.22782,243.96804 c 1.46722,-0.96248 2.3545,-2.19992 2.66187,-3.71233 0.30736,-1.51239 0.2728,-3.02046 -0.10371,-4.52418 l 10.04166,-1.42319 c 0.15197,0.80503 0.30565,1.86448 0.46105,3.17836 0.15539,1.31388 0.0797,2.77791 -0.22692,4.39208 -0.30669,1.61417 -0.9731,3.31014 -1.99924,5.08792 -1.02613,1.77778 -2.64088,3.50455 -4.84421,5.18034 l -0.0486,0.037 c -2.46255,1.87294 -4.82391,3.05516 -7.08406,3.54666 -2.26016,0.49151 -4.41581,0.48159 -6.46695,-0.0298 -2.05114,-0.51136 -3.97895,-1.44896 -5.78342,-2.81281 -0.71327,-0.5391 -1.40484,-1.1127 -2.07469,-1.7208 l 0.46023,-1.07335 0.85433,-1.16686 -0.34638,-1.34449 0.4078,-1.65324 -1.05636,-1.57896 0.75368,-1.97068 -0.40102,-1.59293 -0.79857,-1.35536 -0.67827,-1.60565 -0.32095,-1.05811 -0.55486,-1.62769 0.19807,-1.53456 -0.63258,-1.49664 -0.91253,-0.81115 -0.33394,-1.21927 -1.41031,-1.05729 -0.39392,-0.90425 -0.0827,-1.26766 -1.30257,-1.21387 -0.68934,-0.87682 -0.81086,-1.11098 -1.50014,-0.95111 -0.62826,-1.44098 -0.45154,-0.32658 c 1.05496,-1.82306 2.57137,-3.48674 4.54924,-4.99103 l 0.0486,-0.037 c 1.97652,-1.50328 3.8871,-2.52166 5.73174,-3.05516 1.84464,-0.53349 3.60998,-0.75095 5.29603,-0.65238 1.30831,0.0765 2.5515,0.3103 3.72957,0.70143 l 0.0544,0.88855 -0.0245,1.14465 0.0959,1.26845 -0.27707,1.7519 -0.26706,1.01921 0.70317,1.521 0.45611,1.07484 -0.006,-0.88568 -0.47798,-1.42642 0.49226,-0.92463 0.50227,-1.65733 0.12926,-1.17386 0.2497,-1.05008 0.0805,-0.86067 c 1.19281,0.54851 2.2891,1.17042 3.2889,1.86573 l -4.05322,9.29688 c -0.638,-0.43537 -1.36123,-0.8315 -2.16969,-1.18837 -0.80845,-0.35688 -1.64052,-0.59351 -2.4962,-0.70988 -0.85569,-0.11638 -1.70225,-0.0863 -2.53968,0.0904 -0.83744,0.17661 -1.58406,0.53988 -2.23985,1.0898 -1.55393,1.38645 -2.37528,3.04682 -2.46404,4.98114 -0.0888,1.93431 0.54456,3.79252 1.89997,5.57463 l 5.36004,7.04744 c 1.35541,1.78211 2.99741,2.89873 4.92602,3.34984 1.92861,0.45112 3.76844,0.11307 5.51953,-1.01416 z" />
    <path
       style="font-family:none;mix-blend-mode:normal;fill:#d0d0ce;fill-opacity:1;fill-rule:nonzero;stroke:none;stroke-width:0.12212653;stroke-linecap:butt;stroke-linejoin:miter;stroke-miterlimit:10;stroke-dasharray:none;stroke-dashoffset:0"
       inkscape:connector-curvature="0"
       id="path36"
       d="m 345.48478,212.89469 1.71127,0.68993" />
    <path
       style="font-family:none;mix-blend-mode:normal;fill:#d0d0ce;fill-opacity:1;fill-rule:nonzero;stroke:none;stroke-width:0.12212653;stroke-linecap:butt;stroke-linejoin:miter;stroke-miterlimit:10;stroke-dasharray:none;stroke-dashoffset:0"
       inkscape:connector-curvature="0"
       id="path40"
       d="m 275.58105,252.55069 c -1.17837,1.00223 -2.38007,1.75711 -3.60511,2.26462 -1.37545,0.58202 -2.80526,0.94304 -4.28941,1.08308 -1.48415,0.14004 -2.94201,0.0439 -4.37358,-0.28827 -1.43157,-0.33223 -2.79496,-0.88276 -4.09019,-1.65159 -1.29523,-0.76884 -2.45714,-1.75794 -3.48576,-2.96731 -1.26597,-1.48846 -2.16716,-3.1135 -2.70353,-4.87514 -0.53638,-1.76164 -0.73156,-3.54626 -0.58557,-5.35386 0.0936,-1.15946 0.32753,-2.28976 0.70164,-3.39092 l 1.91671,0.4774 1.48632,-0.46746 1.19157,-0.18893 -1.01882,-0.26801 -1.39995,0.23898 -1.83076,-0.70493 c 0.12689,-0.30442 0.26481,-0.60655 0.41378,-0.90639 0.82765,-1.6659 1.98571,-3.13185 3.47416,-4.39783 l 6.64641,7.8144 c -0.80625,0.68574 -1.25884,1.55166 -1.35777,2.59776 -0.0989,1.04611 0.19447,1.97228 0.88021,2.77853 0.55387,0.65119 1.2356,1.06003 2.04522,1.2265 0.80961,0.16646 1.58813,0.0922 2.33556,-0.22289 0.29619,-0.0916 0.61484,-0.28245 0.95594,-0.57257 0.80625,-0.68574 1.3131,-1.59782 1.52057,-2.73623 0.20747,-1.13841 -0.0317,-2.11074 -0.71741,-2.91699 l -1.89897,-2.23269 6.69805,-5.69691 1.89897,2.23268 c 0.68574,0.80625 1.60709,1.19833 2.76404,1.17626 1.15695,-0.0221 2.13855,-0.37598 2.9448,-1.06171 0.31009,-0.26375 0.54962,-0.54764 0.71857,-0.85166 0.43093,-0.68718 0.62921,-1.44368 0.59484,-2.26951 -0.0344,-0.82584 -0.3285,-1.56436 -0.88237,-2.21556 -0.68574,-0.80624 -1.54506,-1.25108 -2.57798,-1.33451 -1.03292,-0.0834 -1.95249,0.21773 -2.75874,0.90347 l -1.57221,-1.84849 0.11156,-0.11278 0.39642,-1.02532 1.56534,-0.14063 0.28245,-1.64261 1.12537,-0.4269 0.95165,-0.59977 0.952,-0.76581 1.03895,-0.66598 1.05103,-0.98922 0.44347,-2.0398 0.5697,-0.17068 c 0.62961,0.20874 1.24872,0.46264 1.85734,0.76172 1.65272,0.81215 3.11206,1.96245 4.37805,3.45091 1.02861,1.20937 1.81841,2.51496 2.36941,3.91679 0.551,1.40183 0.87557,2.83591 0.97373,4.30224 0.0982,1.46633 -0.041,2.92072 -0.41738,4.36315 -0.37642,1.44244 -0.96223,2.79577 -1.75745,4.05999 -0.69755,1.12771 -1.62,2.17949 -2.76735,3.15535 -1.27138,1.08136 -2.64328,1.88747 -4.11568,2.41832 -1.4724,0.53086 -2.97473,0.80661 -4.507,0.82725 -0.26628,1.50909 -0.77182,2.9411 -1.5166,4.29602 -0.74478,1.35493 -1.75286,2.57308 -3.02425,3.65444 z" />
    <path
       style="font-family:none;mix-blend-mode:normal;fill:#d0d0ce;fill-opacity:1;fill-rule:nonzero;stroke:none;stroke-width:0.12212653;stroke-linecap:butt;stroke-linejoin:miter;stroke-miterlimit:10;stroke-dasharray:none;stroke-dashoffset:0"
       inkscape:connector-curvature="0"
       id="path46"
       d="m 320.30792,242.8961 c -0.1473,1.94846 -0.57892,3.74275 -1.29486,5.38287 -0.71594,1.64012 -1.6804,3.05732 -2.89337,4.25161 -1.21297,1.1943 -2.67923,2.09388 -4.39877,2.69874 -1.71956,0.60486 -3.67534,0.82444 -5.86736,0.65874 -2.19203,-0.1657 -4.13624,-0.63927 -5.83265,-1.42071 -1.6964,-0.78144 -3.09962,-1.79587 -4.20966,-3.0433 -1.11004,-1.24742 -1.92996,-2.68724 -2.45978,-4.31947 -0.52981,-1.63223 -0.72414,-3.38198 -0.58298,-5.24926 l 1.40847,-18.6322 c 0.12301,-1.62724 0.52625,-3.20669 1.20973,-4.73834 l 0.87029,0.17978 1.42993,-0.35264 1.82996,0.66381 2.0408,-1.14596 -1.80335,0.71905 -1.71122,-0.87727 -1.31121,0.13918 -0.83145,-0.36693 c 0.7302,-1.34118 1.65651,-2.52645 2.77893,-3.55584 1.31598,-1.20693 2.87664,-2.14019 4.68198,-2.79981 0.33541,-0.12255 0.6768,-0.2309 1.02416,-0.32507 l -0.15448,1.02934 0.68562,1.81859 -0.11366,1.73253 0.30662,1.57583 -0.50362,1.47124 0.0872,1.55029 0.31562,1.12472 0.35911,0.269 c -0.5123,0.61238 -0.80022,1.3388 -0.86375,2.17927 l -0.0609,-0.005 -0.48791,6.45429 c 0.10266,-0.27801 0.33803,-0.5562 0.70608,-0.83457 0.36806,-0.27836 0.79317,-0.50138 1.27533,-0.66906 0.48217,-0.16768 0.96202,-0.3049 1.43958,-0.41169 0.47756,-0.10679 0.87871,-0.14791 1.20346,-0.12336 4.14049,0.313 7.21162,1.81073 9.21339,4.4932 2.00177,2.68247 2.84156,6.15484 2.51936,10.41711 z" />
    <path
       style="font-family:none;mix-blend-mode:normal;fill:#d0d0ce;fill-opacity:1;fill-rule:nonzero;stroke:none;stroke-width:0.12212653;stroke-linecap:butt;stroke-linejoin:miter;stroke-miterlimit:10;stroke-dasharray:none;stroke-dashoffset:0"
       inkscape:connector-curvature="0"
       id="path104"
       d="m 295.38669,218.48478 0.51375,-1.04098" />
    <path
       style="font-family:none;mix-blend-mode:normal;fill:#fe5000;fill-opacity:1;fill-rule:nonzero;stroke:none;stroke-width:0.12212653;stroke-linecap:butt;stroke-linejoin:miter;stroke-miterlimit:10;stroke-dasharray:none;stroke-dashoffset:0"
       inkscape:connector-curvature="0"
       id="path110"
       d="m 322.27974,265.80295 -0.0716,-2.05048 -5.56557,0.19436 0.3171,9.08068 5.56558,-0.19436 -0.0716,-2.05047 -3.5151,0.12275 -0.0512,-1.46463 2.58751,-0.0904 -0.0716,-2.05047 -2.58751,0.0904 -0.0512,-1.46462 z m -6.03515,9.14364 -0.44582,-12.76665 74.19548,-2.59096 0.44583,12.76665 z m 14.16544,-11.48053 -2.29457,0.0801 -1.08816,2.43314 -1.25525,-2.35131 -2.29458,0.0801 2.5996,4.4551 -2.28249,4.62558 2.29458,-0.0801 1.08816,-2.43314 1.25524,2.35131 2.29458,-0.0801 -2.5996,-4.4551 z m 5.44354,-0.1901 0.12275,3.51511 -2.42885,0.0848 -0.12275,-3.5151 -2.05047,0.0716 0.31711,9.08068 2.05047,-0.0716 -0.12275,-3.5151 2.42884,-0.0848 0.12275,3.5151 2.05048,-0.0716 -0.3171,-9.08068 z m 8.69178,6.39309 0.90128,2.36367 2.3312,-0.0814 -2.97785,-8.98777 -2.73396,0.0955 -2.34363,9.17359 2.33118,-0.0814 0.72202,-2.42035 z m 11.08023,-7.09576 -2.1115,0.0737 0.18541,5.30927 c 0.008,0.2197 -0.007,0.42797 -0.0454,0.62481 -0.038,0.19685 -0.10114,0.37013 -0.18959,0.51986 -0.0885,0.14974 -0.20443,0.26988 -0.3479,0.36043 -0.14349,0.0906 -0.31693,0.13938 -0.52036,0.14648 -0.20341,0.007 -0.37985,-0.0295 -0.5293,-0.10982 -0.14944,-0.0803 -0.27554,-0.19202 -0.3783,-0.33507 -0.10275,-0.14305 -0.17992,-0.31144 -0.2315,-0.50516 -0.0516,-0.19372 -0.0812,-0.40043 -0.0889,-0.62012 l -0.18541,-5.30927 -2.11151,0.0737 0.19095,5.46793 c 0.0168,0.48007 0.0918,0.93774 0.22514,1.37301 0.13333,0.43527 0.33608,0.8172 0.60824,1.14578 0.27217,0.32858 0.61916,0.58328 1.04096,0.76407 0.4218,0.18079 0.92954,0.25675 1.52325,0.22786 l 0.0122,-3.6e-4 c 0.53732,-0.0106 1.00635,-0.1105 1.40707,-0.29965 0.40073,-0.18915 0.73178,-0.44918 0.99314,-0.7801 0.26135,-0.33093 0.45543,-0.72264 0.58219,-1.17513 0.12676,-0.4525 0.18078,-0.94726 0.16202,-1.4843 z m 7.57316,6.55435 c -0.0162,-0.4638 -0.11156,-0.86169 -0.28609,-1.19369 -0.17452,-0.33199 -0.40073,-0.62756 -0.67862,-0.8867 -0.2779,-0.25913 -0.59344,-0.48844 -0.94664,-0.68792 -0.3532,-0.19949 -0.72064,-0.39847 -1.10233,-0.59695 -0.27533,-0.18591 -0.47812,-0.33565 -0.60835,-0.44923 -0.13025,-0.11358 -0.19807,-0.24767 -0.20347,-0.40227 -0.007,-0.20342 0.0547,-0.35833 0.1854,-0.46473 0.13072,-0.1064 0.27743,-0.16244 0.44017,-0.16812 0.1546,-0.005 0.29202,0.0224 0.41227,0.0834 0.12027,0.061 0.22474,0.13676 0.31346,0.22735 0.0887,0.0906 0.15937,0.18996 0.21203,0.29809 0.0526,0.10815 0.0927,0.20655 0.1203,0.2952 l 1.76944,-0.77056 c -0.0492,-0.24268 -0.14324,-0.48584 -0.2821,-0.72946 -0.13885,-0.24363 -0.32764,-0.45904 -0.56637,-0.64622 -0.23871,-0.18719 -0.52911,-0.33795 -0.87118,-0.45228 -0.34209,-0.11432 -0.73689,-0.16367 -1.18442,-0.14804 -0.374,0.0212 -0.7341,0.0908 -1.0803,0.2088 -0.34619,0.118 -0.64998,0.28339 -0.91139,0.49619 -0.26141,0.2128 -0.46823,0.47257 -0.62045,0.77931 -0.15223,0.30675 -0.22138,0.65948 -0.20746,1.05817 0.015,0.43126 0.10283,0.78665 0.2633,1.06618 0.16048,0.27953 0.37692,0.5286 0.64933,0.74719 0.2724,0.2186 0.5892,0.42546 0.9504,0.62059 0.36119,0.19512 0.75411,0.42377 1.17875,0.68593 0.19169,0.12365 0.34045,0.2427 0.44628,0.35713 0.10583,0.11443 0.16524,0.24067 0.17819,0.37871 0.0161,0.22754 -0.0412,0.39656 -0.17169,0.50702 -0.13057,0.11047 -0.26473,0.17625 -0.40249,0.19736 -0.16188,0.0301 -0.31566,5.7e-4 -0.46132,-0.0878 -0.14566,-0.0886 -0.26937,-0.19019 -0.37114,-0.30477 -0.10176,-0.11457 -0.18093,-0.22382 -0.23751,-0.32775 -0.0566,-0.10393 -0.0769,-0.16025 -0.0609,-0.16896 l -1.92428,0.88595 c 0.0927,0.32263 0.23512,0.6089 0.42714,0.85881 0.19203,0.24992 0.42136,0.45984 0.68799,0.62976 0.26662,0.16991 0.56235,0.29808 0.88716,0.3845 0.32482,0.0864 0.6703,0.12323 1.03645,0.11045 0.47195,-0.0165 0.89314,-0.0862 1.26359,-0.2091 0.37046,-0.12292 0.68457,-0.2846 0.94235,-0.48505 0.25777,-0.20045 0.45743,-0.43146 0.59901,-0.69303 0.14158,-0.26156 0.2154,-0.53909 0.22144,-0.83258 z m 6.81722,-7.04465 -6.17584,0.21566 0.0716,2.05048 2.06268,-0.072 0.2455,7.0302 2.05048,-0.0716 -0.2455,-7.03021 2.06268,-0.072 z m 3.57588,8.96687 -0.3171,-9.08067 -2.05048,0.0716 0.31712,9.08068 z m 8.026,-6.02371 c -0.0226,-0.41469 -0.11399,-0.81477 -0.2741,-1.20022 -0.16009,-0.38545 -0.39201,-0.72767 -0.69573,-1.02663 -0.34582,-0.33824 -0.7356,-0.59347 -1.16932,-0.7657 -0.43371,-0.17222 -0.89061,-0.24996 -1.37068,-0.23319 l -0.0122,3.6e-4 c -0.48006,0.0168 -0.92839,0.12611 -1.34496,0.32803 -0.41659,0.20192 -0.78964,0.48379 -1.11917,0.84561 -0.27399,0.31914 -0.48126,0.6828 -0.62179,1.09097 -0.14054,0.40817 -0.20398,0.80754 -0.19034,1.19811 l 0.0742,2.12371 c 0.0251,0.48792 0.11243,0.94516 0.26175,1.37172 0.14931,0.42657 0.38861,0.80518 0.71787,1.13585 0.35397,0.33795 0.74781,0.59304 1.18153,0.76527 0.43371,0.17222 0.88654,0.2501 1.35847,0.23362 l 0.0122,-3.7e-4 c 0.48007,-0.0168 0.93043,-0.12618 1.35107,-0.32824 0.42066,-0.20207 0.79153,-0.48794 1.11264,-0.8576 0.31354,-0.35311 0.52955,-0.75781 0.64804,-1.21409 0.11849,-0.45628 0.17006,-0.90412 0.15471,-1.34351 z m 5.58305,-3.54327 0.15557,4.4549 -2.5844,-4.37009 -2.0871,0.0729 0.31711,9.08068 2.17253,-0.0759 -0.156,-4.4671 2.59704,4.38186 2.07489,-0.0725 -0.3171,-9.08068 z" />
    <path
       style="font-family:none;mix-blend-mode:normal;fill:#fe5000;fill-opacity:1;fill-rule:nonzero;stroke:none;stroke-width:0.12212653;stroke-linecap:butt;stroke-linejoin:miter;stroke-miterlimit:10;stroke-dasharray:none;stroke-dashoffset:0"
       inkscape:connector-curvature="0"
       id="path108"
       d="m 337.26544,258.33074 -1.65174,-3.7187 c 0.10569,0.006 0.25492,-0.0417 0.44768,-0.14164 0.19276,-0.1 0.38625,-0.25288 0.58047,-0.45875 0.19423,-0.20587 0.36674,-0.46385 0.51752,-0.7739 0.15077,-0.31007 0.23681,-0.66836 0.25811,-1.07489 0.0205,-0.39027 -0.005,-0.76459 -0.0757,-1.12296 -0.0709,-0.35838 -0.20309,-0.67511 -0.39657,-0.95022 -0.19348,-0.27511 -0.45885,-0.501 -0.79609,-0.67765 -0.33724,-0.17666 -0.76604,-0.27862 -1.2864,-0.3059 l -2.76847,-0.14508 -0.47554,9.07376 2.04892,0.10738 0.15467,-2.95142 0.0244,0.001 1.06491,3.01533 z m -6.52631,1.55353 0.66856,-12.75693 59.1258,3.09865 -0.66855,12.75693 z m 13.90713,-8.21086 0.10738,-2.04892 -5.56135,-0.29146 -0.47553,9.07377 5.56134,0.29145 0.10738,-2.04891 -3.51243,-0.18408 0.0767,-1.46351 2.58553,0.13551 0.10739,-2.04892 -2.58555,-0.1355 0.0767,-1.46351 z m 7.0933,5.12899 c 0.0243,-0.46345 -0.036,-0.86815 -0.18095,-1.21408 -0.14493,-0.34595 -0.34452,-0.66011 -0.59878,-0.94248 -0.25424,-0.28237 -0.5486,-0.53831 -0.88307,-0.76781 -0.33448,-0.22951 -0.68317,-0.45976 -1.0461,-0.69076 -0.25808,-0.20919 -0.44705,-0.37604 -0.5669,-0.50054 -0.11984,-0.1245 -0.17571,-0.26399 -0.16762,-0.41847 0.0106,-0.20326 0.0857,-0.3522 0.2252,-0.4468 0.13949,-0.0946 0.29052,-0.13764 0.45314,-0.12912 0.15448,0.008 0.28897,0.0477 0.40345,0.11898 0.11448,0.0712 0.21197,0.15582 0.29243,0.2538 0.0805,0.098 0.14223,0.20312 0.18526,0.31544 0.043,0.11233 0.0744,0.21384 0.0941,0.30456 l 1.82988,-0.61341 c -0.0279,-0.24605 -0.10035,-0.49647 -0.21745,-0.75127 -0.11709,-0.2548 -0.28639,-0.48585 -0.50788,-0.69313 -0.22151,-0.20727 -0.49766,-0.38277 -0.82848,-0.52648 -0.33081,-0.1437 -0.71981,-0.22727 -1.16699,-0.25071 -0.37444,-0.0115 -0.73923,0.0265 -1.09439,0.11386 -0.35516,0.0874 -0.6722,0.22566 -0.95118,0.41487 -0.27896,0.1892 -0.50763,0.42996 -0.68601,0.72227 -0.17837,0.29231 -0.27801,0.63766 -0.29888,1.03606 -0.0226,0.43092 0.0339,0.79261 0.16938,1.08506 0.1355,0.29246 0.32941,0.55944 0.58173,0.80095 0.25231,0.2415 0.54987,0.47519 0.89269,0.70105 0.34281,0.22587 0.71431,0.48789 1.11448,0.78606 0.18019,0.13989 0.318,0.27145 0.41346,0.39466 0.0954,0.12323 0.14363,0.25416 0.14451,0.3928 -0.004,0.22809 -0.0755,0.39147 -0.21524,0.49013 -0.1397,0.0987 -0.27908,0.15251 -0.41814,0.16153 -0.1639,0.0159 -0.31454,-0.0267 -0.45192,-0.12763 -0.13739,-0.10096 -0.25178,-0.21294 -0.34317,-0.33595 -0.0914,-0.12301 -0.16074,-0.23875 -0.20804,-0.34721 -0.0473,-0.10847 -0.0626,-0.16635 -0.046,-0.17362 l -1.99416,0.71485 c 0.0643,0.32949 0.18115,0.62709 0.35067,0.89279 0.16951,0.2657 0.37967,0.4948 0.63048,0.68731 0.2508,0.19251 0.53423,0.34597 0.85029,0.46036 0.31603,0.1144 0.657,0.18119 1.02287,0.20036 0.47157,0.0247 0.89725,-0.008 1.27701,-0.0982 0.37976,-0.0902 0.70677,-0.22385 0.98103,-0.40107 0.27425,-0.17722 0.49331,-0.38995 0.65714,-0.63818 0.16384,-0.24824 0.26156,-0.51827 0.29316,-0.81013 z m 8.32776,-3.02449 c 0.0136,-0.41509 -0.0425,-0.8216 -0.16844,-1.21954 -0.12591,-0.39794 -0.32711,-0.75906 -0.60362,-1.08336 -0.31503,-0.36709 -0.68107,-0.65532 -1.09814,-0.8647 -0.41704,-0.20937 -0.86543,-0.32663 -1.34513,-0.35177 l -0.0122,-5.7e-4 c -0.4797,-0.0251 -0.93585,0.0447 -1.36844,0.20956 -0.4326,0.16485 -0.8288,0.41313 -1.18861,0.74485 -0.30076,0.29405 -0.53893,0.63826 -0.7145,1.03263 -0.17557,0.39436 -0.27359,0.78668 -0.29405,1.17696 l -0.11121,2.12209 c -0.0174,0.48826 0.0296,0.95137 0.14121,1.38932 0.11158,0.43795 0.31695,0.83598 0.61615,1.19408 0.32316,0.36751 0.69328,0.65596 1.11033,0.86533 0.41706,0.20938 0.86137,0.32643 1.33295,0.35114 l 0.0122,5.7e-4 c 0.4797,0.0251 0.93788,-0.0446 1.37453,-0.20924 0.43666,-0.16463 0.83105,-0.41709 1.18315,-0.75736 0.34312,-0.32444 0.59358,-0.70878 0.75139,-1.153 0.15781,-0.44421 0.2482,-0.88585 0.27121,-1.3249 z m 7.98115,-2.94481 -2.10989,-0.11058 -0.27804,5.30522 c -0.0115,0.21953 -0.0447,0.42569 -0.0997,0.61848 -0.0549,0.19279 -0.13301,0.35991 -0.23418,0.50136 -0.10118,0.14145 -0.22718,0.25103 -0.378,0.32873 -0.15082,0.0777 -0.32786,0.11123 -0.53113,0.10057 -0.20327,-0.0106 -0.37584,-0.0625 -0.51772,-0.15554 -0.14188,-0.093 -0.25777,-0.21529 -0.34766,-0.36676 -0.0899,-0.15146 -0.15208,-0.32593 -0.18659,-0.52341 -0.0345,-0.19748 -0.0459,-0.40598 -0.0345,-0.62551 l 0.27804,-5.30522 -2.1099,-0.11057 -0.28633,5.46377 c -0.0251,0.4797 0.01,0.94217 0.10461,1.38741 0.0949,0.44522 0.26357,0.84337 0.50607,1.19442 0.24249,0.35106 0.56595,0.63502 0.97039,0.85188 0.40443,0.21687 0.90364,0.33679 1.4976,0.35977 l 0.0122,5.7e-4 c 0.5362,0.0362 1.01214,-0.0223 1.42784,-0.17587 0.41569,-0.1535 0.76813,-0.38369 1.05734,-0.69058 0.28921,-0.30688 0.51667,-0.68019 0.6824,-1.11992 0.16572,-0.43972 0.26264,-0.9279 0.29077,-1.46452 z m 6.56087,9.45475 -1.65175,-3.7187 c 0.10569,0.006 0.25493,-0.0417 0.44768,-0.14163 0.19275,-0.1 0.38625,-0.25289 0.58048,-0.45876 0.19423,-0.20588 0.36674,-0.46384 0.51751,-0.77391 0.15077,-0.31006 0.23681,-0.66835 0.25812,-1.07489 0.0205,-0.39027 -0.005,-0.76459 -0.0757,-1.12295 -0.0709,-0.35837 -0.2031,-0.67511 -0.39658,-0.95022 -0.19348,-0.27511 -0.45885,-0.50099 -0.79608,-0.67765 -0.33724,-0.17666 -0.76604,-0.27862 -1.2864,-0.30589 l -2.76848,-0.14509 -0.47553,9.07376 2.04891,0.10737 0.15468,-2.95141 0.0244,0.001 1.06492,3.01532 z m 4.82528,-1.76497 c -0.41295,-0.0542 -0.73747,-0.24043 -0.97354,-0.55855 -0.23606,-0.3181 -0.34238,-0.70074 -0.31895,-1.14793 l 0.0927,-1.76841 c 0.0234,-0.44718 0.16692,-0.81266 0.43045,-1.09643 0.26354,-0.28377 0.60348,-0.43105 1.01985,-0.44184 0.17117,0.001 0.33209,0.0418 0.48273,0.12313 0.15064,0.0813 0.28375,0.18609 0.39931,0.31444 0.11557,0.12835 0.21199,0.272 0.28927,0.43095 0.0773,0.15896 0.13647,0.31289 0.17759,0.4618 l 1.82017,-0.89519 c -0.075,-0.28113 -0.18444,-0.56407 -0.32851,-0.84882 -0.14406,-0.28475 -0.33839,-0.5436 -0.58301,-0.77655 -0.2446,-0.23295 -0.54215,-0.4279 -0.89266,-0.58488 -0.3505,-0.15696 -0.77374,-0.24845 -1.26971,-0.27444 l -0.0122,-5.7e-4 c -0.56101,-0.0294 -1.05835,0.0485 -1.49201,0.23366 -0.43366,0.18517 -0.79968,0.44115 -1.09808,0.76793 -0.29841,0.32679 -0.53015,0.70395 -0.69523,1.13148 -0.16508,0.42753 -0.2634,0.86468 -0.29497,1.31143 l -0.0984,1.87817 c 0,0.47285 0.0491,0.92997 0.14826,1.37135 0.0992,0.44138 0.27225,0.83364 0.51922,1.17678 0.24699,0.34313 0.57474,0.62324 0.98324,0.84032 0.4085,0.21708 0.92172,0.34181 1.53964,0.3742 l 0.0122,5.7e-4 c 0.5529,0.029 1.02252,-0.0259 1.40891,-0.16464 0.38638,-0.13873 0.70728,-0.31147 0.96271,-0.51821 0.25541,-0.20675 0.45618,-0.42043 0.60227,-0.64106 0.14609,-0.22062 0.25954,-0.4022 0.34038,-0.54471 l -1.71663,-1.08055 c -0.13687,0.27818 -0.32649,0.51283 -0.56886,0.70395 -0.24239,0.19112 -0.53774,0.26533 -0.88608,0.22262 z m 10.1048,-4.49672 0.10739,-2.04892 -5.56134,-0.29145 -0.47554,9.07376 5.56134,0.29146 0.10737,-2.04892 -3.51242,-0.18408 0.0767,-1.4635 2.58553,0.13549 0.10739,-2.04891 -2.58554,-0.1355 0.0767,-1.46351 z" />
  </g>
  <g
     inkscape:groupmode="layer"
     id="layer2"
     inkscape:label="Text">
    <text
       xml:space="preserve"
       style="font-style:normal;font-weight:normal;font-size:148.98669434px;line-height:1.25;font-family:sans-serif;letter-spacing:0px;word-spacing:0px;fill:#000000;fill-opacity:1;stroke:none;stroke-width:3.72466707"
       x="30.047623"
       y="141.2814"
       id="text4682"><tspan
         sodipodi:role="line"
         id="tspan4680"
         x="30.047623"
         y="141.2814"
         style="font-style:normal;font-variant:normal;font-weight:normal;font-stretch:normal;font-family:'Blackout Midnight';-inkscape-font-specification:'Blackout Midnight';stroke-width:3.72466707">FFOH</tspan><tspan
         sodipodi:role="line"
         x="30.047623"
         y="327.51477"
         style="font-style:normal;font-variant:normal;font-weight:normal;font-stretch:normal;font-family:'Blackout Midnight';-inkscape-font-specification:'Blackout Midnight';stroke-width:3.72466707"
         id="tspan4730" /></text>
    <text
       id="text885"
       y="141.84129"
       x="242.40538"
       style="font-style:normal;font-weight:normal;font-size:28.96261406px;line-height:1.25;font-family:sans-serif;letter-spacing:0px;word-spacing:0px;fill:#00bb31;fill-opacity:1;stroke:none;stroke-width:0.72406536"
       xml:space="preserve"
       transform="rotate(4.8671033)"><tspan
         style="font-style:normal;font-variant:normal;font-weight:normal;font-stretch:normal;font-family:'Blackout 2AM';-inkscape-font-specification:'Blackout 2AM';fill:#00bb31;stroke-width:0.72406536"
         y="141.84129"
         x="242.40538"
         id="tspan883"
         sodipodi:role="line">chaos</tspan></text>
    <text
       transform="rotate(-9.478063)"
       xml:space="preserve"
       style="font-style:normal;font-weight:normal;font-size:28.96261406px;line-height:1.25;font-family:sans-serif;letter-spacing:0px;word-spacing:0px;fill:#00bb31;fill-opacity:1;stroke:none;stroke-width:0.72406536"
       x="280.32852"
       y="250.04605"
       id="text852"><tspan
         sodipodi:role="line"
         id="tspan850"
         x="280.32852"
         y="250.04605"
         style="font-style:normal;font-variant:normal;font-weight:normal;font-stretch:normal;font-family:'Blackout 2AM';-inkscape-font-specification:'Blackout 2AM';fill:#00bb31;stroke-width:0.72406536">west</tspan></text>
    <g
       id="g1114"
       transform="matrix(0.22708728,0,0,0.22708728,32.786019,150.34987)">
      <text
         transform="translate(0,364.6)"
         id="text4606">
        <textPath
           id="textPath4608"
           startOffset="83.292997%"
           xlink:href="#SVGID_x5F_1_x5F_"></textPath>
      </text>
      <path
         d="m 244.03997,-6.0186867 73.12367,42.1659997 -6.208,2.8927 -8.1806,-1.07926 -8.4023,-3.07586 -11.82028,2.31905 -14.19078,8.56625 -14.6698,-5.53255 -8.6804,3.86191 -12.71571,4.18362 -13.3395,-2.88852 -10.07285,-0.23293 -9.19602,-2.37307 -11.87157,2.71018 -8.09739,-1.60235 -14.72842,10.53476 -11.17207,-0.79717 -8.90356,-2.39322 z"
         id="polygon4279 1 1 1"
         inkscape:connector-curvature="0"
         style="font-family:none;mix-blend-mode:normal;fill:#505050;fill-rule:nonzero;stroke:none;stroke-width:1;stroke-linecap:butt;stroke-linejoin:miter;stroke-miterlimit:10;stroke-dasharray:none;stroke-dashoffset:0" />
      <path
         d="m 472.54344,138.60987 0.081,250 -216.54382,125.06984 -216.62446,-124.93015 -0.0806,-250 117.41511,-67.815777 8.90342,2.39371 11.17202,0.79779 14.729,-10.53394 8.09731,1.60279 11.87172,-2.70952 9.19589,2.37358 10.07283,0.23349 13.33934,2.88926 12.71594,-4.18292 8.68061,-3.86143 14.66949,5.53336 14.1913,-8.56546 11.8203,-2.3184 8.4022,3.07632 8.1806,1.07971 6.2081,-2.89235 z"
         id="path3"
         inkscape:connector-curvature="0"
         style="font-family:none;mix-blend-mode:normal;fill:#505050;fill-rule:nonzero;stroke:none;stroke-width:1;stroke-linecap:butt;stroke-linejoin:miter;stroke-miterlimit:10;stroke-dasharray:none;stroke-dashoffset:0" />
      <g
         id="g13"
         style="font-family:none;mix-blend-mode:normal;fill:#00bb31;fill-rule:nonzero;stroke:none;stroke-width:1;stroke-linecap:butt;stroke-linejoin:miter;stroke-miterlimit:10;stroke-dasharray:none;stroke-dashoffset:0"
         text-anchor="none"
         font-size="none"
         font-weight="none"
         stroke-miterlimit="10"
         transform="matrix(-1,0,0,1,1386.5188,-234.22883)">
        <path
           style="fill:#00bb31"
           id="polygon4565 1 1 1-8"
           d="m 1013.8577,542.2934 -16.84893,6.48891 -6.81246,-7.10163 -8.47402,-12.15169 -13.3343,-6.5661 -6.89332,-6.50183 -6.87824,-7.99763 -3.91909,-8.59913 -10.87741,-11.10041 -3.58217,-12.20619 4.75742,-15.34784 -10.36399,-9.06705 -2.02841,-6.39486 -0.0444,-8.94469 0.13403,-2.15183 -0.14906,-0.87599 -0.1352,-27.24321 4.27481,-6.71303 -0.59114,-11.09827 -3.81746,-9.1469 -0.0319,-6.42931 7.24385,-6.32283 -0.2269,-14.4839 4.11274,-11.5581 1.53412,-13.60631 0.52641,-11.2809 7.61157,-8.05642 9.38638,-8.91889 8.14022,-5.28709 6.6366,-9.31289 2.02592,-3.08347 15.80166,-8.86231 6.45643,1.20483 11.13144,-5.91531 11.9491,-4.79468 0.2738,279.26038 z"
           inkscape:connector-curvature="0" />
        <path
           style="fill:#00bb31"
           id="path3-5"
           d="m 927.809,297.6194 47.31536,-26.53665 -2.02592,3.08347 -6.6366,9.31289 -8.14022,5.28709 -9.38638,8.91889 -7.61157,8.05642 -0.52641,11.2809 -1.53412,13.60631 -4.11274,11.5581 0.2269,14.4839 -7.24385,6.32283 z"
           inkscape:connector-curvature="0" />
        <path
           style="fill:#00bb31"
           id="path5"
           d="m 1020.775,252.80037 0.01,7.05666 -11.9491,4.79468 -11.1314,5.91531 -6.45643,-1.20483 z"
           inkscape:connector-curvature="0" />
        <path
           style="fill:#00bb31"
           id="path7"
           d="m 1020.0363,759.26597 -91.17647,-52.94118 -1.27603,-257.12066 2.02841,6.39486 10.36399,9.06705 -4.75742,15.34784 3.58217,12.20619 10.87741,11.10041 3.91909,8.59913 6.87824,7.99763 6.89332,6.50183 13.3343,6.5661 8.47402,12.15169 6.81246,7.10163 16.84891,-6.48891 6.9881,-0.16656 z"
           inkscape:connector-curvature="0" />
        <path
           style="fill:#00bb31"
           id="path9"
           d="m 928.5076,380.00307 0.59114,11.09827 -4.27481,6.71303 -0.13379,-26.9582 z"
           inkscape:connector-curvature="0" />
        <path
           style="fill:#00bb31"
           id="path11"
           d="m 933.23635,426.253 -0.13403,2.15183 -0.015,-3.02783 z"
           inkscape:connector-curvature="0" />
      </g>
      <path
         d="m 50.005635,278.44106 12.329396,10.16415 9.217895,4.15341 10.319211,4.11448 10.727584,9.16241 13.049499,1.78733 9.72176,13.12694 0.65949,13.96109 5.96362,9.84022 9.22151,12.0215 -7.72128,9.62819 6.4404,11.22463 -2.49968,14.86509 -0.30331,15.93 -8.14974,6.0375 -9.43081,7.64869 -0.97601,13.34747 -16.470468,5.4787 -7.297023,11.75806 -14.494613,1.86678 -10.483036,2.19701 -9.680664,1.88153 -11.21776,-173.19158 z"
         id="polygon4565 1 1 1"
         inkscape:connector-curvature="0"
         style="font-family:none;mix-blend-mode:normal;fill:#00bb31;fill-rule:nonzero;stroke:none;stroke-width:1;stroke-linecap:butt;stroke-linejoin:miter;stroke-miterlimit:10;stroke-dasharray:none;stroke-dashoffset:0" />
      <path
         d="m 49.183041,79.08937 91.626119,-53.74069 10.1482,499.89724 -92.182079,-51.17011 -0.37169,-15.30522 9.74876,-1.48899 10.56322,-1.77183 14.55819,-1.27983 7.765969,-11.45374 16.67831,-4.80899 1.5143,-13.29716 9.732,-7.26154 8.38692,-5.70342 0.9465,-15.90474 3.098,-14.75201 -5.9817,-11.47558 8.1038,-9.30849 -8.7284,-12.38414 -5.56135,-10.07304 -0.0951,-13.97634 -9.18364,-13.50888 -12.96665,-2.31293 -10.348759,-9.58821 -10.14461,-4.52791 -9.04262,-4.52232 -11.90881,-10.65384 -11.34788,6.55061 z"
         id="path3-1"
         inkscape:connector-curvature="0"
         style="font-family:none;mix-blend-mode:normal;fill:#00bb31;fill-rule:nonzero;stroke:none;stroke-width:1;stroke-linecap:butt;stroke-linejoin:miter;stroke-miterlimit:10;stroke-dasharray:none;stroke-dashoffset:0" />
      <g
         transform="matrix(4.15247,0,0,4.15247,-49.83,-1560.915)"
         id="g4569"
         stroke-miterlimit="10"
         style="fill:#000000;stroke:none;stroke-width:0.354;stroke-miterlimit:10">
        <path
           id="path4571"
           d="m 39.3,404.4 h -5 v 3.6 h 5 v 1.4 h -5 c -0.4,0 -0.7,-0.1 -0.9,-0.4 -0.2,-0.3 -0.4,-0.5 -0.4,-0.9 v -3.8 c 0,-0.4 0.1,-0.7 0.4,-0.9 0.3,-0.2 0.6,-0.4 0.9,-0.4 h 5 z"
           class="st11"
           inkscape:connector-curvature="0"
           style="fill:#000000;stroke:none;stroke-width:0.35429999;stroke-miterlimit:10" />
        <path
           id="path4573"
           d="m 38,418.1 h 1.4 v 6.4 H 38 V 422 h -3.8 v 2.5 h -1.4 v -6.4 h 1.4 v 2.5 H 38 Z"
           class="st11"
           inkscape:connector-curvature="0"
           style="fill:#000000;stroke:none;stroke-width:0.35429999;stroke-miterlimit:10" />
        <path
           id="path4575"
           d="M 34.2,433.2 H 38 c 0.4,0 0.7,0.1 0.9,0.4 0.3,0.3 0.4,0.6 0.4,0.9 v 5.1 h -1.4 v -2.1 h -3.6 v 2.1 h -1.4 v -5.1 c 0,-0.4 0.1,-0.7 0.4,-0.9 0.3,-0.2 0.6,-0.4 0.9,-0.4 z m 0.1,2.9 h 3.6 v -1.5 h -3.6 z"
           class="st11"
           inkscape:connector-curvature="0"
           style="fill:#000000;stroke:none;stroke-width:0.35429999;stroke-miterlimit:10" />
        <path
           id="path4577"
           d="M 34.2,448.2 H 38 c 0.4,0 0.7,0.1 0.9,0.4 0.2,0.3 0.4,0.6 0.4,0.9 v 3.8 c 0,0.4 -0.1,0.7 -0.4,0.9 -0.3,0.2 -0.6,0.4 -0.9,0.4 h -3.8 c -0.4,0 -0.7,-0.1 -0.9,-0.4 -0.2,-0.3 -0.4,-0.6 -0.4,-0.9 v -3.8 c 0,-0.4 0.1,-0.7 0.4,-0.9 0.3,-0.2 0.6,-0.4 0.9,-0.4 z m 0.1,1.4 v 3.6 h 3.6 v -3.6 z"
           class="st11"
           inkscape:connector-curvature="0"
           style="fill:#000000;stroke:none;stroke-width:0.35429999;stroke-miterlimit:10" />
        <path
           id="path4579"
           d="m 39.3,464.6 v 0.6 h -1.4 v -0.5 h -3.6 v 1.1 H 38 c 0.4,0 0.7,0.1 0.9,0.4 0.3,0.3 0.4,0.6 0.4,0.9 v 1.3 c 0,0.4 -0.1,0.7 -0.4,0.9 -0.3,0.3 -0.6,0.4 -0.9,0.4 h -3.8 c -0.4,0 -0.7,-0.1 -0.9,-0.4 -0.3,-0.3 -0.4,-0.6 -0.4,-0.9 v -0.6 h 1.4 v 0.5 h 3.6 v -1.1 h -3.7 c -0.4,0 -0.7,-0.1 -0.9,-0.4 -0.3,-0.3 -0.4,-0.6 -0.4,-0.9 v -1.3 c 0,-0.4 0.1,-0.7 0.4,-0.9 0.3,-0.3 0.6,-0.4 0.9,-0.4 H 38 c 0.4,0 0.7,0.1 0.9,0.4 0.3,0.2 0.4,0.5 0.4,0.9 z"
           class="st11"
           inkscape:connector-curvature="0"
           style="fill:#000000;stroke:none;stroke-width:0.35429999;stroke-miterlimit:10" />
      </g>
      <g
         transform="matrix(4.15247,0,0,4.15247,-49.83,-1560.915)"
         id="g4587"
         stroke-miterlimit="10"
         style="fill:#000000;stroke:none;stroke-width:0.354;stroke-miterlimit:10">
        <path
           id="path4589"
           d="m 115.2,411.7 h 1.5 l -2.3,6.4 h -1.1 l -1.5,-4.1 -0.6,1.6 -0.9,2.5 h -1.1 l -2.3,-6.4 h 1.5 l 1.4,3.8 0.2,-0.6 1.2,-3.2 h 1.3 l 1.4,3.8 0.2,-0.6 z"
           class="st11"
           inkscape:connector-curvature="0"
           style="fill:#000000;stroke:none;stroke-width:0.35429999;stroke-miterlimit:10" />
        <path
           id="path4591"
           d="m 114.8,426.7 v 1.4 h -4.5 v 1.1 h 3.6 v 1.4 h -3.6 v 1.1 h 4.5 v 1.4 h -5.9 v -6.4 z"
           class="st11"
           inkscape:connector-curvature="0"
           style="fill:#000000;stroke:none;stroke-width:0.35429999;stroke-miterlimit:10" />
        <path
           id="path4593"
           d="m 115,443.1 v 0.6 h -1.4 v -0.5 H 110 v 1.1 h 3.7 c 0.4,0 0.7,0.1 0.9,0.4 0.3,0.3 0.4,0.6 0.4,0.9 v 1.3 c 0,0.4 -0.1,0.7 -0.4,0.9 -0.3,0.2 -0.6,0.4 -0.9,0.4 h -3.8 c -0.4,0 -0.7,-0.1 -0.9,-0.4 -0.2,-0.3 -0.4,-0.6 -0.4,-0.9 v -0.6 h 1.4 v 0.5 h 3.6 v -1.1 h -3.7 c -0.4,0 -0.7,-0.1 -0.9,-0.4 -0.2,-0.3 -0.4,-0.6 -0.4,-0.9 v -1.3 c 0,-0.4 0.1,-0.7 0.4,-0.9 0.3,-0.2 0.6,-0.4 0.9,-0.4 h 3.8 c 0.4,0 0.7,0.1 0.9,0.4 0.2,0.3 0.4,0.5 0.4,0.9 z"
           class="st11"
           inkscape:connector-curvature="0"
           style="fill:#000000;stroke:none;stroke-width:0.35429999;stroke-miterlimit:10" />
        <path
           id="path4595"
           d="m 108.6,456.9 h 6.4 v 1.4 h -2.5 v 5 h -1.4 v -5 h -2.5 z"
           class="st11"
           inkscape:connector-curvature="0"
           style="fill:#000000;stroke:none;stroke-width:0.35429999;stroke-miterlimit:10" />
      </g>
      <path
         d="m 57.303726,392.40689 v 34.4655 l 90.108594,53.56686 v -35.29599"
         class="st12"
         id="SVGID_x5F_1_x5F_"
         inkscape:connector-curvature="0"
         style="fill:none;stroke-width:4.15247011" />
      <path
         id="path4724"
         d="m 195.58098,436.83832 c -1.24574,-1.24574 -2.90673,-2.07624 -4.56772,-2.49148 -0.83049,0 -1.66099,0 -2.49148,0.41524 l -27.82155,-27.4063 v -0.83049 c 0.41525,-3.73723 -2.49148,-7.0592 -6.22871,-7.47445 -1.66098,0 -3.73722,0.41525 -4.98296,1.66099 -1.24574,1.24574 -2.07624,2.90673 -2.49148,4.56772 0,1.66098 0.41524,3.73722 1.66099,4.98296 1.24574,1.24574 2.90672,2.07623 4.56771,2.49148 h 1.66099 l 28.65204,27.82155 v 0.41525 c 0,1.66099 0.41525,3.73722 1.66099,4.98296 1.24574,1.24574 2.90673,2.07624 4.56772,2.49148 h 0.41525 c 3.32197,0 6.64395,-2.49148 6.64395,-6.2287 0.41524,-2.07624 0,-4.15247 -1.24574,-5.39821 z m -41.5247,-28.2368 c -1.66099,0 -2.90673,-1.66099 -2.90673,-3.32197 0,-0.8305 0.41524,-1.66099 1.24574,-2.07624 0.41525,-0.41525 1.24574,-0.83049 2.07623,-0.83049 h 0.41525 c 1.66099,0 2.90673,1.66098 2.90673,3.32197 0,0.8305 -0.41525,1.66099 -1.24574,2.07624 -0.8305,0.83049 -1.66099,0.83049 -2.49148,0.83049 z m 38.20272,34.88075 c -0.41525,0.41525 -1.24574,0.83049 -2.07623,0.83049 -0.8305,0 -1.66099,-0.41524 -2.07624,-1.24574 -0.41525,-0.83049 -0.83049,-1.24574 -0.83049,-2.07623 0,-0.8305 0.41524,-1.66099 1.24574,-2.07624 0.41524,-0.41525 1.24574,-0.83049 2.07623,-0.83049 h 0.41525 c 0.83049,0 1.66099,0.41525 2.07623,1.24574 0.41525,0.83049 0.8305,1.24574 0.8305,2.07623 -0.41525,0.8305 -0.8305,1.66099 -1.66099,2.07624 z"
         class="st2"
         inkscape:connector-curvature="0"
         style="fill:#010202;stroke-width:4.15247011" />
      <path
         style="fill:#010202;stroke-width:4.15247011"
         inkscape:connector-curvature="0"
         class="st2"
         d="m 362.92552,398.22035 c -3.73722,-0.41525 -7.0592,2.49148 -7.47445,6.2287 v 2.49148 l -27.82155,27.82155 h -0.83049 c -1.66099,0 -3.73722,0.41525 -4.98296,1.66099 -1.24575,1.24574 -2.07624,2.90673 -2.49149,4.56772 -0.41524,3.73722 2.49149,7.0592 6.22871,7.47444 h 0.83049 c 3.32198,0 6.22871,-2.49148 6.64395,-6.2287 v -1.66099 l 28.2368,-28.2368 h 1.24574 c 3.32198,0 6.22871,-2.49148 6.64395,-6.2287 0.41525,-4.15247 -2.49148,-7.47445 -6.2287,-7.88969 z m -34.4655,45.26192 c -0.8305,0.41525 -1.24574,0.83049 -2.07624,0.83049 -1.66099,0 -2.90673,-1.66098 -2.90673,-3.32197 0,-0.8305 0.41525,-1.66099 1.24574,-2.07624 0.41525,-0.41525 1.24575,-0.83049 2.07624,-0.83049 h 0.41525 c 0.83049,0 1.66098,0.41525 2.07623,1.24574 0.41525,0.83049 0.8305,1.24574 0.8305,2.07623 -0.8305,0.8305 -1.24575,1.66099 -1.66099,2.07624 z m 33.635,-35.296 c -0.83049,0 -1.66098,-0.41524 -2.07623,-1.24574 -0.41525,-0.83049 -0.83049,-1.24574 -0.83049,-2.07623 0,-0.8305 0.41524,-1.66099 1.24574,-2.07624 0.41524,-0.41524 1.24574,-0.83049 2.07623,-0.83049 h 0.41525 c 1.66099,0 2.90673,1.66099 2.90673,3.32198 -0.8305,1.66098 -2.07624,2.90672 -3.73723,2.90672 z"
         id="path4732" />
      <path
         style="fill:#010202;stroke-width:4.15247011"
         inkscape:connector-curvature="0"
         class="st2"
         d="m 261.19,471.71906 -1.24574,-1.24574 v -19.5166 h -0.41524 c 0,0 0.41524,0 0.41524,-0.41525 2.90673,-2.49148 3.32198,-6.64395 0.8305,-9.55068 -1.24574,-1.24574 -2.90673,-2.07624 -4.56772,-2.49149 -1.66099,0 -3.73722,0.41525 -4.98296,1.66099 -1.24575,1.24574 -2.07624,2.90673 -2.49149,4.56772 -0.41524,1.66099 0.41525,3.73722 1.66099,4.98296 0.41525,0.8305 1.24574,1.24574 2.07624,1.66099 v 18.68612 c -0.41525,0 -0.41525,0.41524 -0.8305,0.41524 -2.90673,2.49149 -3.32197,6.64396 -0.83049,9.55068 1.24574,1.24575 2.90673,2.07624 4.56772,2.49149 h 0.83049 c 1.66099,0 3.32198,-0.41525 4.15247,-1.66099 1.24574,-1.24574 2.07623,-2.90673 2.49148,-4.56772 0,-1.24574 -0.41525,-2.90673 -1.66099,-4.56772 z m -7.47444,-28.23679 c 0.41524,-0.41525 1.24574,-0.83049 2.07623,-0.83049 h 0.41525 c 0.83049,0 1.66099,0.41524 2.07623,1.24574 1.24575,1.24574 0.8305,3.32197 -0.41524,4.15247 -1.24574,1.24574 -3.32198,0.83049 -4.15247,-0.41525 -0.41525,-0.83049 -0.8305,-1.24574 -0.8305,-2.07624 0,-0.83049 0.41525,-1.66098 0.8305,-2.07623 z m 4.15247,34.88075 c -0.41525,0.41524 -1.24574,0.83049 -2.07624,0.83049 -0.83049,0 -1.66099,-0.41525 -2.07623,-1.24574 -1.24574,-1.24574 -0.8305,-3.32198 0.41524,-4.15247 0.41525,-0.41525 1.24575,-0.83049 2.07624,-0.83049 0.83049,0 1.66099,0.41524 2.49148,1.24574 0.41525,0.83049 0.8305,1.24574 0.8305,2.07623 -0.41525,0.8305 -0.8305,1.66099 -1.66099,2.07624 z"
         id="path4740" />
      <g
         transform="matrix(4.15247,0,0,4.15247,-49.829996,-1560.915)"
         style="fill:#00bb31"
         id="g4620">
        <path
           style="fill:#00bb31"
           inkscape:connector-curvature="0"
           class="st6"
           d="m 89.7,443.1 c 0,-0.9 -0.7,-1.6 -1.6,-1.6 -0.9,0 -1.6,0.7 -1.6,1.6 0,0.6 0.3,1.1 0.8,1.4 l -0.1,23.6 -2.3,2.2 h -5.8 l -2.6,-2.6 v -4.4 c 0.4,-0.3 0.7,-0.8 0.7,-1.3 0,-0.9 -0.7,-1.6 -1.6,-1.6 -0.9,0 -1.6,0.7 -1.6,1.6 0,0.6 0.3,1 0.7,1.3 v 5.1 l 3.6,3.6 h 7.2 l 3.4,-3.2 0.1,-24.4 c 0.5,-0.3 0.7,-0.8 0.7,-1.3 z m -14,18.2 c 0.4,0 0.7,0.3 0.7,0.7 0,0.4 -0.3,0.7 -0.7,0.7 -0.4,0 -0.7,-0.3 -0.7,-0.7 0,-0.4 0.3,-0.7 0.7,-0.7 z m 12.4,-18.9 c 0.4,0 0.7,0.3 0.7,0.7 0,0.4 -0.3,0.7 -0.7,0.7 -0.4,0 -0.7,-0.3 -0.7,-0.7 0,-0.4 0.3,-0.7 0.7,-0.7 z"
           id="path4622" />
        <path
           style="fill:#00bb31"
           inkscape:connector-curvature="0"
           class="st6"
           d="m 71.9,460.4 c -0.9,0 -1.6,0.7 -1.6,1.6 0,0.5 0.3,1 0.6,1.3 v 4.6 l -2.5,2.4 h -5.8 l -2.4,-2.4 0.1,-16 c 0.4,-0.3 0.7,-0.8 0.7,-1.3 0,-0.9 -0.7,-1.6 -1.6,-1.6 -0.9,0 -1.6,0.7 -1.6,1.6 0,0.6 0.3,1 0.7,1.3 v 16.7 l 3.4,3.4 h 7.2 l 3.6,-3.5 v -5.2 c 0.5,-0.3 0.8,-0.8 0.8,-1.4 0,-0.8 -0.7,-1.5 -1.6,-1.5 z M 59.5,449.9 c 0.4,0 0.7,0.3 0.7,0.7 0,0.4 -0.3,0.7 -0.7,0.7 -0.4,0 -0.7,-0.3 -0.7,-0.7 0,-0.4 0.3,-0.7 0.7,-0.7 z m 12.4,11.4 c 0.4,0 0.7,0.3 0.7,0.7 0,0.4 -0.3,0.7 -0.7,0.7 -0.4,0 -0.7,-0.3 -0.7,-0.7 0,-0.4 0.3,-0.7 0.7,-0.7 z"
           id="path4624" />
      </g>
      <path
         style="fill:#00bb31;stroke-width:4.15247011"
         inkscape:connector-curvature="0"
         class="st6"
         d="m 312.68063,224.23185 c -2.49148,0 -4.56771,1.24574 -5.81345,3.32198 l -83.8799,0.41525 -17.85562,-18.27087 v -71.83773 l 17.85562,-17.85562 h 83.46465 c 1.24574,2.07623 3.32198,3.32197 5.81346,3.32197 3.73722,0 6.64395,-2.90673 6.64395,-6.64395 0,-3.73722 -2.90673,-6.64395 -6.64395,-6.64395 -2.07624,0 -4.15247,1.24574 -5.39821,2.49148 h -86.78663 l -22.42333,22.00809 v 78.06644 l 22.00809,22.42334 87.20187,-0.41525 v -0.41525 c 1.24574,1.66099 3.32197,2.90673 5.39821,2.90673 3.73722,0 6.64395,-2.90673 6.64395,-6.64395 0,-3.73723 -2.49148,-6.22871 -6.22871,-6.22871 z m -0.83049,-110.4557 c 1.66099,0 2.90673,1.24574 2.90673,2.90673 0,1.66099 -1.24574,2.90673 -2.90673,2.90673 -1.66099,0 -2.90673,-1.24574 -2.90673,-2.90673 0,-1.66099 1.24574,-2.90673 2.90673,-2.90673 z m 0.83049,120.00638 c -1.66098,0 -2.90672,-1.24574 -2.90672,-2.90673 0,-1.66098 1.24574,-2.90672 2.90672,-2.90672 1.66099,0 2.90673,1.24574 2.90673,2.90672 0,1.66099 -1.24574,2.90673 -2.90673,2.90673 z"
         id="path4638" />
      <g
         transform="matrix(4.15247,0,0,4.15247,-49.829996,-1560.915)"
         id="g4640">
        <path
           style="fill:#010202"
           inkscape:connector-curvature="0"
           class="st2"
           d="m 96.1,438.5 c 0,-0.9 -0.7,-1.7 -1.7,-1.7 -0.9,0 -1.7,0.7 -1.7,1.7 0,0.5 0.2,0.9 0.6,1.3 v 30.1 l -6.4,6.5 h -8.7 l -4.4,-4 -4.2,4 h -8.5 l -7.3,-7.1 v -17.7 c 0.4,-0.3 0.7,-0.8 0.7,-1.3 0,-0.9 -0.7,-1.7 -1.7,-1.7 -0.9,0 -1.7,0.7 -1.7,1.7 0,0.6 0.3,1.1 0.8,1.4 V 470 l 8.4,8.2 h 10 l 3.5,-3.3 3.7,3.3 h 10.2 l 7.5,-7.5 V 440 c 0.6,-0.3 0.9,-0.8 0.9,-1.5 z m -43.3,11 c 0.4,0 0.7,0.3 0.7,0.7 0,0.4 -0.3,0.7 -0.7,0.7 -0.4,0 -0.7,-0.3 -0.7,-0.7 0,-0.4 0.3,-0.7 0.7,-0.7 z m 41.7,-10.2 c -0.4,0 -0.7,-0.4 -0.7,-0.8 0,-0.4 0.3,-0.7 0.7,-0.7 0.4,0 0.7,0.3 0.7,0.7 0,0.4 -0.3,0.8 -0.7,0.8 z"
           id="path4642" />
        <g
           id="g4644">
          <path
             style="fill:#010202"
             inkscape:connector-curvature="0"
             class="st2"
             d="m 87.1,395.9 c -0.6,0 -1,0.3 -1.3,0.7 H 62.6 l -8.6,8.7 v 25.9 l 8.1,8 h 19.8 c 0.3,0.5 0.8,0.8 1.4,0.8 0.9,0 1.6,-0.7 1.6,-1.6 0,-0.9 -0.7,-1.6 -1.6,-1.6 -0.5,0 -1,0.3 -1.3,0.6 H 62.8 l -7.1,-7 v -24.5 l 7.6,-7.7 h 22.5 c 0.3,0.4 0.8,0.7 1.3,0.7 0.9,0 1.6,-0.7 1.6,-1.6 0,-0.9 -0.7,-1.4 -1.6,-1.4 z m -3.9,41.9 c 0.4,0 0.7,0.3 0.7,0.7 0,0.4 -0.3,0.7 -0.7,0.7 -0.4,0 -0.7,-0.3 -0.7,-0.7 0,-0.4 0.3,-0.7 0.7,-0.7 z m 3.9,-39.6 c -0.4,0 -0.7,-0.3 -0.7,-0.7 0,-0.4 0.3,-0.7 0.7,-0.7 0.4,0 0.7,0.3 0.7,0.7 0,0.4 -0.3,0.7 -0.7,0.7 z"
             id="path4646" />
        </g>
      </g>
      <g
         style="fill:#d0d0ce"
         transform="matrix(4.15247,0,0,4.15247,-49.829996,-1560.915)"
         id="g4684">
        <path
           style="fill:#d0d0ce"
           inkscape:connector-curvature="0"
           d="m 78.3,407.5 h 3.5 v 9.3 h -3.5 z"
           class="st17"
           id="rect4686" />
        <path
           style="fill:#d0d0ce"
           inkscape:connector-curvature="0"
           class="st14"
           d="m 82,417.1 h -4 v -9.9 h 4 z m -3.5,-0.5 h 3 v -8.8 h -3 z"
           id="path4688" />
      </g>
      <g
         id="g2157">
        <g
           id="g4634"
           transform="matrix(4.15247,0,0,4.15247,-49.829996,-1560.915)"
           style="fill:#d0d0ce;stroke:none">
          <path
             id="path4636"
             d="m 75.4,462.1 c -0.1,-0.2 -0.5,-2.3 -0.5,-3.1 v -2 h -1.7 c 0,0.6 0,1.9 -0.2,2.5 -0.2,0.9 -0.9,2.5 -1,2.6 l -0.5,-0.2 c 0,0 0.7,-1.7 0.9,-2.5 0.2,-0.7 0.1,-2.6 0.1,-2.6 v -0.3 h 2.7 v 2.6 c 0,0.7 0.4,2.6 0.4,2.8 z"
             class="st14"
             inkscape:connector-curvature="0"
             style="fill:#d0d0ce;stroke:none" />
        </g>
        <g
           id="g4650"
           transform="matrix(4.15247,0,0,4.15247,-49.829996,-1560.915)"
           style="fill:#d0d0ce;stroke:none">
          <path
             id="polygon4652"
             class="st14"
             d="m 83.2,414.6 h 9.3 v -16.9 h -5.4 v -0.5 h 6 v 18 h -9.9 z"
             inkscape:connector-curvature="0"
             style="fill:#d0d0ce;stroke:none" />
        </g>
        <g
           id="g4658"
           transform="matrix(4.15247,0,0,4.15247,-49.829996,-1560.915)"
           style="fill:#d0d0ce">
          <path
             id="rect4660"
             class="st16"
             d="m 69.6,407.5 h 12.2 v 9.3 H 69.6 Z"
             inkscape:connector-curvature="0"
             style="fill:#d0d0ce" />
          <path
             id="path4662"
             d="M 82,417.1 H 69.3 v -9.9 H 82 Z m -12.1,-0.5 h 11.6 v -8.8 H 69.9 Z"
             class="st14"
             inkscape:connector-curvature="0"
             style="fill:#d0d0ce" />
        </g>
        <g
           id="g4664"
           transform="matrix(4.15247,0,0,4.15247,-49.829996,-1560.915)"
           style="fill:#d0d0ce;stroke:none">
          <path
             id="polygon4666"
             class="st14"
             d="m 83.2,409.5 h 7 v -5.3 l -3.1,0.1 v -0.6 h 3.7 v 6.4 h -7.6 z"
             inkscape:connector-curvature="0"
             style="fill:#d0d0ce;stroke:none" />
        </g>
        <g
           id="g4668"
           transform="matrix(4.15247,0,0,4.15247,-49.829996,-1560.915)"
           style="fill:#d0d0ce">
          <path
             id="rect4670"
             class="st17"
             d="m 81.8,408.1 h 1.4 v 3.5 h -1.4 z"
             inkscape:connector-curvature="0"
             style="fill:#d0d0ce" />
          <path
             id="path4672"
             d="m 83.4,411.8 h -1.9 v -4 h 1.9 z M 82,411.3 h 0.8 v -3 H 82 Z"
             class="st14"
             inkscape:connector-curvature="0"
             style="fill:#d0d0ce" />
        </g>
        <g
           id="g4674"
           transform="matrix(4.15247,0,0,4.15247,-49.829996,-1560.915)"
           style="fill:#d0d0ce">
          <path
             id="rect4676"
             class="st17"
             d="m 81.8,413.6 h 1.4 v 2.7 h -1.4 z"
             inkscape:connector-curvature="0"
             style="fill:#d0d0ce" />
          <path
             id="path4678"
             d="m 83.4,416.5 h -1.9 v -3.2 h 1.9 z M 82,416 h 0.8 v -2.1 H 82 Z"
             class="st14"
             inkscape:connector-curvature="0"
             style="fill:#d0d0ce" />
        </g>
        <g
           id="g4690"
           transform="matrix(4.15247,0,0,4.15247,-49.829996,-1560.915)"
           style="fill:#d0d0ce;stroke:none">
          <path
             id="polygon4692"
             class="st14"
             d="m 95.5,437 -6.3,-6.5 -1.5,1.5 -0.4,-0.4 1.9,-1.9 7.1,7.3 -2.3,2.3 -0.4,-0.4 z"
             inkscape:connector-curvature="0"
             style="fill:#d0d0ce;stroke:none" />
        </g>
        <g
           id="g4694"
           transform="matrix(4.15247,0,0,4.15247,-49.829996,-1560.915)"
           style="fill:#d0d0ce;stroke:none">
          <path
             id="polygon4696"
             class="st14"
             d="M 59.2,448.1 H 53 v 2.5 h -0.5 v -3 h 7.3 v 3 h -0.6 z"
             inkscape:connector-curvature="0"
             style="fill:#d0d0ce;stroke:none" />
        </g>
        <path
           id="path4698"
           d="m 249.97834,336.34854 h 15.36414 v -12.45741 c 0,0 0,-8.72018 -7.47445,-8.72018 -7.47444,0 -7.47444,8.72018 -7.47444,8.72018 v 12.45741 z"
           class="st18"
           stroke-miterlimit="10"
           inkscape:connector-curvature="0"
           style="fill:#d0d0ce;stroke:none;stroke-width:1.83912897;stroke-miterlimit:10" />
        <g
           id="g4700"
           transform="matrix(4.15247,0,0,4.15247,-49.829996,-1560.915)"
           style="fill:#d0d0ce;stroke:none">
          <g
             id="g4702"
             style="fill:#d0d0ce;stroke:none">
            <path
               id="polygon4704"
               class="st14"
               d="m 89.7,441.1 -4.2,-4.2 -1.9,2 -0.4,-0.4 2.2,-2.3 5.1,4.9 -2.3,2.3 -0.3,-0.3 z"
               inkscape:connector-curvature="0"
               style="fill:#d0d0ce;stroke:none" />
          </g>
          <g
             id="g4706"
             style="fill:#d0d0ce;stroke:none">
            <path
               id="rect4708"
               class="st5"
               d="m 86.814,436.287 3.578,3.492 -1.676,1.716 -3.578,-3.492 z"
               inkscape:connector-curvature="0"
               style="fill:#d0d0ce;stroke:none" />
            <path
               id="path4710"
               d="m 88.7,441.8 -3.9,-3.8 2,-2.1 3.9,3.8 z m -3.1,-3.8 3.2,3.1 1.3,-1.3 -3.2,-3.2 z"
               class="st14"
               inkscape:connector-curvature="0"
               style="fill:#d0d0ce;stroke:none" />
          </g>
          <g
             id="g4712"
             style="fill:#d0d0ce;stroke:none">
            <path
               id="rect4714"
               class="st19"
               d="m 87.418,436.78 0.358,0.35 -1.675,1.718 -0.357,-0.35 z"
               inkscape:connector-curvature="0"
               style="fill:#d0d0ce;stroke:none" />
          </g>
          <g
             id="g4716"
             style="fill:#d0d0ce;stroke:none">
            <path
               id="rect4718"
               class="st19"
               d="m 87.84,437.164 0.358,0.35 -1.675,1.718 -0.358,-0.35 z"
               inkscape:connector-curvature="0"
               style="fill:#d0d0ce;stroke:none" />
          </g>
          <g
             id="g4720"
             style="fill:#d0d0ce;stroke:none">
            <path
               id="rect4722"
               class="st20"
               d="m 88.196,437.62 0.358,0.348 -1.675,1.72 -0.36,-0.35 z"
               inkscape:connector-curvature="0"
               style="fill:#d0d0ce;stroke:none" />
          </g>
        </g>
      </g>
    </g>
  </g>
  <style
     id="style4629"
     type="text/css">
	.st0{clip-path:url(#SVGID_4_);}
	.st1{clip-path:url(#SVGID_4_);fill:#3BAA37;}
</style>
  <style
     id="style4273">.st0{display:none;fill:#010202;} .st1{fill:#006633;} .st2{fill:#010202;} .st3{fill:#006633;stroke:#006633;stroke-width:0.8859;stroke-miterlimit:10;} .st4{fill:#1CA638;} .st5{fill:#FFFFFF;} .st6{fill:#F8DB76;} .st7{fill:#FFFFFF;stroke:#F8DB76;stroke-width:0.3543;stroke-miterlimit:10;} .st8{fill:#FFFFFF;stroke:#F8DB76;stroke-width:0.2658;stroke-miterlimit:10;} .st9{fill:#006633;stroke:#006633;stroke-width:0.3543;stroke-miterlimit:10;} .st10{fill:none;stroke:#000000;stroke-width:0.7087;stroke-miterlimit:10;} .st11{fill:#F8DB76;stroke:#7C7C7C;stroke-width:0.3543;stroke-miterlimit:10;} .st12{fill:none;} .st13{fill:#383838;} .st14{fill:#828281;} .st15{fill:none;stroke:#383838;stroke-width:0.4429;stroke-miterlimit:10;} .st16{fill:#353535;} .st17{fill:#A6A9B5;} .st18{fill:#1CA638;stroke:#FFFFFF;stroke-width:0.4429;stroke-miterlimit:10;} .st19{fill:#F28C40;} .st20{fill:#916D14;} .st21{fill:none;stroke:#010202;stroke-width:1.7703;stroke-miterlimit:10;}</style>
</svg>
