<?xml version="1.0" encoding="UTF-8" standalone="no"?>
<svg
   xmlns:dc="http://purl.org/dc/elements/1.1/"
   xmlns:cc="http://creativecommons.org/ns#"
   xmlns:rdf="http://www.w3.org/1999/02/22-rdf-syntax-ns#"
   xmlns:svg="http://www.w3.org/2000/svg"
   xmlns="http://www.w3.org/2000/svg"
   xmlns:sodipodi="http://sodipodi.sourceforge.net/DTD/sodipodi-0.dtd"
   xmlns:inkscape="http://www.inkscape.org/namespaces/inkscape"
   inkscape:version="1.0 (4035a4fb49, 2020-05-01)"
   sodipodi:docname="chaoswest-tv.svg"
   width="80.0102mm"
   height="84.9978mm"
   viewBox="0 0 3465 3681"
   version="1.1"
   id="svg3">
  <sodipodi:namedview
     inkscape:current-layer="svg3"
     inkscape:window-maximized="0"
     inkscape:window-y="24"
     inkscape:window-x="0"
     inkscape:cy="73.175417"
     inkscape:cx="185.35602"
     inkscape:zoom="1.7151847"
     showgrid="false"
     id="namedview6"
     inkscape:window-height="1388"
     inkscape:window-width="2556"
     inkscape:pageshadow="2"
     inkscape:pageopacity="0"
     guidetolerance="10"
     gridtolerance="10"
     objecttolerance="10"
     borderopacity="1"
     bordercolor="#666666"
     pagecolor="#ffffff" />
  <metadata
     id="metadata9">
    <rdf:RDF>
      <cc:Work
         rdf:about="">
        <dc:format>image/svg+xml</dc:format>
        <dc:type
           rdf:resource="http://purl.org/dc/dcmitype/StillImage" />
        <dc:title></dc:title>
      </cc:Work>
    </rdf:RDF>
  </metadata>
  <defs
     id="defs7" />
  <path
     style="fill:#ffffff;stroke:#000000"
     id="Auswahl"
     fill="none"
     stroke="black"
     stroke-width="1"
     d="M 1099.00,3112.00            C 1104.87,3114.25 1111.63,3119.42 1117.00,3123.00              1117.00,3123.00 1146.00,3142.33 1146.00,3142.33              1146.00,3142.33 1240.00,3205.00 1240.00,3205.00              1240.00,3205.00 1537.00,3403.00 1537.00,3403.00              1537.00,3403.00 1647.00,3476.33 1647.00,3476.33              1662.62,3486.75 1682.91,3503.77 1702.00,3503.77              1705.73,3504.04 1711.47,3504.17 1715.00,3503.77              1730.26,3500.79 1751.57,3484.29 1765.00,3475.33              1765.00,3475.33 1869.00,3406.00 1869.00,3406.00              1869.00,3406.00 2173.00,3203.33 2173.00,3203.33              2173.00,3203.33 2267.00,3140.67 2267.00,3140.67              2267.00,3140.67 2295.00,3122.00 2295.00,3122.00              2300.31,3118.46 2305.92,3113.93 2312.00,3112.00              2312.00,3123.03 2311.42,3130.41 2315.87,3141.00              2326.65,3166.60 2354.35,3180.44 2381.00,3171.97              2393.56,3167.98 2411.59,3153.71 2423.00,3145.72              2423.00,3145.72 2498.00,3093.28 2498.00,3093.28              2498.00,3093.28 2738.00,2925.28 2738.00,2925.28              2738.00,2925.28 2856.00,2842.66 2856.00,2842.66              2856.00,2842.66 2923.00,2795.72 2923.00,2795.72              2930.24,2790.65 2948.67,2778.40 2953.91,2772.96              2964.13,2762.35 2968.98,2747.50 2969.00,2733.00              2969.00,2733.00 2969.00,2654.00 2969.00,2654.00              2969.15,2646.18 2972.73,2644.28 2978.00,2639.00              2978.00,2639.00 3000.00,2617.00 3000.00,2617.00              3000.00,2617.00 3045.00,2572.00 3045.00,2572.00              3064.32,2552.68 3078.95,2541.56 3079.00,2512.00              3079.00,2512.00 3079.00,1828.00 3079.00,1828.00              3079.00,1828.00 3079.00,1144.00 3079.00,1144.00              3078.96,1115.84 3064.43,1104.43 3046.00,1086.00              3046.00,1086.00 3000.00,1040.00 3000.00,1040.00              3000.00,1040.00 2980.00,1020.00 2980.00,1020.00              2972.62,1012.62 2969.02,1011.66 2969.00,1001.00              2969.00,1001.00 2969.00,922.00 2969.00,922.00              2968.83,907.58 2963.19,893.27 2952.96,883.04              2947.37,877.45 2934.98,869.51 2928.00,864.58              2928.00,864.58 2839.00,802.28 2839.00,802.28              2839.00,802.28 2525.00,582.58 2525.00,582.58              2525.00,582.58 2427.00,513.98 2427.00,513.98              2413.12,504.36 2393.68,488.21 2378.00,484.02              2353.55,477.47 2338.71,489.20 2320.00,502.58              2320.00,502.58 2294.00,521.14 2294.00,521.14              2290.63,523.55 2275.66,534.74 2273.00,535.45              2269.15,536.48 2264.95,532.51 2262.00,530.42              2262.00,530.42 2237.00,512.98 2237.00,512.98              2237.00,512.98 2133.00,440.14 2133.00,440.14              2133.00,440.14 1835.00,231.58 1835.00,231.58              1835.00,231.58 1757.00,176.98 1757.00,176.98              1740.63,165.64 1727.84,153.67 1707.00,152.18              1686.82,150.74 1668.46,166.46 1653.00,177.28              1653.00,177.28 1553.00,247.28 1553.00,247.28              1553.00,247.28 1268.00,446.72 1268.00,446.72              1268.00,446.72 1179.00,509.02 1179.00,509.02              1179.00,509.02 1154.00,526.58 1154.00,526.58              1154.00,526.58 1141.00,535.29 1141.00,535.29              1137.13,536.72 1133.98,533.70 1131.00,531.58              1131.00,531.58 1108.00,515.14 1108.00,515.14              1108.00,515.14 1087.00,500.14 1087.00,500.14              1067.05,485.84 1052.01,476.76 1027.00,485.70              1016.12,489.58 990.04,509.33 979.00,516.98              979.00,516.98 880.00,586.28 880.00,586.28              880.00,586.28 670.00,733.28 670.00,733.28              670.00,733.28 573.00,801.14 573.00,801.14              573.00,801.14 480.00,866.28 480.00,866.28              480.00,866.28 459.09,881.44 459.09,881.44              449.09,890.49 442.16,904.44 442.00,918.00              442.00,918.00 442.00,1000.00 442.00,1000.00              441.98,1010.66 438.38,1011.62 431.00,1019.00              431.00,1019.00 412.00,1038.00 412.00,1038.00              412.00,1038.00 363.00,1087.00 363.00,1087.00              346.52,1103.48 332.04,1115.93 332.00,1141.00              332.00,1141.00 332.00,1828.00 332.00,1828.00              332.00,1828.00 332.00,2516.00 332.00,2516.00              332.04,2541.21 345.57,2551.57 362.00,2568.00              362.00,2568.00 394.99,2601.00 394.99,2601.00              394.99,2601.00 402.17,2608.83 402.17,2608.83              402.17,2608.83 413.00,2619.00 413.00,2619.00              413.00,2619.00 430.00,2636.00 430.00,2636.00              438.20,2644.20 441.98,2645.20 442.00,2657.00              442.00,2657.00 442.00,2737.00 442.00,2737.00              442.05,2767.08 463.16,2778.91 485.00,2794.02              485.00,2794.02 542.00,2833.98 542.00,2833.98              542.00,2833.98 861.00,3057.28 861.00,3057.28              861.00,3057.28 967.00,3131.42 967.00,3131.42              967.00,3131.42 1004.00,3157.34 1004.00,3157.34              1012.83,3163.41 1017.65,3167.80 1028.00,3171.56              1051.36,3180.05 1078.76,3169.28 1091.12,3148.00              1097.56,3136.93 1099.00,3124.58 1099.00,3112.00 Z            M 1232.00,601.00            C 1232.00,601.00 1271.00,574.02 1271.00,574.02              1271.00,574.02 1350.00,518.72 1350.00,518.72              1350.00,518.72 1576.00,360.58 1576.00,360.58              1576.00,360.58 1668.00,296.14 1668.00,296.14              1668.00,296.14 1694.00,277.98 1694.00,277.98              1696.68,276.12 1701.85,271.83 1705.00,271.69              1708.08,271.56 1711.56,274.58 1714.00,276.28              1714.00,276.28 1732.00,288.86 1732.00,288.86              1732.00,288.86 1803.00,338.58 1803.00,338.58              1803.00,338.58 2072.00,526.86 2072.00,526.86              2072.00,526.86 2154.00,584.28 2154.00,584.28              2154.00,584.28 2172.98,597.58 2172.98,597.58              2175.13,599.19 2178.59,601.40 2176.95,604.55              2175.83,606.70 2167.42,612.28 2165.00,614.00              2165.00,614.00 2137.00,634.00 2137.00,634.00              2137.00,634.00 2053.00,694.00 2053.00,694.00              2053.00,694.00 2029.00,711.14 2029.00,711.14              2026.04,713.26 2019.13,718.63 2016.00,719.48              2012.15,720.51 2000.01,716.35 1995.00,715.46              1983.63,713.45 1972.26,713.91 1961.00,716.42              1945.62,719.86 1931.02,726.72 1919.00,737.00              1913.60,741.63 1910.90,744.65 1906.28,750.00              1904.51,752.05 1902.20,755.38 1899.71,756.43              1898.03,757.13 1894.87,757.00 1893.00,757.00              1893.00,757.00 1518.00,757.00 1518.00,757.00              1504.94,756.97 1509.71,753.46 1495.00,740.17              1483.53,729.80 1471.74,722.97 1457.00,718.35              1443.44,714.10 1430.99,713.30 1417.00,715.28              1411.44,716.07 1398.35,720.64 1394.00,719.29              1390.94,718.34 1383.95,712.97 1381.00,710.86              1381.00,710.86 1356.00,693.00 1356.00,693.00              1356.00,693.00 1271.00,632.29 1271.00,632.29              1271.00,632.29 1244.00,613.00 1244.00,613.00              1239.01,609.45 1233.84,607.11 1232.00,601.00 Z            M 992.00,639.00            C 992.00,639.00 992.00,3017.00 992.00,3017.00              984.17,3015.91 968.13,3002.94 961.00,2997.86              961.00,2997.86 896.00,2952.34 896.00,2952.34              896.00,2952.34 648.00,2778.72 648.00,2778.72              648.00,2778.72 573.00,2726.28 573.00,2726.28              573.00,2726.28 558.00,2715.72 558.00,2715.72              555.43,2713.92 551.52,2711.67 550.02,2708.91              548.80,2706.67 549.00,2703.50 549.00,2701.00              549.00,2701.00 549.00,1856.00 549.00,1856.00              549.00,1856.00 549.00,955.00 549.00,955.00              549.00,952.74 548.75,949.47 549.99,947.52              551.12,945.73 555.15,943.18 557.00,941.86              557.00,941.86 573.00,930.66 573.00,930.66              573.00,930.66 650.00,876.72 650.00,876.72              650.00,876.72 886.00,711.58 886.00,711.58              886.00,711.58 956.00,662.58 956.00,662.58              956.00,662.58 977.00,647.86 977.00,647.86              981.70,644.51 986.38,640.52 992.00,639.00 Z            M 2419.00,3017.00            C 2419.00,3017.00 2419.00,640.00 2419.00,640.00              2425.37,641.30 2428.81,644.65 2434.00,648.28              2434.00,648.28 2453.00,661.58 2453.00,661.58              2453.00,661.58 2523.00,710.58 2523.00,710.58              2523.00,710.58 2763.00,878.58 2763.00,878.58              2763.00,878.58 2838.00,931.02 2838.00,931.02              2838.00,931.02 2854.00,942.28 2854.00,942.28              2856.21,943.83 2859.65,945.84 2860.98,948.18              2862.21,950.34 2862.00,953.56 2862.00,956.00              2862.00,956.00 2862.00,1829.00 2862.00,1829.00              2862.00,1829.00 2862.00,2701.00 2862.00,2701.00              2862.00,2703.41 2862.22,2706.58 2860.98,2708.70              2859.57,2711.10 2855.34,2713.73 2853.00,2715.34              2853.00,2715.34 2838.00,2725.86 2838.00,2725.86              2838.00,2725.86 2762.00,2779.02 2762.00,2779.02              2762.00,2779.02 2521.00,2947.72 2521.00,2947.72              2521.00,2947.72 2451.00,2996.72 2451.00,2996.72              2443.56,3001.93 2426.91,3015.39 2419.00,3017.00 Z            M 1099.00,938.00            C 1099.00,938.00 1099.00,641.00 1099.00,641.00              1105.70,642.64 1112.36,648.54 1118.00,652.58              1118.00,652.58 1153.00,677.58 1153.00,677.58              1153.00,677.58 1273.00,763.29 1273.00,763.29              1273.00,763.29 1313.00,791.86 1313.00,791.86              1315.91,793.94 1327.76,801.75 1328.83,804.26              1330.59,808.38 1320.87,812.51 1318.00,814.15              1318.00,814.15 1277.00,837.58 1277.00,837.58              1277.00,837.58 1155.00,907.28 1155.00,907.28              1155.00,907.28 1119.00,927.85 1119.00,927.85              1113.17,931.18 1105.33,936.49 1099.00,938.00 Z            M 2312.00,641.00            C 2312.00,641.00 2312.00,938.00 2312.00,938.00              2305.31,936.73 2297.08,931.07 2291.00,927.58              2291.00,927.58 2255.00,907.00 2255.00,907.00              2255.00,907.00 2135.00,838.42 2135.00,838.42              2135.00,838.42 2095.00,815.58 2095.00,815.58              2089.83,812.61 2081.97,810.01 2080.00,804.00              2080.00,804.00 2104.00,787.14 2104.00,787.14              2104.00,787.14 2140.00,761.42 2140.00,761.42              2140.00,761.42 2244.00,687.14 2244.00,687.14              2244.00,687.14 2290.00,654.29 2290.00,654.29              2296.06,649.98 2304.81,642.10 2312.00,641.00 Z            M 1423.00,767.29            C 1433.69,766.28 1443.48,767.06 1453.00,772.53              1474.95,785.12 1480.77,816.67 1466.21,837.00              1457.52,849.14 1442.79,855.54 1428.00,854.96              1385.24,853.28 1371.46,798.09 1404.00,774.79              1410.07,770.44 1415.74,768.49 1423.00,767.29 Z            M 1973.00,767.29            C 1983.59,766.28 1992.40,766.98 2002.00,771.98              2024.94,783.93 2030.96,816.40 2016.21,837.00              2007.48,849.19 1992.87,855.54 1978.00,854.96              1936.20,853.32 1920.83,798.54 1954.00,774.79              1959.61,770.77 1966.26,768.42 1973.00,767.29 Z            M 1099.00,1469.00            C 1099.00,1469.00 1287.00,1469.00 1287.00,1469.00              1297.75,1469.02 1295.60,1470.92 1303.09,1479.00              1307.97,1484.27 1313.16,1489.37 1319.00,1493.57              1339.04,1507.99 1362.41,1514.95 1387.00,1511.71              1399.23,1510.10 1410.17,1505.97 1421.00,1500.22              1431.30,1494.75 1440.63,1486.92 1448.08,1478.00              1462.71,1460.48 1472.51,1437.13 1471.99,1414.00              1471.13,1376.39 1446.15,1341.82 1412.00,1327.15              1401.81,1322.77 1385.07,1318.61 1374.00,1319.04              1354.13,1319.81 1333.86,1326.91 1318.00,1338.90              1311.09,1344.12 1307.80,1347.67 1302.07,1354.00              1300.21,1356.06 1297.08,1360.41 1294.70,1361.43              1293.04,1362.14 1289.85,1362.00 1288.00,1362.00              1288.00,1362.00 1099.00,1362.00 1099.00,1362.00              1099.00,1362.00 1099.00,1069.00 1099.00,1069.00              1099.02,1059.64 1099.19,1060.73 1113.00,1052.85              1113.00,1052.85 1141.00,1036.85 1141.00,1036.85              1141.00,1036.85 1277.00,959.15 1277.00,959.15              1277.00,959.15 1353.00,915.72 1353.00,915.72              1353.00,915.72 1375.00,903.15 1375.00,903.15              1377.58,901.68 1383.30,898.05 1386.00,897.70              1388.46,897.39 1402.08,902.81 1406.00,903.97              1417.38,907.31 1423.49,907.05 1435.00,907.00              1453.20,906.91 1474.97,897.88 1489.00,886.54              1495.22,881.51 1497.72,878.91 1502.95,873.00              1504.68,871.04 1508.37,866.15 1510.30,865.02              1512.43,863.78 1515.59,864.00 1518.00,864.00              1518.00,864.00 1892.00,864.00 1892.00,864.00              1894.48,864.00 1897.62,863.79 1899.83,865.02              1902.26,866.37 1905.34,870.77 1907.29,873.00              1910.76,876.99 1915.90,882.03 1920.00,885.38              1933.82,896.71 1955.89,906.78 1974.00,907.00              1987.19,907.15 1993.02,907.29 2006.00,903.57              2010.52,902.28 2021.26,896.99 2025.00,897.75              2027.84,898.32 2041.50,906.57 2045.00,908.58              2045.00,908.58 2088.00,933.15 2088.00,933.15              2088.00,933.15 2234.00,1016.58 2234.00,1016.58              2234.00,1016.58 2293.00,1050.28 2293.00,1050.28              2296.80,1052.44 2309.92,1058.93 2311.43,1062.33              2312.14,1063.93 2312.00,1067.20 2312.00,1069.00              2312.00,1069.00 2312.00,2053.00 2312.00,2053.00              2312.00,2053.00 2312.00,2975.00 2312.00,2975.00              2312.00,2977.44 2312.21,2980.66 2310.98,2982.82              2309.46,2985.48 2303.70,2988.87 2301.00,2990.67              2301.00,2990.67 2280.00,3004.67 2280.00,3004.67              2280.00,3004.67 2179.00,3072.00 2179.00,3072.00              2179.00,3072.00 1830.00,3304.67 1830.00,3304.67              1830.00,3304.67 1739.00,3365.33 1739.00,3365.33              1739.00,3365.33 1716.00,3380.67 1716.00,3380.67              1713.29,3382.47 1708.22,3386.46 1705.00,3386.31              1702.28,3386.19 1698.29,3383.19 1696.00,3381.67              1696.00,3381.67 1677.00,3369.00 1677.00,3369.00              1677.00,3369.00 1608.00,3323.00 1608.00,3323.00              1608.00,3323.00 1349.00,3150.33 1349.00,3150.33              1349.00,3150.33 1159.00,3023.67 1159.00,3023.67              1159.00,3023.67 1114.00,2993.67 1114.00,2993.67              1110.82,2991.55 1100.91,2985.73 1099.57,2982.68              1098.86,2981.06 1099.00,2977.82 1099.00,2976.00              1099.00,2976.00 1099.00,1469.00 1099.00,1469.00 Z            M 736.00,995.52            C 736.00,995.52 716.00,1003.20 716.00,1003.20              711.95,1004.84 704.21,1007.80 701.04,1010.39              696.87,1013.79 693.96,1019.40 691.20,1024.00              688.41,1028.65 682.14,1038.31 680.79,1043.00              679.40,1047.84 680.00,1070.40 680.00,1077.00              680.00,1077.00 680.00,1128.00 680.00,1128.00              680.00,1128.00 680.00,1163.00 680.00,1163.00              680.02,1175.82 685.58,1181.30 692.00,1192.00              694.53,1196.22 697.10,1201.38 701.04,1204.37              704.69,1207.13 717.10,1211.97 722.00,1213.99              729.22,1216.97 734.06,1219.90 742.00,1219.83              742.00,1219.83 771.00,1219.83 771.00,1219.83              774.87,1219.00 787.57,1213.43 792.00,1211.58              796.46,1209.70 804.42,1206.59 807.91,1203.61              811.72,1200.36 815.88,1192.53 818.60,1188.00              822.89,1180.85 829.58,1172.74 827.47,1164.00              824.92,1153.45 813.50,1148.01 804.01,1153.53              795.84,1158.29 791.96,1171.13 786.62,1176.79              783.48,1180.12 769.62,1186.09 765.00,1186.89              765.00,1186.89 750.00,1186.89 750.00,1186.89              741.71,1186.99 740.63,1186.40 733.00,1183.15              730.28,1181.99 725.28,1180.04 723.10,1178.35              719.96,1175.92 714.36,1166.89 713.21,1163.00              712.92,1160.98 713.00,1158.11 713.21,1156.00              713.21,1156.00 713.21,1059.00 713.21,1059.00              713.00,1056.89 712.92,1054.02 713.21,1052.00              714.48,1047.65 720.38,1038.34 724.04,1035.81              726.16,1034.35 731.44,1032.23 734.00,1031.20              740.30,1028.66 741.11,1028.04 748.00,1028.00              748.00,1028.00 759.00,1028.00 759.00,1028.00              766.85,1028.01 777.20,1031.30 783.90,1035.41              789.95,1039.12 794.48,1052.81 800.47,1058.47              806.09,1063.79 814.53,1065.01 820.96,1060.35              836.09,1049.39 822.57,1033.28 815.80,1022.00              807.16,1007.62 805.43,1008.92 791.00,1002.72              791.00,1002.72 773.00,995.53 773.00,995.53              769.59,994.75 761.86,995.00 758.00,995.00              758.00,995.00 736.00,995.52 736.00,995.52 Z            M 1652.00,1194.00            C 1652.00,1194.00 1652.00,1602.00 1652.00,1602.00              1652.00,1604.46 1652.21,1607.63 1650.98,1609.83              1649.67,1612.16 1645.22,1615.21 1643.01,1617.13              1638.81,1620.80 1633.14,1626.70 1629.62,1631.00              1618.54,1644.52 1609.21,1666.34 1609.00,1684.00              1608.79,1702.53 1609.28,1711.44 1616.45,1729.00              1631.07,1764.81 1666.43,1785.78 1704.00,1787.91              1711.18,1788.31 1726.98,1785.31 1734.00,1783.00              1775.12,1769.46 1802.50,1732.49 1802.00,1689.00              1801.76,1668.70 1793.71,1648.08 1781.63,1632.00              1777.81,1626.92 1774.84,1623.50 1770.00,1619.29              1767.18,1616.84 1761.64,1613.06 1760.02,1609.96              1758.81,1607.64 1759.01,1604.57 1759.00,1602.00              1759.00,1602.00 1759.00,1194.00 1759.00,1194.00              1759.00,1194.00 1864.00,1194.00 1864.00,1194.00              1866.41,1194.00 1869.57,1193.78 1871.70,1195.02              1873.72,1196.20 1877.99,1201.90 1879.75,1204.00              1884.32,1209.44 1886.61,1211.35 1892.00,1215.86              1905.01,1226.72 1927.86,1236.80 1945.00,1237.00              1945.00,1237.00 1958.00,1237.00 1958.00,1237.00              1982.81,1236.96 2008.49,1223.15 2024.83,1205.00              2031.85,1197.20 2037.93,1187.76 2041.80,1178.00              2064.16,1121.55 2032.94,1059.83 1973.00,1046.42              1946.86,1040.58 1920.10,1046.39 1898.00,1061.36              1893.04,1064.72 1886.17,1070.63 1882.09,1075.00              1874.24,1083.40 1875.60,1086.98 1864.00,1087.00              1864.00,1087.00 1519.00,1087.00 1519.00,1087.00              1506.77,1086.98 1508.51,1082.85 1499.96,1074.00              1494.97,1068.83 1487.13,1062.61 1481.00,1058.63              1449.57,1039.33 1411.61,1039.42 1380.00,1058.63              1323.16,1092.66 1318.17,1172.05 1368.00,1214.70              1382.79,1227.36 1405.37,1236.97 1425.00,1237.00              1425.00,1237.00 1438.00,1237.00 1438.00,1237.00              1455.65,1236.79 1477.50,1226.71 1491.00,1215.74              1497.57,1210.40 1498.43,1209.40 1503.87,1203.00              1505.72,1200.82 1508.89,1196.30 1511.17,1195.02              1513.37,1193.79 1516.54,1194.00 1519.00,1194.00              1519.00,1194.00 1652.00,1194.00 1652.00,1194.00 Z            M 1423.00,1097.29            C 1437.26,1095.94 1450.02,1098.36 1460.83,1108.44              1476.66,1123.20 1478.63,1150.93 1465.47,1168.00              1457.53,1178.31 1447.67,1183.06 1435.00,1184.71              1429.71,1185.40 1425.17,1184.90 1420.00,1183.79              1382.36,1175.67 1374.54,1125.88 1404.00,1104.79              1409.61,1100.77 1416.26,1098.42 1423.00,1097.29 Z            M 1946.00,1097.29            C 1957.28,1096.22 1967.18,1097.38 1977.00,1103.47              1999.74,1117.57 2003.17,1151.39 1985.70,1170.96              1978.03,1179.55 1968.15,1183.34 1957.00,1184.71              1931.92,1187.80 1909.30,1168.31 1909.00,1143.00              1908.85,1129.51 1911.72,1117.83 1922.09,1108.30              1929.13,1101.82 1936.73,1098.83 1946.00,1097.29 Z            M 2642.00,1329.00            C 2643.65,1329.82 2644.20,1329.90 2645.62,1331.29              2645.62,1331.29 2661.00,1356.00 2661.00,1356.00              2661.00,1356.00 2688.60,1402.00 2688.60,1402.00              2688.60,1402.00 2702.61,1424.97 2702.61,1424.97              2709.55,1434.03 2722.45,1434.58 2729.15,1424.97              2732.15,1420.65 2731.99,1416.98 2732.00,1412.00              2732.00,1412.00 2732.00,1227.00 2732.00,1227.00              2731.99,1222.20 2732.19,1219.33 2729.52,1215.04              2724.17,1206.44 2712.81,1204.57 2705.19,1211.39              2699.54,1216.44 2699.01,1224.93 2699.00,1232.00              2699.00,1232.00 2699.00,1353.00 2699.00,1353.00              2693.11,1348.02 2689.18,1339.64 2685.20,1333.00              2685.20,1333.00 2663.60,1297.00 2663.60,1297.00              2658.79,1288.99 2653.29,1277.85 2642.00,1279.51              2631.89,1280.99 2627.90,1290.17 2623.20,1298.00              2623.20,1298.00 2600.40,1336.00 2600.40,1336.00              2597.18,1341.37 2593.43,1349.95 2588.00,1353.00              2588.00,1353.00 2588.00,1292.00 2588.00,1292.00              2588.00,1292.00 2588.00,1228.00 2588.00,1228.00              2587.99,1223.17 2588.14,1219.23 2585.30,1215.01              2578.43,1204.77 2564.70,1204.47 2557.99,1215.01              2555.03,1219.67 2555.01,1223.73 2555.00,1229.00              2555.00,1229.00 2555.00,1411.00 2555.00,1411.00              2555.01,1415.01 2554.82,1418.28 2556.69,1422.00              2561.52,1431.66 2573.06,1435.39 2581.70,1428.21              2586.00,1424.64 2591.15,1415.09 2594.20,1410.00              2594.20,1410.00 2614.60,1376.00 2614.60,1376.00              2614.60,1376.00 2642.00,1329.00 2642.00,1329.00 Z            M 721.00,1481.00            C 721.00,1481.00 804.00,1481.00 804.00,1481.00              804.00,1481.00 804.00,1557.00 804.00,1557.00              804.01,1561.77 803.87,1565.84 806.70,1569.98              812.83,1578.98 824.38,1579.81 831.79,1571.90              836.66,1566.69 836.99,1559.74 837.00,1553.00              837.00,1553.00 837.00,1377.00 837.00,1377.00              836.99,1370.13 836.63,1362.66 831.52,1357.47              823.58,1349.39 811.74,1351.50 806.01,1361.00              803.78,1364.69 804.01,1367.89 804.00,1372.00              804.00,1372.00 804.00,1448.00 804.00,1448.00              804.00,1448.00 721.00,1448.00 721.00,1448.00              721.00,1448.00 721.00,1373.00 721.00,1373.00              720.99,1367.04 720.77,1362.89 716.61,1358.10              709.35,1349.74 697.11,1350.84 691.13,1360.02              687.97,1364.86 688.01,1368.49 688.00,1374.00              688.00,1374.00 688.00,1555.00 688.00,1555.00              688.01,1560.24 688.07,1565.36 691.14,1569.91              697.30,1579.03 710.62,1579.76 717.35,1570.91              720.88,1566.27 720.99,1561.52 721.00,1556.00              721.00,1556.00 721.00,1481.00 721.00,1481.00 Z            M 1368.00,1372.30            C 1383.37,1370.77 1397.69,1374.33 1408.38,1386.17              1415.27,1393.80 1418.88,1403.79 1419.00,1414.00              1419.28,1438.39 1405.62,1456.03 1381.00,1459.57              1375.15,1460.41 1370.73,1460.03 1365.00,1458.79              1328.42,1450.90 1319.63,1404.01 1347.00,1381.33              1352.97,1376.38 1360.46,1373.72 1368.00,1372.30 Z            M 2616.00,1729.00            C 2616.00,1729.00 2616.00,1666.00 2616.00,1666.00              2616.00,1666.00 2698.00,1666.00 2698.00,1666.00              2706.69,1665.88 2714.93,1661.36 2716.15,1652.00              2717.97,1638.08 2705.39,1633.02 2694.00,1633.00              2694.00,1633.00 2616.00,1633.00 2616.00,1633.00              2616.00,1633.00 2616.00,1570.00 2616.00,1570.00              2616.00,1570.00 2694.00,1570.00 2694.00,1570.00              2699.24,1569.99 2704.36,1569.93 2708.91,1566.86              2717.37,1561.14 2718.66,1548.37 2710.82,1541.53              2705.84,1537.19 2701.20,1537.01 2695.00,1537.00              2695.00,1537.00 2604.00,1537.00 2604.00,1537.00              2600.98,1537.00 2597.92,1536.90 2595.00,1537.80              2590.08,1539.32 2585.85,1543.18 2583.99,1548.00              2582.63,1551.55 2583.00,1557.11 2583.00,1561.00              2583.00,1561.00 2583.00,1585.00 2583.00,1585.00              2583.00,1585.00 2583.00,1742.00 2583.00,1742.00              2583.02,1756.37 2588.63,1761.98 2603.00,1762.00              2603.00,1762.00 2696.00,1762.00 2696.00,1762.00              2700.77,1761.99 2704.84,1762.13 2708.98,1759.30              2717.86,1753.25 2718.70,1741.52 2710.90,1734.21              2705.69,1729.34 2698.74,1729.01 2692.00,1729.00              2692.00,1729.00 2616.00,1729.00 2616.00,1729.00 Z            M 1699.00,1647.29            C 1707.30,1646.50 1715.24,1647.00 1723.00,1650.34              1738.20,1656.88 1748.80,1671.27 1749.00,1688.00              1749.12,1698.77 1747.84,1707.96 1741.37,1717.00              1733.77,1727.60 1722.69,1733.15 1710.00,1734.71              1664.59,1740.31 1643.91,1681.98 1678.00,1655.68              1684.64,1650.55 1690.87,1648.64 1699.00,1647.29 Z            M 758.00,1696.64            C 746.92,1700.82 745.82,1707.88 742.05,1718.00              742.05,1718.00 732.68,1743.00 732.68,1743.00              732.68,1743.00 682.81,1876.00 682.81,1876.00              680.63,1881.71 673.18,1900.06 673.18,1905.00              673.20,1914.23 681.94,1921.67 691.00,1920.89              699.31,1920.18 703.40,1914.10 706.19,1907.00              706.19,1907.00 721.58,1866.00 721.58,1866.00              723.03,1862.15 725.92,1852.01 729.22,1850.02              731.26,1848.80 734.66,1849.00 737.00,1849.00              737.00,1849.00 787.00,1849.00 787.00,1849.00              789.21,1849.00 792.71,1848.78 794.58,1850.02              797.20,1851.76 800.18,1861.70 801.42,1865.00              801.42,1865.00 816.42,1905.00 816.42,1905.00              820.13,1914.72 825.96,1923.58 838.00,1920.44              845.24,1918.56 850.27,1911.42 849.89,1904.00              849.62,1898.66 840.66,1876.48 838.19,1870.00              838.19,1870.00 787.19,1734.00 787.19,1734.00              787.19,1734.00 780.42,1716.00 780.42,1716.00              776.35,1705.20 772.30,1693.90 758.00,1696.64 Z            M 782.00,1816.00            C 782.00,1816.00 741.00,1816.00 741.00,1816.00              741.00,1816.00 747.05,1797.00 747.05,1797.00              747.05,1797.00 760.00,1762.00 760.00,1762.00              765.34,1763.82 766.22,1770.10 768.05,1775.00              771.54,1784.36 781.53,1807.47 782.00,1816.00 Z            M 2625.00,1881.52            C 2625.00,1881.52 2603.00,1890.20 2603.00,1890.20              2598.10,1892.18 2591.88,1894.33 2588.18,1898.11              2585.03,1901.32 2580.34,1909.77 2577.80,1914.00              2575.12,1918.47 2570.66,1925.07 2569.53,1930.00              2569.53,1930.00 2569.00,1954.00 2569.00,1954.00              2569.06,1964.69 2573.89,1970.15 2579.20,1979.00              2581.64,1983.07 2585.84,1990.64 2589.18,1993.61              2592.94,1996.96 2604.83,2001.25 2610.00,2003.42              2619.61,2007.46 2623.25,2009.98 2634.00,2010.00              2634.00,2010.00 2649.00,2010.00 2649.00,2010.00              2655.68,2010.08 2669.87,2014.93 2674.79,2019.39              2679.69,2023.83 2683.91,2032.42 2684.00,2039.00              2684.00,2039.00 2684.00,2043.00 2684.00,2043.00              2683.96,2050.90 2679.71,2060.62 2672.96,2065.19              2670.95,2066.54 2666.44,2068.23 2664.00,2069.28              2658.24,2071.76 2656.42,2072.91 2650.00,2073.00              2636.63,2073.17 2634.58,2074.29 2622.00,2069.20              2619.30,2068.11 2615.39,2066.63 2613.04,2065.03              2605.03,2059.57 2602.15,2043.93 2592.00,2039.05              2580.49,2033.52 2568.09,2043.75 2569.20,2055.00              2569.76,2060.68 2574.27,2067.12 2577.20,2072.00              2579.81,2076.36 2584.93,2085.59 2588.18,2088.81              2592.13,2092.72 2598.85,2095.12 2604.00,2097.20              2612.63,2100.69 2621.55,2105.88 2631.00,2105.83              2631.00,2105.83 2660.00,2105.83 2660.00,2105.83              2664.36,2104.91 2675.34,2099.93 2680.00,2098.01              2684.15,2096.30 2692.73,2093.15 2695.96,2090.59              2700.28,2087.15 2704.09,2079.85 2707.00,2075.00              2711.54,2067.43 2716.88,2061.07 2717.00,2052.00              2717.06,2047.02 2717.41,2028.65 2716.36,2025.00              2715.25,2021.14 2709.35,2011.92 2707.00,2008.00              2704.05,2003.08 2700.47,1996.03 2695.96,1992.63              2692.26,1989.85 2685.41,1987.43 2681.00,1985.58              2671.01,1981.38 2664.04,1977.02 2653.00,1977.00              2653.00,1977.00 2638.00,1977.00 2638.00,1977.00              2631.07,1976.96 2617.67,1972.54 2612.18,1968.30              2607.11,1964.39 2602.11,1954.37 2602.00,1948.00              2601.85,1938.77 2601.53,1938.07 2606.40,1930.00              2607.76,1927.74 2609.28,1925.08 2611.21,1923.27              2613.97,1920.67 2618.49,1919.23 2622.00,1917.72              2627.76,1915.24 2629.58,1914.09 2636.00,1914.00              2650.50,1913.81 2652.41,1912.72 2666.00,1918.42              2666.00,1918.42 2673.79,1922.07 2673.79,1922.07              2678.63,1925.45 2683.97,1939.15 2689.47,1944.52              2695.43,1950.35 2703.15,1951.28 2709.98,1946.35              2725.21,1935.39 2711.37,1919.27 2704.60,1908.00              2695.78,1893.31 2693.03,1894.21 2678.00,1888.01              2673.70,1886.24 2665.08,1882.39 2661.00,1881.52              2656.43,1880.54 2629.94,1880.72 2625.00,1881.52 Z            M 1707.00,2593.00            C 1702.42,2590.28 1702.40,2586.84 1701.00,2582.00              1701.00,2582.00 1693.58,2556.00 1693.58,2556.00              1693.58,2556.00 1663.86,2452.00 1663.86,2452.00              1663.86,2452.00 1591.58,2199.00 1591.58,2199.00              1591.58,2199.00 1569.58,2122.00 1569.58,2122.00              1569.58,2122.00 1563.00,2099.00 1563.00,2099.00              1563.00,2099.00 1559.60,2086.00 1559.60,2086.00              1559.44,2081.57 1569.17,2069.13 1571.73,2064.00              1577.18,2053.10 1581.85,2035.20 1582.00,2023.00              1582.62,1969.37 1540.32,1926.11 1487.00,1924.04              1476.90,1923.65 1461.58,1926.98 1452.00,1930.34              1442.44,1933.69 1430.54,1940.44 1423.00,1947.17              1413.47,1955.68 1405.74,1964.68 1399.78,1976.00              1394.49,1986.05 1389.89,1999.63 1389.09,2011.00              1386.75,2044.24 1397.81,2073.98 1424.00,2095.54              1429.84,2100.34 1436.21,2104.43 1443.00,2107.74              1446.45,2109.42 1453.18,2111.59 1455.44,2114.27              1457.43,2116.62 1458.81,2122.86 1459.71,2126.00              1459.71,2126.00 1466.58,2150.00 1466.58,2150.00              1466.58,2150.00 1613.71,2665.00 1613.71,2665.00              1613.71,2665.00 1640.58,2759.00 1640.58,2759.00              1640.58,2759.00 1656.86,2813.00 1656.86,2813.00              1664.62,2830.21 1682.81,2843.77 1702.00,2844.00              1723.13,2844.24 1739.79,2836.59 1751.07,2818.00              1756.75,2808.66 1763.55,2780.96 1767.00,2769.00              1767.00,2769.00 1795.29,2670.00 1795.29,2670.00              1795.29,2670.00 1944.42,2148.00 1944.42,2148.00              1944.42,2148.00 1951.00,2125.00 1951.00,2125.00              1951.82,2122.17 1953.15,2116.45 1954.84,2114.27              1956.85,2111.68 1962.82,2109.85 1966.00,2108.36              1971.93,2105.58 1978.80,2101.47 1984.00,2097.50              2005.92,2080.76 2021.67,2051.91 2022.00,2024.00              2022.51,1979.74 1994.97,1940.64 1952.00,1928.29              1944.32,1926.08 1931.91,1923.73 1924.00,1924.04              1883.91,1925.60 1848.42,1949.96 1834.59,1988.00              1831.45,1996.61 1829.11,2005.79 1829.00,2015.00              1828.79,2032.91 1829.77,2044.29 1837.31,2061.00              1839.93,2066.80 1842.46,2070.79 1846.02,2076.00              1848.16,2079.12 1850.75,2082.02 1850.71,2086.00              1850.71,2086.00 1844.86,2108.00 1844.86,2108.00              1844.86,2108.00 1831.42,2155.00 1831.42,2155.00              1831.42,2155.00 1788.00,2307.00 1788.00,2307.00              1788.00,2307.00 1732.58,2501.00 1732.58,2501.00              1732.58,2501.00 1715.14,2562.00 1715.14,2562.00              1713.03,2569.44 1707.60,2586.34 1707.00,2593.00 Z            M 1479.00,1977.29            C 1494.27,1975.84 1508.98,1980.04 1519.18,1992.09              1525.57,1999.64 1528.88,2009.17 1529.00,2019.00              1529.28,2043.04 1515.59,2061.51 1491.00,2064.71              1476.81,2066.56 1461.85,2061.70 1452.18,2050.99              1434.84,2031.77 1438.05,2000.21 1459.00,1984.93              1465.31,1980.32 1471.43,1978.55 1479.00,1977.29 Z            M 1919.00,1977.29            C 1933.90,1975.88 1948.08,1979.76 1958.38,1991.17              1964.92,1998.42 1968.88,2008.25 1968.77,2018.00              1969.04,2021.59 1969.16,2026.55 1968.77,2030.00              1965.10,2049.03 1949.88,2062.25 1931.00,2064.71              1916.43,2066.61 1900.86,2061.41 1891.33,2050.00              1875.17,2030.65 1878.61,1999.80 1899.00,1984.93              1905.31,1980.32 1911.43,1978.55 1919.00,1977.29 Z            M 749.00,2053.21            C 739.51,2055.01 731.83,2059.01 723.00,2062.60              718.52,2064.43 711.54,2067.01 708.10,2070.21              704.57,2073.50 699.15,2083.41 696.40,2088.00              690.59,2097.69 688.02,2099.43 688.00,2111.00              688.00,2111.00 688.00,2182.00 688.00,2182.00              688.00,2182.00 688.00,2220.00 688.00,2220.00              688.02,2233.70 692.20,2237.66 699.00,2249.00              702.19,2254.31 704.97,2259.73 710.00,2263.59              713.78,2266.48 724.12,2270.18 729.00,2272.28              736.22,2275.38 743.03,2278.90 751.00,2278.77              751.00,2278.77 779.00,2278.77 779.00,2278.77              783.85,2277.62 795.86,2272.34 801.00,2270.15              806.86,2267.65 813.33,2265.68 817.79,2260.91              820.44,2258.08 824.06,2251.57 826.20,2248.00              832.28,2237.86 836.85,2232.33 837.00,2220.00              837.00,2220.00 837.00,2175.00 837.00,2175.00              837.00,2175.00 837.00,2114.00 837.00,2114.00              836.98,2101.14 834.83,2098.71 828.40,2088.00              825.79,2083.65 820.16,2073.38 816.82,2070.39              812.94,2066.92 803.99,2063.67 799.00,2061.58              782.27,2054.56 781.43,2053.00 763.00,2053.21              763.00,2053.21 749.00,2053.21 749.00,2053.21 Z            M 752.00,2086.33            C 765.23,2084.86 772.85,2085.49 785.00,2090.72              788.43,2092.20 792.86,2093.52 795.39,2096.27              796.63,2097.61 798.22,2100.37 799.20,2102.00              800.60,2104.33 802.59,2107.44 803.71,2110.00              804.45,2113.66 804.00,2130.07 803.71,2135.00              803.71,2135.00 803.71,2215.00 803.71,2215.00              804.00,2217.22 804.09,2219.86 803.71,2222.00              802.34,2226.26 796.51,2235.51 792.91,2238.03              790.44,2239.76 785.90,2241.42 783.00,2242.60              776.39,2245.29 776.33,2245.96 769.00,2246.00              769.00,2246.00 755.00,2246.00 755.00,2246.00              748.58,2245.91 746.76,2244.76 741.00,2242.28              738.25,2241.10 732.41,2239.02 730.38,2237.30              727.71,2235.06 722.16,2225.44 721.22,2222.00              720.93,2219.95 721.00,2217.13 721.22,2215.00              721.22,2215.00 721.22,2117.00 721.22,2117.00              721.00,2114.78 720.91,2112.14 721.22,2110.00              722.37,2106.81 727.87,2097.66 730.33,2095.49              733.62,2092.59 747.42,2087.41 752.00,2086.33 Z            M 2627.00,2230.00            C 2627.00,2230.00 2627.00,2402.00 2627.00,2402.00              2627.01,2407.06 2626.84,2410.57 2629.85,2414.98              2635.74,2423.62 2647.65,2424.52 2654.79,2416.90              2659.66,2411.69 2659.99,2404.74 2660.00,2398.00              2660.00,2398.00 2660.00,2230.00 2660.00,2230.00              2660.00,2230.00 2688.00,2230.00 2688.00,2230.00              2691.85,2230.00 2700.71,2230.27 2704.00,2229.47              2710.58,2227.87 2716.12,2221.79 2716.80,2215.00              2717.94,2203.66 2708.30,2197.13 2698.00,2197.00              2698.00,2197.00 2591.00,2197.00 2591.00,2197.00              2583.58,2197.01 2577.42,2197.76 2572.42,2204.04              2563.88,2214.75 2572.23,2229.79 2588.00,2230.00              2588.00,2230.00 2627.00,2230.00 2627.00,2230.00 Z            M 751.00,2411.49            C 745.56,2412.76 720.42,2423.02 716.01,2425.96              710.54,2429.62 706.80,2437.34 703.40,2443.00              697.93,2452.12 694.05,2455.99 694.19,2467.00              694.19,2467.00 694.19,2491.00 694.19,2491.00              695.33,2495.38 699.62,2502.03 702.00,2506.00              705.10,2511.17 709.78,2519.98 714.04,2523.79              717.93,2527.26 725.99,2530.18 731.00,2532.20              731.00,2532.20 750.00,2539.81 750.00,2539.81              750.00,2539.81 771.00,2539.81 771.00,2539.81              773.71,2540.00 776.34,2539.93 779.00,2540.53              782.54,2541.33 797.20,2547.30 799.62,2549.50              804.45,2553.88 808.91,2563.50 809.00,2570.00              809.00,2570.00 809.00,2574.00 809.00,2574.00              808.91,2580.44 807.87,2581.57 804.60,2587.00              803.23,2589.28 801.70,2591.92 799.79,2593.78              796.26,2597.21 782.05,2602.83 777.00,2603.84              777.00,2603.84 764.00,2603.84 764.00,2603.84              755.34,2603.96 754.73,2602.75 747.00,2599.60              744.15,2598.44 739.56,2596.78 737.18,2595.03              730.52,2590.14 726.53,2574.24 717.00,2569.45              707.99,2564.92 697.05,2570.43 694.56,2580.00              692.31,2588.60 698.24,2596.07 702.40,2603.00              705.09,2607.48 709.75,2616.02 713.32,2619.32              717.72,2623.39 724.51,2625.74 730.00,2628.01              740.26,2632.24 748.59,2636.86 760.00,2637.00              767.27,2637.08 778.17,2637.49 785.00,2635.98              790.15,2634.85 800.68,2630.12 806.00,2627.85              810.70,2625.85 817.09,2623.80 820.96,2620.61              825.40,2616.96 829.00,2610.00 832.00,2605.00              834.63,2600.62 839.90,2592.55 841.21,2588.00              842.34,2584.07 842.00,2577.28 842.00,2573.00              842.00,2567.73 842.51,2559.82 840.90,2555.00              839.33,2550.34 834.85,2543.41 832.20,2539.00              828.73,2533.22 825.55,2526.66 820.00,2522.63              816.02,2519.75 809.61,2517.51 805.00,2515.58              793.59,2510.79 787.78,2507.02 775.00,2507.00              775.00,2507.00 761.00,2507.00 761.00,2507.00              755.02,2506.92 740.92,2502.14 736.38,2498.30              731.39,2494.10 727.09,2484.45 727.00,2478.00              727.00,2478.00 727.00,2474.00 727.00,2474.00              727.04,2466.60 731.10,2457.28 737.10,2452.65              739.28,2450.96 744.28,2449.01 747.00,2447.85              749.45,2446.81 753.49,2445.09 756.00,2444.45              759.31,2443.78 775.65,2443.71 779.00,2444.45              782.04,2444.98 795.35,2450.41 797.91,2452.07              803.98,2456.02 808.33,2469.12 814.18,2474.79              820.19,2480.61 828.21,2481.69 834.96,2476.44              849.26,2465.34 837.20,2451.33 830.40,2440.00              828.12,2436.20 825.03,2430.35 821.82,2427.53              817.86,2424.05 810.94,2421.84 806.00,2419.72              806.00,2419.72 785.00,2411.49 785.00,2411.49              780.56,2410.57 755.95,2410.78 751.00,2411.49 Z            M 1261.00,2859.42            C 1261.00,2859.42 1251.00,2860.44 1251.00,2860.44              1233.70,2863.15 1216.32,2870.90 1203.00,2882.30              1159.03,2919.93 1157.03,2985.16 1198.28,3025.58              1213.84,3040.81 1234.48,3049.86 1256.00,3052.16              1260.56,3052.65 1262.07,3053.17 1267.00,3052.96              1272.15,3052.75 1281.98,3051.36 1287.00,3050.11              1290.16,3049.32 1294.90,3047.36 1298.00,3048.23              1300.48,3048.93 1304.80,3052.48 1307.00,3054.13              1307.00,3054.13 1325.00,3067.63 1325.00,3067.63              1325.00,3067.63 1383.98,3111.89 1383.98,3111.89              1391.02,3117.59 1388.36,3123.65 1389.17,3132.00              1390.03,3140.89 1392.92,3150.80 1396.43,3159.00              1413.67,3199.34 1456.75,3223.40 1500.00,3216.56              1511.79,3214.70 1522.66,3210.75 1533.00,3204.85              1588.64,3173.09 1598.12,3098.77 1553.83,3053.09              1536.55,3035.26 1511.53,3025.48 1487.00,3024.09              1482.22,3023.82 1468.93,3025.71 1464.00,3026.88              1460.84,3027.63 1454.95,3029.79 1452.00,3028.88              1449.71,3028.18 1445.10,3024.45 1443.00,3022.87              1443.00,3022.87 1425.00,3009.37 1425.00,3009.37              1425.00,3009.37 1385.00,2979.37 1385.00,2979.37              1385.00,2979.37 1366.06,2965.11 1366.06,2965.11              1360.28,2960.22 1362.59,2957.34 1361.72,2950.00              1360.54,2940.07 1359.18,2931.36 1355.40,2922.00              1342.67,2890.47 1317.63,2868.16 1284.00,2861.40              1277.44,2860.08 1267.55,2858.63 1261.00,2859.42 Z            M 2141.00,2859.42            C 2126.42,2861.49 2119.01,2861.85 2105.00,2868.31              2078.15,2880.70 2058.74,2904.42 2051.63,2933.00              2050.24,2938.58 2049.07,2944.23 2049.00,2950.00              2048.97,2953.14 2049.40,2958.24 2047.98,2960.96              2046.30,2964.17 2040.06,2968.33 2037.00,2970.63              2037.00,2970.63 2014.00,2987.87 2014.00,2987.87              2014.00,2987.87 1976.00,3016.37 1976.00,3016.37              1972.69,3018.86 1961.06,3028.13 1958.00,3028.97              1955.04,3029.77 1951.02,3027.95 1948.00,3027.24              1941.93,3025.80 1933.21,3024.44 1927.00,3024.09              1923.17,3023.88 1921.53,3024.48 1918.00,3024.83              1900.05,3026.63 1887.24,3030.77 1872.00,3040.69              1847.17,3056.86 1829.05,3087.02 1829.00,3117.00              1828.97,3134.49 1829.95,3144.68 1837.31,3161.00              1851.54,3192.53 1881.93,3213.52 1916.00,3217.16              1920.79,3217.68 1922.89,3218.26 1928.00,3217.91              1966.74,3215.28 2000.22,3193.80 2014.80,3157.00              2018.46,3147.74 2020.87,3137.93 2021.83,3128.00              2022.40,3122.18 2020.45,3117.19 2025.15,3112.89              2025.15,3112.89 2084.00,3068.63 2084.00,3068.63              2084.00,3068.63 2102.00,3055.13 2102.00,3055.13              2104.24,3053.45 2109.66,3049.10 2112.00,3048.32              2115.27,3047.23 2125.87,3050.81 2130.00,3051.63              2139.94,3053.30 2149.05,3053.05 2159.00,3051.63              2206.82,3045.26 2242.07,3002.70 2242.00,2955.00              2241.94,2913.60 2213.83,2877.27 2175.00,2864.33              2166.05,2861.35 2150.27,2858.30 2141.00,2859.42 Z            M 1259.00,2912.29            C 1266.70,2911.56 1274.73,2912.31 1282.00,2915.06              1308.28,2925.03 1317.22,2959.43 1301.43,2982.00              1292.67,2994.50 1278.88,3000.16 1264.00,3000.00              1222.10,2999.52 1208.11,2949.14 1234.04,2924.09              1241.33,2917.05 1249.18,2913.92 1259.00,2912.29 Z            M 2140.00,2912.29            C 2146.69,2911.66 2153.58,2912.26 2160.00,2914.36              2190.26,2924.24 2198.81,2964.05 2177.56,2986.83              2168.80,2996.23 2156.55,3000.14 2144.00,3000.00              2106.46,2999.57 2087.77,2954.87 2111.33,2927.01              2118.87,2918.09 2128.78,2914.00 2140.00,2912.29 Z            M 1701.00,2914.42            C 1701.00,2914.42 1691.00,2915.44 1691.00,2915.44              1679.73,2917.21 1666.80,2921.62 1657.00,2927.45              1630.54,2943.20 1609.37,2973.45 1609.00,3005.00              1608.83,3020.17 1608.93,3029.41 1614.42,3044.00              1619.82,3058.33 1626.06,3067.84 1636.72,3078.83              1636.72,3078.83 1650.98,3092.17 1650.98,3092.17              1652.00,3093.99 1651.96,3095.98 1652.00,3098.00              1652.00,3098.00 1652.00,3142.00 1652.00,3142.00              1651.98,3153.76 1649.92,3150.21 1638.00,3162.00              1630.40,3169.52 1624.16,3177.46 1619.26,3187.00              1595.27,3233.70 1613.77,3292.98 1661.00,3316.75              1674.32,3323.46 1689.02,3327.65 1704.00,3327.99              1711.01,3328.14 1721.14,3326.54 1728.00,3324.87              1782.23,3311.63 1815.11,3254.04 1796.92,3201.00              1792.15,3187.09 1784.95,3174.79 1774.83,3164.04              1774.83,3164.04 1760.02,3150.68 1760.02,3150.68              1758.99,3148.94 1759.04,3146.95 1759.00,3145.00              1759.00,3145.00 1759.00,3100.00 1759.00,3100.00              1759.03,3086.80 1764.64,3089.10 1775.91,3077.00              1784.64,3067.62 1792.08,3055.10 1796.31,3043.00              1814.27,2991.51 1786.78,2936.58 1735.00,2919.33              1726.05,2916.35 1710.27,2913.30 1701.00,2914.42 Z            M 1700.00,2967.29            C 1716.00,2965.79 1731.80,2971.64 1741.37,2985.00              1746.31,2991.90 1748.90,3000.57 1749.00,3009.00              1749.22,3028.09 1742.00,3042.86 1724.00,3051.21              1717.32,3054.30 1711.26,3055.08 1704.00,3055.00              1675.77,3054.68 1657.13,3030.27 1661.92,3003.00              1663.28,2995.29 1666.93,2986.86 1672.18,2981.01              1679.90,2972.42 1688.91,2968.98 1700.00,2967.29 Z            M 1480.00,3077.29            C 1491.00,3076.26 1503.12,3078.68 1512.00,3085.53              1538.02,3105.58 1534.10,3147.25 1504.00,3161.21              1497.32,3164.30 1491.26,3165.08 1484.00,3165.00              1459.22,3164.72 1440.07,3144.86 1441.04,3120.00              1441.44,3109.61 1445.17,3098.79 1452.18,3091.01              1459.94,3082.41 1468.88,3078.98 1480.00,3077.29 Z            M 1920.00,3077.29            C 1936.27,3075.77 1951.54,3081.60 1961.39,3095.00              1966.16,3101.49 1968.90,3109.98 1969.00,3118.00              1969.23,3137.56 1962.72,3152.66 1944.00,3161.21              1937.21,3164.31 1931.36,3165.08 1924.00,3165.00              1895.77,3164.68 1877.13,3140.27 1881.92,3113.00              1883.19,3105.80 1886.59,3097.62 1891.33,3092.01              1898.87,3083.09 1908.78,3079.00 1920.00,3077.29 Z            M 1700.00,3187.29            C 1715.87,3185.78 1730.58,3191.16 1740.47,3204.00              1757.43,3226.00 1749.21,3259.70 1724.00,3271.21              1717.21,3274.31 1711.36,3275.08 1704.00,3275.00              1666.77,3274.57 1648.24,3231.59 1670.53,3203.00              1678.00,3193.41 1688.40,3189.21 1700.00,3187.29 Z" />
</svg>
