<?xml version="1.0" encoding="UTF-8" standalone="no"?>
<svg
   xmlns:dc="http://purl.org/dc/elements/1.1/"
   xmlns:cc="http://creativecommons.org/ns#"
   xmlns:rdf="http://www.w3.org/1999/02/22-rdf-syntax-ns#"
   xmlns:svg="http://www.w3.org/2000/svg"
   xmlns="http://www.w3.org/2000/svg"
   xmlns:xlink="http://www.w3.org/1999/xlink"
   xmlns:sodipodi="http://sodipodi.sourceforge.net/DTD/sodipodi-0.dtd"
   xmlns:inkscape="http://www.inkscape.org/namespaces/inkscape"
   sodipodi:docname="chaoswest-36c3.svg"
   inkscape:version="1.0 (4035a4fb49, 2020-05-01)"
   id="svg8"
   version="1.1"
   viewBox="0 0 98.48613 120.64343"
   height="120.64343mm"
   width="98.48613mm">
  <defs
     id="defs2" />
  <sodipodi:namedview
     inkscape:window-maximized="1"
     inkscape:window-y="24"
     inkscape:window-x="0"
     inkscape:window-height="1388"
     inkscape:window-width="2556"
     fit-margin-bottom="0"
     fit-margin-right="0"
     fit-margin-left="0"
     fit-margin-top="0"
     showgrid="false"
     inkscape:document-rotation="0"
     inkscape:current-layer="layer1"
     inkscape:document-units="mm"
     inkscape:cy="231.32308"
     inkscape:cx="102.31891"
     inkscape:zoom="0.74015863"
     inkscape:pageshadow="2"
     inkscape:pageopacity="0.0"
     borderopacity="1.0"
     bordercolor="#666666"
     pagecolor="#ffffff"
     id="base" />
  <metadata
     id="metadata5">
    <rdf:RDF>
      <cc:Work
         rdf:about="">
        <dc:format>image/svg+xml</dc:format>
        <dc:type
           rdf:resource="http://purl.org/dc/dcmitype/StillImage" />
        <dc:title></dc:title>
      </cc:Work>
    </rdf:RDF>
  </metadata>
  <g
     transform="translate(-31.425232,-28.123973)"
     id="layer1"
     inkscape:groupmode="layer"
     inkscape:label="Ebene 1">
    <g
       id="g1114"
       transform="matrix(0.22708728,0,0,0.22708728,22.584359,29.49074)">
      <text
         transform="translate(0,364.6)"
         id="text4606"><textPath
           id="textPath4608"
           startOffset="83.292997%"
           xlink:href="#SVGID_x5F_1_x5F_" /></text>
      <path
         d="m 244.03997,-6.0186867 73.12367,42.1659997 -6.208,2.8927 -8.1806,-1.07926 -8.4023,-3.07586 -11.82028,2.31905 -14.19078,8.56625 -14.6698,-5.53255 -8.6804,3.86191 -12.71571,4.18362 -13.3395,-2.88852 -10.07285,-0.23293 -9.19602,-2.37307 -11.87157,2.71018 -8.09739,-1.60235 -14.72842,10.53476 -11.17207,-0.79717 -8.90356,-2.39322 z"
         id="polygon4279 1 1 1"
         inkscape:connector-curvature="0"
         style="font-family:none;mix-blend-mode:normal;fill:#505050;fill-rule:nonzero;stroke:none;stroke-width:1;stroke-linecap:butt;stroke-linejoin:miter;stroke-miterlimit:10;stroke-dasharray:none;stroke-dashoffset:0" />
      <path
         d="m 472.54344,138.60987 0.081,250 -216.54382,125.06984 -216.62446,-124.93015 -0.0806,-250 117.41511,-67.815777 8.90342,2.39371 11.17202,0.79779 14.729,-10.53394 8.09731,1.60279 11.87172,-2.70952 9.19589,2.37358 10.07283,0.23349 13.33934,2.88926 12.71594,-4.18292 8.68061,-3.86143 14.66949,5.53336 14.1913,-8.56546 11.8203,-2.3184 8.4022,3.07632 8.1806,1.07971 6.2081,-2.89235 z"
         id="path3"
         inkscape:connector-curvature="0"
         style="font-family:none;mix-blend-mode:normal;fill:#505050;fill-rule:nonzero;stroke:none;stroke-width:1;stroke-linecap:butt;stroke-linejoin:miter;stroke-miterlimit:10;stroke-dasharray:none;stroke-dashoffset:0" />
      <g
         id="g13"
         style="font-family:none;mix-blend-mode:normal;fill:#00bb31;fill-rule:nonzero;stroke:none;stroke-width:1;stroke-linecap:butt;stroke-linejoin:miter;stroke-miterlimit:10;stroke-dasharray:none;stroke-dashoffset:0"
         text-anchor="none"
         font-size="none"
         font-weight="none"
         stroke-miterlimit="10"
         transform="matrix(-1,0,0,1,1386.5188,-234.22883)">
        <path
           style="fill:#00bb31"
           id="polygon4565 1 1 1-8"
           d="m 1013.8577,542.2934 -16.84893,6.48891 -6.81246,-7.10163 -8.47402,-12.15169 -13.3343,-6.5661 -6.89332,-6.50183 -6.87824,-7.99763 -3.91909,-8.59913 -10.87741,-11.10041 -3.58217,-12.20619 4.75742,-15.34784 -10.36399,-9.06705 -2.02841,-6.39486 -0.0444,-8.94469 0.13403,-2.15183 -0.14906,-0.87599 -0.1352,-27.24321 4.27481,-6.71303 -0.59114,-11.09827 -3.81746,-9.1469 -0.0319,-6.42931 7.24385,-6.32283 -0.2269,-14.4839 4.11274,-11.5581 1.53412,-13.60631 0.52641,-11.2809 7.61157,-8.05642 9.38638,-8.91889 8.14022,-5.28709 6.6366,-9.31289 2.02592,-3.08347 15.80166,-8.86231 6.45643,1.20483 11.13144,-5.91531 11.9491,-4.79468 0.2738,279.26038 z"
           inkscape:connector-curvature="0" />
        <path
           style="fill:#00bb31"
           id="path3-5"
           d="m 927.809,297.6194 47.31536,-26.53665 -2.02592,3.08347 -6.6366,9.31289 -8.14022,5.28709 -9.38638,8.91889 -7.61157,8.05642 -0.52641,11.2809 -1.53412,13.60631 -4.11274,11.5581 0.2269,14.4839 -7.24385,6.32283 z"
           inkscape:connector-curvature="0" />
        <path
           style="fill:#00bb31"
           id="path5"
           d="m 1020.775,252.80037 0.01,7.05666 -11.9491,4.79468 -11.1314,5.91531 -6.45643,-1.20483 z"
           inkscape:connector-curvature="0" />
        <path
           style="fill:#00bb31"
           id="path7"
           d="m 1020.0363,759.26597 -91.17647,-52.94118 -1.27603,-257.12066 2.02841,6.39486 10.36399,9.06705 -4.75742,15.34784 3.58217,12.20619 10.87741,11.10041 3.91909,8.59913 6.87824,7.99763 6.89332,6.50183 13.3343,6.5661 8.47402,12.15169 6.81246,7.10163 16.84891,-6.48891 6.9881,-0.16656 z"
           inkscape:connector-curvature="0" />
        <path
           style="fill:#00bb31"
           id="path9"
           d="m 928.5076,380.00307 0.59114,11.09827 -4.27481,6.71303 -0.13379,-26.9582 z"
           inkscape:connector-curvature="0" />
        <path
           style="fill:#00bb31"
           id="path11"
           d="m 933.23635,426.253 -0.13403,2.15183 -0.015,-3.02783 z"
           inkscape:connector-curvature="0" />
      </g>
      <path
         d="m 50.005635,278.44106 12.329396,10.16415 9.217895,4.15341 10.319211,4.11448 10.727584,9.16241 13.049499,1.78733 9.72176,13.12694 0.65949,13.96109 5.96362,9.84022 9.22151,12.0215 -7.72128,9.62819 6.4404,11.22463 -2.49968,14.86509 -0.30331,15.93 -8.14974,6.0375 -9.43081,7.64869 -0.97601,13.34747 -16.470468,5.4787 -7.297023,11.75806 -14.494613,1.86678 -10.483036,2.19701 -9.680664,1.88153 -11.21776,-173.19158 z"
         id="polygon4565 1 1 1"
         inkscape:connector-curvature="0"
         style="font-family:none;mix-blend-mode:normal;fill:#00bb31;fill-rule:nonzero;stroke:none;stroke-width:1;stroke-linecap:butt;stroke-linejoin:miter;stroke-miterlimit:10;stroke-dasharray:none;stroke-dashoffset:0" />
      <path
         d="m 49.183041,79.08937 91.626119,-53.74069 10.1482,499.89724 -92.182079,-51.17011 -0.37169,-15.30522 9.74876,-1.48899 10.56322,-1.77183 14.55819,-1.27983 7.765969,-11.45374 16.67831,-4.80899 1.5143,-13.29716 9.732,-7.26154 8.38692,-5.70342 0.9465,-15.90474 3.098,-14.75201 -5.9817,-11.47558 8.1038,-9.30849 -8.7284,-12.38414 -5.56135,-10.07304 -0.0951,-13.97634 -9.18364,-13.50888 -12.96665,-2.31293 -10.348759,-9.58821 -10.14461,-4.52791 -9.04262,-4.52232 -11.90881,-10.65384 -11.34788,6.55061 z"
         id="path3-1"
         inkscape:connector-curvature="0"
         style="font-family:none;mix-blend-mode:normal;fill:#00bb31;fill-rule:nonzero;stroke:none;stroke-width:1;stroke-linecap:butt;stroke-linejoin:miter;stroke-miterlimit:10;stroke-dasharray:none;stroke-dashoffset:0" />
      <g
         transform="matrix(4.15247,0,0,4.15247,-49.83,-1560.915)"
         id="g4569"
         stroke-miterlimit="10"
         style="fill:#000000;stroke:none;stroke-width:0.354;stroke-miterlimit:10">
        <path
           id="path4571"
           d="m 39.3,404.4 h -5 v 3.6 h 5 v 1.4 h -5 c -0.4,0 -0.7,-0.1 -0.9,-0.4 -0.2,-0.3 -0.4,-0.5 -0.4,-0.9 v -3.8 c 0,-0.4 0.1,-0.7 0.4,-0.9 0.3,-0.2 0.6,-0.4 0.9,-0.4 h 5 z"
           class="st11"
           inkscape:connector-curvature="0"
           style="fill:#000000;stroke:none;stroke-width:0.3543;stroke-miterlimit:10" />
        <path
           id="path4573"
           d="m 38,418.1 h 1.4 v 6.4 H 38 V 422 h -3.8 v 2.5 h -1.4 v -6.4 h 1.4 v 2.5 H 38 Z"
           class="st11"
           inkscape:connector-curvature="0"
           style="fill:#000000;stroke:none;stroke-width:0.3543;stroke-miterlimit:10" />
        <path
           id="path4575"
           d="M 34.2,433.2 H 38 c 0.4,0 0.7,0.1 0.9,0.4 0.3,0.3 0.4,0.6 0.4,0.9 v 5.1 h -1.4 v -2.1 h -3.6 v 2.1 h -1.4 v -5.1 c 0,-0.4 0.1,-0.7 0.4,-0.9 0.3,-0.2 0.6,-0.4 0.9,-0.4 z m 0.1,2.9 h 3.6 v -1.5 h -3.6 z"
           class="st11"
           inkscape:connector-curvature="0"
           style="fill:#000000;stroke:none;stroke-width:0.3543;stroke-miterlimit:10" />
        <path
           id="path4577"
           d="M 34.2,448.2 H 38 c 0.4,0 0.7,0.1 0.9,0.4 0.2,0.3 0.4,0.6 0.4,0.9 v 3.8 c 0,0.4 -0.1,0.7 -0.4,0.9 -0.3,0.2 -0.6,0.4 -0.9,0.4 h -3.8 c -0.4,0 -0.7,-0.1 -0.9,-0.4 -0.2,-0.3 -0.4,-0.6 -0.4,-0.9 v -3.8 c 0,-0.4 0.1,-0.7 0.4,-0.9 0.3,-0.2 0.6,-0.4 0.9,-0.4 z m 0.1,1.4 v 3.6 h 3.6 v -3.6 z"
           class="st11"
           inkscape:connector-curvature="0"
           style="fill:#000000;stroke:none;stroke-width:0.3543;stroke-miterlimit:10" />
        <path
           id="path4579"
           d="m 39.3,464.6 v 0.6 h -1.4 v -0.5 h -3.6 v 1.1 H 38 c 0.4,0 0.7,0.1 0.9,0.4 0.3,0.3 0.4,0.6 0.4,0.9 v 1.3 c 0,0.4 -0.1,0.7 -0.4,0.9 -0.3,0.3 -0.6,0.4 -0.9,0.4 h -3.8 c -0.4,0 -0.7,-0.1 -0.9,-0.4 -0.3,-0.3 -0.4,-0.6 -0.4,-0.9 v -0.6 h 1.4 v 0.5 h 3.6 v -1.1 h -3.7 c -0.4,0 -0.7,-0.1 -0.9,-0.4 -0.3,-0.3 -0.4,-0.6 -0.4,-0.9 v -1.3 c 0,-0.4 0.1,-0.7 0.4,-0.9 0.3,-0.3 0.6,-0.4 0.9,-0.4 H 38 c 0.4,0 0.7,0.1 0.9,0.4 0.3,0.2 0.4,0.5 0.4,0.9 z"
           class="st11"
           inkscape:connector-curvature="0"
           style="fill:#000000;stroke:none;stroke-width:0.3543;stroke-miterlimit:10" />
      </g>
      <g
         transform="matrix(4.15247,0,0,4.15247,-49.83,-1560.915)"
         id="g4587"
         stroke-miterlimit="10"
         style="fill:#000000;stroke:none;stroke-width:0.354;stroke-miterlimit:10">
        <path
           id="path4589"
           d="m 115.2,411.7 h 1.5 l -2.3,6.4 h -1.1 l -1.5,-4.1 -0.6,1.6 -0.9,2.5 h -1.1 l -2.3,-6.4 h 1.5 l 1.4,3.8 0.2,-0.6 1.2,-3.2 h 1.3 l 1.4,3.8 0.2,-0.6 z"
           class="st11"
           inkscape:connector-curvature="0"
           style="fill:#000000;stroke:none;stroke-width:0.3543;stroke-miterlimit:10" />
        <path
           id="path4591"
           d="m 114.8,426.7 v 1.4 h -4.5 v 1.1 h 3.6 v 1.4 h -3.6 v 1.1 h 4.5 v 1.4 h -5.9 v -6.4 z"
           class="st11"
           inkscape:connector-curvature="0"
           style="fill:#000000;stroke:none;stroke-width:0.3543;stroke-miterlimit:10" />
        <path
           id="path4593"
           d="m 115,443.1 v 0.6 h -1.4 v -0.5 H 110 v 1.1 h 3.7 c 0.4,0 0.7,0.1 0.9,0.4 0.3,0.3 0.4,0.6 0.4,0.9 v 1.3 c 0,0.4 -0.1,0.7 -0.4,0.9 -0.3,0.2 -0.6,0.4 -0.9,0.4 h -3.8 c -0.4,0 -0.7,-0.1 -0.9,-0.4 -0.2,-0.3 -0.4,-0.6 -0.4,-0.9 v -0.6 h 1.4 v 0.5 h 3.6 v -1.1 h -3.7 c -0.4,0 -0.7,-0.1 -0.9,-0.4 -0.2,-0.3 -0.4,-0.6 -0.4,-0.9 v -1.3 c 0,-0.4 0.1,-0.7 0.4,-0.9 0.3,-0.2 0.6,-0.4 0.9,-0.4 h 3.8 c 0.4,0 0.7,0.1 0.9,0.4 0.2,0.3 0.4,0.5 0.4,0.9 z"
           class="st11"
           inkscape:connector-curvature="0"
           style="fill:#000000;stroke:none;stroke-width:0.3543;stroke-miterlimit:10" />
        <path
           id="path4595"
           d="m 108.6,456.9 h 6.4 v 1.4 h -2.5 v 5 h -1.4 v -5 h -2.5 z"
           class="st11"
           inkscape:connector-curvature="0"
           style="fill:#000000;stroke:none;stroke-width:0.3543;stroke-miterlimit:10" />
      </g>
      <path
         d="m 57.303726,392.40689 v 34.4655 l 90.108594,53.56686 v -35.29599"
         class="st12"
         id="SVGID_x5F_1_x5F_"
         inkscape:connector-curvature="0"
         style="fill:none;stroke-width:4.15247" />
      <path
         id="path4724"
         d="m 195.58098,436.83832 c -1.24574,-1.24574 -2.90673,-2.07624 -4.56772,-2.49148 -0.83049,0 -1.66099,0 -2.49148,0.41524 l -27.82155,-27.4063 v -0.83049 c 0.41525,-3.73723 -2.49148,-7.0592 -6.22871,-7.47445 -1.66098,0 -3.73722,0.41525 -4.98296,1.66099 -1.24574,1.24574 -2.07624,2.90673 -2.49148,4.56772 0,1.66098 0.41524,3.73722 1.66099,4.98296 1.24574,1.24574 2.90672,2.07623 4.56771,2.49148 h 1.66099 l 28.65204,27.82155 v 0.41525 c 0,1.66099 0.41525,3.73722 1.66099,4.98296 1.24574,1.24574 2.90673,2.07624 4.56772,2.49148 h 0.41525 c 3.32197,0 6.64395,-2.49148 6.64395,-6.2287 0.41524,-2.07624 0,-4.15247 -1.24574,-5.39821 z m -41.5247,-28.2368 c -1.66099,0 -2.90673,-1.66099 -2.90673,-3.32197 0,-0.8305 0.41524,-1.66099 1.24574,-2.07624 0.41525,-0.41525 1.24574,-0.83049 2.07623,-0.83049 h 0.41525 c 1.66099,0 2.90673,1.66098 2.90673,3.32197 0,0.8305 -0.41525,1.66099 -1.24574,2.07624 -0.8305,0.83049 -1.66099,0.83049 -2.49148,0.83049 z m 38.20272,34.88075 c -0.41525,0.41525 -1.24574,0.83049 -2.07623,0.83049 -0.8305,0 -1.66099,-0.41524 -2.07624,-1.24574 -0.41525,-0.83049 -0.83049,-1.24574 -0.83049,-2.07623 0,-0.8305 0.41524,-1.66099 1.24574,-2.07624 0.41524,-0.41525 1.24574,-0.83049 2.07623,-0.83049 h 0.41525 c 0.83049,0 1.66099,0.41525 2.07623,1.24574 0.41525,0.83049 0.8305,1.24574 0.8305,2.07623 -0.41525,0.8305 -0.8305,1.66099 -1.66099,2.07624 z"
         class="st2"
         inkscape:connector-curvature="0"
         style="fill:#010202;stroke-width:4.15247" />
      <path
         style="fill:#010202;stroke-width:4.15247"
         inkscape:connector-curvature="0"
         class="st2"
         d="m 362.92552,398.22035 c -3.73722,-0.41525 -7.0592,2.49148 -7.47445,6.2287 v 2.49148 l -27.82155,27.82155 h -0.83049 c -1.66099,0 -3.73722,0.41525 -4.98296,1.66099 -1.24575,1.24574 -2.07624,2.90673 -2.49149,4.56772 -0.41524,3.73722 2.49149,7.0592 6.22871,7.47444 h 0.83049 c 3.32198,0 6.22871,-2.49148 6.64395,-6.2287 v -1.66099 l 28.2368,-28.2368 h 1.24574 c 3.32198,0 6.22871,-2.49148 6.64395,-6.2287 0.41525,-4.15247 -2.49148,-7.47445 -6.2287,-7.88969 z m -34.4655,45.26192 c -0.8305,0.41525 -1.24574,0.83049 -2.07624,0.83049 -1.66099,0 -2.90673,-1.66098 -2.90673,-3.32197 0,-0.8305 0.41525,-1.66099 1.24574,-2.07624 0.41525,-0.41525 1.24575,-0.83049 2.07624,-0.83049 h 0.41525 c 0.83049,0 1.66098,0.41525 2.07623,1.24574 0.41525,0.83049 0.8305,1.24574 0.8305,2.07623 -0.8305,0.8305 -1.24575,1.66099 -1.66099,2.07624 z m 33.635,-35.296 c -0.83049,0 -1.66098,-0.41524 -2.07623,-1.24574 -0.41525,-0.83049 -0.83049,-1.24574 -0.83049,-2.07623 0,-0.8305 0.41524,-1.66099 1.24574,-2.07624 0.41524,-0.41524 1.24574,-0.83049 2.07623,-0.83049 h 0.41525 c 1.66099,0 2.90673,1.66099 2.90673,3.32198 -0.8305,1.66098 -2.07624,2.90672 -3.73723,2.90672 z"
         id="path4732" />
      <path
         style="fill:#010202;stroke-width:4.15247"
         inkscape:connector-curvature="0"
         class="st2"
         d="m 261.19,471.71906 -1.24574,-1.24574 v -19.5166 h -0.41524 c 0,0 0.41524,0 0.41524,-0.41525 2.90673,-2.49148 3.32198,-6.64395 0.8305,-9.55068 -1.24574,-1.24574 -2.90673,-2.07624 -4.56772,-2.49149 -1.66099,0 -3.73722,0.41525 -4.98296,1.66099 -1.24575,1.24574 -2.07624,2.90673 -2.49149,4.56772 -0.41524,1.66099 0.41525,3.73722 1.66099,4.98296 0.41525,0.8305 1.24574,1.24574 2.07624,1.66099 v 18.68612 c -0.41525,0 -0.41525,0.41524 -0.8305,0.41524 -2.90673,2.49149 -3.32197,6.64396 -0.83049,9.55068 1.24574,1.24575 2.90673,2.07624 4.56772,2.49149 h 0.83049 c 1.66099,0 3.32198,-0.41525 4.15247,-1.66099 1.24574,-1.24574 2.07623,-2.90673 2.49148,-4.56772 0,-1.24574 -0.41525,-2.90673 -1.66099,-4.56772 z m -7.47444,-28.23679 c 0.41524,-0.41525 1.24574,-0.83049 2.07623,-0.83049 h 0.41525 c 0.83049,0 1.66099,0.41524 2.07623,1.24574 1.24575,1.24574 0.8305,3.32197 -0.41524,4.15247 -1.24574,1.24574 -3.32198,0.83049 -4.15247,-0.41525 -0.41525,-0.83049 -0.8305,-1.24574 -0.8305,-2.07624 0,-0.83049 0.41525,-1.66098 0.8305,-2.07623 z m 4.15247,34.88075 c -0.41525,0.41524 -1.24574,0.83049 -2.07624,0.83049 -0.83049,0 -1.66099,-0.41525 -2.07623,-1.24574 -1.24574,-1.24574 -0.8305,-3.32198 0.41524,-4.15247 0.41525,-0.41525 1.24575,-0.83049 2.07624,-0.83049 0.83049,0 1.66099,0.41524 2.49148,1.24574 0.41525,0.83049 0.8305,1.24574 0.8305,2.07623 -0.41525,0.8305 -0.8305,1.66099 -1.66099,2.07624 z"
         id="path4740" />
      <g
         transform="matrix(4.15247,0,0,4.15247,-49.829996,-1560.915)"
         style="fill:#00bb31"
         id="g4620">
        <path
           style="fill:#00bb31"
           inkscape:connector-curvature="0"
           class="st6"
           d="m 89.7,443.1 c 0,-0.9 -0.7,-1.6 -1.6,-1.6 -0.9,0 -1.6,0.7 -1.6,1.6 0,0.6 0.3,1.1 0.8,1.4 l -0.1,23.6 -2.3,2.2 h -5.8 l -2.6,-2.6 v -4.4 c 0.4,-0.3 0.7,-0.8 0.7,-1.3 0,-0.9 -0.7,-1.6 -1.6,-1.6 -0.9,0 -1.6,0.7 -1.6,1.6 0,0.6 0.3,1 0.7,1.3 v 5.1 l 3.6,3.6 h 7.2 l 3.4,-3.2 0.1,-24.4 c 0.5,-0.3 0.7,-0.8 0.7,-1.3 z m -14,18.2 c 0.4,0 0.7,0.3 0.7,0.7 0,0.4 -0.3,0.7 -0.7,0.7 -0.4,0 -0.7,-0.3 -0.7,-0.7 0,-0.4 0.3,-0.7 0.7,-0.7 z m 12.4,-18.9 c 0.4,0 0.7,0.3 0.7,0.7 0,0.4 -0.3,0.7 -0.7,0.7 -0.4,0 -0.7,-0.3 -0.7,-0.7 0,-0.4 0.3,-0.7 0.7,-0.7 z"
           id="path4622" />
        <path
           style="fill:#00bb31"
           inkscape:connector-curvature="0"
           class="st6"
           d="m 71.9,460.4 c -0.9,0 -1.6,0.7 -1.6,1.6 0,0.5 0.3,1 0.6,1.3 v 4.6 l -2.5,2.4 h -5.8 l -2.4,-2.4 0.1,-16 c 0.4,-0.3 0.7,-0.8 0.7,-1.3 0,-0.9 -0.7,-1.6 -1.6,-1.6 -0.9,0 -1.6,0.7 -1.6,1.6 0,0.6 0.3,1 0.7,1.3 v 16.7 l 3.4,3.4 h 7.2 l 3.6,-3.5 v -5.2 c 0.5,-0.3 0.8,-0.8 0.8,-1.4 0,-0.8 -0.7,-1.5 -1.6,-1.5 z M 59.5,449.9 c 0.4,0 0.7,0.3 0.7,0.7 0,0.4 -0.3,0.7 -0.7,0.7 -0.4,0 -0.7,-0.3 -0.7,-0.7 0,-0.4 0.3,-0.7 0.7,-0.7 z m 12.4,11.4 c 0.4,0 0.7,0.3 0.7,0.7 0,0.4 -0.3,0.7 -0.7,0.7 -0.4,0 -0.7,-0.3 -0.7,-0.7 0,-0.4 0.3,-0.7 0.7,-0.7 z"
           id="path4624" />
      </g>
      <path
         style="fill:#00bb31;stroke-width:4.15247"
         inkscape:connector-curvature="0"
         class="st6"
         d="m 312.68063,224.23185 c -2.49148,0 -4.56771,1.24574 -5.81345,3.32198 l -83.8799,0.41525 -17.85562,-18.27087 v -71.83773 l 17.85562,-17.85562 h 83.46465 c 1.24574,2.07623 3.32198,3.32197 5.81346,3.32197 3.73722,0 6.64395,-2.90673 6.64395,-6.64395 0,-3.73722 -2.90673,-6.64395 -6.64395,-6.64395 -2.07624,0 -4.15247,1.24574 -5.39821,2.49148 h -86.78663 l -22.42333,22.00809 v 78.06644 l 22.00809,22.42334 87.20187,-0.41525 v -0.41525 c 1.24574,1.66099 3.32197,2.90673 5.39821,2.90673 3.73722,0 6.64395,-2.90673 6.64395,-6.64395 0,-3.73723 -2.49148,-6.22871 -6.22871,-6.22871 z m -0.83049,-110.4557 c 1.66099,0 2.90673,1.24574 2.90673,2.90673 0,1.66099 -1.24574,2.90673 -2.90673,2.90673 -1.66099,0 -2.90673,-1.24574 -2.90673,-2.90673 0,-1.66099 1.24574,-2.90673 2.90673,-2.90673 z m 0.83049,120.00638 c -1.66098,0 -2.90672,-1.24574 -2.90672,-2.90673 0,-1.66098 1.24574,-2.90672 2.90672,-2.90672 1.66099,0 2.90673,1.24574 2.90673,2.90672 0,1.66099 -1.24574,2.90673 -2.90673,2.90673 z"
         id="path4638" />
      <g
         transform="matrix(4.15247,0,0,4.15247,-49.829996,-1560.915)"
         id="g4640">
        <path
           style="fill:#010202"
           inkscape:connector-curvature="0"
           class="st2"
           d="m 96.1,438.5 c 0,-0.9 -0.7,-1.7 -1.7,-1.7 -0.9,0 -1.7,0.7 -1.7,1.7 0,0.5 0.2,0.9 0.6,1.3 v 30.1 l -6.4,6.5 h -8.7 l -4.4,-4 -4.2,4 h -8.5 l -7.3,-7.1 v -17.7 c 0.4,-0.3 0.7,-0.8 0.7,-1.3 0,-0.9 -0.7,-1.7 -1.7,-1.7 -0.9,0 -1.7,0.7 -1.7,1.7 0,0.6 0.3,1.1 0.8,1.4 V 470 l 8.4,8.2 h 10 l 3.5,-3.3 3.7,3.3 h 10.2 l 7.5,-7.5 V 440 c 0.6,-0.3 0.9,-0.8 0.9,-1.5 z m -43.3,11 c 0.4,0 0.7,0.3 0.7,0.7 0,0.4 -0.3,0.7 -0.7,0.7 -0.4,0 -0.7,-0.3 -0.7,-0.7 0,-0.4 0.3,-0.7 0.7,-0.7 z m 41.7,-10.2 c -0.4,0 -0.7,-0.4 -0.7,-0.8 0,-0.4 0.3,-0.7 0.7,-0.7 0.4,0 0.7,0.3 0.7,0.7 0,0.4 -0.3,0.8 -0.7,0.8 z"
           id="path4642" />
        <g
           id="g4644">
          <path
             style="fill:#010202"
             inkscape:connector-curvature="0"
             class="st2"
             d="m 87.1,395.9 c -0.6,0 -1,0.3 -1.3,0.7 H 62.6 l -8.6,8.7 v 25.9 l 8.1,8 h 19.8 c 0.3,0.5 0.8,0.8 1.4,0.8 0.9,0 1.6,-0.7 1.6,-1.6 0,-0.9 -0.7,-1.6 -1.6,-1.6 -0.5,0 -1,0.3 -1.3,0.6 H 62.8 l -7.1,-7 v -24.5 l 7.6,-7.7 h 22.5 c 0.3,0.4 0.8,0.7 1.3,0.7 0.9,0 1.6,-0.7 1.6,-1.6 0,-0.9 -0.7,-1.4 -1.6,-1.4 z m -3.9,41.9 c 0.4,0 0.7,0.3 0.7,0.7 0,0.4 -0.3,0.7 -0.7,0.7 -0.4,0 -0.7,-0.3 -0.7,-0.7 0,-0.4 0.3,-0.7 0.7,-0.7 z m 3.9,-39.6 c -0.4,0 -0.7,-0.3 -0.7,-0.7 0,-0.4 0.3,-0.7 0.7,-0.7 0.4,0 0.7,0.3 0.7,0.7 0,0.4 -0.3,0.7 -0.7,0.7 z"
             id="path4646" />
        </g>
      </g>
      <g
         style="fill:#d0d0ce"
         transform="matrix(4.15247,0,0,4.15247,-49.829996,-1560.915)"
         id="g4684">
        <path
           style="fill:#d0d0ce"
           inkscape:connector-curvature="0"
           d="m 78.3,407.5 h 3.5 v 9.3 h -3.5 z"
           class="st17"
           id="rect4686" />
        <path
           style="fill:#d0d0ce"
           inkscape:connector-curvature="0"
           class="st14"
           d="m 82,417.1 h -4 v -9.9 h 4 z m -3.5,-0.5 h 3 v -8.8 h -3 z"
           id="path4688" />
      </g>
      <g
         id="g2157">
        <g
           id="g4634"
           transform="matrix(4.15247,0,0,4.15247,-49.829996,-1560.915)"
           style="fill:#d0d0ce;stroke:none">
          <path
             id="path4636"
             d="m 75.4,462.1 c -0.1,-0.2 -0.5,-2.3 -0.5,-3.1 v -2 h -1.7 c 0,0.6 0,1.9 -0.2,2.5 -0.2,0.9 -0.9,2.5 -1,2.6 l -0.5,-0.2 c 0,0 0.7,-1.7 0.9,-2.5 0.2,-0.7 0.1,-2.6 0.1,-2.6 v -0.3 h 2.7 v 2.6 c 0,0.7 0.4,2.6 0.4,2.8 z"
             class="st14"
             inkscape:connector-curvature="0"
             style="fill:#d0d0ce;stroke:none" />
        </g>
        <g
           id="g4650"
           transform="matrix(4.15247,0,0,4.15247,-49.829996,-1560.915)"
           style="fill:#d0d0ce;stroke:none">
          <path
             id="polygon4652"
             class="st14"
             d="m 83.2,414.6 h 9.3 v -16.9 h -5.4 v -0.5 h 6 v 18 h -9.9 z"
             inkscape:connector-curvature="0"
             style="fill:#d0d0ce;stroke:none" />
        </g>
        <g
           id="g4658"
           transform="matrix(4.15247,0,0,4.15247,-49.829996,-1560.915)"
           style="fill:#d0d0ce">
          <path
             id="rect4660"
             class="st16"
             d="m 69.6,407.5 h 12.2 v 9.3 H 69.6 Z"
             inkscape:connector-curvature="0"
             style="fill:#d0d0ce" />
          <path
             id="path4662"
             d="M 82,417.1 H 69.3 v -9.9 H 82 Z m -12.1,-0.5 h 11.6 v -8.8 H 69.9 Z"
             class="st14"
             inkscape:connector-curvature="0"
             style="fill:#d0d0ce" />
        </g>
        <g
           id="g4664"
           transform="matrix(4.15247,0,0,4.15247,-49.829996,-1560.915)"
           style="fill:#d0d0ce;stroke:none">
          <path
             id="polygon4666"
             class="st14"
             d="m 83.2,409.5 h 7 v -5.3 l -3.1,0.1 v -0.6 h 3.7 v 6.4 h -7.6 z"
             inkscape:connector-curvature="0"
             style="fill:#d0d0ce;stroke:none" />
        </g>
        <g
           id="g4668"
           transform="matrix(4.15247,0,0,4.15247,-49.829996,-1560.915)"
           style="fill:#d0d0ce">
          <path
             id="rect4670"
             class="st17"
             d="m 81.8,408.1 h 1.4 v 3.5 h -1.4 z"
             inkscape:connector-curvature="0"
             style="fill:#d0d0ce" />
          <path
             id="path4672"
             d="m 83.4,411.8 h -1.9 v -4 h 1.9 z M 82,411.3 h 0.8 v -3 H 82 Z"
             class="st14"
             inkscape:connector-curvature="0"
             style="fill:#d0d0ce" />
        </g>
        <g
           id="g4674"
           transform="matrix(4.15247,0,0,4.15247,-49.829996,-1560.915)"
           style="fill:#d0d0ce">
          <path
             id="rect4676"
             class="st17"
             d="m 81.8,413.6 h 1.4 v 2.7 h -1.4 z"
             inkscape:connector-curvature="0"
             style="fill:#d0d0ce" />
          <path
             id="path4678"
             d="m 83.4,416.5 h -1.9 v -3.2 h 1.9 z M 82,416 h 0.8 v -2.1 H 82 Z"
             class="st14"
             inkscape:connector-curvature="0"
             style="fill:#d0d0ce" />
        </g>
        <g
           id="g4690"
           transform="matrix(4.15247,0,0,4.15247,-49.829996,-1560.915)"
           style="fill:#d0d0ce;stroke:none">
          <path
             id="polygon4692"
             class="st14"
             d="m 95.5,437 -6.3,-6.5 -1.5,1.5 -0.4,-0.4 1.9,-1.9 7.1,7.3 -2.3,2.3 -0.4,-0.4 z"
             inkscape:connector-curvature="0"
             style="fill:#d0d0ce;stroke:none" />
        </g>
        <g
           id="g4694"
           transform="matrix(4.15247,0,0,4.15247,-49.829996,-1560.915)"
           style="fill:#d0d0ce;stroke:none">
          <path
             id="polygon4696"
             class="st14"
             d="M 59.2,448.1 H 53 v 2.5 h -0.5 v -3 h 7.3 v 3 h -0.6 z"
             inkscape:connector-curvature="0"
             style="fill:#d0d0ce;stroke:none" />
        </g>
        <path
           id="path4698"
           d="m 249.97834,336.34854 h 15.36414 v -12.45741 c 0,0 0,-8.72018 -7.47445,-8.72018 -7.47444,0 -7.47444,8.72018 -7.47444,8.72018 v 12.45741 z"
           class="st18"
           stroke-miterlimit="10"
           inkscape:connector-curvature="0"
           style="fill:#d0d0ce;stroke:none;stroke-width:1.83913;stroke-miterlimit:10" />
        <g
           id="g4700"
           transform="matrix(4.15247,0,0,4.15247,-49.829996,-1560.915)"
           style="fill:#d0d0ce;stroke:none">
          <g
             id="g4702"
             style="fill:#d0d0ce;stroke:none">
            <path
               id="polygon4704"
               class="st14"
               d="m 89.7,441.1 -4.2,-4.2 -1.9,2 -0.4,-0.4 2.2,-2.3 5.1,4.9 -2.3,2.3 -0.3,-0.3 z"
               inkscape:connector-curvature="0"
               style="fill:#d0d0ce;stroke:none" />
          </g>
          <g
             id="g4706"
             style="fill:#d0d0ce;stroke:none">
            <path
               id="rect4708"
               class="st5"
               d="m 86.814,436.287 3.578,3.492 -1.676,1.716 -3.578,-3.492 z"
               inkscape:connector-curvature="0"
               style="fill:#d0d0ce;stroke:none" />
            <path
               id="path4710"
               d="m 88.7,441.8 -3.9,-3.8 2,-2.1 3.9,3.8 z m -3.1,-3.8 3.2,3.1 1.3,-1.3 -3.2,-3.2 z"
               class="st14"
               inkscape:connector-curvature="0"
               style="fill:#d0d0ce;stroke:none" />
          </g>
          <g
             id="g4712"
             style="fill:#d0d0ce;stroke:none">
            <path
               id="rect4714"
               class="st19"
               d="m 87.418,436.78 0.358,0.35 -1.675,1.718 -0.357,-0.35 z"
               inkscape:connector-curvature="0"
               style="fill:#d0d0ce;stroke:none" />
          </g>
          <g
             id="g4716"
             style="fill:#d0d0ce;stroke:none">
            <path
               id="rect4718"
               class="st19"
               d="m 87.84,437.164 0.358,0.35 -1.675,1.718 -0.358,-0.35 z"
               inkscape:connector-curvature="0"
               style="fill:#d0d0ce;stroke:none" />
          </g>
          <g
             id="g4720"
             style="fill:#d0d0ce;stroke:none">
            <path
               id="rect4722"
               class="st20"
               d="m 88.196,437.62 0.358,0.348 -1.675,1.72 -0.36,-0.35 z"
               inkscape:connector-curvature="0"
               style="fill:#d0d0ce;stroke:none" />
          </g>
        </g>
      </g>
    </g>
  </g>
</svg>
