<?xml version="1.0" encoding="UTF-8" standalone="no"?>
<svg
   xmlns:dc="http://purl.org/dc/elements/1.1/"
   xmlns:cc="http://creativecommons.org/ns#"
   xmlns:rdf="http://www.w3.org/1999/02/22-rdf-syntax-ns#"
   xmlns:svg="http://www.w3.org/2000/svg"
   xmlns="http://www.w3.org/2000/svg"
   xmlns:sodipodi="http://sodipodi.sourceforge.net/DTD/sodipodi-0.dtd"
   xmlns:inkscape="http://www.inkscape.org/namespaces/inkscape"
   width="700"
   height="700"
   viewBox="0 0 185.20834 185.20833"
   version="1.1"
   id="svg8"
   inkscape:version="1.0.1 (3bc2e813f5, 2020-09-07)"
   sodipodi:docname="rc3-chaoswesttv.svg"
   inkscape:export-filename="/home/l3d/git/rc3/rc3sign/logos/rc3-chaoswesttv.png"
   inkscape:export-xdpi="200"
   inkscape:export-ydpi="200">
  <title
     id="title4967">rC3 ChaosWest TV Logo</title>
  <defs
     id="defs2">
    <style
       id="style979">
      .cls-1 {
        fill: #002b3b;
      }

      .cls-2 {
        fill: #004c69;
      }

      .cls-3 {
        fill: #0079a7;
      }

      .cls-4 {
        fill: #03abeb;
      }

      .cls-5 {
        fill: #fff;
        fill-rule: evenodd;
      }

      .cls-6 {
        fill: none;
        stroke: #fff;
        stroke-width: 7.63px;
      }
    </style>
  </defs>
  <sodipodi:namedview
     id="base"
     pagecolor="#ffffff"
     bordercolor="#666666"
     borderopacity="1.0"
     inkscape:pageopacity="0.0"
     inkscape:pageshadow="2"
     inkscape:zoom="1.2000612"
     inkscape:cx="463.16205"
     inkscape:cy="371.63232"
     inkscape:document-units="mm"
     inkscape:current-layer="layer4"
     inkscape:document-rotation="0"
     showgrid="true"
     inkscape:window-width="2556"
     inkscape:window-height="1385"
     inkscape:window-x="1920"
     inkscape:window-y="26"
     inkscape:window-maximized="1"
     showguides="true"
     inkscape:guide-bbox="true"
     fit-margin-top="0"
     fit-margin-left="0"
     fit-margin-right="0"
     fit-margin-bottom="0"
     units="px">
    <inkscape:grid
       type="xygrid"
       id="grid4506"
       spacingx="13.229167"
       spacingy="13.229167"
       originx="-13.229166"
       originy="-52.916668" />
  </sodipodi:namedview>
  <metadata
     id="metadata5">
    <rdf:RDF>
      <cc:Work
         rdf:about="">
        <dc:format>image/svg+xml</dc:format>
        <dc:type
           rdf:resource="http://purl.org/dc/dcmitype/StillImage" />
        <dc:title>rC3 ChaosWest TV Logo</dc:title>
        <dc:creator>
          <cc:Agent>
            <dc:title>L3D &lt;l3d@c3woc.de&gt;</dc:title>
          </cc:Agent>
        </dc:creator>
        <cc:license
           rdf:resource="MIT-Lizenz" />
      </cc:Work>
    </rdf:RDF>
  </metadata>
  <g
     inkscape:groupmode="layer"
     id="layer5"
     inkscape:label="bg"
     sodipodi:insensitive="true"
     transform="translate(-13.229167,-52.916672)">
    <rect
       id="rect4908"
       data-name="rahmen weiss"
       class="cls-6"
       x="26.458334"
       y="66.145836"
       width="158.75002"
       height="158.75002"
       style="display:inline;fill:#000000;stroke:none;stroke-width:2.102;stroke-miterlimit:4;stroke-dasharray:none" />
  </g>
  <g
     inkscape:groupmode="layer"
     id="layer4"
     inkscape:label="pixel"
     transform="translate(-13.229167,-52.916672)">
    <path
       id="path4193"
       style="font-variation-settings:normal;vector-effect:none;fill:#ffffff;fill-opacity:1;stroke-width:0.137091;stroke-linecap:butt;stroke-linejoin:miter;stroke-miterlimit:4;stroke-dasharray:none;stroke-dashoffset:0;stroke-opacity:1;stop-color:#000000"
       d="m 132.29167,224.89584 h 13.22917 v 13.22917 h -13.22917 z"
       class="cls-2" />
    <path
       id="path4223"
       style="font-variation-settings:normal;vector-effect:none;fill:#ececec;fill-opacity:1;stroke-width:0.137091;stroke-linecap:butt;stroke-linejoin:miter;stroke-miterlimit:4;stroke-dasharray:none;stroke-dashoffset:0;stroke-opacity:1;stop-color:#000000;opacity:1;stop-opacity:1"
       d="m 145.52084,211.66667 h 13.22917 v 13.22917 h -13.22917 z"
       class="cls-2" />
    <path
       id="path4245"
       style="font-variation-settings:normal;vector-effect:none;fill:#cccccc;fill-opacity:1;stroke-width:0.137091;stroke-linecap:butt;stroke-linejoin:miter;stroke-miterlimit:4;stroke-dasharray:none;stroke-dashoffset:0;stroke-opacity:1;stop-color:#000000"
       d="m 132.29167,211.66667 h 13.22917 v 13.22917 h -13.22917 z"
       class="cls-2" />
    <path
       id="path4245-6"
       style="font-variation-settings:normal;vector-effect:none;fill:#ececec;fill-opacity:1;stroke-width:0.137091;stroke-linecap:butt;stroke-linejoin:miter;stroke-miterlimit:4;stroke-dasharray:none;stroke-dashoffset:0;stroke-opacity:1;stop-color:#000000"
       d="m 119.0625,211.66667 h 13.22917 v 13.22917 H 119.0625 Z"
       class="cls-2" />
    <path
       id="path2601"
       style="font-variation-settings:normal;vector-effect:none;fill:#f9f9f9;fill-opacity:1;stroke-width:0.137091;stroke-linecap:butt;stroke-linejoin:miter;stroke-miterlimit:4;stroke-dasharray:none;stroke-dashoffset:0;stroke-opacity:1;stop-color:#000000"
       d="m 105.83333,211.66668 h 13.22917 v 13.22917 h -13.22917 z"
       class="cls-2" />
    <path
       id="path2601-7"
       style="font-variation-settings:normal;vector-effect:none;fill:#f9f9f9;fill-opacity:1;stroke-width:0.137091;stroke-linecap:butt;stroke-linejoin:miter;stroke-miterlimit:4;stroke-dasharray:none;stroke-dashoffset:0;stroke-opacity:1;stop-color:#000000"
       d="m 158.75,211.66668 h 13.22917 v 13.22917 H 158.75 Z"
       class="cls-2" />
    <path
       id="path4245-6-5"
       style="font-variation-settings:normal;vector-effect:none;fill:#cccccc;fill-opacity:1;stroke-width:0.137091;stroke-linecap:butt;stroke-linejoin:miter;stroke-miterlimit:4;stroke-dasharray:none;stroke-dashoffset:0;stroke-opacity:1;stop-color:#000000"
       d="m 92.604166,211.66667 h 13.229174 v 13.22917 H 92.604166 Z"
       class="cls-2" />
    <path
       id="path2633"
       style="font-variation-settings:normal;vector-effect:none;fill:#e6e6e6;fill-opacity:1;stroke-width:0.137091;stroke-linecap:butt;stroke-linejoin:miter;stroke-miterlimit:4;stroke-dasharray:none;stroke-dashoffset:0;stroke-opacity:1;stop-color:#000000"
       d="m 79.375003,198.43751 h 13.229174 v 13.22917 H 79.375003 Z"
       class="cls-2" />
    <path
       id="path2635"
       style="font-variation-settings:normal;vector-effect:none;fill:#cccccc;fill-opacity:1;stroke-width:0.137091;stroke-linecap:butt;stroke-linejoin:miter;stroke-miterlimit:4;stroke-dasharray:none;stroke-dashoffset:0;stroke-opacity:1;stop-color:#000000"
       d="m 171.97917,211.66667 h 13.22918 v 13.22917 h -13.22918 z"
       class="cls-2" />
    <path
       id="path2637"
       style="font-variation-settings:normal;vector-effect:none;fill:#e6e6e6;fill-opacity:1;stroke-width:0.137091;stroke-linecap:butt;stroke-linejoin:miter;stroke-miterlimit:4;stroke-dasharray:none;stroke-dashoffset:0;stroke-opacity:1;stop-color:#000000"
       d="m 185.20834,198.43751 h 13.22917 v 13.22917 h -13.22917 z"
       class="cls-2" />
    <path
       id="path2641"
       style="font-variation-settings:normal;vector-effect:none;fill:#4d4d4d;fill-opacity:1;stroke-width:0.137091;stroke-linecap:butt;stroke-linejoin:miter;stroke-miterlimit:4;stroke-dasharray:none;stroke-dashoffset:0;stroke-opacity:1;stop-color:#000000"
       d="m 92.60417,198.43751 h 13.22918 v 13.22917 H 92.60417 Z"
       class="cls-2" />
    <path
       id="path2643"
       style="font-variation-settings:normal;vector-effect:none;fill:#333333;fill-opacity:1;stroke-width:0.137091;stroke-linecap:butt;stroke-linejoin:miter;stroke-miterlimit:4;stroke-dasharray:none;stroke-dashoffset:0;stroke-opacity:1;stop-color:#000000"
       d="M 79.375003,211.66667 H 92.60418 v 13.22917 H 79.375003 Z"
       class="cls-2" />
    <path
       id="path2645"
       style="font-variation-settings:normal;vector-effect:none;fill:#e6e6e6;fill-opacity:1;stroke-width:0.137091;stroke-linecap:butt;stroke-linejoin:miter;stroke-miterlimit:4;stroke-dasharray:none;stroke-dashoffset:0;stroke-opacity:1;stop-color:#000000"
       d="m 119.0625,224.89584 h 13.22917 v 13.22917 H 119.0625 Z"
       class="cls-2" />
    <path
       id="path2647"
       style="font-variation-settings:normal;vector-effect:none;fill:#e6e6e6;fill-opacity:1;stroke-width:0.137091;stroke-linecap:butt;stroke-linejoin:miter;stroke-miterlimit:4;stroke-dasharray:none;stroke-dashoffset:0;stroke-opacity:1;stop-color:#000000"
       d="m 145.52084,224.89584 h 13.22917 v 13.22917 h -13.22917 z"
       class="cls-2" />
    <path
       id="path2649"
       style="font-variation-settings:normal;vector-effect:none;fill:#333333;fill-opacity:1;stroke-width:0.137091;stroke-linecap:butt;stroke-linejoin:miter;stroke-miterlimit:4;stroke-dasharray:none;stroke-dashoffset:0;stroke-opacity:1;stop-color:#000000"
       d="m 158.75,224.89584 h 13.22917 v 13.22917 H 158.75 Z"
       class="cls-2" />
    <path
       id="path2651"
       style="font-variation-settings:normal;vector-effect:none;fill:#333333;fill-opacity:1;stroke-width:0.137091;stroke-linecap:butt;stroke-linejoin:miter;stroke-miterlimit:4;stroke-dasharray:none;stroke-dashoffset:0;stroke-opacity:1;stop-color:#000000"
       d="m 105.83333,224.89584 h 13.22917 v 13.22917 h -13.22917 z"
       class="cls-2" />
    <path
       id="path2653"
       style="font-variation-settings:normal;vector-effect:none;fill:#333333;fill-opacity:1;stroke-width:0.306544;stroke-linecap:butt;stroke-linejoin:miter;stroke-miterlimit:4;stroke-dasharray:none;stroke-dashoffset:0;stroke-opacity:1;stop-color:#000000"
       d="M 92.604154,132.29167 H 105.83334 V 198.4375 H 92.604154 Z"
       class="cls-2" />
    <path
       id="path2655"
       style="font-variation-settings:normal;vector-effect:none;fill:#333333;fill-opacity:1;stroke-width:0.306544;stroke-linecap:butt;stroke-linejoin:miter;stroke-miterlimit:4;stroke-dasharray:none;stroke-dashoffset:0;stroke-opacity:1;stop-color:#000000"
       d="m 171.97917,132.29167 h 13.22919 v 66.14583 h -13.22919 z"
       class="cls-2" />
    <path
       id="path2657"
       style="font-variation-settings:normal;vector-effect:none;fill:#4d4d4d;fill-opacity:1;stroke-width:0.137091;stroke-linecap:butt;stroke-linejoin:miter;stroke-miterlimit:4;stroke-dasharray:none;stroke-dashoffset:0;stroke-opacity:1;stop-color:#000000"
       d="m 171.97916,198.43751 h 13.22918 v 13.22917 h -13.22918 z"
       class="cls-2" />
    <path
       id="path2659"
       style="font-variation-settings:normal;vector-effect:none;fill:#f2f2f2;fill-opacity:1;stroke-width:0.306544;stroke-linecap:butt;stroke-linejoin:miter;stroke-miterlimit:4;stroke-dasharray:none;stroke-dashoffset:0;stroke-opacity:1;stop-color:#000000"
       d="m 185.20832,132.29167 h 13.22919 v 66.14583 h -13.22919 z"
       class="cls-2" />
    <path
       id="path2661"
       style="font-variation-settings:normal;vector-effect:none;fill:#f2f2f2;fill-opacity:1;stroke-width:0.306544;stroke-linecap:butt;stroke-linejoin:miter;stroke-miterlimit:4;stroke-dasharray:none;stroke-dashoffset:0;stroke-opacity:1;stop-color:#000000"
       d="m 79.375003,132.29167 h 13.22919 v 66.14583 h -13.22919 z"
       class="cls-2" />
    <path
       id="path2663"
       style="font-variation-settings:normal;vector-effect:none;fill:#e6e6e6;fill-opacity:1;stroke-width:0.137091;stroke-linecap:butt;stroke-linejoin:miter;stroke-miterlimit:4;stroke-dasharray:none;stroke-dashoffset:0;stroke-opacity:1;stop-color:#000000"
       d="m 79.375003,119.06251 h 13.229174 v 13.22917 H 79.375003 Z"
       class="cls-2" />
    <path
       id="path2665"
       style="font-variation-settings:normal;vector-effect:none;fill:#cccccc;fill-opacity:1;stroke-width:0.137091;stroke-linecap:butt;stroke-linejoin:miter;stroke-miterlimit:4;stroke-dasharray:none;stroke-dashoffset:0;stroke-opacity:1;stop-color:#000000"
       d="m 105.83334,119.06251 h 13.22917 v 13.22917 h -13.22917 z"
       class="cls-2" />
    <path
       id="path2667"
       style="font-variation-settings:normal;vector-effect:none;fill:#b3b3b3;fill-opacity:1;stroke-width:0.137091;stroke-linecap:butt;stroke-linejoin:miter;stroke-miterlimit:4;stroke-dasharray:none;stroke-dashoffset:0;stroke-opacity:1;stop-color:#000000;opacity:1;stop-opacity:1"
       d="m 171.97916,119.0625 h 13.22918 v 13.22917 h -13.22918 z"
       class="cls-2" />
    <path
       id="path2669"
       style="font-variation-settings:normal;vector-effect:none;fill:#f9f9f9;fill-opacity:1;stroke-width:0.137091;stroke-linecap:butt;stroke-linejoin:miter;stroke-miterlimit:4;stroke-dasharray:none;stroke-dashoffset:0;stroke-opacity:1;stop-color:#000000"
       d="m 158.75,105.83334 h 13.22917 v 13.22917 H 158.75 Z"
       class="cls-2" />
    <path
       id="path2671"
       style="font-variation-settings:normal;vector-effect:none;fill:#f9f9f9;fill-opacity:1;stroke-width:0.137091;stroke-linecap:butt;stroke-linejoin:miter;stroke-miterlimit:4;stroke-dasharray:none;stroke-dashoffset:0;stroke-opacity:1;stop-color:#000000"
       d="m 105.83334,105.83334 h 13.22917 v 13.22917 h -13.22917 z"
       class="cls-2" />
    <path
       id="path2673"
       style="font-variation-settings:normal;vector-effect:none;fill:#b3b3b3;fill-opacity:1;stroke-width:0.137091;stroke-linecap:butt;stroke-linejoin:miter;stroke-miterlimit:4;stroke-dasharray:none;stroke-dashoffset:0;stroke-opacity:1;stop-color:#000000"
       d="m 92.604167,119.0625 h 13.229173 v 13.22917 H 92.604167 Z"
       class="cls-2" />
    <path
       id="path2689"
       style="font-variation-settings:normal;vector-effect:none;fill:#cccccc;fill-opacity:1;stroke-width:0.137091;stroke-linecap:butt;stroke-linejoin:miter;stroke-miterlimit:4;stroke-dasharray:none;stroke-dashoffset:0;stroke-opacity:1;stop-color:#000000"
       d="m 158.75,119.0625 h 13.22917 v 13.22917 H 158.75 Z"
       class="cls-2" />
    <path
       id="path2691"
       style="font-variation-settings:normal;vector-effect:none;fill:#ececec;fill-opacity:1;stroke-width:0.137091;stroke-linecap:butt;stroke-linejoin:miter;stroke-miterlimit:4;stroke-dasharray:none;stroke-dashoffset:0;stroke-opacity:1;stop-color:#000000"
       d="m 145.52084,119.0625 h 13.22917 v 13.22917 h -13.22917 z"
       class="cls-2" />
    <path
       id="path2693"
       style="font-variation-settings:normal;vector-effect:none;fill:#ececec;fill-opacity:1;stroke-width:0.137091;stroke-linecap:butt;stroke-linejoin:miter;stroke-miterlimit:4;stroke-dasharray:none;stroke-dashoffset:0;stroke-opacity:1;stop-color:#000000"
       d="m 119.0625,119.0625 h 13.22917 v 13.22917 H 119.0625 Z"
       class="cls-2" />
    <path
       id="path2695"
       style="font-variation-settings:normal;vector-effect:none;fill:#b3b3b3;fill-opacity:1;stroke-width:0.137091;stroke-linecap:butt;stroke-linejoin:miter;stroke-miterlimit:4;stroke-dasharray:none;stroke-dashoffset:0;stroke-opacity:1;stop-color:#000000;opacity:1;stop-opacity:1"
       d="m 132.29167,119.0625 h 13.22917 v 13.22917 h -13.22917 z"
       class="cls-2" />
    <path
       id="path2704"
       style="font-variation-settings:normal;opacity:1;vector-effect:none;fill:#1a1a1a;fill-opacity:1;stroke-width:0.137091;stroke-linecap:butt;stroke-linejoin:miter;stroke-miterlimit:4;stroke-dasharray:none;stroke-dashoffset:0;stroke-opacity:1;stop-color:#000000;stop-opacity:1"
       d="m 132.29167,105.83334 h 13.22917 v 13.22917 h -13.22917 z"
       class="cls-2" />
    <path
       id="path2706"
       style="font-variation-settings:normal;opacity:1;vector-effect:none;fill:#808080;fill-opacity:1;stroke-width:0.137091;stroke-linecap:butt;stroke-linejoin:miter;stroke-miterlimit:4;stroke-dasharray:none;stroke-dashoffset:0;stroke-opacity:1;stop-color:#000000;stop-opacity:1"
       d="m 119.0625,105.83334 h 13.22917 v 13.22917 H 119.0625 Z"
       class="cls-2" />
    <path
       id="path2708"
       style="font-variation-settings:normal;opacity:1;vector-effect:none;fill:#808080;fill-opacity:1;stroke-width:0.137091;stroke-linecap:butt;stroke-linejoin:miter;stroke-miterlimit:4;stroke-dasharray:none;stroke-dashoffset:0;stroke-opacity:1;stop-color:#000000;stop-opacity:1"
       d="M 145.52083,105.83334 H 158.75 v 13.22917 h -13.22917 z"
       class="cls-2" />
    <path
       id="path2710"
       style="font-variation-settings:normal;opacity:1;vector-effect:none;fill:#b3b3b3;fill-opacity:1;stroke-width:0.137091;stroke-linecap:butt;stroke-linejoin:miter;stroke-miterlimit:4;stroke-dasharray:none;stroke-dashoffset:0;stroke-opacity:1;stop-color:#000000;stop-opacity:1"
       d="m 132.29167,92.60417 h 13.22917 v 13.22917 h -13.22917 z"
       class="cls-2" />
    <path
       id="path2712"
       style="font-variation-settings:normal;opacity:1;vector-effect:none;fill:#333333;fill-opacity:1;stroke-width:0.137091;stroke-linecap:butt;stroke-linejoin:miter;stroke-miterlimit:4;stroke-dasharray:none;stroke-dashoffset:0;stroke-opacity:1;stop-color:#000000;stop-opacity:1"
       d="M 145.52083,92.604173 H 158.75 v 13.229167 h -13.22917 z"
       class="cls-2" />
    <path
       id="path2714"
       style="font-variation-settings:normal;opacity:1;vector-effect:none;fill:#333333;fill-opacity:1;stroke-width:0.137091;stroke-linecap:butt;stroke-linejoin:miter;stroke-miterlimit:4;stroke-dasharray:none;stroke-dashoffset:0;stroke-opacity:1;stop-color:#000000;stop-opacity:1"
       d="m 119.0625,92.604173 h 13.22917 V 105.83334 H 119.0625 Z"
       class="cls-2" />
    <path
       id="path2716"
       style="font-variation-settings:normal;opacity:1;vector-effect:none;fill:#333333;fill-opacity:1;stroke-width:0.137091;stroke-linecap:butt;stroke-linejoin:miter;stroke-miterlimit:4;stroke-dasharray:none;stroke-dashoffset:0;stroke-opacity:1;stop-color:#000000;stop-opacity:1"
       d="m 92.60417,105.83334 h 13.22917 v 13.22917 H 92.60417 Z"
       class="cls-2" />
    <path
       id="path2718"
       style="font-variation-settings:normal;opacity:1;vector-effect:none;fill:#333333;fill-opacity:1;stroke-width:0.137091;stroke-linecap:butt;stroke-linejoin:miter;stroke-miterlimit:4;stroke-dasharray:none;stroke-dashoffset:0;stroke-opacity:1;stop-color:#000000;stop-opacity:1"
       d="m 171.97917,105.83334 h 13.22917 v 13.22917 h -13.22917 z"
       class="cls-2" />
    <path
       id="path2720"
       style="font-variation-settings:normal;opacity:1;vector-effect:none;fill:#999999;fill-opacity:1;stroke-width:0.335803;stroke-linecap:butt;stroke-linejoin:miter;stroke-miterlimit:4;stroke-dasharray:none;stroke-dashoffset:0;stroke-opacity:1;stop-color:#000000;stop-opacity:1"
       d="m 158.75,132.29167 h 13.22917 v 79.375 H 158.75 Z"
       class="cls-2" />
    <path
       id="path2722"
       style="font-variation-settings:normal;opacity:1;vector-effect:none;fill:#999999;fill-opacity:1;stroke-width:0.335803;stroke-linecap:butt;stroke-linejoin:miter;stroke-miterlimit:4;stroke-dasharray:none;stroke-dashoffset:0;stroke-opacity:1;stop-color:#000000;stop-opacity:1"
       d="m 105.83334,132.29167 h 13.22917 v 79.375 h -13.22917 z"
       class="cls-2" />
    <path
       id="path2724"
       style="font-variation-settings:normal;vector-effect:none;fill:#000000;fill-opacity:1;stroke-width:0.137091;stroke-linecap:butt;stroke-linejoin:miter;stroke-miterlimit:4;stroke-dasharray:none;stroke-dashoffset:0;stroke-opacity:1;stop-color:#000000"
       d="m 119.06249,198.43751 h 13.22918 v 13.22917 h -13.22918 z"
       class="cls-2" />
    <path
       id="path2726"
       style="font-variation-settings:normal;vector-effect:none;fill:#000000;fill-opacity:1;stroke-width:0.137091;stroke-linecap:butt;stroke-linejoin:miter;stroke-miterlimit:4;stroke-dasharray:none;stroke-dashoffset:0;stroke-opacity:1;stop-color:#000000"
       d="M 145.52082,198.43751 H 158.75 v 13.22917 h -13.22918 z"
       class="cls-2" />
    <path
       id="path2728"
       style="font-variation-settings:normal;vector-effect:none;fill:#000000;fill-opacity:1;stroke-width:0.137091;stroke-linecap:butt;stroke-linejoin:miter;stroke-miterlimit:4;stroke-dasharray:none;stroke-dashoffset:0;stroke-opacity:1;stop-color:#000000"
       d="m 145.52084,145.52084 h 13.22918 v 13.22917 h -13.22918 z"
       class="cls-2" />
    <path
       id="path2730"
       style="font-variation-settings:normal;vector-effect:none;fill:#4d4d4d;fill-opacity:1;stroke-width:0.137091;stroke-linecap:butt;stroke-linejoin:miter;stroke-miterlimit:4;stroke-dasharray:none;stroke-dashoffset:0;stroke-opacity:1;stop-color:#000000"
       d="m 119.0625,145.52084 h 13.22918 v 13.22917 H 119.0625 Z"
       class="cls-2" />
    <path
       id="path2732"
       style="font-variation-settings:normal;vector-effect:none;fill:#666666;fill-opacity:1;stroke-width:0.137091;stroke-linecap:butt;stroke-linejoin:miter;stroke-miterlimit:4;stroke-dasharray:none;stroke-dashoffset:0;stroke-opacity:1;stop-color:#000000"
       d="m 119.06249,132.29167 h 13.22918 v 13.22917 h -13.22918 z"
       class="cls-2" />
    <path
       id="path2734"
       style="font-variation-settings:normal;vector-effect:none;fill:#333333;fill-opacity:1;stroke-width:0.137091;stroke-linecap:butt;stroke-linejoin:miter;stroke-miterlimit:4;stroke-dasharray:none;stroke-dashoffset:0;stroke-opacity:1;stop-color:#000000"
       d="m 132.29167,132.29167 h 13.22918 v 13.22917 h -13.22918 z"
       class="cls-2" />
    <path
       id="path2736"
       style="font-variation-settings:normal;vector-effect:none;fill:#666666;fill-opacity:1;stroke-width:0.137091;stroke-linecap:butt;stroke-linejoin:miter;stroke-miterlimit:4;stroke-dasharray:none;stroke-dashoffset:0;stroke-opacity:1;stop-color:#000000"
       d="M 145.52082,132.29167 H 158.75 v 13.22917 h -13.22918 z"
       class="cls-2" />
    <path
       id="path2738"
       style="font-variation-settings:normal;vector-effect:none;fill:#4d4d4d;fill-opacity:1;stroke-width:0.137091;stroke-linecap:butt;stroke-linejoin:miter;stroke-miterlimit:4;stroke-dasharray:none;stroke-dashoffset:0;stroke-opacity:1;stop-color:#000000"
       d="m 132.29167,145.52084 h 13.22918 v 13.22917 h -13.22918 z"
       class="cls-2" />
    <path
       id="path2740"
       style="font-variation-settings:normal;vector-effect:none;fill:#666666;fill-opacity:1;stroke-width:0.137091;stroke-linecap:butt;stroke-linejoin:miter;stroke-miterlimit:4;stroke-dasharray:none;stroke-dashoffset:0;stroke-opacity:1;stop-color:#000000"
       d="m 132.29166,158.75 h 13.22918 v 13.22917 h -13.22918 z"
       class="cls-2" />
    <path
       id="path2742"
       style="font-variation-settings:normal;vector-effect:none;fill:#000000;fill-opacity:1;stroke-width:0.137091;stroke-linecap:butt;stroke-linejoin:miter;stroke-miterlimit:4;stroke-dasharray:none;stroke-dashoffset:0;stroke-opacity:1;stop-color:#000000"
       d="m 119.06249,158.75001 h 13.22918 v 13.22917 h -13.22918 z"
       class="cls-2" />
    <path
       id="path2744"
       style="font-variation-settings:normal;vector-effect:none;fill:#4d4d4d;fill-opacity:1;stroke-width:0.137091;stroke-linecap:butt;stroke-linejoin:miter;stroke-miterlimit:4;stroke-dasharray:none;stroke-dashoffset:0;stroke-opacity:1;stop-color:#000000;opacity:1;stop-opacity:1"
       d="m 119.0625,171.97917 h 13.22918 v 13.22917 H 119.0625 Z"
       class="cls-2" />
    <path
       id="path2746"
       style="font-variation-settings:normal;vector-effect:none;fill:#4d4d4d;fill-opacity:1;stroke-width:0.137091;stroke-linecap:butt;stroke-linejoin:miter;stroke-miterlimit:4;stroke-dasharray:none;stroke-dashoffset:0;stroke-opacity:1;stop-color:#000000"
       d="m 145.52084,171.97917 h 13.22918 v 13.22917 h -13.22918 z"
       class="cls-2" />
    <path
       id="path2748"
       style="font-variation-settings:normal;vector-effect:none;fill:#000000;fill-opacity:1;stroke-width:0.137091;stroke-linecap:butt;stroke-linejoin:miter;stroke-miterlimit:4;stroke-dasharray:none;stroke-dashoffset:0;stroke-opacity:1;stop-color:#000000"
       d="M 145.52082,158.75001 H 158.75 v 13.22917 h -13.22918 z"
       class="cls-2" />
    <path
       id="path2746-2"
       style="font-variation-settings:normal;vector-effect:none;fill:#333333;fill-opacity:1;stroke-width:0.137091;stroke-linecap:butt;stroke-linejoin:miter;stroke-miterlimit:4;stroke-dasharray:none;stroke-dashoffset:0;stroke-opacity:1;stop-color:#000000"
       d="m 132.29167,171.97917 h 13.22918 v 13.22917 h -13.22918 z"
       class="cls-2" />
    <path
       id="path2770"
       style="font-variation-settings:normal;vector-effect:none;fill:#999999;fill-opacity:1;stroke-width:0.137091;stroke-linecap:butt;stroke-linejoin:miter;stroke-miterlimit:4;stroke-dasharray:none;stroke-dashoffset:0;stroke-opacity:1;stop-color:#000000"
       d="m 132.29166,185.20834 h 13.22918 v 13.22917 h -13.22918 z"
       class="cls-2" />
    <path
       id="path2772"
       style="font-variation-settings:normal;vector-effect:none;fill:#1a1a1a;fill-opacity:1;stroke-width:0.137091;stroke-linecap:butt;stroke-linejoin:miter;stroke-miterlimit:4;stroke-dasharray:none;stroke-dashoffset:0;stroke-opacity:1;stop-color:#000000"
       d="M 145.52082,185.20834 H 158.75 v 13.22917 h -13.22918 z"
       class="cls-2" />
    <path
       id="path2774"
       style="font-variation-settings:normal;vector-effect:none;fill:#1a1a1a;fill-opacity:1;stroke-width:0.137091;stroke-linecap:butt;stroke-linejoin:miter;stroke-miterlimit:4;stroke-dasharray:none;stroke-dashoffset:0;stroke-opacity:1;stop-color:#000000"
       d="m 119.0625,185.20834 h 13.22918 v 13.22917 H 119.0625 Z"
       class="cls-2" />
    <path
       id="path2776"
       style="font-variation-settings:normal;vector-effect:none;fill:#999999;fill-opacity:1;stroke-width:0.137091;stroke-linecap:butt;stroke-linejoin:miter;stroke-miterlimit:4;stroke-dasharray:none;stroke-dashoffset:0;stroke-opacity:1;stop-color:#000000"
       d="m 132.29166,198.43751 h 13.22918 v 13.22917 h -13.22918 z"
       class="cls-2" />
  </g>
  <g
     inkscape:groupmode="layer"
     id="layer1"
     inkscape:label="pixelcwtv"
     sodipodi:insensitive="true"
     style="display:none">
    <path
       style="display:inline;fill:#c8ab37;stroke:#000000"
       id="Auswahl"
       fill="none"
       stroke="black"
       stroke-width="0.0423153"
       d="m 100.46126,168.93423 c 0.24837,0.0953 0.53444,0.31399 0.76167,0.46547 0,0 1.22715,0.81796 1.22715,0.81796 0,0 3.97762,2.65189 3.97762,2.65189 0,0 12.5676,8.3784 12.5676,8.3784 0,0 4.65467,3.10297 4.65467,3.10297 0.66096,0.44093 1.51953,1.16113 2.32733,1.16113 0.15778,0.0109 0.40072,0.0165 0.55009,0 0.64573,-0.12607 1.54748,-0.82429 2.11577,-1.20345 0,0 4.40078,-2.93372 4.40078,-2.93372 0,0 12.8638,-8.576 12.8638,-8.576 0,0 3.97763,-2.65147 3.97763,-2.65147 0,0 1.18483,-0.79002 1.18483,-0.79002 0.22468,-0.14972 0.46207,-0.34148 0.71934,-0.42316 0,0.46675 -0.0245,0.77903 0.16383,1.22715 0.45616,1.08327 1.62829,1.66892 2.75599,1.31052 0.53147,-0.16877 1.29442,-0.77269 1.77724,-1.11079 0,0 3.17363,-2.21902 3.17363,-2.21902 0,0 10.15565,-7.10893 10.15565,-7.10893 0,0 4.99317,-3.49609 4.99317,-3.49609 0,0 2.83514,-1.98628 2.83514,-1.98628 0.30636,-0.21454 1.08621,-0.73289 1.30795,-0.96309 0.43247,-0.44895 0.63769,-1.07734 0.63853,-1.69091 0,0 0,-3.3429 0,-3.3429 0.007,-0.3309 0.15778,-0.41129 0.38085,-0.63472 0,0 0.93092,-0.93094 0.93092,-0.93094 0,0 1.90418,-1.90418 1.90418,-1.90418 0.81753,-0.81753 1.43661,-1.28807 1.43873,-2.53891 0,0 0,-28.94355 0,-28.94355 0,0 0,-28.943578 0,-28.943578 -0.002,-1.191593 -0.61654,-1.674414 -1.3964,-2.454289 0,0 -1.94651,-1.946489 -1.94651,-1.946489 0,0 -0.8463,-0.846305 -0.8463,-0.846305 -0.31229,-0.312284 -0.46462,-0.35291 -0.46547,-0.803991 0,0 0,-3.342887 0,-3.342887 -0.007,-0.610182 -0.24585,-1.215728 -0.67874,-1.64861 -0.23654,-0.236526 -0.76081,-0.572524 -1.05618,-0.78114 0,0 -3.76604,-2.636222 -3.76604,-2.636222 0,0 -13.28698,-9.296653 -13.28698,-9.296653 0,0 -4.14687,-2.90282 -4.14687,-2.90282 -0.58733,-0.407062 -1.40995,-1.090455 -2.07345,-1.267753 -1.0346,-0.277172 -1.66255,0.219191 -2.45427,0.785373 0,0 -1.10021,0.785354 -1.10021,0.785354 -0.14257,0.101888 -0.77606,0.575492 -0.88861,0.605546 -0.16291,0.04362 -0.34064,-0.12443 -0.46547,-0.21285 0,0 -1.05787,-0.737984 -1.05787,-0.737984 0,0 -4.40077,-3.082225 -4.40077,-3.082225 0,0 -12.60991,-8.82525 -12.60991,-8.82525 0,0 -3.3006,-2.310415 -3.3006,-2.310415 -0.6927,-0.47985 -1.2339,-0.986366 -2.11575,-1.049423 -0.85392,-0.06103 -1.63083,0.604263 -2.28503,1.062123 0,0 -4.23152,2.962049 -4.23152,2.962049 0,0 -12.05982,8.439352 -12.05982,8.439352 0,0 -3.76604,2.636222 -3.76604,2.636222 0,0 -1.05788,0.743059 -1.05788,0.743059 0,0 -0.55009,0.368561 -0.55009,0.368561 -0.16384,0.06047 -0.29706,-0.06725 -0.42316,-0.157049 0,0 -0.97324,-0.695651 -0.97324,-0.695651 0,0 -0.888623,-0.634738 -0.888623,-0.634738 -0.844198,-0.605106 -1.480615,-0.989316 -2.538913,-0.611024 -0.460387,0.164195 -1.563967,0.999908 -2.03113,1.323608 0,0 -4.189197,2.932453 -4.189197,2.932453 0,0 -8.886182,6.220327 -8.886182,6.220327 0,0 -4.104583,2.871502 -4.104583,2.871502 0,0 -3.935312,2.756419 -3.935312,2.756419 0,0 -0.884806,0.6415 -0.884806,0.6415 -0.423153,0.382946 -0.716396,0.973244 -0.723158,1.547032 0,0 0,3.469846 0,3.469846 -8.44e-4,0.45108 -0.153201,0.491708 -0.465466,0.803991 0,0 -0.803992,0.803991 -0.803992,0.803991 0,0 -2.073448,2.07343 -2.073448,2.07343 -0.697355,0.697356 -1.310066,1.224194 -1.311771,2.285034 0,0 0,29.070514 0,29.070514 0,0 0,29.11282 0,29.11282 0.0017,1.06676 0.574228,1.50516 1.269458,2.20038 0,0 1.395976,1.3964 1.395976,1.3964 0,0 0.303816,0.33133 0.303816,0.33133 0,0 0.458283,0.43035 0.458283,0.43035 0,0 0.719364,0.71936 0.719364,0.71936 0.346974,0.34697 0.506936,0.38929 0.50778,0.88862 0,0 0,3.3852 0,3.3852 0.0018,1.27285 0.89538,1.77343 1.819549,2.41282 0,0 2.411956,1.6909 2.411956,1.6909 0,0 13.498544,9.44899 13.498544,9.44899 0,0 4.485406,3.13724 4.485406,3.13724 0,0 1.565666,1.09682 1.565666,1.09682 0.373636,0.25685 0.577603,0.44261 1.015566,0.60171 0.988489,0.35925 2.147921,-0.0963 2.670927,-0.99693 0.27252,-0.46844 0.33345,-0.99103 0.33345,-1.52336 z m 5.62791,-106.25335 c 0,0 1.65031,-1.141655 1.65031,-1.141655 0,0 3.34288,-2.340047 3.34288,-2.340047 0,0 9.56323,-6.691712 9.56323,-6.691712 0,0 3.893,-2.726786 3.893,-2.726786 0,0 1.10019,-0.76844 1.10019,-0.76844 0.11343,-0.0788 0.33218,-0.260239 0.46546,-0.266177 0.1303,-0.0055 0.27759,0.12223 0.38084,0.194231 0,0 0.76167,0.532335 0.76167,0.532335 0,0 3.00439,2.103905 3.00439,2.103905 0,0 11.38276,7.967088 11.38276,7.967088 0,0 3.46985,2.42975 3.46985,2.42975 0,0 0.80314,0.562792 0.80314,0.562792 0.0909,0.06817 0.23739,0.16163 0.16805,0.29493 -0.0475,0.09089 -0.40325,0.327108 -0.50565,0.399878 0,0 -1.18485,0.846305 -1.18485,0.846305 0,0 -3.55448,2.538914 -3.55448,2.538914 0,0 -1.01555,0.725284 -1.01555,0.725284 -0.12535,0.0898 -0.41766,0.316939 -0.5501,0.352911 -0.16291,0.04361 -0.67661,-0.132493 -0.88861,-0.17006 -0.48112,-0.08503 -0.96226,-0.0656 -1.43871,0.04068 -0.65082,0.145503 -1.26862,0.435833 -1.77724,0.870842 -0.2285,0.195918 -0.34276,0.3237 -0.53825,0.550093 -0.075,0.08668 -0.17263,0.227656 -0.27802,0.272095 -0.0711,0.02969 -0.2048,0.02419 -0.28394,0.02419 0,0 -15.86818,0 -15.86818,0 -0.55264,-0.0013 -0.35079,-0.149718 -0.97325,-0.712163 -0.48535,-0.43882 -0.98424,-0.72783 -1.60798,-0.923326 -0.57378,-0.179773 -1.10061,-0.213693 -1.69259,-0.129927 -0.23527,0.03335 -0.78918,0.226814 -0.97326,0.169693 -0.12956,-0.04013 -0.42526,-0.267423 -0.55009,-0.356722 0,0 -1.05787,-0.755741 -1.05787,-0.755741 0,0 -3.59679,-2.56895 -3.59679,-2.56895 0,0 -1.14252,-0.816269 -1.14252,-0.816269 -0.21115,-0.150268 -0.42991,-0.249226 -0.50777,-0.507779 z m -10.155629,1.607982 c 0,0 0,100.625428 0,100.625428 -0.331327,-0.0462 -1.010063,-0.59495 -1.311774,-0.80991 0,0 -2.750483,-1.92618 -2.750483,-1.92618 0,0 -10.494164,-7.34676 -10.494164,-7.34676 0,0 -3.173634,-2.219 -3.173634,-2.219 0,0 -0.634737,-0.44685 -0.634737,-0.44685 -0.10867,-0.0763 -0.274203,-0.17134 -0.337665,-0.28816 -0.05168,-0.0948 -0.04325,-0.22892 -0.04325,-0.33472 0,0 0,-35.75629 0,-35.75629 0,0 0,-38.125972 0,-38.125972 0,-0.09565 -0.01099,-0.233997 0.04197,-0.316517 0.04783,-0.07568 0.218329,-0.183657 0.296616,-0.239513 0,0 0.677051,-0.473914 0.677051,-0.473914 0,0 3.258261,-2.282486 3.258261,-2.282486 0,0 9.986384,-6.987924 9.986384,-6.987924 0,0 2.962062,-2.073449 2.962062,-2.073449 0,0 0.888629,-0.622881 0.888629,-0.622881 0.198869,-0.141838 0.396909,-0.310597 0.634718,-0.374902 z M 156.31728,164.91429 c 0,0 0,-100.583114 0,-100.583114 0.26952,0.05498 0.4151,0.19676 0.63471,0.350364 0,0 0.804,0.562792 0.804,0.562792 0,0 2.96204,2.073449 2.96204,2.073449 0,0 10.15567,7.108944 10.15567,7.108944 0,0 3.17363,2.219007 3.17363,2.219007 0,0 0.67703,0.476461 0.67703,0.476461 0.0935,0.0656 0.23909,0.150635 0.29536,0.249666 0.052,0.09145 0.0432,0.227657 0.0432,0.330902 0,0 0,36.941139 0,36.941139 0,0 0,36.89881 0,36.89881 0,0.10187 0.01,0.23612 -0.0432,0.32582 -0.0597,0.10155 -0.23867,0.21285 -0.33768,0.28097 0,0 -0.63471,0.44517 -0.63471,0.44517 0,0 -3.21597,2.24946 -3.21597,2.24946 0,0 -10.19795,7.13858 -10.19795,7.13858 0,0 -2.96205,2.07345 -2.96205,2.07345 -0.31483,0.22045 -1.01939,0.79002 -1.35408,0.85813 z M 100.46126,76.941084 c 0,0 0,-12.567595 0,-12.567595 0.28351,0.06945 0.56534,0.319046 0.80399,0.490004 0,0 1.48102,1.057872 1.48102,1.057872 0,0 5.07783,3.626839 5.07783,3.626839 0,0 1.6926,1.208947 1.6926,1.208947 0.12316,0.08796 0.62458,0.418497 0.66986,0.524712 0.0744,0.174275 -0.33684,0.349099 -0.45828,0.418498 0,0 -1.73492,0.991442 -1.73492,0.991442 0,0 -5.16247,2.949366 -5.16247,2.949366 0,0 -1.52333,0.870421 -1.52333,0.870421 -0.24669,0.140923 -0.57845,0.365611 -0.8463,0.429494 z m 51.32828,-12.567595 c 0,0 0,12.567595 0,12.567595 -0.28309,-0.0537 -0.63133,-0.293244 -0.88862,-0.440911 0,0 -1.52334,-0.87086 -1.52334,-0.87086 0,0 -5.07782,-2.901959 -5.07782,-2.901959 0,0 -1.69261,-0.966483 -1.69261,-0.966483 -0.21877,-0.125712 -0.55136,-0.235702 -0.63472,-0.490022 0,0 1.01555,-0.713427 1.01555,-0.713427 0,0 1.52336,-1.088346 1.52336,-1.088346 0,0 4.40078,-3.143177 4.40078,-3.143177 0,0 1.94649,-1.390039 1.94649,-1.390039 0.25642,-0.182338 0.62669,-0.515824 0.93093,-0.562371 z m -37.61818,5.343987 c 0.45235,-0.0427 0.86661,-0.0091 1.26946,0.221719 0.92882,0.532758 1.1751,1.867801 0.55898,2.72807 -0.36772,0.513698 -0.99102,0.784511 -1.61685,0.759974 -1.8094,-0.07111 -2.39251,-2.406459 -1.01558,-3.392403 0.25688,-0.184079 0.49679,-0.266599 0.80399,-0.31736 z m 23.27335,0 c 0.44811,-0.0427 0.82091,-0.01283 1.22714,0.198446 0.9707,0.505672 1.22544,1.879639 0.60129,2.751343 -0.3694,0.515805 -0.98763,0.784511 -1.61686,0.759974 -1.76878,-0.06946 -2.41914,-2.387418 -1.01556,-3.392403 0.23739,-0.17006 0.51879,-0.269548 0.80399,-0.31736 z m -36.98345,29.692956 c 0,0 7.95524,0 7.95524,0 0.4549,9.77e-4 0.36391,0.08115 0.68085,0.423155 0.20651,0.223003 0.42612,0.438823 0.67323,0.616543 0.84799,0.61018 1.83691,0.90468 2.87745,0.76759 0.51751,-0.0682 0.98042,-0.24289 1.43871,-0.48621 0.43586,-0.23144 0.83065,-0.56277 1.14589,-0.940241 0.61907,-0.741354 1.03377,-1.729418 1.01176,-2.708167 -0.0364,-1.591468 -1.09342,-3.054311 -2.53849,-3.675071 -0.4312,-0.185336 -1.13955,-0.361377 -1.60799,-0.343181 -0.84078,0.03261 -1.69852,0.333037 -2.36963,0.840395 -0.2924,0.220867 -0.43162,0.371107 -0.67409,0.638945 -0.0786,0.08721 -0.21114,0.271257 -0.31186,0.314415 -0.0702,0.03006 -0.20522,0.02401 -0.28351,0.02401 0,0 -7.99756,0 -7.99756,0 0,0 0,-12.398344 0,-12.398344 8.2e-4,-0.396067 0.007,-0.34996 0.5924,-0.683391 0,0 1.18483,-0.677051 1.18483,-0.677051 0,0 5.75487,-3.287893 5.75487,-3.287893 0,0 3.21594,-1.837747 3.21594,-1.837747 0,0 0.93095,-0.531895 0.93095,-0.531895 0.10922,-0.06213 0.35121,-0.2158 0.46547,-0.230607 0.1041,-0.01283 0.68042,0.216222 0.8463,0.265315 0.48153,0.141289 0.74009,0.130294 1.22713,0.128278 0.77014,-0.0036 1.69134,-0.385915 2.28501,-0.865784 0.2632,-0.212831 0.369,-0.322858 0.5903,-0.572944 0.0733,-0.08301 0.22936,-0.289854 0.31102,-0.337665 0.0902,-0.05241 0.22384,-0.04324 0.32583,-0.04324 0,0 15.82587,0 15.82587,0 0.10495,0 0.23781,-0.0091 0.33134,0.04324 0.10282,0.05718 0.23316,0.243307 0.31566,0.337665 0.14678,0.168776 0.36434,0.382103 0.53783,0.523868 0.58479,0.47943 1.51868,0.905551 2.28501,0.91486 0.55814,0.0073 0.80483,0.01283 1.35409,-0.145137 0.19126,-0.05461 0.64573,-0.278436 0.80399,-0.246276 0.12021,0.02419 0.69819,0.373216 0.8463,0.458265 0,0 1.81956,1.039692 1.81956,1.039692 0,0 6.178,3.530338 6.178,3.530338 0,0 2.49659,1.42603 2.49659,1.42603 0.16071,0.09145 0.71598,0.366032 0.77988,0.509904 0.0301,0.0678 0.0242,0.20607 0.0242,0.282231 0,0 0,41.638103 0,41.638103 0,0 0,39.01458 0,39.01458 0,0.10314 0.01,0.23951 -0.0432,0.3309 -0.0644,0.11251 -0.30804,0.25601 -0.4223,0.33218 0,0 -0.88862,0.59241 -0.88862,0.59241 0,0 -4.27381,2.84907 -4.27381,2.84907 0,0 -14.76801,9.84548 -14.76801,9.84548 0,0 -3.85066,2.56684 -3.85066,2.56684 0,0 -0.97327,0.64911 -0.97327,0.64911 -0.11472,0.0763 -0.32919,0.24501 -0.46546,0.23865 -0.11508,-0.005 -0.28394,-0.13194 -0.38084,-0.19634 0,0 -0.80397,-0.53612 -0.80397,-0.53612 0,0 -2.91976,-1.9465 -2.91976,-1.9465 0,0 -10.95963,-7.30657 -10.95963,-7.30657 0,0 -8.03988,-5.35963 -8.03988,-5.35963 0,0 -1.90417,-1.26946 -1.90417,-1.26946 -0.13451,-0.0897 -0.55391,-0.33598 -0.61062,-0.46505 -0.0301,-0.0685 -0.0242,-0.20564 -0.0242,-0.28266 0,0 0,-63.768916 0,-63.768916 z M 85.100847,79.375048 c 0,0 -0.846305,0.324983 -0.846305,0.324983 -0.171344,0.06946 -0.498892,0.194653 -0.633034,0.304257 -0.176474,0.143855 -0.299584,0.38126 -0.416372,0.575913 -0.118015,0.196761 -0.383386,0.605528 -0.440507,0.803973 -0.05882,0.204805 -0.03335,1.15945 -0.03335,1.43873 0,0 0,2.158074 0,2.158074 0,0 0,1.481024 0,1.481024 8.24e-4,0.542469 0.236122,0.77436 0.507778,1.227144 0.107021,0.17849 0.215819,0.396911 0.382525,0.523429 0.154483,0.116733 0.67958,0.321593 0.886933,0.407081 0.305521,0.126078 0.510326,0.250071 0.846305,0.247118 0,0 1.227143,0 1.227143,0 0.163829,-0.03516 0.701149,-0.270812 0.888618,-0.349099 0.188715,-0.07953 0.525555,-0.211164 0.673221,-0.33726 0.161264,-0.137625 0.337262,-0.468857 0.452363,-0.660541 0.181605,-0.302552 0.464623,-0.645732 0.375323,-1.015558 -0.107937,-0.446426 -0.591142,-0.676612 -0.992707,-0.443035 -0.345708,0.201414 -0.509905,0.744745 -0.735857,0.98424 -0.132859,0.140922 -0.719364,0.393538 -0.91486,0.427385 0,0 -0.634719,0 -0.634719,0 -0.350804,0.0037 -0.39649,-0.02071 -0.719365,-0.158332 -0.115083,-0.04911 -0.326669,-0.131576 -0.418919,-0.2031 -0.132859,-0.102801 -0.369825,-0.484946 -0.418498,-0.649545 -0.01283,-0.08539 -0.0091,-0.206931 0,-0.296212 0,0 0,-4.104565 0,-4.104565 -0.0091,-0.08925 -0.01283,-0.210724 0,-0.296212 0.05369,-0.184061 0.303396,-0.578021 0.458282,-0.685077 0.0898,-0.06176 0.313127,-0.151552 0.421449,-0.195075 0.266597,-0.10757 0.300867,-0.133775 0.592424,-0.135425 0,0 0.465465,0 0.465465,0 0.332167,4.22e-4 0.770126,0.13964 1.053639,0.313548 0.256007,0.157049 0.44769,0.736297 0.701167,0.975792 0.23781,0.225128 0.594954,0.27675 0.867031,0.07953 0.640236,-0.46378 0.06817,-1.145467 -0.218347,-1.622789 -0.365592,-0.608478 -0.438802,-0.553483 -1.049405,-0.81583 0,0 -0.761679,-0.304238 -0.761679,-0.304238 -0.14422,-0.03298 -0.471384,-0.02236 -0.634719,-0.02236 0,0 -0.930949,0.02199 -0.930949,0.02199 z m 38.760693,8.398725 c 0,0 0,17.264587 0,17.264587 0,0.1041 0.01,0.23822 -0.0432,0.33134 -0.0553,0.0986 -0.24373,0.22763 -0.33724,0.30889 -0.17776,0.15522 -0.41766,0.40496 -0.5666,0.58691 -0.46887,0.5721 -0.86366,1.49543 -0.87255,2.2427 -0.01,0.78411 0.011,1.16113 0.31525,1.90417 0.61865,1.51532 2.11492,2.40268 3.70469,2.49279 0.30383,0.0165 0.9724,-0.10995 1.26946,-0.20775 1.74,-0.57294 2.8986,-2.13735 2.87743,-3.97763 -0.01,-0.859 -0.3508,-1.73155 -0.86195,-2.41196 -0.16164,-0.21497 -0.28733,-0.35968 -0.49213,-0.53783 -0.1193,-0.10367 -0.35375,-0.26362 -0.42231,-0.39479 -0.0511,-0.0983 -0.0427,-0.22808 -0.0432,-0.33684 0,0 0,-17.264587 0,-17.264587 0,0 4.44308,0 4.44308,0 0.10187,0 0.23571,-0.0091 0.32583,0.04325 0.0854,0.05003 0.26618,0.291135 0.34065,0.379995 0.19337,0.230186 0.29027,0.311001 0.51835,0.501858 0.55052,0.459537 1.51742,0.88607 2.24271,0.894536 0,0 0.55009,0 0.55009,0 1.04984,-0.0021 2.13649,-0.586057 2.82792,-1.35408 0.29708,-0.33006 0.55435,-0.729518 0.71809,-1.142517 0.94616,-2.388683 -0.37492,-5.000385 -2.91127,-5.567832 -1.10612,-0.247118 -2.23847,-0.0013 -3.17363,0.63219 -0.20991,0.142205 -0.50061,0.392256 -0.67325,0.577178 -0.33219,0.355459 -0.27462,0.506936 -0.76549,0.50778 0,0 -14.59872,0 -14.59872,0 -0.51752,-8.26e-4 -0.44388,-0.175558 -0.80569,-0.550093 -0.21114,-0.218769 -0.54291,-0.481959 -0.8023,-0.650388 -1.32995,-0.816673 -2.93625,-0.812861 -4.27382,0 -2.40519,1.439994 -2.61635,4.799391 -0.50777,6.604134 0.62582,0.535704 1.58131,0.942364 2.41195,0.943628 0,0 0.55009,0 0.55009,0 0.74687,-0.0096 1.67147,-0.435424 2.24271,-0.899624 0.27801,-0.225956 0.3144,-0.26827 0.54459,-0.539083 0.0783,-0.09218 0.21243,-0.283512 0.30891,-0.337682 0.0931,-0.05205 0.22724,-0.04325 0.33133,-0.04325 0,0 5.62791,0 5.62791,0 z m -9.69018,-4.092305 c 0.60343,-0.05718 1.14336,0.04526 1.60079,0.471824 0.66984,0.624567 0.75321,1.797963 0.19634,2.520277 -0.33598,0.436273 -0.7532,0.637267 -1.28934,0.707087 -0.22384,0.02914 -0.41596,0.0073 -0.63472,-0.03884 -1.59274,-0.343584 -1.92366,-2.450458 -0.67706,-3.342888 0.2374,-0.17006 0.5188,-0.269548 0.80399,-0.31736 z m 22.13083,0 c 0.47732,-0.04526 0.89625,0.0037 1.31178,0.261504 0.96224,0.596657 1.10738,2.027744 0.36813,2.855852 -0.32454,0.363485 -0.74262,0.523869 -1.21444,0.581832 -1.06126,0.13066 -2.01842,-0.693965 -2.03112,-1.764958 -0.007,-0.570837 0.11509,-1.065074 0.5539,-1.468343 0.2979,-0.274204 0.6195,-0.400722 1.01175,-0.465887 z m 29.45136,9.804849 c 0.0698,0.03463 0.0931,0.03813 0.1532,0.09698 0,0 0.6508,1.045615 0.6508,1.045615 0,0 1.1679,1.946492 1.1679,1.946492 0,0 0.59284,0.971983 0.59284,0.971983 0.29366,0.383386 0.83954,0.406659 1.12305,0 0.127,-0.182893 0.12022,-0.338104 0.12058,-0.548827 0,0 0,-7.82831 0,-7.82831 -4.2e-4,-0.203107 0.007,-0.32455 -0.10495,-0.506079 -0.22638,-0.363924 -0.70708,-0.443053 -1.02952,-0.154483 -0.23907,0.213676 -0.26151,0.57295 -0.26193,0.872102 0,0 0,5.120145 0,5.120145 -0.24924,-0.210744 -0.41554,-0.565334 -0.58396,-0.846301 0,0 -0.91399,-1.523358 -0.91399,-1.523358 -0.20354,-0.338943 -0.43628,-0.810334 -0.91401,-0.74009 -0.4278,0.06267 -0.59666,0.451082 -0.79551,0.782409 0,0 -0.96481,1.607974 -0.96481,1.607974 -0.13633,0.22724 -0.29492,0.590306 -0.52469,0.719366 0,0 0,-2.581221 0,-2.581221 0,0 0,-2.708167 0,-2.708167 -4.6e-4,-0.204392 0.005,-0.371118 -0.11435,-0.549695 -0.29074,-0.433305 -0.87173,-0.445986 -1.15566,0 -0.12516,0.197198 -0.12607,0.369001 -0.12644,0.592003 0,0 0,7.701354 0,7.701354 4.2e-4,0.16969 -0.007,0.308043 0.0715,0.465464 0.20438,0.408763 0.6927,0.566598 1.05831,0.262782 0.18197,-0.150994 0.39987,-0.555189 0.52892,-0.770564 0,0 0.86325,-1.438711 0.86325,-1.438711 0,0 1.15943,-1.988821 1.15943,-1.988821 z m -81.287423,6.431897 c 0,0 3.512159,0 3.512159,0 0,0 0,3.215956 0,3.215956 4.21e-4,0.20185 -0.0055,0.37406 0.11435,0.54926 0.259397,0.38083 0.748136,0.41595 1.061684,0.0811 0.20607,-0.22045 0.220034,-0.51454 0.220454,-0.79977 0,0 0,-7.44746 0,-7.44746 -4.2e-4,-0.290697 -0.01466,-0.606792 -0.231871,-0.826405 -0.335997,-0.341916 -0.836995,-0.252626 -1.079459,0.149358 -0.09438,0.156125 -0.08467,0.291537 -0.08503,0.465464 0,0 0,3.215949 0,3.215949 0,0 -3.512159,0 -3.512159,0 0,0 0,-3.173641 0,-3.173641 -4.39e-4,-0.252191 -0.0091,-0.427808 -0.185764,-0.6305 -0.307208,-0.35375 -0.825158,-0.307203 -1.078195,0.08115 -0.133776,0.204806 -0.131943,0.358403 -0.132494,0.59156 0,0 0,7.659065 0,7.659065 4.22e-4,0.22173 0.0037,0.43837 0.13286,0.63092 0.260661,0.38592 0.824296,0.41679 1.109073,0.0424 0.149353,-0.19634 0.154117,-0.39733 0.154483,-0.6309 0,0 0,-3.173666 0,-3.173666 z m 27.377903,-4.599647 c 0.6504,-0.06469 1.25634,0.08593 1.70869,0.586907 0.29155,0.322861 0.44431,0.745592 0.44939,1.177628 0.0129,1.032072 -0.56618,1.778503 -1.60797,1.928297 -0.24755,0.03558 -0.43458,0.01944 -0.67704,-0.03303 -1.5479,-0.333845 -1.91984,-2.318014 -0.76169,-3.277717 0.25262,-0.209459 0.56957,-0.322012 0.88862,-0.382101 z m 52.80932,15.093803 c 0,0 0,-2.66584 0,-2.66584 0,0 3.46984,0 3.46984,0 0.36772,-0.005 0.7164,-0.19634 0.76803,-0.59241 0.077,-0.58904 -0.4553,-0.80316 -0.93728,-0.804 0,0 -3.30059,0 -3.30059,0 0,0 0,-2.66584 0,-2.66584 0,0 3.30059,0 3.30059,0 0.22173,-4.3e-4 0.43838,-0.003 0.63092,-0.13287 0.35797,-0.24204 0.41257,-0.78243 0.0808,-1.07185 -0.21074,-0.18365 -0.40708,-0.19126 -0.66942,-0.19169 0,0 -3.85069,0 -3.85069,0 -0.12773,0 -0.25727,-0.003 -0.38084,0.0339 -0.20819,0.0644 -0.38718,0.22765 -0.46589,0.43161 -0.0576,0.15027 -0.042,0.3855 -0.042,0.5501 0,0 0,1.01558 0,1.01558 0,0 0,6.64347 0,6.64347 9.8e-4,0.60805 0.23824,0.84545 0.84632,0.84631 0,0 3.9353,0 3.9353,0 0.20184,-4.3e-4 0.37406,0.005 0.54925,-0.11417 0.37576,-0.256 0.4113,-0.75237 0.0812,-1.06169 -0.22047,-0.20607 -0.51455,-0.22003 -0.79976,-0.22047 0,0 -3.21594,0 -3.21594,0 z m -38.80299,-3.45756 c 0.3512,-0.0333 0.68718,-0.0129 1.01556,0.12901 0.64318,0.27673 1.09173,0.88565 1.10018,1.5936 0.005,0.45574 -0.0491,0.8446 -0.32285,1.22712 -0.3216,0.44855 -0.79045,0.6834 -1.32742,0.7494 -1.92153,0.23697 -2.79661,-2.23126 -1.35409,-3.34415 0.28097,-0.21708 0.54459,-0.29789 0.88862,-0.35503 z m -39.818582,2.08826 c -0.468838,0.17684 -0.515384,0.47562 -0.674925,0.90384 0,0 -0.39649,1.05789 -0.39649,1.05789 0,0 -2.110263,5.62792 -2.110263,5.62792 -0.09218,0.24162 -0.407485,1.01809 -0.407485,1.22713 8.25e-4,0.39056 0.370668,0.7054 0.754054,0.67239 0.351628,-0.0301 0.524713,-0.28732 0.642765,-0.58774 0,0 0.65123,-1.73493 0.65123,-1.73493 0.06139,-0.16292 0.183658,-0.592 0.323298,-0.67621 0.08632,-0.0516 0.230186,-0.0432 0.329198,-0.0432 0,0 2.115762,0 2.115762,0 0.09346,0 0.24162,-0.01 0.320749,0.0432 0.110869,0.0737 0.236966,0.49426 0.289432,0.6339 0,0 0.634738,1.69259 0.634738,1.69259 0.157049,0.41131 0.403672,0.78621 0.913156,0.65336 0.306364,-0.0796 0.519214,-0.38169 0.503124,-0.69568 -0.01099,-0.22595 -0.39057,-1.1645 -0.495079,-1.43871 0,0 -2.158076,-5.75486 -2.158076,-5.75486 0,0 -0.286481,-0.76168 -0.286481,-0.76168 -0.172259,-0.457 -0.343601,-0.93516 -0.948707,-0.81921 z m 1.015576,5.05074 c 0,0 -1.734922,0 -1.734922,0 0,0 0.256006,-0.80399 0.256006,-0.80399 0,0 0.547984,-1.48102 0.547984,-1.48102 0.225953,0.077 0.26319,0.34273 0.340634,0.55009 0.147703,0.39607 0.570397,1.37397 0.590298,1.73492 z m 77.986836,2.77249 c 0,0 -0.93093,0.3673 -0.93093,0.3673 -0.20734,0.0837 -0.47054,0.17482 -0.62712,0.33471 -0.13323,0.13578 -0.33175,0.49339 -0.43922,0.67237 -0.11344,0.18916 -0.30214,0.46844 -0.34995,0.67706 0,0 -0.0224,1.01554 -0.0224,1.01554 0.002,0.45234 0.20692,0.68338 0.4316,1.05787 0.10314,0.17226 0.28099,0.49255 0.42232,0.61822 0.15906,0.14185 0.66223,0.32331 0.88101,0.41514 0.40664,0.17097 0.56066,0.27756 1.01555,0.27841 0,0 0.63472,0 0.63472,0 0.28267,0.003 0.88313,0.20861 1.09132,0.39735 0.20735,0.18787 0.38592,0.55135 0.38972,0.82979 0,0 0,0.16933 0,0.16933 -0.002,0.33429 -0.1816,0.74559 -0.46716,0.93898 -0.085,0.0572 -0.27589,0.12864 -0.37914,0.17317 -0.24375,0.10495 -0.32075,0.15357 -0.59242,0.15741 -0.56575,0.007 -0.6525,0.0546 -1.18482,-0.16071 -0.11417,-0.0462 -0.27969,-0.10867 -0.37915,-0.17647 -0.33894,-0.23105 -0.46081,-0.89285 -0.89031,-1.09934 -0.48704,-0.23402 -1.01176,0.19887 -0.96478,0.67492 0.0237,0.24034 0.21454,0.51285 0.33851,0.71935 0.1105,0.18449 0.32711,0.57507 0.46463,0.71132 0.16713,0.16547 0.4515,0.26702 0.66943,0.35504 0.36519,0.1477 0.74264,0.36729 1.14252,0.36517 0,0 1.22712,0 1.22712,0 0.1845,-0.0389 0.64913,-0.24967 0.84631,-0.3309 0.17555,-0.0725 0.53867,-0.20565 0.67535,-0.31397 0.1829,-0.14551 0.34401,-0.45447 0.46716,-0.65971 0.19211,-0.32032 0.41808,-0.58945 0.42315,-0.97325 0.002,-0.21073 0.0184,-0.98806 -0.0271,-1.1425 -0.0469,-0.16329 -0.29664,-0.55348 -0.39607,-0.71937 -0.1248,-0.20817 -0.27633,-0.50652 -0.46718,-0.65038 -0.15649,-0.11766 -0.4464,-0.22004 -0.63303,-0.29833 -0.42273,-0.17775 -0.71766,-0.36221 -1.18481,-0.36306 0,0 -0.63473,0 -0.63473,0 -0.29325,-0.001 -0.86027,-0.18872 -1.09259,-0.36814 -0.21454,-0.16548 -0.4261,-0.58945 -0.43075,-0.85898 -0.007,-0.39058 -0.0198,-0.4202 0.18619,-0.76169 0.0576,-0.0957 0.12185,-0.20819 0.20353,-0.28477 0.11674,-0.10996 0.30805,-0.17098 0.45658,-0.23486 0.24373,-0.10495 0.32075,-0.15357 0.59241,-0.15741 0.61357,-0.007 0.69438,-0.0543 1.26946,0.18702 0,0 0.32964,0.15449 0.32964,0.15449 0.2048,0.14293 0.43075,0.72273 0.66348,0.94997 0.25221,0.24669 0.57888,0.28604 0.86789,0.0773 0.64445,-0.46376 0.0588,-1.14588 -0.22765,-1.62277 -0.37322,-0.62162 -0.48959,-0.58354 -1.12559,-0.84588 -0.18197,-0.075 -0.5467,-0.23781 -0.71937,-0.27463 -0.19336,-0.0414 -1.31429,-0.0339 -1.52333,0 z m -38.84532,30.10636 c -0.19379,-0.11508 -0.19464,-0.26066 -0.25388,-0.46547 0,0 -0.31399,-1.10018 -0.31399,-1.10018 0,0 -1.2576,-4.40078 -1.2576,-4.40078 0,0 -3.05853,-10.70573 -3.05853,-10.70573 0,0 -0.93095,-3.25828 -0.93095,-3.25828 0,0 -0.27842,-0.97325 -0.27842,-0.97325 0,0 -0.14386,-0.55009 -0.14386,-0.55009 -0.007,-0.18747 0.40496,-0.71386 0.51328,-0.93092 0.23063,-0.46126 0.42823,-1.21869 0.43457,-1.73493 0.0262,-2.26937 -1.76369,-4.09991 -4.01994,-4.18749 -0.42738,-0.0165 -1.07564,0.12443 -1.48102,0.26658 -0.40453,0.14184 -0.90809,0.42737 -1.22715,0.71215 -0.40327,0.36009 -0.73035,0.74093 -0.98255,1.21994 -0.22385,0.42527 -0.4185,0.99991 -0.45234,1.48104 -0.099,1.40655 0.36898,2.66499 1.4772,3.57733 0.24713,0.2031 0.51668,0.37616 0.804,0.51624 0.14605,0.0711 0.43078,0.16291 0.5264,0.27631 0.0843,0.0995 0.14257,0.36348 0.18068,0.49637 0,0 0.29072,1.01555 0.29072,1.01555 0,0 6.22583,21.7923 6.22583,21.7923 0,0 1.13702,3.97762 1.13702,3.97762 0,0 0.68888,2.28504 0.68888,2.28504 0.32836,0.72823 1.09808,1.30202 1.9101,1.31177 0.89411,0.011 1.59909,-0.31356 2.07641,-1.1002 0.24034,-0.39523 0.52809,-1.56736 0.67407,-2.07345 0,0 1.19711,-4.1892 1.19711,-4.1892 0,0 6.31045,-22.08851 6.31045,-22.08851 0,0 0.27844,-0.97324 0.27844,-0.97324 0.0346,-0.11985 0.091,-0.36179 0.16254,-0.45405 0.085,-0.10959 0.33769,-0.18703 0.47225,-0.25009 0.25091,-0.11765 0.54162,-0.29155 0.76166,-0.45954 0.92756,-0.70835 1.59402,-1.92914 1.60798,-3.11016 0.0217,-1.87288 -1.14378,-3.52739 -2.96206,-4.04997 -0.32499,-0.0935 -0.85013,-0.19295 -1.18483,-0.17978 -1.6964,0.066 -3.19818,1.09679 -3.7834,2.70647 -0.13286,0.36433 -0.23187,0.75279 -0.23652,1.1425 -0.01,0.75786 0.0326,1.23942 0.35163,1.94649 0.11086,0.24543 0.21792,0.41427 0.36855,0.63474 0.0905,0.13194 0.20016,0.25475 0.19847,0.42315 0,0 -0.24754,0.93094 -0.24754,0.93094 0,0 -0.56871,1.9888 -0.56871,1.9888 0,0 -1.83733,6.43191 -1.83733,6.43191 0,0 -2.34512,8.20914 -2.34512,8.20914 0,0 -0.73797,2.58124 -0.73797,2.58124 -0.0892,0.31481 -0.31906,1.02993 -0.34444,1.31175 z m -9.64786,-26.05386 c 0.64615,-0.0614 1.26861,0.11637 1.70023,0.62627 0.27039,0.31947 0.41045,0.72274 0.41553,1.13869 0.0129,1.01727 -0.56745,1.79882 -1.60796,1.93423 -0.60046,0.0783 -1.23348,-0.12736 -1.64268,-0.58057 -0.73375,-0.8133 -0.59791,-2.14876 0.28859,-2.79534 0.267,-0.19508 0.52598,-0.26997 0.84629,-0.32328 z m 18.61868,0 c 0.63049,-0.0597 1.23052,0.10442 1.66637,0.58733 0.27674,0.30678 0.4443,0.72276 0.43965,1.13531 0.011,0.15192 0.0165,0.3618 0,0.50779 -0.15522,0.80525 -0.79932,1.36467 -1.59823,1.46876 -0.61653,0.0804 -1.27538,-0.13964 -1.67865,-0.62246 -0.68381,-0.8188 -0.53823,-2.12421 0.32456,-2.75345 0.267,-0.19508 0.52598,-0.26997 0.8463,-0.32328 z m -49.508752,3.21256 c -0.401565,0.0763 -0.726547,0.24543 -1.100184,0.39735 -0.189577,0.0775 -0.484928,0.18661 -0.630505,0.32201 -0.149352,0.13928 -0.378714,0.55856 -0.49508,0.75279 -0.245853,0.41003 -0.354597,0.48366 -0.35544,0.97325 0,0 0,3.00437 0,3.00437 0,0 0,1.60799 0,1.60799 8.25e-4,0.5797 0.177757,0.74727 0.465466,1.22713 0.135059,0.2247 0.252617,0.45404 0.465466,0.61738 0.159981,0.12223 0.597483,0.27885 0.803992,0.36772 0.305503,0.1312 0.59367,0.28011 0.93093,0.27462 0,0 1.184813,0 1.184813,0 0.205227,-0.0488 0.713445,-0.27207 0.930932,-0.36475 0.247979,-0.10569 0.521761,-0.18915 0.710476,-0.39099 0.112152,-0.11984 0.265315,-0.39522 0.35588,-0.5463 0.25727,-0.42907 0.450659,-0.66307 0.456999,-1.18481 0,0 0,-1.9042 0,-1.9042 0,0 0,-2.58123 0,-2.58123 -8.24e-4,-0.54417 -0.09181,-0.64699 -0.363906,-1.10018 -0.110503,-0.18408 -0.348677,-0.61865 -0.490021,-0.74517 -0.164197,-0.14678 -0.542891,-0.28435 -0.754055,-0.37279 -0.70793,-0.29705 -0.743481,-0.36306 -1.523338,-0.35419 0,0 -0.592425,0 -0.592425,0 z m 0.126996,1.40149 c 0.559842,-0.0623 0.882277,-0.0356 1.396416,0.18576 0.145137,0.0627 0.332588,0.11857 0.439644,0.23485 0.05241,0.0566 0.119666,0.17353 0.161264,0.24246 0.05919,0.0986 0.143489,0.2302 0.190841,0.33852 0.03134,0.15485 0.01283,0.84927 0,1.05787 0,0 0,3.38523 0,3.38523 0.01283,0.094 0.0165,0.20564 0,0.29621 -0.05791,0.18032 -0.30466,0.57167 -0.456999,0.67831 -0.104458,0.0731 -0.296633,0.14349 -0.419341,0.19337 -0.279701,0.1138 -0.282248,0.1422 -0.592424,0.14386 0,0 -0.592405,0 -0.592405,0 -0.271657,-0.003 -0.348679,-0.0525 -0.592407,-0.15742 -0.116367,-0.0498 -0.363484,-0.13799 -0.449394,-0.21072 -0.112884,-0.0948 -0.347835,-0.50186 -0.387601,-0.64742 -0.01283,-0.0867 -0.0091,-0.20608 0,-0.29621 0,0 0,-4.14688 0,-4.14688 -0.0091,-0.094 -0.01283,-0.20565 0,-0.29621 0.04874,-0.13506 0.281386,-0.52217 0.385493,-0.614 0.139274,-0.12278 0.723158,-0.34189 0.916968,-0.3876 z m 79.340936,6.07943 c 0,0 0,7.27819 0,7.27819 4.2e-4,0.21412 -0.007,0.36265 0.12058,0.54925 0.24926,0.36561 0.75321,0.40369 1.05534,0.0812 0.20607,-0.22047 0.22003,-0.51456 0.22046,-0.79976 0,0 0,-7.10893 0,-7.10893 0,0 1.18485,0 1.18485,0 0.16291,0 0.53781,0.0111 0.67702,-0.0223 0.27844,-0.0677 0.51286,-0.32498 0.54165,-0.61232 0.0482,-0.47986 -0.35969,-0.75615 -0.79553,-0.76169 0,0 -4.52773,0 -4.52773,0 -0.31398,4.5e-4 -0.57465,0.0321 -0.78621,0.2979 -0.36138,0.45323 -0.007,1.08964 0.65929,1.09853 0,0 1.65025,0 1.65025,0 z m -79.383249,7.67976 c -0.230186,0.0537 -1.293995,0.48789 -1.480603,0.6123 -0.231468,0.15485 -0.389727,0.48156 -0.5336,0.72105 -0.23145,0.38592 -0.395646,0.54967 -0.389708,1.01556 0,0 0,1.01558 0,1.01558 0.04819,0.18532 0.229764,0.46672 0.330481,0.63471 0.13121,0.21878 0.329198,0.59157 0.509465,0.7528 0.164562,0.14678 0.505672,0.27038 0.71766,0.35586 0,0 0.803991,0.32203 0.803991,0.32203 0,0 0.888619,0 0.888619,0 0.114716,0.007 0.22597,0.005 0.338525,0.0304 0.149719,0.0339 0.770144,0.28648 0.872546,0.37958 0.204384,0.18535 0.393099,0.59239 0.396911,0.86745 0,0 0,0.16932 0,0.16932 -0.0037,0.2725 -0.04783,0.32032 -0.186186,0.55009 -0.05791,0.0965 -0.122781,0.2082 -0.203541,0.28691 -0.149352,0.14514 -0.750664,0.38295 -0.964357,0.42568 0,0 -0.550093,0 -0.550093,0 -0.366453,0.005 -0.392273,-0.0462 -0.719364,-0.17941 -0.120581,-0.0491 -0.314831,-0.11929 -0.415529,-0.19336 -0.281827,-0.20693 -0.450659,-0.87972 -0.853928,-1.08243 -0.38126,-0.19169 -0.844179,0.0414 -0.94955,0.44643 -0.09529,0.3639 0.155766,0.68 0.331745,0.97324 0.113801,0.18958 0.311019,0.55095 0.462094,0.69059 0.186186,0.17226 0.473492,0.27165 0.705803,0.36772 0.434167,0.17904 0.786637,0.37447 1.269458,0.38041 0.307629,0.003 0.768862,0.0207 1.05789,-0.0432 0.217908,-0.0478 0.66349,-0.24796 0.888617,-0.34402 0.198869,-0.0847 0.469279,-0.17135 0.633034,-0.30633 0.187873,-0.15448 0.340212,-0.44899 0.467152,-0.66054 0.111235,-0.18535 0.334293,-0.52686 0.389727,-0.71939 0.04783,-0.16621 0.03335,-0.45361 0.03335,-0.6347 0,-0.223 0.02163,-0.55771 -0.04655,-0.76169 -0.06652,-0.19718 -0.256006,-0.49043 -0.36814,-0.67704 -0.146787,-0.24458 -0.281405,-0.52217 -0.516246,-0.69269 -0.16841,-0.12187 -0.439663,-0.21667 -0.634737,-0.29833 -0.482802,-0.2027 -0.728655,-0.36221 -1.269439,-0.36306 0,0 -0.592424,0 -0.592424,0 -0.253037,-0.003 -0.849677,-0.20567 -1.041801,-0.36813 -0.211146,-0.17777 -0.393098,-0.58607 -0.39691,-0.85901 0,0 0,-0.16933 0,-0.16933 0.0017,-0.31313 0.173541,-0.70751 0.427386,-0.90342 0.09218,-0.0715 0.303817,-0.15412 0.418919,-0.20312 0.103725,-0.044 0.274624,-0.11674 0.380839,-0.14386 0.140006,-0.0284 0.831479,-0.0313 0.973245,0 0.128644,0.0224 0.691857,0.25219 0.800179,0.32246 0.25685,0.16712 0.440928,0.72147 0.688468,0.96138 0.254321,0.24628 0.593689,0.29198 0.879309,0.0698 0.605105,-0.46969 0.09474,-1.06253 -0.192966,-1.54196 -0.0964,-0.16071 -0.227217,-0.40834 -0.363064,-0.52768 -0.167495,-0.14715 -0.46039,-0.24076 -0.66941,-0.33047 0,0 -0.888617,-0.34826 -0.888617,-0.34826 -0.187891,-0.0389 -1.22927,-0.0301 -1.43873,0 z m 21.580729,18.95424 c 0,0 -0.42314,0.0432 -0.42314,0.0432 -0.73205,0.11472 -1.46749,0.44262 -2.03112,0.92501 -1.8606,1.59232 -1.94523,4.35255 -0.19973,6.06292 0.65841,0.64447 1.5318,1.02741 2.44243,1.12474 0.19295,0.0207 0.25684,0.0427 0.46546,0.0339 0.21793,-0.01 0.63388,-0.0677 0.84632,-0.12059 0.13377,-0.0334 0.33429,-0.11636 0.46546,-0.0796 0.10495,0.0296 0.28774,0.17978 0.38084,0.24969 0,0 0.76166,0.57124 0.76166,0.57124 0,0 2.49575,1.87288 2.49575,1.87288 0.2979,0.2412 0.18535,0.49763 0.21962,0.85095 0.0364,0.37617 0.15869,0.79552 0.3072,1.1425 0.72952,1.707 2.55246,2.72511 4.38258,2.43566 0.4989,-0.0786 0.95886,-0.24582 1.3964,-0.49551 2.35441,-1.34393 2.75557,-4.48879 0.88144,-6.42175 -0.73121,-0.75448 -1.78994,-1.16832 -2.82793,-1.22713 -0.20226,-0.0109 -0.76463,0.0685 -0.97324,0.11801 -0.13378,0.0318 -0.38297,0.12315 -0.50778,0.0847 -0.097,-0.0297 -0.29199,-0.18746 -0.38084,-0.2543 0,0 -0.76169,-0.57126 -0.76169,-0.57126 0,0 -1.6926,-1.26946 -1.6926,-1.26946 0,0 -0.80144,-0.60343 -0.80144,-0.60343 -0.2446,-0.2069 -0.14679,-0.32878 -0.18366,-0.63937 -0.05,-0.4202 -0.10757,-0.78876 -0.26742,-1.18482 -0.53869,-1.3342 -1.59826,-2.27826 -3.0213,-2.56429 -0.27759,-0.0559 -0.69609,-0.11729 -0.97327,-0.0837 z m 37.23736,0 c -0.61696,0.0876 -0.93053,0.10282 -1.52336,0.37619 -1.13615,0.52426 -1.9575,1.52799 -2.25834,2.73735 -0.0589,0.23612 -0.10831,0.4752 -0.11124,0.71937 -0.001,0.13286 0.0165,0.34867 -0.0432,0.46376 -0.0711,0.13579 -0.33513,0.31186 -0.46463,0.40919 0,0 -0.97323,0.72951 -0.97323,0.72951 0,0 -1.60799,1.20598 -1.60799,1.20598 -0.14001,0.10537 -0.63219,0.49763 -0.76168,0.53318 -0.12516,0.0339 -0.29535,-0.0432 -0.42315,-0.0733 -0.25685,-0.0611 -0.62584,-0.11857 -0.88862,-0.13323 -0.162,-0.01 -0.23145,0.0165 -0.38082,0.0313 -0.75957,0.0763 -1.30161,0.25135 -1.94651,0.67115 -1.05069,0.68424 -1.81744,1.96045 -1.81954,3.22907 -0.001,0.74009 0.0402,1.17128 0.35162,1.86186 0.60215,1.3342 1.8881,2.2224 3.32979,2.37643 0.20269,0.022 0.29156,0.0465 0.50777,0.0316 1.6393,-0.11123 3.05601,-1.02023 3.67297,-2.57742 0.15485,-0.39185 0.25684,-0.80695 0.29747,-1.22713 0.024,-0.24628 -0.0584,-0.45745 0.14057,-0.6394 0,0 2.49023,-1.87286 2.49023,-1.87286 0,0 0.76168,-0.57126 0.76168,-0.57126 0.0948,-0.0711 0.32413,-0.25516 0.42316,-0.28816 0.13835,-0.0462 0.58691,0.10537 0.76165,0.14001 0.42063,0.0707 0.80612,0.0601 1.22715,0 2.02351,-0.26955 3.51512,-2.07049 3.51216,-4.08893 -0.002,-1.75183 -1.19202,-3.28915 -2.83511,-3.83672 -0.37874,-0.12607 -1.04646,-0.25515 -1.43871,-0.20774 z m -37.32199,2.2372 c 0.32584,-0.031 0.66562,9.7e-4 0.97325,0.11728 1.11205,0.42189 1.49036,1.87751 0.82219,2.83259 -0.37068,0.52892 -0.9542,0.76844 -1.58384,0.76167 -1.77302,-0.0203 -2.36501,-2.15215 -1.26778,-3.21215 0.30848,-0.2979 0.64066,-0.43033 1.05618,-0.49931 z m 37.27965,0 c 0.28309,-0.0265 0.57465,-10e-4 0.84631,0.0876 1.28048,0.41807 1.64226,2.10265 0.74306,3.06659 -0.37068,0.39775 -0.88904,0.56321 -1.42009,0.55729 -1.58852,-0.0184 -2.37939,-1.90969 -1.38244,-3.08858 0.31905,-0.37747 0.73839,-0.55054 1.21316,-0.62289 z m -18.57633,0.0902 c 0,0 -0.42315,0.0432 -0.42315,0.0432 -0.4769,0.075 -1.02404,0.26153 -1.43873,0.50823 -1.11965,0.66645 -2.01547,1.94648 -2.03111,3.28153 -0.007,0.64192 -0.003,1.03291 0.22934,1.65029 0.22849,0.60637 0.49255,1.0088 0.94363,1.47384 0,0 0.60342,0.56448 0.60342,0.56448 0.0432,0.077 0.0414,0.16127 0.0432,0.2467 0,0 0,1.86186 0,1.86186 -9.8e-4,0.49762 -0.088,0.34742 -0.59241,0.84631 -0.32161,0.3182 -0.58564,0.6542 -0.793,1.05786 -1.01513,1.97613 -0.23231,4.48457 1.76625,5.49041 0.56363,0.28393 1.18566,0.46124 1.81954,0.47562 0.29662,0.005 0.72528,-0.0614 1.01556,-0.13195 2.29475,-0.56025 3.68607,-2.99719 2.91637,-5.24157 -0.20186,-0.58862 -0.50652,-1.1091 -0.93475,-1.56397 0,0 -0.62669,-0.56535 -0.62669,-0.56535 -0.0437,-0.0737 -0.0414,-0.15778 -0.0432,-0.24034 0,0 0,-1.90419 0,-1.90419 0.001,-0.55856 0.23867,-0.46122 0.71555,-0.97323 0.36943,-0.39692 0.68424,-0.9267 0.86324,-1.43871 0.75998,-2.17883 -0.40327,-4.50319 -2.59435,-5.23313 -0.37871,-0.12607 -1.04645,-0.25516 -1.43871,-0.20777 z m -0.0424,2.2372 c 0.67703,-0.0634 1.34562,0.18409 1.75057,0.74941 0.20904,0.29198 0.31862,0.65885 0.32286,1.01555 0.01,0.80781 -0.2962,1.4328 -1.05787,1.78613 -0.28267,0.13066 -0.5391,0.16383 -0.84631,0.16035 -1.19456,-0.0129 -1.9833,-1.04646 -1.78062,-2.20039 0.0576,-0.32625 0.212,-0.68297 0.43416,-0.93051 0.32667,-0.36348 0.70793,-0.50906 1.17721,-0.58057 z m -9.30935,4.65469 c 0.46546,-0.0437 0.97833,0.0588 1.35408,0.34866 1.10104,0.84842 0.93517,2.61169 -0.3385,3.20241 -0.28268,0.13067 -0.5391,0.16384 -0.84632,0.16036 -1.04857,-0.011 -1.85891,-0.85223 -1.81785,-1.90418 0.0165,-0.43965 0.17482,-0.89751 0.47138,-1.22672 0.32837,-0.36391 0.70667,-0.50905 1.17721,-0.58056 z m 18.61868,0 c 0.68847,-0.0644 1.33462,0.18234 1.75142,0.74939 0.20185,0.27463 0.31779,0.63388 0.32201,0.97325 0.01,0.82769 -0.26574,1.46664 -1.05788,1.82843 -0.28731,0.13122 -0.53485,0.16384 -0.8463,0.16036 -1.19456,-0.0129 -1.98331,-1.04646 -1.78062,-2.2004 0.0536,-0.30465 0.19762,-0.65081 0.39819,-0.88819 0.31905,-0.37745 0.7384,-0.55052 1.21318,-0.62287 z m -9.30933,4.65466 c 0.67153,-0.0639 1.29399,0.16382 1.71249,0.70708 0.71766,0.93093 0.36983,2.35696 -0.69693,2.84399 -0.28732,0.13122 -0.53486,0.16383 -0.84631,0.16036 -1.5754,-0.0184 -2.35949,-1.83691 -1.41628,-3.0467 0.31609,-0.4058 0.75616,-0.58352 1.24703,-0.66478 z" />
  </g>
  <g
     inkscape:groupmode="layer"
     id="layer3"
     inkscape:label="font"
     style="display:inline"
     transform="translate(-13.229167,-52.916672)"
     sodipodi:insensitive="true">
    <path
       id="RC3_copy-2"
       data-name="RC3 copy"
       class="cls-5"
       d="m 100.80026,191.82293 v -8.67352 l 7.56996,-0.0365 7.31285,8.70894 h 5.87947 v -1.94858 l -5.73356,-6.75916 h 0.25735 a 5.5220663,5.5220663 0 0 0 5.47526,-5.43866 v -6.835 a 5.5215913,5.5215913 0 0 0 -5.47526,-5.4387 H 95.103526 v 26.42118 h 5.695784 z m 0,-14.44154 v -6.2839 h 14.99284 v 6.2839 z m 49.57193,14.44154 v -5.73262 h -20.68933 v -14.99282 h 20.68862 v -5.73239 h -20.94526 a 5.4569558,5.4569558 0 0 0 -5.43841,5.43843 v 15.58099 a 5.4574308,5.4574308 0 0 0 5.43841,5.43841 z m 22.89312,0 a 5.3635668,5.3635668 0 0 0 5.3284,-5.32839 V 181.02 a 5.0444283,5.0444283 0 0 0 -0.33078,-1.81908 5.3566753,5.3566753 0 0 0 -0.88186,-1.52487 4.9287021,4.9287021 0 0 0 0.16635,-0.82671 7.2952681,7.2952681 0 0 0 0.0551,-0.86379 v -5.29228 a 5.3324368,5.3324368 0 0 0 -5.32841,-5.32817 h -14.29562 a 5.1934228,5.1934228 0 0 0 -3.78499,1.56172 5.1028853,5.1028853 0 0 0 -1.58,3.76645 v 2.35254 h 5.6221 v -2.05788 h 13.74362 v 4.70368 h -15.02964 v 5.62233 h 16.02178 v 4.88641 h -14.73573 v -1.7637 h -5.62139 v 2.05764 a 5.3942208,5.3942208 0 0 0 5.36499,5.32841 h 15.28512 z"
       style="fill:#ffffff;fill-rule:evenodd;stroke-width:0.237631" />
    <rect
       id="rahmen_weiss-6"
       data-name="rahmen weiss"
       class="cls-6"
       x="26.458334"
       y="66.145836"
       width="158.75002"
       height="158.75002"
       style="fill:none;stroke:#ffffff;stroke-width:2.102;stroke-miterlimit:4;stroke-dasharray:none" />
    <text
       xml:space="preserve"
       style="font-size:9.18692px;line-height:1.25;font-family:Lato;-inkscape-font-specification:Lato;letter-spacing:-0.363803px;word-spacing:0px;fill:#ffffff;stroke-width:0.229674"
       x="92.089653"
       y="211.66678"
       id="text911"><tspan
         sodipodi:role="line"
         id="tspan909"
         x="92.089653"
         y="211.66678"
         style="font-style:normal;font-variant:normal;font-weight:900;font-stretch:normal;font-family:Orbitron;-inkscape-font-specification:'Orbitron Heavy';fill:#ffffff;stroke-width:0.229674">CHAOSWEST TV</tspan></text>
  </g>
  <style
     id="style4273">.st0{display:none;fill:#010202;} .st1{fill:#006633;} .st2{fill:#010202;} .st3{fill:#006633;stroke:#006633;stroke-width:0.8859;stroke-miterlimit:10;} .st4{fill:#1CA638;} .st5{fill:#FFFFFF;} .st6{fill:#F8DB76;} .st7{fill:#FFFFFF;stroke:#F8DB76;stroke-width:0.3543;stroke-miterlimit:10;} .st8{fill:#FFFFFF;stroke:#F8DB76;stroke-width:0.2658;stroke-miterlimit:10;} .st9{fill:#006633;stroke:#006633;stroke-width:0.3543;stroke-miterlimit:10;} .st10{fill:none;stroke:#000000;stroke-width:0.7087;stroke-miterlimit:10;} .st11{fill:#F8DB76;stroke:#7C7C7C;stroke-width:0.3543;stroke-miterlimit:10;} .st12{fill:none;} .st13{fill:#383838;} .st14{fill:#828281;} .st15{fill:none;stroke:#383838;stroke-width:0.4429;stroke-miterlimit:10;} .st16{fill:#353535;} .st17{fill:#A6A9B5;} .st18{fill:#1CA638;stroke:#FFFFFF;stroke-width:0.4429;stroke-miterlimit:10;} .st19{fill:#F28C40;} .st20{fill:#916D14;} .st21{fill:none;stroke:#010202;stroke-width:1.7703;stroke-miterlimit:10;}</style>
</svg>
