<?xml version="1.0" encoding="UTF-8" standalone="no"?>
<svg
   xmlns:dc="http://purl.org/dc/elements/1.1/"
   xmlns:cc="http://creativecommons.org/ns#"
   xmlns:rdf="http://www.w3.org/1999/02/22-rdf-syntax-ns#"
   xmlns:svg="http://www.w3.org/2000/svg"
   xmlns="http://www.w3.org/2000/svg"
   xmlns:sodipodi="http://sodipodi.sourceforge.net/DTD/sodipodi-0.dtd"
   xmlns:inkscape="http://www.inkscape.org/namespaces/inkscape"
   sodipodi:docname="cwgvgsign-notices-chaoswest-coffee.svg"
   inkscape:version="1.0 (4035a4fb49, 2020-05-01)"
   id="svg8"
   version="1.1"
   viewBox="0 0 420 297"
   height="297mm"
   width="420mm">
  <defs
     id="defs2" />
  <sodipodi:namedview
     inkscape:document-rotation="0"
     inkscape:window-maximized="0"
     inkscape:window-y="24"
     inkscape:window-x="0"
     inkscape:window-height="1388"
     inkscape:window-width="2556"
     inkscape:guide-bbox="true"
     showguides="true"
     inkscape:pagecheckerboard="false"
     showgrid="false"
     inkscape:current-layer="layer2"
     inkscape:document-units="mm"
     inkscape:cy="736.56885"
     inkscape:cx="760.00546"
     inkscape:zoom="0.46862245"
     inkscape:pageshadow="2"
     inkscape:pageopacity="0.0"
     borderopacity="1.0"
     bordercolor="#666666"
     pagecolor="#ffffff"
     id="base">
    <sodipodi:guide
       inkscape:color="rgb(0,0,255)"
       inkscape:label=""
       inkscape:locked="false"
       id="guide14"
       orientation="1,0"
       position="30,0" />
    <sodipodi:guide
       inkscape:color="rgb(0,0,255)"
       inkscape:label=""
       inkscape:locked="false"
       id="guide20"
       orientation="0,1"
       position="0,30" />
    <sodipodi:guide
       inkscape:color="rgb(0,0,255)"
       inkscape:label=""
       inkscape:locked="false"
       id="guide22"
       orientation="0,1"
       position="0,267" />
  </sodipodi:namedview>
  <metadata
     id="metadata5">
    <rdf:RDF>
      <cc:Work
         rdf:about="">
        <dc:format>image/svg+xml</dc:format>
        <dc:type
           rdf:resource="http://purl.org/dc/dcmitype/StillImage" />
        <dc:title></dc:title>
        <dc:creator>
          <cc:Agent>
            <dc:title>c3sign</dc:title>
          </cc:Agent>
        </dc:creator>
        <dc:publisher>
          <cc:Agent>
            <dc:title>36c3</dc:title>
          </cc:Agent>
        </dc:publisher>
      </cc:Work>
    </rdf:RDF>
  </metadata>
  <g
     style="display:inline"
     id="layer1"
     inkscape:groupmode="layer"
     inkscape:label="Logo">
    <path
       d=""
       id="path32"
       inkscape:connector-curvature="0"
       style="font-family:none;mix-blend-mode:normal;fill:none;fill-rule:nonzero;stroke:#00bb31;stroke-width:1.2819;stroke-linecap:butt;stroke-linejoin:miter;stroke-miterlimit:10;stroke-dasharray:none;stroke-dashoffset:0" />
    <path
       d=""
       id="path38"
       inkscape:connector-curvature="0"
       style="font-family:none;mix-blend-mode:normal;fill:none;fill-rule:nonzero;stroke:#00bb31;stroke-width:1.2819;stroke-linecap:butt;stroke-linejoin:miter;stroke-miterlimit:10;stroke-dasharray:none;stroke-dashoffset:0" />
    <path
       d=""
       id="path44"
       inkscape:connector-curvature="0"
       style="font-family:none;mix-blend-mode:normal;fill:none;fill-rule:nonzero;stroke:#00bb31;stroke-width:1.2819;stroke-linecap:butt;stroke-linejoin:miter;stroke-miterlimit:10;stroke-dasharray:none;stroke-dashoffset:0" />
    <path
       d=""
       id="path106"
       inkscape:connector-curvature="0"
       style="font-family:none;mix-blend-mode:normal;fill:none;fill-rule:nonzero;stroke:#00bb31;stroke-width:1.2819;stroke-linecap:butt;stroke-linejoin:miter;stroke-miterlimit:10;stroke-dasharray:none;stroke-dashoffset:0" />
  </g>
  <g
     inkscape:label="Text"
     id="layer2"
     inkscape:groupmode="layer">
    <text
       id="text4682"
       y="87.364777"
       x="30.098215"
       style="font-style:normal;font-weight:normal;font-size:76.5819px;line-height:1.25;font-family:sans-serif;letter-spacing:0px;word-spacing:0px;fill:#000000;fill-opacity:1;stroke:none;stroke-width:1.91454"
       xml:space="preserve"><tspan
         style="font-style:normal;font-variant:normal;font-weight:normal;font-stretch:normal;font-family:'Blackout Midnight';-inkscape-font-specification:'Blackout Midnight';stroke-width:1.91454"
         y="87.364777"
         x="30.098215"
         id="tspan4680"
         sodipodi:role="line">REUSE CUP!</tspan><tspan
         style="stroke-width:1.91454"
         id="tspan4730"
         y="183.09215"
         x="30.098215"
         sodipodi:role="line" /></text>
    <text
       transform="rotate(-19.074575)"
       xml:space="preserve"
       style="font-style:normal;font-weight:normal;font-size:24.0175px;line-height:1.25;font-family:sans-serif;letter-spacing:0px;word-spacing:0px;fill:#00bb31;fill-opacity:1;stroke:none;stroke-width:0.600438"
       x="183.27696"
       y="219.6058"
       id="text885"><tspan
         sodipodi:role="line"
         id="tspan883"
         x="183.27696"
         y="219.6058"
         style="font-style:normal;font-variant:normal;font-weight:normal;font-stretch:normal;font-family:'Blackout 2AM';-inkscape-font-specification:'Blackout 2AM';fill:#00bb31;stroke-width:0.600438"> OR DO </tspan></text>
    <text
       id="text852"
       y="162.62691"
       x="277.44879"
       style="font-style:normal;font-weight:normal;font-size:24.0175px;line-height:1.25;font-family:sans-serif;letter-spacing:0px;word-spacing:0px;fill:#00bb31;fill-opacity:1;stroke:none;stroke-width:0.600438"
       xml:space="preserve"
       transform="rotate(-1.8657218)"><tspan
         style="font-style:normal;font-variant:normal;font-weight:normal;font-stretch:normal;font-family:'Blackout 2AM';-inkscape-font-specification:'Blackout 2AM';fill:#00bb31;stroke-width:0.600438"
         y="162.62691"
         x="277.44879"
         id="tspan850"
         sodipodi:role="line"> THE </tspan></text>
    <g
       id="g24"
       style="mix-blend-mode:normal"
       text-anchor="none"
       font-size="none"
       font-weight="none"
       font-family="none"
       stroke-dashoffset="0"
       stroke-dasharray="none"
       stroke-miterlimit="10"
       stroke-linejoin="miter"
       stroke-linecap="butt"
       stroke-width="1"
       stroke="none"
       fill-rule="nonzero"
       fill="#d0d0ce"
       transform="matrix(0.13070848,0,0,0.13070848,177.7625,146.9343)">
      <path
         id="path2-3"
         d="m 151.05867,503.37333 c 6.52553,-17.59184 15.80737,-33.1578 27.84549,-46.69787 12.03813,-13.54007 26.88327,-24.2183 44.53542,-32.03469 4.23607,-1.87574 8.62562,-3.50054 13.16864,-4.8744 l -2.56283,1.65023 0.17082,14.01192 2.75318,11.9786 6.14918,14.76987 -0.76661,11.06062 -5.9863,9.20754 3.83471,13.35079 -6.21834,11.09106 -13.32914,3.78851 -7.87699,6.51662 -10.56313,-0.88029 -8.10389,-0.87934 -7.98269,-1.26327 -13.68058,7.0337 -14.23425,-0.46254 -10.88323,-6.29729 c 1.12406,-3.70551 2.36757,-7.39544 3.73054,-11.06978 z" />
      <path
         id="path4-6"
         d="m 327.59591,686.61087 c 14.31854,-1.1932 25.53831,-6.63088 33.65928,-16.31303 8.12098,-9.68216 13.7645,-20.66911 16.93057,-32.96086 l 77.81949,28.99358 c -2.05184,6.3867 -5.08545,14.6109 -9.10083,24.6726 -4.01538,10.0617 -10.27991,20.30113 -18.7936,30.71829 -8.51369,10.41716 -19.93558,20.01743 -34.2657,28.80082 -14.33011,8.78339 -32.69646,14.90003 -55.09905,18.34992 l -0.49417,0.0761 c -25.03819,3.85576 -46.64942,3.13663 -64.8337,-2.15738 -18.18428,-5.29401 -33.65733,-13.78795 -46.41917,-25.48183 -12.76183,-11.69387 -22.97075,-25.97309 -30.62675,-42.83765 -7.656,-16.86456 -13.44945,-34.77479 -17.38036,-53.73068 l -11.71948,-76.10292 c -1.9469,-14.37528 -2.16884,-28.85787 -0.66581,-43.44778 l 11.88437,4.10636 14.06125,-2.26034 12.08825,-9.51344 8.0771,-0.28217 8.12287,-0.68217 10.53715,-1.1502 6.48976,-7.89913 12.3621,-6.26078 3.98922,-12.07333 -6.31027,-12.37453 4.12062,-10.18013 -1.35666,-11.00384 -8.85287,-13.32622 -4.98691,-11.23376 -2.83968,-13.72222 2.20111,-2.10867 c 13.29448,-7.01509 28.58019,-11.85292 45.85711,-14.51348 l 0.49417,-0.0761 c 20.09644,-3.09476 37.82379,-2.95795 53.18206,0.41042 15.35827,3.36837 28.91114,8.70107 40.65862,15.9981 11.74748,7.29703 21.69583,16.05155 29.84505,26.26353 8.14922,10.21199 14.89827,20.63959 20.24717,31.28282 l -65.4912,51.06273 c -2.88991,-5.6257 -6.54644,-11.30196 -10.9696,-17.02881 -4.42316,-5.72684 -9.48612,-10.68064 -15.18887,-14.86138 -5.70275,-4.18074 -11.9122,-7.27167 -18.62836,-9.27278 -6.71615,-2.00111 -13.50808,-2.30423 -20.3758,-0.90938 -16.59901,3.90522 -28.99673,12.64397 -37.19317,26.21627 -8.19644,13.5723 -10.89948,29.41832 -8.10913,47.53806 l 11.03458,71.65534 c 2.79035,18.11974 10.24326,32.57043 22.35872,43.35205 12.11546,10.78163 26.67563,15.53763 43.6805,14.26801 z" />
      <path
         id="path6"
         d="m 672.12656,399.76928 70.42655,3.21727 3.4552,18.58962 -2.64945,0.72296 -8.79341,2.40449 -10.38805,-2.55619 -7.73433,-3.67964 -8.30258,-8.36146 -10.43969,3.11235 -10.96776,0.53682 -11.03558,-8.32406 -4.82075,-1.23366 z" />
      <path
         id="path8-7"
         d="m 744.4618,564.42283 41.52013,-166.39134 103.98812,1.5722 -111.11157,370.36262 -75.49137,-1.14135 -31.6227,-157.49605 -41.36896,156.39249 -80.4908,-1.21694 -89.86546,-373.40119 98.98869,1.49661 36.9709,167.57805 40.40607,-161.92675 4.85616,1.08591 11.28456,7.98329 10.94626,-0.8714 10.33981,-3.42961 8.55397,8.1041 7.84306,3.44181 10.46124,2.23787 8.71591,-2.67182 2.62614,-0.80351 z" />
      <path
         id="path10-5"
         d="m 888.79906,514.06639 c 6.26831,-18.99232 15.07205,-36.09478 26.41123,-51.30738 8.74708,-11.73505 18.6756,-21.67025 29.78555,-29.80559 l 3.52737,2.41805 -1.36091,18.82859 12.43977,6.14864 -1.70496,15.98759 -1.40105,11.80456 -7.03961,10.23311 0.84963,14.76502 -10.68457,8.29048 -5.05036,6.34079 -2.0305,13.16516 -12.55126,3.07008 -9.45308,9.58734 -10.78536,1.96094 -11.59921,7.0278 -13.19535,-1.28131 -1.87425,0.38671 z" />
      <path
         id="path12"
         d="m 1150.1378,605.10609 -32.0389,125.99011 c -8.356,7.16152 -17.8619,13.77269 -28.5176,19.8335 -10.6558,6.06081 -22.0136,10.82525 -34.0737,14.29332 -12.06,3.46807 -24.8619,5.45771 -38.4057,5.96891 -13.5437,0.5112 -27.26122,-0.99945 -41.15244,-4.53194 l -0.48458,-0.12323 c -21.64445,-5.50412 -39.80084,-13.9046 -54.46914,-25.20144 -14.66831,-11.29684 -25.97315,-24.66187 -33.91454,-40.09509 -7.94139,-15.43322 -12.76299,-32.65266 -14.46481,-51.65832 -1.70182,-19.00565 -0.24695,-38.92828 4.36461,-59.76789 l 6.61796,-26.02452 1.84273,-0.51643 13.25257,0.35832 11.08106,-7.81931 10.62242,-2.70804 8.76173,-10.22301 12.30671,-3.93759 1.10778,-13.27468 4.59604,-6.67744 10.08063,-9.01516 -1.87686,-14.66986 6.30911,-10.69896 0.57472,-11.87351 0.58628,-16.06755 -12.83814,-5.26648 0.045,-18.87765 -3.68736,-2.16626 c 3.11623,-2.63446 6.34698,-5.11848 9.69224,-7.45206 14.63392,-10.2083 31.33604,-17.05314 50.10638,-20.53452 18.7703,-3.48138 39.1392,-2.42894 61.1067,3.15734 l 0.4846,0.12323 c 21.721,6.55543 38.6044,14.89013 50.65,25.00411 12.0455,10.11398 21.0782,20.57959 27.098,31.39683 6.0197,10.81724 10.0204,21.12104 12.0019,30.9114 1.9816,9.79036 3.9716,17.51918 5.9698,23.18646 l -78.0853,27.09127 c -0.7116,-3.96432 -1.5422,-8.47484 -2.492,-13.53154 -0.9497,-5.0567 -2.7892,-9.99573 -5.5185,-14.81709 -2.7292,-4.82136 -6.4907,-9.30329 -11.2843,-13.44579 -4.7936,-4.14251 -11.39,-7.28172 -19.7894,-9.41765 -16.1525,-4.10755 -30.3699,-1.96194 -42.652,6.43683 -12.28206,8.39877 -20.68226,21.48207 -25.20057,39.24991 l -17.86786,70.26372 c -2.21808,8.72239 -2.83866,17.24912 -1.86175,25.5802 0.97691,8.33107 3.29127,15.79845 6.94308,22.40215 3.65181,6.60369 8.459,12.38338 14.42157,17.33907 5.96257,4.95569 12.982,8.46042 21.05833,10.5142 11.2246,3.19834 20.8438,3.5808 28.8573,1.14737 8.0136,-2.43342 14.6187,-6.42882 19.8153,-11.98619 l 4.5593,-17.92936 -38.2816,-9.7349 17.7447,-69.77914 z" />
      <path
         id="path14-3"
         d="m 1124.8236,431.72015 94.4782,-29.57819 10.6809,14.7993 0.7732,4.36158 2.5064,14.08029 2.6762,13.43787 -6.636,14.8176 -0.3137,14.7569 -8.204,7.94646 0.9085,13.42367 -13.0694,5.98783 -7.8449,7.69593 -8.0302,5.94855 -5.2085,3.60336 z" />
      <path
         id="path16-5"
         d="m 1328.2234,563.23122 37.3326,-172.78681 98.4692,-10.23743 -80.3914,382.363 -74.5979,7.75563 -109.0029,-256.25221 5.82,-2.49787 9.0512,-4.23634 9.2164,-5.98573 13.9978,-3.27466 1.7739,-13.33692 9.618,-6.16002 3.2365,-14.40104 9.445,-13.20566 0.044,-13.70169 0.3381,-14.29765 0.1079,-4.42826 z" />
      <path
         id="path18-6"
         d="m 1696.7282,498.27833 c 3.0616,11.99485 4.3019,22.97825 3.7209,32.95022 -0.581,9.97197 -0.6282,17.95271 -0.1415,23.94222 l -82.4125,6.2792 c 0.2174,-2.70144 0.4457,-5.65574 0.685,-8.86292 l 3.1291,-5.74592 11.5697,-9.04272 7.2345,-4.57441 5.2862,-14.93251 9.9812,-6.1458 6.092,-9.21753 5.004,-6.24189 8.8973,-9.52546 7.115,-12.20603 1.7481,-4.61253 c 5.7463,9.55686 9.7766,18.8689 12.091,27.9361 z" />
      <path
         id="path20-2"
         d="m 1731.1639,551.10529 7.5248,78.34176 -6.8898,-0.12374 -10.2591,-2.65065 -7.2804,-5.74016 -14.7615,-4.92196 -11.376,-1.11498 -5.1307,-8.01324 -8.8787,-11.82348 -14.1925,-9.17292 -5.3805,-8.29023 -1.6391,-9.73795 2.0494,-9.43205 z" />
      <path
         id="path22"
         d="m 1730.9879,676.05328 c -4.4651,10.05855 -10.2049,20.11459 -17.2195,30.16813 -7.0145,10.05354 -15.2204,19.23856 -24.6177,27.55505 -9.3972,8.3165 -20.0999,15.61716 -32.108,21.90199 -12.0082,6.28483 -25.0425,10.81894 -39.103,13.60233 l -0.4905,0.0971 c -21.9081,4.33691 -41.9125,4.55911 -60.0129,0.66661 -18.1005,-3.89251 -34.0535,-11.09843 -47.859,-21.61778 -13.8056,-10.51935 -25.5624,-23.99276 -35.2706,-40.42024 -9.7082,-16.42748 -16.9607,-35.04011 -21.7574,-55.83788 l -14.9526,-75.53422 c -3.8838,-19.61928 -4.6305,-38.84016 -2.2401,-57.66265 2.3903,-18.82249 7.997,-35.98802 16.82,-51.49658 8.823,-15.50856 20.9595,-28.86968 36.4093,-40.08335 15.4499,-11.21367 34.2924,-19.02133 56.5276,-23.42297 l 0.4905,-0.0971 c 22.4293,-3.42068 41.256,-3.1549 56.48,0.79733 3.7158,0.96464 7.2785,2.02537 10.6882,3.18218 l 1.6454,4.65015 2.4543,13.91354 -0.6379,13.01883 0.2127,7.99722 1.3045,10.97151 -3.6485,11.13925 5.6115,14.8133 -2.5671,8.16536 -2.9896,14.37671 1.3234,6.40748 c -0.9184,-1.26527 -1.8735,-2.57782 -2.8652,-3.93766 -3.0316,-4.15709 -6.816,-7.82536 -11.3531,-11.00482 -4.5371,-3.17946 -9.8602,-5.60869 -15.9692,-7.28767 -6.109,-1.67899 -13.4143,-1.67699 -21.916,0.006 -16.3494,3.2365 -28.263,11.28657 -35.7406,24.1502 -7.4777,12.86363 -9.4365,28.28762 -5.8764,46.27196 l 14.0788,71.11989 c 1.7477,8.82868 4.8536,16.79384 9.3177,23.89548 4.464,7.10165 9.7642,12.84846 15.9006,17.24045 6.1363,4.39199 12.9615,7.54325 20.4756,9.4538 7.514,1.91055 15.3584,2.0567 23.5331,0.43845 11.5093,-1.93856 20.3583,-5.72911 26.5471,-11.37165 6.1887,-5.64254 10.4342,-12.0897 12.7365,-19.34149 l -3.5925,-18.14783 -38.7481,7.6705 -13.9817,-70.6294 42.6083,-8.43467 -1.1006,9.58917 2.6,9.52651 6.1787,7.71366 15.0348,7.7151 10.0112,10.88128 5.9027,7.46291 11.4304,-0.0226 15.1781,3.42861 7.8155,4.9872 10.4719,1.61661 6.8679,-0.56248 z" />
    </g>
    <path
       style="font-family:none;mix-blend-mode:normal;fill-rule:nonzero;stroke:none;stroke-width:0.183966;stroke-linecap:butt;stroke-linejoin:miter;stroke-miterlimit:10;stroke-dasharray:none;stroke-dashoffset:0"
       id="path18"
       fill="#fe5000"
       d="m 277.47598,257.36751 v -19.24288 h 122.30083 v 19.24288 z m 16.07866,-10.17334 h -4.4152 v 2.64911 h 1.45335 v 0.68068 c -0.13491,0.24529 -0.33422,0.44765 -0.5979,0.60709 -0.26368,0.15944 -0.61016,0.23302 -1.0394,0.22075 -0.30662,0 -0.5887,-0.0613 -0.84626,-0.18395 -0.25754,-0.12265 -0.48138,-0.28516 -0.67148,-0.48752 -0.19008,-0.20236 -0.34033,-0.44765 -0.45071,-0.73586 -0.11037,-0.28822 -0.16557,-0.5979 -0.16557,-0.92903 v -2.66752 c 0,-0.67454 0.1809,-1.21725 0.5427,-1.6281 0.36181,-0.41086 0.84932,-0.61629 1.46254,-0.61629 0.31887,0 0.58256,0.0521 0.79105,0.15638 0.20849,0.10424 0.38326,0.22996 0.52431,0.37712 0.14104,0.14717 0.25143,0.30661 0.33113,0.47832 0.0797,0.1717 0.15025,0.32501 0.21156,0.45992 l 2.53874,-1.6741 c -0.12265,-0.18397 -0.26368,-0.44152 -0.42312,-0.77266 -0.15945,-0.33114 -0.39553,-0.66228 -0.70828,-0.99342 -0.31273,-0.33114 -0.72973,-0.62241 -1.25096,-0.87384 -0.52124,-0.25142 -1.19885,-0.39552 -2.03283,-0.43232 h -0.0184 c -0.83398,0 -1.56985,0.14717 -2.2076,0.44152 -0.63775,0.29435 -1.17125,0.68988 -1.60051,1.18659 -0.42925,0.4967 -0.75426,1.0762 -0.97502,1.73848 -0.22076,0.66228 -0.33114,1.36135 -0.33114,2.09721 v 2.83309 c 0.0245,0.78492 0.15331,1.50853 0.38633,2.1708 0.23303,0.66228 0.5611,1.23257 0.98423,1.71088 0.42312,0.47832 0.94742,0.85238 1.57291,1.1222 0.62548,0.26981 1.34908,0.40472 2.1708,0.40472 h 0.0184 c 0.52738,0 1.03021,-0.0706 1.50853,-0.21156 0.4783,-0.14104 0.91675,-0.32807 1.31536,-0.56109 0.3986,-0.23302 0.76038,-0.50591 1.0854,-0.81865 0.32501,-0.31275 0.60401,-0.63468 0.83704,-0.96583 z m 11.25874,7.32185 -2.77789,-5.46379 c 0.15945,0 0.3802,-0.0828 0.66228,-0.24835 0.28208,-0.16557 0.5611,-0.41086 0.83705,-0.73587 0.27595,-0.32501 0.5151,-0.72667 0.71747,-1.20498 0.20235,-0.47831 0.30354,-1.02408 0.30354,-1.6373 0,-0.5887 -0.0674,-1.14979 -0.20237,-1.68329 -0.1349,-0.5335 -0.35873,-0.99955 -0.67147,-1.39815 -0.31275,-0.39859 -0.72974,-0.71747 -1.25097,-0.95662 -0.52123,-0.23916 -1.17431,-0.35874 -1.95924,-0.35874 h -4.17604 v 13.68709 h 3.09064 v -4.45197 h 0.0368 l 1.83967,4.45197 z m 12.0866,-13.70548 h -3.18263 v 8.00253 c 0,0.33115 -0.0337,0.64388 -0.10118,0.93823 -0.0674,0.29435 -0.17169,0.5519 -0.31274,0.77266 -0.14104,0.22076 -0.32195,0.39553 -0.5427,0.5243 -0.22076,0.12878 -0.48445,0.19317 -0.79106,0.19317 -0.30662,0 -0.5703,-0.0644 -0.79105,-0.19317 -0.22077,-0.12877 -0.40472,-0.30354 -0.5519,-0.5243 -0.14717,-0.22076 -0.25448,-0.47831 -0.32195,-0.77266 -0.0674,-0.29435 -0.10117,-0.60708 -0.10117,-0.93823 v -8.00253 h -3.18262 v 8.24169 c 0,0.7236 0.0889,1.41654 0.26675,2.07882 0.17784,0.66228 0.46298,1.2479 0.85545,1.75688 0.39244,0.50898 0.90143,0.91064 1.52692,1.20497 0.62548,0.29436 1.38587,0.43539 2.28117,0.42312 h 0.0184 c 0.80945,0.0123 1.52079,-0.11344 2.134,-0.37712 0.61323,-0.26368 1.12528,-0.63776 1.53613,-1.12219 0.41085,-0.48446 0.7236,-1.06394 0.93823,-1.73848 0.21463,-0.67455 0.32194,-1.41655 0.32194,-2.226 z m 10.48608,3.10903 v -3.09064 h -8.38887 v 13.68709 h 8.38887 v -3.09063 h -5.29823 v -2.20759 h 3.90007 v -3.09064 h -3.90007 v -2.20759 z m 8.83038,-3.09064 v 6.71478 l -3.66093,-6.71478 h -3.14583 v 13.68709 h 3.2746 v -6.73316 l 3.67933,6.73316 h 3.12743 v -13.68709 z m 14.68051,6.84355 c 0,-0.96889 -0.1349,-1.87339 -0.40472,-2.7135 -0.26983,-0.84012 -0.67455,-1.56372 -1.21418,-2.17081 -0.53963,-0.60708 -1.21418,-1.0854 -2.02364,-1.43493 -0.80944,-0.34954 -1.74767,-0.52431 -2.81467,-0.52431 h -2.7595 v 13.68709 h 3.16422 c 1.11606,0 2.06043,-0.18395 2.83308,-0.5519 0.77266,-0.36792 1.39815,-0.86463 1.87646,-1.49012 0.47831,-0.62548 0.82172,-1.35215 1.03021,-2.17999 0.20849,-0.82785 0.31274,-1.70169 0.31274,-2.62153 z m 12.43612,-6.86194 h -3.18261 v 8.00253 c 0,0.33115 -0.0338,0.64388 -0.10119,0.93823 -0.0674,0.29435 -0.17169,0.5519 -0.31273,0.77266 -0.14105,0.22076 -0.32195,0.39553 -0.54271,0.5243 -0.22075,0.12878 -0.48444,0.19317 -0.79105,0.19317 -0.30662,0 -0.5703,-0.0644 -0.79106,-0.19317 -0.22076,-0.12877 -0.40472,-0.30354 -0.5519,-0.5243 -0.14716,-0.22076 -0.25448,-0.47831 -0.32193,-0.77266 -0.0674,-0.29435 -0.10119,-0.60708 -0.10119,-0.93823 v -8.00253 h -3.18262 v 8.24169 c 0,0.7236 0.0889,1.41654 0.26675,2.07882 0.17785,0.66228 0.463,1.2479 0.85545,1.75688 0.39245,0.50898 0.90143,0.91064 1.52692,1.20497 0.62548,0.29436 1.38587,0.43539 2.28118,0.42312 h 0.0184 c 0.80946,0.0123 1.5208,-0.11344 2.13402,-0.37712 0.6132,-0.26368 1.12526,-0.63776 1.53611,-1.12219 0.41085,-0.48446 0.7236,-1.06394 0.93823,-1.73848 0.21463,-0.67455 0.32194,-1.41655 0.32194,-2.226 z m 8.81199,0.0184 v 6.71477 l -3.66093,-6.71477 h -3.14582 v 13.68709 h 3.2746 v -6.73317 l 3.67933,6.73317 h 3.12743 v -13.68709 z m 14.84609,6.36524 h -4.4152 v 2.64911 h 1.45334 v 0.68068 c -0.1349,0.24528 -0.33421,0.44765 -0.59789,0.60708 -0.26368,0.15944 -0.61016,0.23303 -1.0394,0.22077 -0.30662,0 -0.5887,-0.0613 -0.84626,-0.18397 -0.25754,-0.12265 -0.48138,-0.28515 -0.67147,-0.48752 -0.19009,-0.20235 -0.34034,-0.44765 -0.45072,-0.73586 -0.11037,-0.28821 -0.16557,-0.59789 -0.16557,-0.92903 v -2.66752 c 0,-0.67454 0.1809,-1.21724 0.5427,-1.62809 0.36181,-0.41086 0.84932,-0.61629 1.46254,-0.61629 0.31887,0 0.58256,0.0521 0.79105,0.15637 0.20849,0.10424 0.38326,0.22996 0.52431,0.37713 0.14104,0.14717 0.25142,0.30662 0.33113,0.47832 0.0797,0.1717 0.15025,0.32501 0.21156,0.45991 l 2.53874,-1.6741 c -0.12265,-0.18396 -0.26368,-0.44152 -0.42312,-0.77266 -0.15945,-0.33114 -0.39553,-0.66227 -0.70828,-0.99342 -0.31273,-0.33113 -0.72973,-0.62241 -1.25096,-0.87383 -0.52124,-0.25142 -1.19885,-0.39553 -2.03283,-0.43232 h -0.0184 c -0.83397,0 -1.56985,0.14717 -2.2076,0.44151 -0.63775,0.29435 -1.17126,0.68988 -1.60051,1.18659 -0.42925,0.49671 -0.75426,1.07621 -0.97502,1.73848 -0.22076,0.66228 -0.33113,1.36136 -0.33113,2.09722 v 2.83308 c 0.0245,0.78492 0.15329,1.50853 0.38632,2.17081 0.23303,0.66227 0.5611,1.23256 0.98422,1.71088 0.42312,0.47831 0.94743,0.85237 1.57291,1.12219 0.62549,0.26982 1.34909,0.40473 2.17081,0.40473 h 0.0184 c 0.52737,0 1.03021,-0.0705 1.50852,-0.21156 0.47831,-0.14104 0.91676,-0.32808 1.31537,-0.5611 0.3986,-0.23302 0.76038,-0.50591 1.0854,-0.81864 0.32501,-0.31275 0.60401,-0.63469 0.83704,-0.96584 z m 11.70026,3.88169 c 0,-0.69908 -0.12265,-1.3031 -0.36794,-1.81208 -0.24527,-0.50897 -0.57028,-0.96582 -0.97501,-1.37055 -0.40473,-0.40472 -0.86772,-0.76652 -1.38895,-1.0854 -0.52123,-0.31887 -1.06394,-0.63774 -1.6281,-0.95662 -0.40473,-0.29434 -0.70215,-0.53044 -0.89223,-0.70827 -0.1901,-0.17783 -0.28516,-0.38326 -0.28516,-0.61628 0,-0.30661 0.10118,-0.53657 0.30355,-0.68988 0.20236,-0.1533 0.4262,-0.22996 0.67147,-0.22996 0.23303,0 0.43845,0.0491 0.61629,0.14717 0.17784,0.0981 0.33115,0.2177 0.45992,0.35874 0.12878,0.14104 0.22996,0.29434 0.30354,0.45991 0.0736,0.16558 0.12878,0.31582 0.16557,0.45072 l 2.70431,-1.067 c -0.0613,-0.36794 -0.19009,-0.73893 -0.38633,-1.113 -0.19624,-0.37406 -0.46911,-0.70828 -0.81865,-1.00262 -0.34954,-0.29434 -0.77878,-0.53656 -1.28776,-0.72666 -0.50898,-0.1901 -1.10074,-0.28515 -1.77528,-0.28515 -0.56417,0.0123 -1.10992,0.0981 -1.63731,0.25755 -0.52737,0.15944 -0.99342,0.39246 -1.39814,0.69908 -0.40472,0.3066 -0.72973,0.6868 -0.97502,1.14058 -0.24528,0.45379 -0.36793,0.98115 -0.36793,1.58212 0,0.65001 0.11345,1.18964 0.34033,1.6189 0.22689,0.42925 0.53963,0.81558 0.93824,1.15898 0.39859,0.34341 0.86464,0.67149 1.39814,0.98423 0.5335,0.31274 1.11299,0.67761 1.73848,1.09459 0.28208,0.19624 0.49979,0.38327 0.65308,0.56111 0.1533,0.17782 0.23609,0.37099 0.24835,0.57949 0.0123,0.3434 -0.0828,0.59482 -0.28514,0.75426 -0.20236,0.15943 -0.4078,0.25143 -0.61629,0.27594 -0.24528,0.0368 -0.47524,-0.0153 -0.68987,-0.15636 -0.21463,-0.14104 -0.39553,-0.30048 -0.54271,-0.47831 -0.14716,-0.17783 -0.26062,-0.34647 -0.34033,-0.50591 -0.0797,-0.15944 -0.10731,-0.24529 -0.0828,-0.25755 l -2.94347,1.23257 c 0.12266,0.49057 0.32195,0.92902 0.59791,1.31536 0.27594,0.38633 0.61015,0.7144 1.0026,0.98422 0.39246,0.26982 0.83093,0.47831 1.31537,0.62548 0.48443,0.14718 1.00261,0.22076 1.55451,0.22076 0.71134,0 1.34908,-0.0828 1.91325,-0.24835 0.56417,-0.16557 1.04554,-0.39246 1.44414,-0.68067 0.3986,-0.28822 0.71134,-0.62549 0.93823,-1.01182 0.22688,-0.38633 0.3526,-0.80025 0.37713,-1.24177 z" />
    <path
       style="font-family:none;mix-blend-mode:normal;fill-rule:nonzero;stroke:none;stroke-width:0.183966;stroke-linecap:butt;stroke-linejoin:miter;stroke-miterlimit:10;stroke-dasharray:none;stroke-dashoffset:0"
       id="path20"
       fill="#fe5000"
       d="m 314.82406,278.73076 -1.34231,-19.19601 85.51948,-5.9801 1.34231,19.196 z m 14.33526,-17.58138 -9.28601,0.64934 0.21559,3.08311 3.10145,-0.21688 0.73918,10.57065 3.08309,-0.2156 -0.73916,-10.57063 3.10146,-0.21689 z m 11.52542,12.91459 -3.15226,-5.25672 c 0.15904,-0.0111 0.37348,-0.10911 0.64333,-0.29395 0.26986,-0.18485 0.53107,-0.449 0.78368,-0.79246 0.2526,-0.34347 0.46317,-0.76084 0.63167,-1.25209 0.1685,-0.49126 0.23137,-1.04276 0.1886,-1.65449 -0.0411,-0.58727 -0.14751,-1.14229 -0.31929,-1.66508 -0.17181,-0.52279 -0.4276,-0.97209 -0.76739,-1.3479 -0.33978,-0.3758 -0.77799,-0.66482 -1.31464,-0.86703 -0.53666,-0.20221 -1.19648,-0.27594 -1.97949,-0.22119 l -4.16587,0.2913 0.95477,13.65376 3.0831,-0.21559 -0.31056,-4.44115 0.0367,-0.003 2.14574,4.31281 z m 9.81312,-11.30855 -0.21559,-3.0831 -8.36843,0.58518 0.95477,13.65375 8.36842,-0.58517 -0.21559,-3.08311 -5.28533,0.36958 -0.15398,-2.20222 3.89057,-0.27205 -0.21558,-3.08311 -3.89058,0.27206 -0.154,-2.20222 z m 10.22196,-0.71478 -0.21559,-3.08311 -8.36843,0.58518 0.95477,13.65375 3.08311,-0.21559 -0.36959,-5.28532 3.89057,-0.27206 -0.21558,-3.08311 -3.89058,0.27206 -0.154,-2.20222 z m 9.94669,-0.69555 -0.21559,-3.0831 -8.36843,0.58518 0.95477,13.65375 3.08309,-0.21559 -0.36957,-5.28533 3.89057,-0.27205 -0.21558,-3.08311 -3.89058,0.27206 -0.15399,-2.20222 z m 10.20362,-0.7135 -0.21559,-3.08311 -8.36843,0.58518 0.95475,13.65376 8.36845,-0.58518 -0.21561,-3.0831 -5.28532,0.36958 -0.15399,-2.20222 3.89058,-0.27206 -0.21558,-3.0831 -3.8906,0.27206 -0.15399,-2.20223 z m 8.59327,-3.69908 0.46841,6.69841 -4.12042,-6.44304 -3.13815,0.21944 0.95477,13.65376 3.26661,-0.22842 -0.46968,-6.71677 4.14006,6.46011 3.1198,-0.21816 -0.95477,-13.65376 z" />
    <path
       style="fill:#000000;stroke:#b3b3b3"
       id="Auswahl"
       fill="none"
       stroke="black"
       stroke-width="0.037415"
       d="m 59.251559,252.33869 c 0.219619,0.0842 0.472553,0.27761 0.673474,0.41156 0,0 1.085023,0.72324 1.085023,0.72324 0,0 3.517007,2.34479 3.517007,2.34479 0,0 11.112258,7.40817 11.112258,7.40817 0,0 4.11564,2.74364 4.11564,2.74364 0.584437,0.38986 1.343577,1.02666 2.057836,1.02666 0.13951,0.0102 0.354317,0.0146 0.486391,0 0.570959,-0.1115 1.368274,-0.72884 1.87075,-1.06407 0,0 3.891163,-2.59398 3.891163,-2.59398 0,0 11.374149,-7.58292 11.374149,-7.58292 0,0 3.51701,-2.3444 3.51701,-2.3444 0,0 1.04763,-0.69854 1.04763,-0.69854 0.19866,-0.13238 0.40856,-0.30195 0.63604,-0.37415 0,0.41268 -0.0217,0.6888 0.14485,1.08504 0.40334,0.95781 1.43973,1.47563 2.43685,1.15873 0.46993,-0.14923 1.14453,-0.6832 1.57143,-0.98214 0,0 2.80612,-1.96205 2.80612,-1.96205 0,0 8.9796,-6.28571 8.9796,-6.28571 0,0 4.41496,-3.09123 4.41496,-3.09123 0,0 2.50681,-1.75625 2.50681,-1.75625 0.27089,-0.1897 0.96044,-0.64804 1.1565,-0.85157 0.38238,-0.39699 0.56384,-0.9526 0.56459,-1.49511 0,0 0,-2.95577 0,-2.95577 0.007,-0.29259 0.1395,-0.36368 0.33673,-0.56124 0,0 0.82313,-0.82312 0.82313,-0.82312 0,0 1.68368,-1.68367 1.68368,-1.68367 0.72285,-0.72287 1.27024,-1.13892 1.27211,-2.24491 0,0 0,-25.59185 0,-25.59185 0,0 0,-25.59185 0,-25.59185 -0.001,-1.05359 -0.54515,-1.48051 -1.23469,-2.17007 0,0 -1.7211,-1.72108 -1.7211,-1.72108 0,0 -0.7483,-0.74831 -0.7483,-0.74831 -0.27612,-0.27611 -0.41082,-0.31204 -0.41156,-0.71088 0,0 0,-2.95579 0,-2.95579 -0.007,-0.53953 -0.21739,-1.07493 -0.60015,-1.45768 -0.20915,-0.20916 -0.67271,-0.50623 -0.93387,-0.69068 0,0 -3.32993,-2.33094 -3.32993,-2.33094 0,0 -11.7483,-8.22009 -11.7483,-8.22009 0,0 -3.66668,-2.56666 -3.66668,-2.56666 -0.51931,-0.35993 -1.24667,-0.96418 -1.83333,-1.12095 -0.91479,-0.24508 -1.47003,0.1938 -2.17006,0.6944 0,0 -0.97281,0.69443 -0.97281,0.69443 -0.12606,0.0902 -0.68617,0.50885 -0.78571,0.53541 -0.14404,0.0386 -0.30118,-0.11002 -0.41156,-0.18818 0,0 -0.93536,-0.65253 -0.93536,-0.65253 0,0 -3.891166,-2.72532 -3.891166,-2.72532 0,0 -11.149677,-7.80326 -11.149677,-7.80326 0,0 -2.918361,-2.04285 -2.918361,-2.04285 -0.612478,-0.42429 -1.091015,-0.87215 -1.870747,-0.92789 -0.755042,-0.0539 -1.441981,0.53428 -2.020407,0.9391 0,0 -3.741505,2.61905 -3.741505,2.61905 0,0 -10.663265,7.46205 -10.663265,7.46205 0,0 -3.32994,2.33096 -3.32994,2.33096 0,0 -0.935369,0.65701 -0.935369,0.65701 0,0 -0.48639,0.32588 -0.48639,0.32588 -0.144858,0.0535 -0.262656,-0.0595 -0.374151,-0.13886 0,0 -0.860542,-0.61511 -0.860542,-0.61511 0,0 -0.785714,-0.56122 -0.785714,-0.56122 -0.746437,-0.53503 -1.309161,-0.87476 -2.244902,-0.54027 -0.407076,0.14518 -1.382855,0.88412 -1.795926,1.17033 0,0 -3.704075,2.59285 -3.704075,2.59285 0,0 -7.857161,5.50002 -7.857161,5.50002 0,0 -3.629248,2.53898 -3.629248,2.53898 0,0 -3.479595,2.43721 -3.479595,2.43721 0,0 -0.782344,0.56721 -0.782344,0.56721 -0.374151,0.33862 -0.633436,0.86054 -0.639415,1.3679 0,0 0,3.06803 0,3.06803 -7.62e-4,0.39884 -0.13546,0.43475 -0.411564,0.71087 0,0 -0.710887,0.71089 -0.710887,0.71089 0,0 -1.83334,1.83334 -1.83334,1.83334 -0.6166,0.61659 -1.158374,1.08241 -1.159864,2.0204 0,0 0,25.70409 0,25.70409 0,0 0,25.74152 0,25.74152 0.0015,0.94324 0.507714,1.33085 1.122451,1.94557 0,0 1.23432,1.23469 1.23432,1.23469 0,0 0.268634,0.29298 0.268634,0.29298 0,0 0.405212,0.38051 0.405212,0.38051 0,0 0.636045,0.63605 0.636045,0.63605 0.306809,0.30679 0.448231,0.34421 0.448993,0.78571 0,0 0,2.99319 0,2.99319 0.0016,1.12546 0.791694,1.56808 1.608842,2.13342 0,0 2.132647,1.49511 2.132647,1.49511 0,0 11.935386,8.35476 11.935386,8.35476 0,0 3.965985,2.77394 3.965985,2.77394 0,0 1.384363,0.9698 1.384363,0.9698 0.330368,0.2271 0.510711,0.39136 0.897954,0.53204 0.874007,0.31765 1.899189,-0.0853 2.361631,-0.88149 0.24096,-0.4142 0.294836,-0.87627 0.294836,-1.34696 z m 4.976197,-93.94903 c 0,0 1.459172,-1.00946 1.459172,-1.00946 0,0 2.955791,-2.06905 2.955791,-2.06905 0,0 8.455791,-5.9168 8.455791,-5.9168 0,0 3.442182,-2.41102 3.442182,-2.41102 0,0 0.972781,-0.67947 0.972781,-0.67947 0.1003,-0.0695 0.293702,-0.2301 0.411564,-0.23533 0.115206,-0.005 0.245447,0.1081 0.336736,0.17174 0,0 0.673473,0.47066 0.673473,0.47066 0,0 2.656449,1.86029 2.656449,1.86029 0,0 10.064633,7.04448 10.064633,7.04448 0,0 3.068032,2.14839 3.068032,2.14839 0,0 0.710144,0.49761 0.710144,0.49761 0.0804,0.0603 0.209896,0.14292 0.148585,0.26078 -0.04195,0.0805 -0.35657,0.28921 -0.447112,0.35358 0,0 -1.047626,0.74829 -1.047626,0.74829 0,0 -3.142856,2.2449 -3.142856,2.2449 0,0 -0.897956,0.64128 -0.897956,0.64128 -0.110704,0.0793 -0.369291,0.28026 -0.486395,0.31205 -0.144039,0.0386 -0.598275,-0.11715 -0.785714,-0.15037 -0.425412,-0.0752 -0.850813,-0.058 -1.272098,0.036 -0.575445,0.12866 -1.121704,0.38538 -1.571428,0.77002 -0.20206,0.17322 -0.303073,0.28621 -0.475924,0.48638 -0.06626,0.0767 -0.152634,0.2013 -0.245822,0.24058 -0.06287,0.0262 -0.181095,0.0214 -0.251056,0.0214 0,0 -14.03062,0 -14.03062,0 -0.488642,-10e-4 -0.310163,-0.13238 -0.860541,-0.62969 -0.42916,-0.38798 -0.870279,-0.64353 -1.421774,-0.81638 -0.507343,-0.15895 -0.973155,-0.18895 -1.496603,-0.11489 -0.208018,0.0295 -0.697779,0.20054 -0.860542,0.15005 -0.114556,-0.0355 -0.376012,-0.23647 -0.486389,-0.31541 0,0 -0.935385,-0.66825 -0.935385,-0.66825 0,0 -3.180271,-2.27146 -3.180271,-2.27146 0,0 -1.010195,-0.72173 -1.010195,-0.72173 -0.18671,-0.13286 -0.380146,-0.22038 -0.448978,-0.44897 z m -8.979596,1.42176 c 0,0 0,88.97285 0,88.97285 -0.292972,-0.0408 -0.89311,-0.52606 -1.159865,-0.71612 0,0 -2.431986,-1.70314 -2.431986,-1.70314 0,0 -9.278903,-6.496 -9.278903,-6.496 0,0 -2.806137,-1.96204 -2.806137,-1.96204 0,0 -0.561218,-0.3951 -0.561218,-0.3951 -0.09608,-0.0674 -0.24245,-0.1515 -0.298577,-0.2548 -0.0457,-0.0838 -0.03824,-0.20241 -0.03824,-0.29595 0,0 0,-31.61565 0,-31.61565 0,0 0,-33.7109 0,-33.7109 0,-0.0846 -0.0097,-0.20691 0.0371,-0.27986 0.04229,-0.0669 0.193064,-0.16239 0.262284,-0.21178 0,0 0.598647,-0.41905 0.598647,-0.41905 0,0 2.880948,-2.01816 2.880948,-2.01816 0,0 8.829942,-6.17872 8.829942,-6.17872 0,0 2.619037,-1.83332 2.619037,-1.83332 0,0 0.785715,-0.55075 0.785715,-0.55075 0.175854,-0.12526 0.350963,-0.27463 0.561233,-0.33151 z m 53.39119,88.97285 c 0,0 0,-88.93543 0,-88.93543 0.23833,0.0486 0.36703,0.17399 0.56121,0.30981 0,0 0.71088,0.49761 0.71088,0.49761 0,0 2.61906,1.83333 2.61906,1.83333 0,0 8.9796,6.28572 8.9796,6.28572 0,0 2.80612,1.96205 2.80612,1.96205 0,0 0.59862,0.42128 0.59862,0.42128 0.0827,0.058 0.21142,0.1332 0.26117,0.22075 0.046,0.0809 0.0382,0.20131 0.0382,0.2926 0,0 0,32.66328 0,32.66328 0,0 0,32.62585 0,32.62585 0,0.0902 0.008,0.20878 -0.0382,0.28809 -0.0528,0.0898 -0.21102,0.18821 -0.29857,0.24845 0,0 -0.56122,0.3936 -0.56122,0.3936 0,0 -2.84354,1.98898 -2.84354,1.98898 0,0 -9.01702,6.3119 -9.01702,6.3119 0,0 -2.61904,1.83334 -2.61904,1.83334 -0.27838,0.19495 -0.90133,0.69854 -1.19727,0.75879 z M 59.251559,170.99851 c 0,0 0,-11.11226 0,-11.11226 0.250681,0.0614 0.499856,0.28211 0.710887,0.43327 0,0 1.309519,0.93538 1.309519,0.93538 0,0 4.489807,3.20683 4.489807,3.20683 0,0 1.496585,1.06896 1.496585,1.06896 0.108884,0.0778 0.552257,0.37003 0.592279,0.46395 0.06579,0.15409 -0.297817,0.30867 -0.405196,0.37001 0,0 -1.534015,0.87665 -1.534015,0.87665 0,0 -4.564633,2.60783 -4.564633,2.60783 0,0 -1.346931,0.76962 -1.346931,0.76962 -0.21813,0.1246 -0.511474,0.32326 -0.748302,0.37976 z m 45.384371,-11.11226 c 0,0 0,11.11226 0,11.11226 -0.25031,-0.0475 -0.55822,-0.25929 -0.78571,-0.38987 0,0 -1.34694,-0.76999 -1.34694,-0.76999 0,0 -4.489799,-2.56593 -4.489799,-2.56593 0,0 -1.496592,-0.85456 -1.496592,-0.85456 -0.193455,-0.11116 -0.487526,-0.20839 -0.561231,-0.43326 0,0 0.897956,-0.63081 0.897956,-0.63081 0,0 1.346944,-0.96232 1.346944,-0.96232 0,0 3.891162,-2.77919 3.891162,-2.77919 0,0 1.72108,-1.22909 1.72108,-1.22909 0.22673,-0.16121 0.55412,-0.45606 0.82313,-0.49724 z m -33.261918,4.72514 c 0.399963,-0.0378 0.766254,-0.008 1.122452,0.19606 0.821264,0.47105 1.039004,1.6515 0.494249,2.41214 -0.325135,0.45423 -0.876258,0.69368 -1.429633,0.67198 -1.59985,-0.0629 -2.115439,-2.1278 -0.897955,-2.99957 0.227106,-0.16275 0.439256,-0.2357 0.710887,-0.28061 z m 20.578241,0 c 0.396227,-0.0378 0.72585,-0.0113 1.085044,0.17549 0.858287,0.44711 1.083528,1.66197 0.53166,2.43271 -0.326638,0.45609 -0.873259,0.69368 -1.429627,0.67198 -1.563953,-0.0614 -2.139025,-2.11097 -0.897956,-2.99957 0.209896,-0.15036 0.458692,-0.23832 0.710879,-0.28061 z m -32.700694,26.25448 c 0,0 7.034017,0 7.034017,0 0.402214,7.4e-4 0.321764,0.0718 0.602001,0.37414 0.182595,0.19719 0.376775,0.38799 0.595277,0.54513 0.749791,0.53954 1.624187,0.79995 2.544227,0.67871 0.457581,-0.0603 0.866893,-0.21476 1.272105,-0.42989 0.385363,-0.20466 0.734447,-0.49762 1.013192,-0.83136 0.54738,-0.65552 0.914045,-1.52916 0.894601,-2.39456 -0.03224,-1.40717 -0.966802,-2.70061 -2.244531,-3.24948 -0.381264,-0.16389 -1.007586,-0.31953 -1.421775,-0.30345 -0.743424,0.0288 -1.501835,0.29447 -2.095233,0.74307 -0.258539,0.1953 -0.381636,0.32812 -0.596022,0.56496 -0.06968,0.0771 -0.186694,0.23983 -0.275748,0.27801 -0.06206,0.0266 -0.18146,0.0214 -0.250681,0.0214 0,0 -7.07143,0 -7.07143,0 0,0 0,-10.9626 0,-10.9626 7.46e-4,-0.35021 0.0064,-0.30943 0.523805,-0.60426 0,0 1.047624,-0.59864 1.047624,-0.59864 0,0 5.088437,-2.90714 5.088437,-2.90714 0,0 2.843534,-1.62494 2.843534,-1.62494 0,0 0.823128,-0.47029 0.823128,-0.47029 0.09657,-0.055 0.310552,-0.19083 0.411564,-0.20392 0.09203,-0.0113 0.601645,0.1912 0.748301,0.23459 0.425791,0.12493 0.654387,0.1152 1.085038,0.11343 0.68096,-0.003 1.495484,-0.34123 2.020406,-0.76551 0.232728,-0.18821 0.32627,-0.28548 0.521941,-0.5066 0.06482,-0.0734 0.2028,-0.25628 0.275002,-0.29857 0.07972,-0.0464 0.197924,-0.0382 0.288094,-0.0382 0,0 13.993206,0 13.993206,0 0.09284,0 0.210269,-0.008 0.292952,0.0382 0.09091,0.0505 0.206165,0.21514 0.279123,0.29857 0.129791,0.14923 0.322138,0.33785 0.475551,0.4632 0.517062,0.42391 1.342817,0.80067 2.020406,0.80891 0.493508,0.007 0.711636,0.0113 1.197274,-0.12834 0.16912,-0.0483 0.570955,-0.24619 0.71089,-0.21775 0.106293,0.0214 0.617351,0.33001 0.748307,0.40522 0,0 1.608835,0.91927 1.608835,0.91927 0,0 5.462593,3.12154 5.462593,3.12154 0,0 2.20749,1.26089 2.20749,1.26089 0.1421,0.0808 0.63305,0.32363 0.68954,0.45083 0.0266,0.0598 0.0214,0.18223 0.0214,0.24957 0,0 0,36.81633 0,36.81633 0,0 0,34.49663 0,34.49663 0,0.0913 0.008,0.21176 -0.0382,0.29259 -0.0569,0.0995 -0.27238,0.22636 -0.3734,0.29371 0,0 -0.78572,0.52381 -0.78572,0.52381 0,0 -3.778897,2.51914 -3.778897,2.51914 0,0 -13.057841,8.70535 -13.057841,8.70535 0,0 -3.404768,2.26958 -3.404768,2.26958 0,0 -0.860539,0.57396 -0.860539,0.57396 -0.101431,0.0674 -0.291093,0.21663 -0.411565,0.21101 -0.101759,-0.005 -0.251053,-0.11666 -0.336736,-0.1736 0,0 -0.710888,-0.47404 -0.710888,-0.47404 0,0 -2.581623,-1.7211 -2.581623,-1.7211 0,0 -9.690483,-6.46043 -9.690483,-6.46043 0,0 -7.108845,-4.73899 -7.108845,-4.73899 0,0 -1.683685,-1.12245 -1.683685,-1.12245 -0.118931,-0.0794 -0.489761,-0.29707 -0.539894,-0.41119 -0.02657,-0.0606 -0.02138,-0.18183 -0.02138,-0.24994 0,0 0,-56.38438 0,-56.38438 z M 45.669917,173.15061 c 0,0 -0.748301,0.28735 -0.748301,0.28735 -0.1515,0.0614 -0.441119,0.17211 -0.559727,0.26901 -0.156038,0.1272 -0.264892,0.33711 -0.368155,0.50922 -0.104349,0.174 -0.33899,0.53541 -0.389495,0.71089 -0.05202,0.18109 -0.02949,1.02517 -0.02949,1.2721 0,0 0,1.90818 0,1.90818 0,0 0,1.30952 0,1.30952 7.45e-4,0.47966 0.208779,0.68469 0.448977,1.08502 0.09462,0.15783 0.190811,0.35097 0.338228,0.46283 0.136594,0.10324 0.600883,0.28436 0.784223,0.35993 0.270142,0.1115 0.45123,0.22113 0.748302,0.21852 0,0 1.085038,0 1.085038,0 0.144857,-0.0311 0.619955,-0.23947 0.785714,-0.30867 0.166862,-0.0703 0.464695,-0.18671 0.595261,-0.2982 0.142589,-0.1217 0.298205,-0.41457 0.399978,-0.58405 0.160575,-0.26752 0.410803,-0.57096 0.331861,-0.89796 -0.09544,-0.39473 -0.522687,-0.59827 -0.87775,-0.39175 -0.305675,0.17811 -0.450857,0.65853 -0.650644,0.87028 -0.117474,0.12461 -0.63606,0.34797 -0.808917,0.37789 0,0 -0.561218,0 -0.561218,0 -0.31018,0.003 -0.35059,-0.0183 -0.63606,-0.13999 -0.101759,-0.0434 -0.288841,-0.11634 -0.370408,-0.1796 -0.117473,-0.0909 -0.327015,-0.42877 -0.370035,-0.57431 -0.01134,-0.0755 -0.0081,-0.18297 0,-0.26191 0,0 0,-3.62925 0,-3.62925 -0.0081,-0.0789 -0.01134,-0.18634 0,-0.26191 0.04747,-0.16276 0.268262,-0.51108 0.405196,-0.60574 0.07923,-0.0546 0.276882,-0.13401 0.37266,-0.17249 0.23571,-0.0951 0.266026,-0.11828 0.523804,-0.11974 0,0 0.411565,0 0.411565,0 0.293716,3.8e-4 0.680959,0.12347 0.93164,0.27724 0.22636,0.13886 0.395847,0.65101 0.619972,0.8628 0.21027,0.19904 0.526056,0.24468 0.766626,0.0703 0.566095,-0.41007 0.06028,-1.01281 -0.193062,-1.43486 -0.323272,-0.53803 -0.387988,-0.48939 -0.927899,-0.72135 0,0 -0.673458,-0.26903 -0.673458,-0.26903 -0.127519,-0.0292 -0.416813,-0.0198 -0.561234,-0.0198 0,0 -0.823127,0.0194 -0.823127,0.0194 z m 34.272127,7.42614 c 0,0 0,15.26531 0,15.26531 0,0.0921 0.0081,0.21065 -0.03824,0.29296 -0.04893,0.0872 -0.215503,0.20129 -0.298204,0.27312 -0.157172,0.13724 -0.369274,0.35806 -0.500975,0.51896 -0.414561,0.50585 -0.763645,1.32223 -0.771503,1.98299 -0.0081,0.69329 0.0097,1.02666 0.278745,1.68367 0.547008,1.33984 1.870007,2.12442 3.275676,2.20412 0.268651,0.0146 0.859804,-0.0973 1.122452,-0.18371 1.53851,-0.5066 2.562933,-1.88982 2.54423,-3.51701 -0.01018,-0.75954 -0.310186,-1.53101 -0.76216,-2.13265 -0.142909,-0.19008 -0.254031,-0.31804 -0.435114,-0.47555 -0.105503,-0.0917 -0.312798,-0.2331 -0.373408,-0.34908 -0.04523,-0.0868 -0.03777,-0.20167 -0.03822,-0.29782 0,0 0,-15.26531 0,-15.26531 0,0 3.928569,0 3.928569,0 0.09024,0 0.208415,-0.008 0.288101,0.0382 0.07554,0.0442 0.235339,0.2574 0.301185,0.33597 0.170997,0.20355 0.256676,0.27501 0.45834,0.44375 0.486769,0.40633 1.341698,0.78348 1.983,0.79094 0,0 0.486384,0 0.486384,0 0.928272,-0.001 1.889076,-0.51819 2.500446,-1.19727 0.262659,-0.29184 0.490138,-0.64503 0.634924,-1.0102 0.83661,-2.11208 -0.331478,-4.42133 -2.574151,-4.92306 -0.978015,-0.2185 -1.979245,-0.001 -2.806119,0.55898 -0.185573,0.12573 -0.442612,0.34683 -0.595279,0.51033 -0.293698,0.31428 -0.242824,0.44823 -0.676831,0.44898 0,0 -12.908167,0 -12.908167,0 -0.457582,-7.5e-4 -0.392493,-0.15522 -0.712378,-0.48638 -0.186712,-0.19345 -0.480039,-0.42617 -0.709397,-0.57507 -1.175955,-0.72212 -2.596224,-0.71875 -3.778919,0 -2.126667,1.27324 -2.313362,4.2436 -0.448977,5.83935 0.553375,0.47368 1.398199,0.83323 2.132663,0.83434 0,0 0.486391,0 0.486391,0 0.660381,-0.008 1.477887,-0.38499 1.982992,-0.79543 0.24582,-0.19981 0.278,-0.23721 0.48153,-0.47667 0.06919,-0.0815 0.187829,-0.25068 0.273139,-0.29856 0.08231,-0.046 0.200905,-0.0382 0.292956,-0.0382 0,0 4.976197,0 4.976197,0 z m -8.568032,-3.61841 c 0.533542,-0.0505 1.010957,0.04 1.415408,0.41717 0.592279,0.55225 0.665988,1.58977 0.173602,2.22844 -0.297071,0.38575 -0.665988,0.56347 -1.140032,0.62521 -0.197924,0.0258 -0.367783,0.007 -0.561217,-0.0344 -1.408312,-0.3038 -1.700894,-2.1667 -0.598648,-2.95579 0.209898,-0.15037 0.458715,-0.23833 0.710887,-0.2806 z m 19.568033,0 c 0.422053,-0.04 0.792453,0.003 1.159867,0.23123 0.850813,0.52754 0.979146,1.79292 0.325508,2.52513 -0.286959,0.32139 -0.656624,0.4632 -1.073815,0.51446 -0.938359,0.11553 -1.784694,-0.61361 -1.7959,-1.56057 -0.0068,-0.50474 0.10177,-0.94174 0.489754,-1.29831 0.263405,-0.24245 0.547751,-0.35432 0.894586,-0.41194 z m 26.040835,8.66943 c 0.0617,0.0306 0.0823,0.0337 0.13546,0.0857 0,0 0.57544,0.92452 0.57544,0.92452 0,0 1.03266,1.7211 1.03266,1.7211 0,0 0.52417,0.85942 0.52417,0.85942 0.25967,0.33897 0.74233,0.35955 0.993,0 0.11229,-0.1617 0.10629,-0.29895 0.10663,-0.48527 0,0 0,-6.92177 0,-6.92177 -3.7e-4,-0.17961 0.007,-0.28699 -0.0928,-0.44749 -0.20017,-0.32176 -0.62519,-0.39174 -0.91031,-0.1366 -0.21139,0.18895 -0.23122,0.50661 -0.2316,0.77114 0,0 0,4.5272 0,4.5272 -0.22035,-0.18632 -0.3674,-0.49986 -0.51631,-0.7483 0,0 -0.80817,-1.34693 -0.80817,-1.34693 -0.17997,-0.29971 -0.38576,-0.7165 -0.80816,-0.65439 -0.37826,0.0554 -0.52756,0.39884 -0.7034,0.6918 0,0 -0.85307,1.42177 -0.85307,1.42177 -0.12055,0.20091 -0.26078,0.52195 -0.46394,0.63605 0,0 0,-2.28232 0,-2.28232 0,0 0,-2.39455 0,-2.39455 -3.8e-4,-0.18072 0.005,-0.32814 -0.10098,-0.48602 -0.25705,-0.38313 -0.77075,-0.39436 -1.02181,0 -0.1107,0.17434 -0.11149,0.32625 -0.11183,0.52343 0,0 0,6.80953 0,6.80953 3.7e-4,0.15005 -0.007,0.27239 0.0632,0.41157 0.18072,0.36142 0.61249,0.50099 0.93576,0.23233 0.16089,-0.13351 0.35357,-0.49087 0.46768,-0.6813 0,0 0.76326,-1.27212 0.76326,-1.27212 0,0 1.02517,-1.75851 1.02517,-1.75851 z m -71.87418,5.68708 c 0,0 3.105443,0 3.105443,0 0,0 0,2.84352 0,2.84352 3.74e-4,0.17848 -0.0049,0.33077 0.101115,0.48567 0.229341,0.33672 0.661484,0.36778 0.938739,0.0718 0.182205,-0.19494 0.194552,-0.45497 0.194925,-0.70714 0,0 0,-6.58504 0,-6.58504 -3.73e-4,-0.25705 -0.01296,-0.53655 -0.205037,-0.73072 -0.29707,-0.30231 -0.740069,-0.22337 -0.954455,0.13205 -0.08345,0.13806 -0.07486,0.2578 -0.07519,0.41157 0,0 0,2.84354 0,2.84354 0,0 -3.105444,0 -3.105444,0 0,0 0,-2.80613 0,-2.80613 -3.73e-4,-0.22298 -0.0081,-0.37826 -0.164253,-0.55747 -0.271632,-0.3128 -0.729586,-0.27163 -0.953321,0.0718 -0.118284,0.18109 -0.116664,0.31691 -0.11715,0.52306 0,0 0,6.77211 0,6.77211 3.73e-4,0.19606 0.0033,0.38761 0.117474,0.55786 0.230476,0.34123 0.728841,0.36852 0.98064,0.0374 0.132057,-0.1736 0.13627,-0.35133 0.136594,-0.55786 0,0 0,-2.80612 0,-2.80612 z m 24.207493,-4.06702 c 0.575072,-0.0572 1.11085,0.076 1.510812,0.51895 0.257794,0.28548 0.392865,0.65925 0.397353,1.04126 0.0097,0.91256 -0.500617,1.57255 -1.421774,1.705 -0.218875,0.0314 -0.384246,0.0172 -0.598647,-0.0292 -1.368629,-0.29522 -1.697507,-2.0496 -0.673459,-2.89817 0.223363,-0.1852 0.503599,-0.28473 0.785715,-0.33786 z m 46.693907,13.34593 c 0,0 0,-2.35714 0,-2.35714 0,0 3.06801,0 3.06801,0 0.32513,-0.005 0.63343,-0.17361 0.67908,-0.52381 0.0681,-0.52082 -0.40257,-0.71014 -0.82874,-0.71088 0,0 -2.91835,0 -2.91835,0 0,0 0,-2.35715 0,-2.35715 0,0 2.91835,0 2.91835,0 0.19607,-3.8e-4 0.38762,-0.003 0.55787,-0.11747 0.31653,-0.21401 0.36478,-0.69182 0.0715,-0.94773 -0.18634,-0.16238 -0.35994,-0.16912 -0.59191,-0.16949 0,0 -3.40477,0 -3.40477,0 -0.11296,0 -0.22748,-0.003 -0.33673,0.03 -0.18408,0.0569 -0.34235,0.2013 -0.41194,0.38164 -0.0509,0.13287 -0.0371,0.34085 -0.0371,0.4864 0,0 0,0.89795 0,0.89795 0,0 0,5.87415 0,5.87415 7.5e-4,0.53766 0.21064,0.74755 0.74831,0.7483 0,0 3.47959,0 3.47959,0 0.17846,-3.7e-4 0.33075,0.005 0.48565,-0.10098 0.33225,-0.22636 0.36366,-0.66523 0.0718,-0.93874 -0.19495,-0.18221 -0.45499,-0.19455 -0.70715,-0.19493 0,0 -2.84354,0 -2.84354,0 z m -34.30956,-3.05717 c 0.310552,-0.0295 0.607624,-0.0113 0.89797,0.11407 0.568705,0.24468 0.965293,0.78309 0.972779,1.40904 0.0045,0.40295 -0.04342,0.74681 -0.285466,1.08503 -0.284347,0.39661 -0.698915,0.60426 -1.173703,0.66263 -1.699029,0.20952 -2.47277,-1.97289 -1.197295,-2.95691 0.248446,-0.19193 0.481547,-0.26341 0.785715,-0.31391 z m -35.207495,1.84643 c -0.414561,0.15636 -0.455718,0.42054 -0.596768,0.79917 0,0 -0.350575,0.93538 -0.350575,0.93538 0,0 -1.86589,4.97619 -1.86589,4.97619 -0.08151,0.21364 -0.360298,0.90021 -0.360298,1.08503 7.46e-4,0.34535 0.327745,0.62371 0.666734,0.59453 0.310909,-0.0266 0.463933,-0.25404 0.568331,-0.51969 0,0 0.575817,-1.53402 0.575817,-1.53402 0.05428,-0.14404 0.162373,-0.52343 0.285842,-0.59788 0.07632,-0.0457 0.203547,-0.0382 0.291093,-0.0382 0,0 1.870752,0 1.870752,0 0.08264,0 0.21364,-0.008 0.283606,0.0382 0.09803,0.0651 0.209526,0.437 0.255916,0.56047 0,0 0.561233,1.49659 0.561233,1.49659 0.138863,0.36368 0.356926,0.69518 0.807411,0.57769 0.270887,-0.0703 0.459072,-0.33748 0.444862,-0.61509 -0.0097,-0.19981 -0.345341,-1.02967 -0.437749,-1.27212 0,0 -1.908166,-5.08844 -1.908166,-5.08844 0,0 -0.253306,-0.67346 -0.253306,-0.67346 -0.152311,-0.4041 -0.303812,-0.82688 -0.838845,-0.72435 z m 0.897954,4.46584 c 0,0 -1.534014,0 -1.534014,0 0,0 0.226376,-0.71089 0.226376,-0.71089 0,0 0.484511,-1.30951 0.484511,-1.30951 0.199803,0.0681 0.232728,0.30306 0.301203,0.48638 0.130599,0.35023 0.504344,1.21488 0.521924,1.53402 z m 68.955811,2.45143 c 0,0 -0.82313,0.32476 -0.82313,0.32476 -0.18332,0.0741 -0.41605,0.15458 -0.55449,0.29596 -0.11779,0.12007 -0.29332,0.43626 -0.38835,0.59453 -0.10031,0.16723 -0.26715,0.41417 -0.30942,0.59863 0,0 -0.0198,0.89796 -0.0198,0.89796 10e-4,0.39997 0.18295,0.60425 0.38163,0.93538 0.0912,0.1523 0.24843,0.43551 0.37339,0.54663 0.14064,0.12542 0.58556,0.28584 0.77899,0.36704 0.35956,0.15118 0.49574,0.24545 0.89796,0.2462 0,0 0.56122,0 0.56122,0 0.24993,0.003 0.78085,0.18445 0.96493,0.35131 0.18334,0.16613 0.34122,0.48752 0.34459,0.73372 0,0 0,0.14971 0,0.14971 -10e-4,0.29559 -0.16057,0.65925 -0.41306,0.83025 -0.0752,0.0505 -0.24395,0.11374 -0.33523,0.15296 -0.21551,0.0928 -0.2836,0.13578 -0.52381,0.13919 -0.50024,0.007 -0.57694,0.0483 -1.04762,-0.14211 -0.10098,-0.0408 -0.24732,-0.0961 -0.33525,-0.15604 -0.29968,-0.20428 -0.40745,-0.78945 -0.7872,-0.97205 -0.43065,-0.2069 -0.89459,0.17586 -0.85305,0.59677 0.0209,0.21252 0.18968,0.45348 0.2993,0.63606 0.0977,0.16313 0.28922,0.50847 0.41082,0.62895 0.14777,0.14631 0.39921,0.23608 0.59191,0.3139 0.32289,0.1306 0.65663,0.32477 1.0102,0.3229 0,0 1.08505,0 1.08505,0 0.16311,-0.0344 0.57393,-0.22075 0.74828,-0.29258 0.15523,-0.064 0.47629,-0.18185 0.59716,-0.27763 0.1617,-0.12865 0.30418,-0.40184 0.41305,-0.5833 0.16986,-0.28323 0.36967,-0.52118 0.37416,-0.86054 0.001,-0.18632 0.0162,-0.87363 -0.024,-1.01021 -0.0415,-0.14438 -0.26228,-0.48937 -0.3502,-0.63604 -0.11037,-0.18409 -0.24433,-0.44786 -0.41308,-0.57507 -0.13837,-0.10404 -0.39472,-0.19456 -0.55972,-0.26378 -0.37377,-0.15717 -0.63455,-0.32027 -1.04761,-0.32102 0,0 -0.56123,0 -0.56123,0 -0.25929,-10e-4 -0.76065,-0.16688 -0.96606,-0.32551 -0.18969,-0.14631 -0.37675,-0.5212 -0.38087,-0.75953 -0.007,-0.34533 -0.0176,-0.37152 0.16462,-0.67348 0.0509,-0.0846 0.10776,-0.18407 0.17997,-0.25179 0.10324,-0.0972 0.27238,-0.15118 0.40371,-0.20764 0.2155,-0.0928 0.28361,-0.13579 0.5238,-0.13919 0.54252,-0.007 0.61398,-0.048 1.12245,0.16536 0,0 0.29147,0.1366 0.29147,0.1366 0.18108,0.12639 0.38087,0.63904 0.58665,0.83996 0.22301,0.21813 0.51185,0.25293 0.76739,0.0685 0.56984,-0.41007 0.052,-1.01319 -0.20129,-1.43487 -0.32999,-0.54962 -0.43288,-0.51594 -0.99525,-0.74792 -0.16089,-0.0663 -0.48338,-0.21027 -0.63605,-0.24283 -0.17097,-0.0366 -1.16211,-0.03 -1.34693,0 z m -34.346946,26.62002 c -0.17135,-0.10177 -0.172111,-0.23047 -0.22448,-0.41157 0,0 -0.277628,-0.97279 -0.277628,-0.97279 0,0 -1.111968,-3.89116 -1.111968,-3.89116 0,0 -2.704364,-9.46599 -2.704364,-9.46599 0,0 -0.823128,-2.88094 -0.823128,-2.88094 0,0 -0.246193,-0.86056 -0.246193,-0.86056 0,0 -0.127196,-0.4864 -0.127196,-0.4864 -0.0064,-0.16574 0.358077,-0.63118 0.453855,-0.82312 0.203903,-0.40783 0.378638,-1.07756 0.384245,-1.53402 0.02317,-2.00657 -1.559454,-3.62514 -3.554422,-3.70258 -0.377893,-0.0146 -0.951085,0.11002 -1.309518,0.23571 -0.357688,0.12541 -0.802922,0.3779 -1.085038,0.62969 -0.35657,0.31841 -0.645783,0.65515 -0.868772,1.07869 -0.197924,0.37602 -0.370036,0.88411 -0.399963,1.30951 -0.0875,1.24367 0.326254,2.35641 1.306148,3.16306 0.218501,0.17961 0.456836,0.33262 0.710888,0.45647 0.12914,0.0629 0.380875,0.14405 0.465439,0.24432 0.07454,0.088 0.126062,0.32141 0.159766,0.43888 0,0 0.257048,0.89795 0.257048,0.89795 0,0 5.504862,19.26873 5.504862,19.26873 0,0 1.005334,3.51701 1.005334,3.51701 0,0 0.609115,2.02041 0.609115,2.02041 0.290347,0.64391 0.970918,1.15126 1.688919,1.15986 0.79057,0.0102 1.413915,-0.27724 1.835946,-0.97279 0.21252,-0.34946 0.466946,-1.38584 0.596025,-1.83333 0,0 1.058482,-3.70409 1.058482,-3.70409 0,0 5.579684,-19.53062 5.579684,-19.53062 0,0 0.246194,-0.86054 0.246194,-0.86054 0.03064,-0.10584 0.0804,-0.31991 0.143723,-0.40147 0.0752,-0.0969 0.298561,-0.16537 0.417542,-0.22112 0.221871,-0.10403 0.478921,-0.25779 0.673472,-0.40632 0.820135,-0.62633 1.409432,-1.70576 1.42178,-2.75001 0.01911,-1.65598 -1.011328,-3.11891 -2.619054,-3.58098 -0.287344,-0.0827 -0.751666,-0.17062 -1.047626,-0.15895 -1.499951,0.0583 -2.82782,0.96979 -3.345266,2.39306 -0.117477,0.32214 -0.205034,0.6656 -0.20915,1.0102 -0.0079,0.6701 0.02884,1.09589 0.31092,1.7211 0.09804,0.21698 0.192686,0.36628 0.325881,0.56121 0.08006,0.11667 0.176979,0.22525 0.175486,0.37415 0,0 -0.218897,0.82313 -0.218897,0.82313 0,0 -0.502848,1.75851 -0.502848,1.75851 0,0 -1.624564,5.68707 -1.624564,5.68707 0,0 -2.07353,7.25851 -2.07353,7.25851 0,0 -0.652528,2.28232 -0.652528,2.28232 -0.07891,0.27836 -0.282099,0.91067 -0.304556,1.15986 z m -8.530619,-23.03679 c 0.571329,-0.0543 1.121707,0.1029 1.503343,0.55375 0.23908,0.28248 0.362922,0.63904 0.36741,1.00684 0.01134,0.89945 -0.501735,1.59049 -1.421759,1.71024 -0.530934,0.0692 -1.090661,-0.11262 -1.452464,-0.51334 -0.648764,-0.71912 -0.528665,-1.89993 0.255169,-2.47163 0.236099,-0.17248 0.465068,-0.23871 0.748301,-0.28586 z m 16.462602,0 c 0.557477,-0.0528 1.088018,0.0924 1.473401,0.51933 0.24469,0.27127 0.392857,0.63904 0.38874,1.00384 0.01018,0.13433 0.01459,0.31989 0,0.44898 -0.137243,0.71201 -0.706773,1.20663 -1.413163,1.29868 -0.54514,0.0711 -1.127686,-0.12347 -1.484256,-0.55037 -0.604619,-0.72398 -0.475924,-1.87824 0.286982,-2.4346 0.236085,-0.17248 0.465069,-0.23871 0.748296,-0.28586 z m -43.775539,2.84055 c -0.355063,0.0674 -0.642412,0.21702 -0.972782,0.35132 -0.167623,0.0685 -0.428772,0.16502 -0.55749,0.28474 -0.132058,0.12315 -0.334858,0.49389 -0.437749,0.66561 -0.217383,0.36256 -0.313534,0.42765 -0.314295,0.86055 0,0 0,2.65646 0,2.65646 0,0 0,1.42177 0,1.42177 7.61e-4,0.51259 0.157171,0.66075 0.411564,1.08504 0.119418,0.19867 0.223378,0.40145 0.41158,0.54588 0.141454,0.10811 0.528292,0.24657 0.710871,0.32514 0.270142,0.11602 0.524938,0.24769 0.823128,0.24282 0,0 1.047624,0 1.047624,0 0.181461,-0.0431 0.630827,-0.24058 0.823128,-0.32253 0.219264,-0.0935 0.461325,-0.16723 0.628203,-0.3457 0.09916,-0.10596 0.234591,-0.34946 0.314652,-0.48303 0.227494,-0.37939 0.398471,-0.5863 0.404093,-1.04762 0,0 0,-1.68367 0,-1.68367 0,0 0,-2.28232 0,-2.28232 -7.45e-4,-0.48115 -0.08118,-0.57208 -0.321781,-0.97279 -0.0977,-0.16276 -0.308284,-0.54702 -0.43326,-0.65888 -0.145182,-0.12979 -0.48004,-0.25143 -0.666733,-0.32962 -0.62595,-0.26266 -0.657385,-0.32103 -1.346932,-0.31317 0,0 -0.523821,0 -0.523821,0 z m 0.112287,1.23918 c 0.49501,-0.055 0.780108,-0.0314 1.234691,0.16426 0.128331,0.0554 0.29409,0.10482 0.38875,0.20765 0.04634,0.0501 0.105966,0.15345 0.142589,0.21439 0.05233,0.0872 0.126871,0.20353 0.168741,0.29933 0.0277,0.13692 0.01134,0.75091 0,0.93536 0,0 0,2.99321 0,2.99321 0.01134,0.0831 0.01459,0.18183 0,0.26189 -0.0512,0.15944 -0.26938,0.50548 -0.404078,0.59977 -0.09236,0.0648 -0.262283,0.12687 -0.37078,0.17099 -0.247311,0.10064 -0.249563,0.12574 -0.52382,0.12719 0,0 -0.523804,0 -0.523804,0 -0.240198,-0.003 -0.308301,-0.0464 -0.523804,-0.13918 -0.10289,-0.0442 -0.32141,-0.122 -0.397354,-0.18633 -0.09982,-0.0838 -0.307556,-0.44375 -0.342716,-0.57245 -0.01134,-0.0767 -0.0081,-0.18221 0,-0.26189 0,0 0,-3.66668 0,-3.66668 -0.0081,-0.0831 -0.01134,-0.18184 0,-0.26191 0.0431,-0.11943 0.248802,-0.4617 0.340852,-0.54289 0.123146,-0.10856 0.639415,-0.30231 0.810781,-0.34272 z m 70.153095,5.37542 c 0,0 0,6.43538 0,6.43538 3.8e-4,0.18932 -0.007,0.32065 0.10664,0.48565 0.22039,0.32326 0.666,0.35692 0.93313,0.0718 0.18221,-0.19494 0.19455,-0.45498 0.19493,-0.70714 0,0 0,-6.28571 0,-6.28571 0,0 1.04762,0 1.04762,0 0.14405,0 0.47555,0.0102 0.59865,-0.0198 0.2462,-0.0598 0.45347,-0.28735 0.47891,-0.5414 0.0426,-0.42428 -0.31802,-0.66861 -0.7034,-0.67347 0,0 -4.00341,0 -4.00341,0 -0.27762,3.7e-4 -0.50809,0.0284 -0.69516,0.26339 -0.31954,0.40073 -0.007,0.96344 0.58293,0.9713 0,0 1.45916,0 1.45916,0 z m -70.190509,6.79045 c -0.203529,0.0475 -1.144147,0.43139 -1.309145,0.54139 -0.204664,0.13692 -0.344597,0.42578 -0.471809,0.63756 -0.204664,0.34121 -0.349829,0.48601 -0.344595,0.89795 0,0 0,0.89795 0,0.89795 0.04262,0.16389 0.203173,0.41269 0.29221,0.56124 0.116016,0.19344 0.291093,0.52306 0.450484,0.6656 0.145506,0.12979 0.447115,0.2391 0.634555,0.31467 0,0 0.710886,0.28472 0.710886,0.28472 0,0 0.785715,0 0.785715,0 0.101432,0.007 0.199803,0.005 0.299323,0.0269 0.132382,0.03 0.680945,0.25331 0.771489,0.33562 0.180715,0.16388 0.347593,0.5238 0.350964,0.767 0,0 0,0.14971 0,0.14971 -0.0033,0.24096 -0.04229,0.28324 -0.164627,0.48641 -0.0512,0.0853 -0.108566,0.18407 -0.17997,0.25367 -0.132056,0.12833 -0.663736,0.33861 -0.852682,0.3764 0,0 -0.486407,0 -0.486407,0 -0.324001,0.005 -0.346831,-0.0408 -0.636044,-0.15863 -0.106622,-0.0434 -0.278373,-0.10551 -0.367427,-0.17099 -0.249174,-0.18295 -0.398455,-0.77785 -0.755026,-0.95707 -0.337109,-0.1695 -0.746437,0.0366 -0.83959,0.39472 -0.0841,0.32178 0.137729,0.60127 0.293329,0.86055 0.100629,0.1676 0.275002,0.48714 0.408566,0.61061 0.164626,0.15231 0.418677,0.24021 0.624086,0.32514 0.383873,0.15831 0.695543,0.33112 1.122453,0.33636 0.272004,0.003 0.679825,0.0183 0.935367,-0.0382 0.19269,-0.0423 0.586674,-0.21925 0.785714,-0.30418 0.175855,-0.0749 0.414935,-0.1515 0.559744,-0.27089 0.166117,-0.13659 0.300815,-0.39696 0.413055,-0.58405 0.09836,-0.16388 0.29558,-0.46581 0.344595,-0.63605 0.04229,-0.14712 0.02949,-0.40109 0.02949,-0.56123 0,-0.19717 0.01912,-0.49313 -0.04116,-0.67347 -0.05865,-0.17434 -0.22636,-0.43363 -0.325508,-0.59864 -0.129788,-0.21626 -0.248818,-0.46168 -0.456463,-0.61247 -0.148908,-0.10777 -0.38875,-0.19158 -0.561234,-0.26378 -0.426908,-0.17922 -0.644275,-0.32027 -1.122451,-0.32102 0,0 -0.523805,0 -0.523805,0 -0.223735,-0.003 -0.751299,-0.18183 -0.921157,-0.32551 -0.186695,-0.15717 -0.347577,-0.51819 -0.350948,-0.75952 0,0 0,-0.14973 0,-0.14973 0.0015,-0.27686 0.153445,-0.62557 0.377893,-0.79881 0.08151,-0.0632 0.268635,-0.13626 0.370408,-0.17959 0.09171,-0.0389 0.242823,-0.10324 0.336737,-0.1272 0.123794,-0.0251 0.735193,-0.0277 0.860541,0 0.113748,0.0198 0.611724,0.22299 0.707517,0.2851 0.227106,0.14777 0.389869,0.63793 0.608743,0.85007 0.224853,0.21775 0.524923,0.25817 0.777483,0.0617 0.535033,-0.41531 0.08377,-0.93949 -0.17062,-1.3634 -0.08523,-0.1421 -0.200922,-0.36106 -0.321021,-0.46657 -0.148098,-0.13028 -0.407075,-0.21289 -0.591907,-0.29221 0,0 -0.785714,-0.30793 -0.785714,-0.30793 -0.166116,-0.0344 -1.086901,-0.0266 -1.272106,0 z m 19.081643,16.75928 c 0,0 -0.37415,0.0382 -0.37415,0.0382 -0.647274,0.10143 -1.297545,0.39136 -1.79591,0.8179 -1.645137,1.40791 -1.71998,3.84851 -0.176599,5.3608 0.582168,0.56985 1.354417,0.90844 2.159591,0.99451 0.170605,0.0183 0.227106,0.0378 0.411565,0.03 0.192689,-0.008 0.560472,-0.0598 0.748301,-0.10663 0.118283,-0.0295 0.295564,-0.1029 0.411563,-0.0703 0.09285,0.0262 0.254425,0.15896 0.336738,0.22076 0,0 0.673457,0.50511 0.673457,0.50511 0,0 2.206745,1.65597 2.206745,1.65597 0.263401,0.21327 0.16388,0.44 0.19418,0.75242 0.03224,0.33262 0.140321,0.7034 0.271632,1.01022 0.645038,1.50931 2.256878,2.40951 3.875069,2.15358 0.441119,-0.0695 0.847822,-0.21738 1.234692,-0.43812 2.081768,-1.18829 2.436474,-3.96898 0.779362,-5.67811 -0.646528,-0.6671 -1.582657,-1.03301 -2.500445,-1.08502 -0.178851,-0.0102 -0.676099,0.0606 -0.860541,0.10438 -0.118284,0.028 -0.338616,0.10889 -0.448993,0.0748 -0.08571,-0.0262 -0.258152,-0.16575 -0.336721,-0.22486 0,0 -0.673474,-0.5051 -0.673474,-0.5051 0,0 -1.496602,-1.12245 -1.496602,-1.12245 0,0 -0.708635,-0.53353 -0.708635,-0.53353 -0.216266,-0.18297 -0.129789,-0.29072 -0.16239,-0.56536 -0.04408,-0.37152 -0.09511,-0.6974 -0.236455,-1.0476 -0.476296,-1.1797 -1.413171,-2.01443 -2.671438,-2.26736 -0.245433,-0.0494 -0.615467,-0.10369 -0.860542,-0.0741 z m 32.925197,0 c -0.545513,0.0775 -0.822758,0.0909 -1.346945,0.33263 -1.004588,0.46358 -1.730823,1.35106 -1.996828,2.42038 -0.05202,0.20876 -0.09578,0.42017 -0.09838,0.63604 -0.0011,0.11748 0.01459,0.30831 -0.03822,0.41008 -0.06287,0.12006 -0.296322,0.27574 -0.410814,0.3618 0,0 -0.860549,0.64504 -0.860549,0.64504 0,0 -1.421769,1.06633 -1.421769,1.06633 -0.123798,0.0932 -0.55898,0.44 -0.673472,0.47143 -0.110817,0.03 -0.261155,-0.0382 -0.374154,-0.0647 -0.227107,-0.0539 -0.55336,-0.10482 -0.785714,-0.11779 -0.143236,-0.008 -0.204649,0.0146 -0.336736,0.0277 -0.671595,0.0674 -1.150878,0.22224 -1.721087,0.5934 -0.929018,0.60499 -1.60698,1.73343 -1.608846,2.85513 -0.0011,0.6544 0.03551,1.03565 0.310909,1.64626 0.53243,1.17969 1.669467,1.96505 2.944189,2.10123 0.179229,0.0195 0.257796,0.0412 0.448977,0.028 1.449473,-0.0984 2.702122,-0.90207 3.247635,-2.27895 0.136915,-0.34645 0.227106,-0.7135 0.263031,-1.08503 0.02137,-0.21776 -0.05168,-0.40445 0.124274,-0.56534 0,0 2.201873,-1.65598 2.201873,-1.65598 0,0 0.673473,-0.50511 0.673473,-0.50511 0.08379,-0.0629 0.286597,-0.22562 0.374142,-0.2548 0.12234,-0.0408 0.518951,0.0932 0.673484,0.12379 0.371892,0.0625 0.712744,0.0531 1.085021,0 1.789185,-0.23833 3.108065,-1.83071 3.105435,-3.61541 -10e-4,-1.54897 -1.05397,-2.90827 -2.506787,-3.3924 -0.334881,-0.1115 -0.925275,-0.22562 -1.272109,-0.18371 z m -33.000024,1.97814 c 0.288095,-0.0274 0.588537,7.4e-4 0.860541,0.10369 0.983266,0.37302 1.317766,1.6601 0.726978,2.50456 -0.32776,0.46769 -0.843706,0.67944 -1.400451,0.67347 -1.567686,-0.018 -2.091118,-1.90294 -1.120945,-2.84018 0.272749,-0.2634 0.566467,-0.3805 0.933877,-0.44149 z m 32.962606,0 c 0.2503,-0.0236 0.508096,-10e-4 0.748285,0.0775 1.132202,0.36967 1.452082,1.85916 0.65702,2.71147 -0.327769,0.3517 -0.786087,0.49799 -1.255645,0.49276 -1.40457,-0.0162 -2.103858,-1.68853 -1.222344,-2.73092 0.282097,-0.33374 0.652881,-0.48676 1.072684,-0.55075 z m -16.42519,0.0797 c 0,0 -0.37415,0.0382 -0.37415,0.0382 -0.421658,0.0663 -0.905441,0.23121 -1.272105,0.44935 -0.990006,0.58929 -1.782072,1.7211 -1.79591,2.90153 -0.0064,0.56759 -0.0033,0.9133 0.202784,1.45919 0.20204,0.53615 0.435513,0.89196 0.834357,1.30315 0,0 0.533527,0.49913 0.533527,0.49913 0.03824,0.0681 0.03661,0.14259 0.03824,0.21812 0,0 0,1.64627 0,1.64627 -7.45e-4,0.44 -0.07778,0.30718 -0.523804,0.74829 -0.284353,0.28135 -0.517826,0.57843 -0.701149,0.93538 -0.897599,1.74727 -0.20541,3.96524 1.56169,4.85459 0.498365,0.25104 1.048369,0.40783 1.608842,0.42055 0.262283,0.007 0.641296,-0.0543 0.897973,-0.11666 2.029011,-0.49539 3.259213,-2.65012 2.57864,-4.6346 -0.178483,-0.52046 -0.447859,-0.98066 -0.826502,-1.38286 0,0 -0.554118,-0.49986 -0.554118,-0.49986 -0.03856,-0.0651 -0.03664,-0.13952 -0.03822,-0.21251 0,0 0,-1.68369 0,-1.68369 0.0011,-0.49387 0.211015,-0.40782 0.632696,-0.86054 0.326627,-0.35095 0.604992,-0.81939 0.763257,-1.27211 0.671979,-1.92651 -0.356559,-3.98169 -2.293909,-4.62711 -0.33487,-0.1115 -0.925268,-0.22562 -1.272116,-0.18371 z m -0.03743,1.97812 c 0.598647,-0.0561 1.18981,0.16277 1.547873,0.66263 0.184826,0.25816 0.281723,0.58256 0.285466,0.89794 0.0079,0.71426 -0.261912,1.26688 -0.935362,1.5793 -0.249943,0.11552 -0.476675,0.14486 -0.748307,0.14178 -1.056228,-0.0113 -1.753652,-0.92526 -1.574427,-1.94558 0.05087,-0.28848 0.187457,-0.60386 0.383873,-0.82276 0.288856,-0.32139 0.625966,-0.4501 1.040884,-0.51332 z m -8.231295,4.11566 c 0.411564,-0.0386 0.865046,0.052 1.197278,0.30831 0.973543,0.75016 0.826871,2.30924 -0.299307,2.83155 -0.249936,0.11569 -0.476668,0.14486 -0.748301,0.14178 -0.927153,-0.0102 -1.643648,-0.75354 -1.607352,-1.68367 0.01459,-0.38874 0.15458,-0.79358 0.416798,-1.08466 0.290347,-0.32177 0.624832,-0.45011 1.040884,-0.51334 z m 16.462587,0 c 0.608747,-0.0569 1.180075,0.16123 1.54862,0.66262 0.178461,0.24282 0.280977,0.56047 0.28472,0.86055 0.0079,0.73183 -0.234965,1.29679 -0.935362,1.61669 -0.254053,0.11602 -0.472927,0.14486 -0.748307,0.14178 -1.05622,-0.0113 -1.753631,-0.92527 -1.574425,-1.94557 0.04749,-0.2694 0.17474,-0.57545 0.352081,-0.78534 0.282097,-0.33374 0.652881,-0.48677 1.072673,-0.55076 z m -8.231292,4.11565 c 0.593786,-0.0565 1.144171,0.14485 1.514187,0.6252 0.634573,0.82313 0.327011,2.08402 -0.61621,2.51467 -0.254058,0.11602 -0.472932,0.14485 -0.748307,0.14177 -1.392966,-0.0162 -2.086257,-1.62417 -1.252289,-2.69387 0.279491,-0.35882 0.668613,-0.51597 1.102619,-0.5878 z" />
    <text
       transform="rotate(-20.498022)"
       xml:space="preserve"
       style="font-style:normal;font-weight:normal;font-size:24.0175px;line-height:1.25;font-family:sans-serif;letter-spacing:0px;word-spacing:0px;fill:#00bb31;fill-opacity:1;stroke:none;stroke-width:0.600438"
       x="210.85385"
       y="281.11407"
       id="text1321"><tspan
         sodipodi:role="line"
         id="tspan1319"
         x="210.85385"
         y="281.11407"
         style="font-style:normal;font-variant:normal;font-weight:normal;font-stretch:normal;font-family:'Blackout 2AM';-inkscape-font-specification:'Blackout 2AM';fill:#00bb31;stroke-width:0.600438">  DISHES  </tspan></text>
    <g
       transform="matrix(0.17928191,0,0,0.17928191,31.439159,55.532938)"
       fill="none"
       fill-rule="nonzero"
       stroke="none"
       stroke-width="none"
       stroke-linecap="butt"
       stroke-linejoin="miter"
       stroke-miterlimit="10"
       stroke-dasharray="none"
       stroke-dashoffset="0"
       font-family="none"
       font-weight="none"
       font-size="none"
       text-anchor="none"
       style="font-variation-settings:normal;opacity:1;mix-blend-mode:normal;vector-effect:none;fill:#fe5000;fill-opacity:1;stroke:none;stroke-width:1.30607;stroke-linecap:butt;stroke-linejoin:miter;stroke-miterlimit:10;stroke-dasharray:none;stroke-dashoffset:0;stroke-opacity:1;stop-color:#000000;stop-opacity:1"
       id="g10">
      <path
         style="font-variation-settings:normal;vector-effect:none;fill:#fe5000;fill-opacity:1;stroke:none;stroke-width:1.30607;stroke-linecap:butt;stroke-linejoin:miter;stroke-miterlimit:10;stroke-dasharray:none;stroke-dashoffset:0;stroke-opacity:1;stop-color:#000000;stop-opacity:1"
         d="m 608.73562,676.63765 c -1.20107,-9.5657 -2.61663,-20.0751 -3.21716,-23.37805 -1.20107,-6.90618 -2.65952,-16.72925 -5.748,-38.60596 -1.20107,-8.49331 -4.89009,-33.97324 -8.15015,-56.62207 -12.01074,-82.83123 -16.51477,-116.80447 -21.0188,-157.76968 -0.9437,-8.66489 -1.8874,-17.07241 -2.14478,-18.65955 -0.90081,-6.21985 -0.12869,-12.99734 2.14478,-18.87402 3.26006,-8.36462 11.36731,-17.32979 21.57644,-23.80701 4.97588,-3.17427 16.77214,-8.622 21.74802,-10.08044 0.81501,-0.21448 4.28955,-1.32976 7.72119,-2.40215 1.2148,-0.39187 2.44929,-0.7812 3.70196,-1.16764 l -0.36782,2.24837 10.92148,12.15904 -0.33003,7.99459 1.17456,12.88329 -5.71913,13.58961 1.98368,9.84817 1.40028,13.92808 5.97471,9.45377 1.28549,12.95087 -5.90295,11.63529 8.90681,9.21694 -1.63122,15.24777 3.84685,9.73774 -0.10323,11.0885 -6.07618,12.52036 0.014,15.03771 7.85388,14.61012 -3.42427,12.22388 0.50959,14.02875 0.3341,15.04295 -2.91528,14.04223 1.89107,11.03433 5.60122,14.2728 -6.59395,11.79276 4.92231,14.55864 0.32684,15.46868 -5.41655,9.56608 1.35863,9.61572 -8.74316,7.55761 3.96212,12.68401 -9.69192,13.19184 1.74137,11.10372 -9.26411,4.78348 -7.75584,4.76023 -0.11331,0.18357 c -2.45277,-8.82812 -4.03325,-18.58128 -6.57356,-38.69491 z"
         fill="#d0d0ce"
         stroke="none"
         stroke-width="1"
         id="path2" />
      <path
         style="font-variation-settings:normal;vector-effect:none;fill:#fe5000;fill-opacity:1;stroke:none;stroke-width:1.30607;stroke-linecap:butt;stroke-linejoin:miter;stroke-miterlimit:10;stroke-dasharray:none;stroke-dashoffset:0;stroke-opacity:1;stop-color:#000000;stop-opacity:1"
         d="m 921.1372,279.32253 40.54199,10.76166"
         fill="none"
         stroke="none"
         stroke-width="1"
         id="path4" />
      <path
         style="font-variation-settings:normal;vector-effect:none;fill:#fe5000;fill-opacity:1;stroke:none;stroke-width:1.30607;stroke-linecap:butt;stroke-linejoin:miter;stroke-miterlimit:10;stroke-dasharray:none;stroke-dashoffset:0;stroke-opacity:1;stop-color:#000000;stop-opacity:1"
         d=""
         fill="none"
         stroke="#00bb31"
         stroke-width="6"
         opacity="0"
         id="path6-1" />
      <path
         style="font-variation-settings:normal;vector-effect:none;fill:#fe5000;fill-opacity:1;stroke:none;stroke-width:1.30607;stroke-linecap:butt;stroke-linejoin:miter;stroke-miterlimit:10;stroke-dasharray:none;stroke-dashoffset:0;stroke-opacity:1;stop-color:#000000;stop-opacity:1"
         d="m 853.43945,271.43836 c 30.84013,2.02256 43.64236,3.54351 67.69775,7.88416 l 8.3523,4.96258 1.19905,12.93047 3.96655,8.76622 1.19905,12.93047 7.79661,10.59121 3.08407,12.26211 4.57488,7.48953 1.86741,14.81549 4.90906,8.43204 10.89829,7.36947 1.53323,13.87298 1.06032,18.06185 7.09514,3.8287 1.97672,3.07654 2.28173,11.7592 4.90906,8.43204 4.30073,9.70873 1.74735,8.49207 2.8518,3.52009 c -1.64605,23.9488 -3.39028,49.65793 -3.87347,57.26785 -0.35624,5.39922 -0.89452,13.71249 -1.19532,18.42628 -0.34368,4.71301 -1.14301,17.91241 -1.82437,29.35495 -0.68137,11.44255 -1.42446,23.91363 -1.62299,27.72834 l -0.42817,6.9853 4.67483,0.0856 c 6.69136,0.0796 15.28084,-0.40675 19.28434,-1.14863 7.3177,-1.32475 19.2873,-5.99658 26.1437,-10.24716 14.0154,-8.62433 25.6631,-21.49646 34.5501,-38.23746 8.7544,-16.52891 14.3766,-35.389 16.5445,-55.38488 0.8822,-8.34988 0.777,-28.38736 -0.185,-36.771 -2.7818,-23.81901 -10.0579,-43.51581 -21.6219,-58.65761 -2.8076,-3.65521 -9.7968,-10.90499 -12.1258,-12.57792 -1.9477,-1.40854 -7.6634,-3.22926 -12.3685,-4.00182 -10.1815,-1.60214 -22.5491,-0.97046 -30.4042,1.58864 -5.1359,1.66501 -9.8696,4.79607 -11.3352,7.51501 -1.02093,1.86903 -1.34263,5.38116 -0.8573,9.3371 0.1341,1.0156 0.2094,2.05257 0.2163,3.47818 l -1.88784,-0.21252 -4.8088,-7.48436 0.30126,-10.42153 -8.98043,-6.8022 -2.99119,-7.86477 0.0505,-14.24821 -2.65701,-6.92226 -1.1662,-11.69484 -5.87875,-10.02394 0.71882,-12.3632 -2.04868,-8.19895 0.71882,-12.3632 -9.92294,-6.46802 -0.0804,-0.21288 c 10.33407,3.90874 19.07486,8.44385 26.31292,13.63431 8.97693,6.471 10.8496,9.63718 14.56422,24.67821 1.8768,7.62813 3.6114,11.30661 6.1541,13.02635 0.9747,0.66138 1.2328,0.6232 5.298,-1.14721 4.6268,-1.97464 10.1408,-3.2037 17.789,-3.83596 6.1441,-0.48818 12.8213,0.36338 17.977,2.30256 1.0652,0.40562 4.9071,1.4627 8.5377,2.3443 14.095,3.43279 17.246,4.73464 25.7559,10.93968 3.6413,2.64081 8.5893,6.54972 11.0821,8.65467 2.4498,2.10417 5.7028,4.86658 7.2676,6.0965 6.6377,5.35562 11.2416,11.66078 19.0401,26.26172 2.2406,4.15967 5.0667,9.14521 6.276,11.05506 3.7087,5.98845 6.4307,14.3185 11.7774,36.29673 2.6741,10.94623 3.3825,14.43431 3.3393,16.79317 -0.03,1.62976 0.2042,7.59751 0.4866,13.26584 0.627,12.62487 0.3718,33.59961 -0.4999,39.0323 -0.9677,5.98867 -5.1341,25.00411 -6.8832,31.4933 -5.6099,20.53351 -16.2708,42.77649 -28.4554,59.19972 -6.687,9.05878 -17.0533,19.89504 -25.4119,26.52067 -6.7061,5.4117 -16.5626,11.83831 -21.7555,14.27452 -5.4955,2.55938 -6.8337,3.00682 -19.9408,6.54235 -5.3028,1.40454 -10.3926,2.89877 -11.2582,3.31196 -1.4271,0.61742 -3.917,0.70055 -23.2628,0.51807 l -21.66249,-0.18198 -0.37087,3.85445 c -0.73624,7.40869 -3.41295,17.69925 -6.55094,25.06398 -1.79403,4.25743 -6.64235,13.65019 -9.29571,17.9777 -5.75132,9.50494 -14.56028,19.64035 -23.09591,26.56306 -30.05138,24.50513 -67.16485,38.71307 -113.2003,43.44782 -16.33367,1.67456 -44.65802,2.14289 -54.71873,0.97199 -16.69583,-1.97879 -34.51903,-5.65143 -48.51262,-9.94041 -28.15636,-8.70977 -49.12967,-20.76318 -65.38077,-37.66398 -11.62209,-11.96806 -18.03378,-22.63948 -22.65222,-37.52544 -0.65018,-2.08504 -1.23133,-4.10002 -1.76435,-6.16421 l 0.11665,-0.18147 7.84165,-4.61749 9.35009,-4.61314 -1.53787,-11.13372 9.93171,-13.01227 -3.72933,-12.7544 8.88,-7.39635 -1.18243,-9.63897 5.59071,-9.46535 -0.0437,-15.47207 -4.65506,-14.64628 6.80866,-11.67011 -5.33909,-14.37291 -1.68882,-11.06709 3.17177,-13.98653 -0.0587,-15.04654 -0.25277,-14.03572 3.6474,-12.15917 -7.58519,-14.7514 0.26117,-15.03544 6.30429,-12.40707 0.30614,-11.08475 -3.668,-9.80651 1.90998,-15.21536 -8.73665,-9.3784 6.11489,-11.52532 -1.04827,-12.97223 -5.8007,-9.56153 -1.14516,-13.95138 -1.80312,-9.88283 5.96687,-13.48268 -0.93859,-12.90262 0.47628,-7.98721 -10.69714,-12.35687 0.40891,-2.24126 c 16.66387,-4.80861 36.4979,-9.05423 55.93746,-12.00911 24.69404,-3.70958 46.51899,-5.36944 81.19945,-6.19336 6.65319,-0.17854 51.54863,1.11512 60.46155,1.70729 z"
         fill="#d0d0ce"
         stroke="none"
         stroke-width="1"
         id="path8" />
    </g>
  </g>
  <style
     type="text/css"
     id="style4629">
	.st0{clip-path:url(#SVGID_4_);}
	.st1{clip-path:url(#SVGID_4_);fill:#3BAA37;}
</style>
  <style
     id="style4273">.st0{display:none;fill:#010202;} .st1{fill:#006633;} .st2{fill:#010202;} .st3{fill:#006633;stroke:#006633;stroke-width:0.8859;stroke-miterlimit:10;} .st4{fill:#1CA638;} .st5{fill:#FFFFFF;} .st6{fill:#F8DB76;} .st7{fill:#FFFFFF;stroke:#F8DB76;stroke-width:0.3543;stroke-miterlimit:10;} .st8{fill:#FFFFFF;stroke:#F8DB76;stroke-width:0.2658;stroke-miterlimit:10;} .st9{fill:#006633;stroke:#006633;stroke-width:0.3543;stroke-miterlimit:10;} .st10{fill:none;stroke:#000000;stroke-width:0.7087;stroke-miterlimit:10;} .st11{fill:#F8DB76;stroke:#7C7C7C;stroke-width:0.3543;stroke-miterlimit:10;} .st12{fill:none;} .st13{fill:#383838;} .st14{fill:#828281;} .st15{fill:none;stroke:#383838;stroke-width:0.4429;stroke-miterlimit:10;} .st16{fill:#353535;} .st17{fill:#A6A9B5;} .st18{fill:#1CA638;stroke:#FFFFFF;stroke-width:0.4429;stroke-miterlimit:10;} .st19{fill:#F28C40;} .st20{fill:#916D14;} .st21{fill:none;stroke:#010202;stroke-width:1.7703;stroke-miterlimit:10;}</style>
</svg>
