<?xml version="1.0" encoding="UTF-8" standalone="no"?>
<svg
   xmlns:dc="http://purl.org/dc/elements/1.1/"
   xmlns:cc="http://creativecommons.org/ns#"
   xmlns:rdf="http://www.w3.org/1999/02/22-rdf-syntax-ns#"
   xmlns:svg="http://www.w3.org/2000/svg"
   xmlns="http://www.w3.org/2000/svg"
   xmlns:xlink="http://www.w3.org/1999/xlink"
   xmlns:sodipodi="http://sodipodi.sourceforge.net/DTD/sodipodi-0.dtd"
   xmlns:inkscape="http://www.inkscape.org/namespaces/inkscape"
   width="420mm"
   height="297mm"
   viewBox="0 0 420 297"
   version="1.1"
   id="svg8"
   inkscape:version="1.0 (4035a4fb49, 2020-05-01)"
   sodipodi:docname="36c3sign-notices-chaoswest-office_cwvg.svg">
  <defs
     id="defs2" />
  <sodipodi:namedview
     id="base"
     pagecolor="#ffffff"
     bordercolor="#666666"
     borderopacity="1.0"
     inkscape:pageopacity="0.0"
     inkscape:pageshadow="2"
     inkscape:zoom="0.60293452"
     inkscape:cx="1258.6473"
     inkscape:cy="775.04253"
     inkscape:document-units="mm"
     inkscape:current-layer="layer2"
     showgrid="false"
     inkscape:pagecheckerboard="false"
     showguides="true"
     inkscape:guide-bbox="true"
     inkscape:window-width="2556"
     inkscape:window-height="1388"
     inkscape:window-x="0"
     inkscape:window-y="24"
     inkscape:window-maximized="0"
     inkscape:document-rotation="0">
    <sodipodi:guide
       position="30,0"
       orientation="1,0"
       id="guide14"
       inkscape:locked="false"
       inkscape:label=""
       inkscape:color="rgb(0,0,255)" />
    <sodipodi:guide
       position="0,30"
       orientation="0,1"
       id="guide20"
       inkscape:locked="false"
       inkscape:label=""
       inkscape:color="rgb(0,0,255)" />
    <sodipodi:guide
       position="0,267"
       orientation="0,1"
       id="guide22"
       inkscape:locked="false"
       inkscape:label=""
       inkscape:color="rgb(0,0,255)" />
  </sodipodi:namedview>
  <metadata
     id="metadata5">
    <rdf:RDF>
      <cc:Work
         rdf:about="">
        <dc:format>image/svg+xml</dc:format>
        <dc:type
           rdf:resource="http://purl.org/dc/dcmitype/StillImage" />
        <dc:title></dc:title>
        <dc:creator>
          <cc:Agent>
            <dc:title>c3sign</dc:title>
          </cc:Agent>
        </dc:creator>
        <dc:publisher>
          <cc:Agent>
            <dc:title>36c3</dc:title>
          </cc:Agent>
        </dc:publisher>
      </cc:Work>
    </rdf:RDF>
  </metadata>
  <g
     inkscape:label="Logo"
     inkscape:groupmode="layer"
     id="layer1"
     style="display:inline">
    <path
       style="font-family:none;mix-blend-mode:normal;fill:none;fill-rule:nonzero;stroke:#00bb31;stroke-width:1.2819;stroke-linecap:butt;stroke-linejoin:miter;stroke-miterlimit:10;stroke-dasharray:none;stroke-dashoffset:0"
       inkscape:connector-curvature="0"
       id="path32"
       d="" />
    <path
       style="font-family:none;mix-blend-mode:normal;fill:none;fill-rule:nonzero;stroke:#00bb31;stroke-width:1.2819;stroke-linecap:butt;stroke-linejoin:miter;stroke-miterlimit:10;stroke-dasharray:none;stroke-dashoffset:0"
       inkscape:connector-curvature="0"
       id="path38"
       d="" />
    <path
       style="font-family:none;mix-blend-mode:normal;fill:none;fill-rule:nonzero;stroke:#00bb31;stroke-width:1.2819;stroke-linecap:butt;stroke-linejoin:miter;stroke-miterlimit:10;stroke-dasharray:none;stroke-dashoffset:0"
       inkscape:connector-curvature="0"
       id="path44"
       d="" />
    <path
       style="font-family:none;mix-blend-mode:normal;fill:none;fill-rule:nonzero;stroke:#00bb31;stroke-width:1.2819;stroke-linecap:butt;stroke-linejoin:miter;stroke-miterlimit:10;stroke-dasharray:none;stroke-dashoffset:0"
       inkscape:connector-curvature="0"
       id="path106"
       d="" />
  </g>
  <g
     inkscape:groupmode="layer"
     id="layer2"
     inkscape:label="Text">
    <text
       xml:space="preserve"
       style="font-style:normal;font-weight:normal;font-size:123.691px;line-height:1.25;font-family:sans-serif;letter-spacing:0px;word-spacing:0px;fill:#000000;fill-opacity:1;stroke:none;stroke-width:3.09226"
       x="30.098215"
       y="122.46107"
       id="text4682"><tspan
         sodipodi:role="line"
         id="tspan4680"
         x="30.098215"
         y="122.46107"
         style="font-style:normal;font-variant:normal;font-weight:normal;font-stretch:normal;font-family:'Blackout Midnight';-inkscape-font-specification:'Blackout Midnight';stroke-width:3.09226">office</tspan><tspan
         sodipodi:role="line"
         x="30.098215"
         y="277.07428"
         id="tspan4730" /></text>
    <text
       id="text885"
       y="127.925"
       x="240.24797"
       style="font-style:normal;font-weight:normal;font-size:28.9626px;line-height:1.25;font-family:sans-serif;letter-spacing:0px;word-spacing:0px;fill:#00bb31;fill-opacity:1;stroke:none;stroke-width:0.724065"
       xml:space="preserve"
       transform="rotate(4.8671033)"><tspan
         style="font-style:normal;font-variant:normal;font-weight:normal;font-stretch:normal;font-family:'Blackout 2AM';-inkscape-font-specification:'Blackout 2AM';fill:#00bb31;stroke-width:0.724065"
         y="127.925"
         x="240.24797"
         id="tspan883"
         sodipodi:role="line">chaos</tspan></text>
    <text
       transform="rotate(-9.478063)"
       xml:space="preserve"
       style="font-style:normal;font-weight:normal;font-size:28.9626px;line-height:1.25;font-family:sans-serif;letter-spacing:0px;word-spacing:0px;fill:#00bb31;fill-opacity:1;stroke:none;stroke-width:0.724065"
       x="282.24475"
       y="232.68425"
       id="text852"><tspan
         sodipodi:role="line"
         id="tspan850"
         x="282.24475"
         y="232.68425"
         style="font-style:normal;font-variant:normal;font-weight:normal;font-stretch:normal;font-family:'Blackout 2AM';-inkscape-font-specification:'Blackout 2AM';fill:#00bb31;stroke-width:0.724065">west</tspan></text>
    <g
       id="g1114"
       transform="matrix(0.25836001,0,0,0.25836001,63.318524,133.92399)">
      <text
         transform="translate(0,364.6)"
         id="text4606"><textPath
           id="textPath4608"
           startOffset="83.292997%"
           xlink:href="#SVGID_x5F_1_x5F_" /></text>
      <path
         d="m 244.03997,-6.0186867 73.12367,42.1659997 -6.208,2.8927 -8.1806,-1.07926 -8.4023,-3.07586 -11.82028,2.31905 -14.19078,8.56625 -14.6698,-5.53255 -8.6804,3.86191 -12.71571,4.18362 -13.3395,-2.88852 -10.07285,-0.23293 -9.19602,-2.37307 -11.87157,2.71018 -8.09739,-1.60235 -14.72842,10.53476 -11.17207,-0.79717 -8.90356,-2.39322 z"
         id="polygon4279 1 1 1"
         inkscape:connector-curvature="0"
         style="font-family:none;mix-blend-mode:normal;fill:#505050;fill-rule:nonzero;stroke:none;stroke-width:1;stroke-linecap:butt;stroke-linejoin:miter;stroke-miterlimit:10;stroke-dasharray:none;stroke-dashoffset:0" />
      <path
         d="m 472.54344,138.60987 0.081,250 -216.54382,125.06984 -216.62446,-124.93015 -0.0806,-250 117.41511,-67.815777 8.90342,2.39371 11.17202,0.79779 14.729,-10.53394 8.09731,1.60279 11.87172,-2.70952 9.19589,2.37358 10.07283,0.23349 13.33934,2.88926 12.71594,-4.18292 8.68061,-3.86143 14.66949,5.53336 14.1913,-8.56546 11.8203,-2.3184 8.4022,3.07632 8.1806,1.07971 6.2081,-2.89235 z"
         id="path3"
         inkscape:connector-curvature="0"
         style="font-family:none;mix-blend-mode:normal;fill:#505050;fill-rule:nonzero;stroke:none;stroke-width:1;stroke-linecap:butt;stroke-linejoin:miter;stroke-miterlimit:10;stroke-dasharray:none;stroke-dashoffset:0" />
      <g
         id="g13"
         style="font-family:none;mix-blend-mode:normal;fill:#00bb31;fill-rule:nonzero;stroke:none;stroke-width:1;stroke-linecap:butt;stroke-linejoin:miter;stroke-miterlimit:10;stroke-dasharray:none;stroke-dashoffset:0"
         text-anchor="none"
         font-size="none"
         font-weight="none"
         stroke-miterlimit="10"
         transform="matrix(-1,0,0,1,1386.5188,-234.22883)">
        <path
           style="fill:#00bb31"
           id="polygon4565 1 1 1-8"
           d="m 1013.8577,542.2934 -16.84893,6.48891 -6.81246,-7.10163 -8.47402,-12.15169 -13.3343,-6.5661 -6.89332,-6.50183 -6.87824,-7.99763 -3.91909,-8.59913 -10.87741,-11.10041 -3.58217,-12.20619 4.75742,-15.34784 -10.36399,-9.06705 -2.02841,-6.39486 -0.0444,-8.94469 0.13403,-2.15183 -0.14906,-0.87599 -0.1352,-27.24321 4.27481,-6.71303 -0.59114,-11.09827 -3.81746,-9.1469 -0.0319,-6.42931 7.24385,-6.32283 -0.2269,-14.4839 4.11274,-11.5581 1.53412,-13.60631 0.52641,-11.2809 7.61157,-8.05642 9.38638,-8.91889 8.14022,-5.28709 6.6366,-9.31289 2.02592,-3.08347 15.80166,-8.86231 6.45643,1.20483 11.13144,-5.91531 11.9491,-4.79468 0.2738,279.26038 z"
           inkscape:connector-curvature="0" />
        <path
           style="fill:#00bb31"
           id="path3-5"
           d="m 927.809,297.6194 47.31536,-26.53665 -2.02592,3.08347 -6.6366,9.31289 -8.14022,5.28709 -9.38638,8.91889 -7.61157,8.05642 -0.52641,11.2809 -1.53412,13.60631 -4.11274,11.5581 0.2269,14.4839 -7.24385,6.32283 z"
           inkscape:connector-curvature="0" />
        <path
           style="fill:#00bb31"
           id="path5"
           d="m 1020.775,252.80037 0.01,7.05666 -11.9491,4.79468 -11.1314,5.91531 -6.45643,-1.20483 z"
           inkscape:connector-curvature="0" />
        <path
           style="fill:#00bb31"
           id="path7"
           d="m 1020.0363,759.26597 -91.17647,-52.94118 -1.27603,-257.12066 2.02841,6.39486 10.36399,9.06705 -4.75742,15.34784 3.58217,12.20619 10.87741,11.10041 3.91909,8.59913 6.87824,7.99763 6.89332,6.50183 13.3343,6.5661 8.47402,12.15169 6.81246,7.10163 16.84891,-6.48891 6.9881,-0.16656 z"
           inkscape:connector-curvature="0" />
        <path
           style="fill:#00bb31"
           id="path9"
           d="m 928.5076,380.00307 0.59114,11.09827 -4.27481,6.71303 -0.13379,-26.9582 z"
           inkscape:connector-curvature="0" />
        <path
           style="fill:#00bb31"
           id="path11"
           d="m 933.23635,426.253 -0.13403,2.15183 -0.015,-3.02783 z"
           inkscape:connector-curvature="0" />
      </g>
      <path
         d="m 50.005635,278.44106 12.329396,10.16415 9.217895,4.15341 10.319211,4.11448 10.727584,9.16241 13.049499,1.78733 9.72176,13.12694 0.65949,13.96109 5.96362,9.84022 9.22151,12.0215 -7.72128,9.62819 6.4404,11.22463 -2.49968,14.86509 -0.30331,15.93 -8.14974,6.0375 -9.43081,7.64869 -0.97601,13.34747 -16.470468,5.4787 -7.297023,11.75806 -14.494613,1.86678 -10.483036,2.19701 -9.680664,1.88153 -11.21776,-173.19158 z"
         id="polygon4565 1 1 1"
         inkscape:connector-curvature="0"
         style="font-family:none;mix-blend-mode:normal;fill:#00bb31;fill-rule:nonzero;stroke:none;stroke-width:1;stroke-linecap:butt;stroke-linejoin:miter;stroke-miterlimit:10;stroke-dasharray:none;stroke-dashoffset:0" />
      <path
         d="m 49.183041,79.08937 91.626119,-53.74069 10.1482,499.89724 -92.182079,-51.17011 -0.37169,-15.30522 9.74876,-1.48899 10.56322,-1.77183 14.55819,-1.27983 7.765969,-11.45374 16.67831,-4.80899 1.5143,-13.29716 9.732,-7.26154 8.38692,-5.70342 0.9465,-15.90474 3.098,-14.75201 -5.9817,-11.47558 8.1038,-9.30849 -8.7284,-12.38414 -5.56135,-10.07304 -0.0951,-13.97634 -9.18364,-13.50888 -12.96665,-2.31293 -10.348759,-9.58821 -10.14461,-4.52791 -9.04262,-4.52232 -11.90881,-10.65384 -11.34788,6.55061 z"
         id="path3-1"
         inkscape:connector-curvature="0"
         style="font-family:none;mix-blend-mode:normal;fill:#00bb31;fill-rule:nonzero;stroke:none;stroke-width:1;stroke-linecap:butt;stroke-linejoin:miter;stroke-miterlimit:10;stroke-dasharray:none;stroke-dashoffset:0" />
      <g
         transform="matrix(4.15247,0,0,4.15247,-49.83,-1560.915)"
         id="g4569"
         stroke-miterlimit="10"
         style="fill:#000000;stroke:none;stroke-width:0.354;stroke-miterlimit:10">
        <path
           id="path4571"
           d="m 39.3,404.4 h -5 v 3.6 h 5 v 1.4 h -5 c -0.4,0 -0.7,-0.1 -0.9,-0.4 -0.2,-0.3 -0.4,-0.5 -0.4,-0.9 v -3.8 c 0,-0.4 0.1,-0.7 0.4,-0.9 0.3,-0.2 0.6,-0.4 0.9,-0.4 h 5 z"
           class="st11"
           inkscape:connector-curvature="0"
           style="fill:#000000;stroke:none;stroke-width:0.35429999;stroke-miterlimit:10" />
        <path
           id="path4573"
           d="m 38,418.1 h 1.4 v 6.4 H 38 V 422 h -3.8 v 2.5 h -1.4 v -6.4 h 1.4 v 2.5 H 38 Z"
           class="st11"
           inkscape:connector-curvature="0"
           style="fill:#000000;stroke:none;stroke-width:0.35429999;stroke-miterlimit:10" />
        <path
           id="path4575"
           d="M 34.2,433.2 H 38 c 0.4,0 0.7,0.1 0.9,0.4 0.3,0.3 0.4,0.6 0.4,0.9 v 5.1 h -1.4 v -2.1 h -3.6 v 2.1 h -1.4 v -5.1 c 0,-0.4 0.1,-0.7 0.4,-0.9 0.3,-0.2 0.6,-0.4 0.9,-0.4 z m 0.1,2.9 h 3.6 v -1.5 h -3.6 z"
           class="st11"
           inkscape:connector-curvature="0"
           style="fill:#000000;stroke:none;stroke-width:0.35429999;stroke-miterlimit:10" />
        <path
           id="path4577"
           d="M 34.2,448.2 H 38 c 0.4,0 0.7,0.1 0.9,0.4 0.2,0.3 0.4,0.6 0.4,0.9 v 3.8 c 0,0.4 -0.1,0.7 -0.4,0.9 -0.3,0.2 -0.6,0.4 -0.9,0.4 h -3.8 c -0.4,0 -0.7,-0.1 -0.9,-0.4 -0.2,-0.3 -0.4,-0.6 -0.4,-0.9 v -3.8 c 0,-0.4 0.1,-0.7 0.4,-0.9 0.3,-0.2 0.6,-0.4 0.9,-0.4 z m 0.1,1.4 v 3.6 h 3.6 v -3.6 z"
           class="st11"
           inkscape:connector-curvature="0"
           style="fill:#000000;stroke:none;stroke-width:0.35429999;stroke-miterlimit:10" />
        <path
           id="path4579"
           d="m 39.3,464.6 v 0.6 h -1.4 v -0.5 h -3.6 v 1.1 H 38 c 0.4,0 0.7,0.1 0.9,0.4 0.3,0.3 0.4,0.6 0.4,0.9 v 1.3 c 0,0.4 -0.1,0.7 -0.4,0.9 -0.3,0.3 -0.6,0.4 -0.9,0.4 h -3.8 c -0.4,0 -0.7,-0.1 -0.9,-0.4 -0.3,-0.3 -0.4,-0.6 -0.4,-0.9 v -0.6 h 1.4 v 0.5 h 3.6 v -1.1 h -3.7 c -0.4,0 -0.7,-0.1 -0.9,-0.4 -0.3,-0.3 -0.4,-0.6 -0.4,-0.9 v -1.3 c 0,-0.4 0.1,-0.7 0.4,-0.9 0.3,-0.3 0.6,-0.4 0.9,-0.4 H 38 c 0.4,0 0.7,0.1 0.9,0.4 0.3,0.2 0.4,0.5 0.4,0.9 z"
           class="st11"
           inkscape:connector-curvature="0"
           style="fill:#000000;stroke:none;stroke-width:0.35429999;stroke-miterlimit:10" />
      </g>
      <g
         transform="matrix(4.15247,0,0,4.15247,-49.83,-1560.915)"
         id="g4587"
         stroke-miterlimit="10"
         style="fill:#000000;stroke:none;stroke-width:0.354;stroke-miterlimit:10">
        <path
           id="path4589"
           d="m 115.2,411.7 h 1.5 l -2.3,6.4 h -1.1 l -1.5,-4.1 -0.6,1.6 -0.9,2.5 h -1.1 l -2.3,-6.4 h 1.5 l 1.4,3.8 0.2,-0.6 1.2,-3.2 h 1.3 l 1.4,3.8 0.2,-0.6 z"
           class="st11"
           inkscape:connector-curvature="0"
           style="fill:#000000;stroke:none;stroke-width:0.35429999;stroke-miterlimit:10" />
        <path
           id="path4591"
           d="m 114.8,426.7 v 1.4 h -4.5 v 1.1 h 3.6 v 1.4 h -3.6 v 1.1 h 4.5 v 1.4 h -5.9 v -6.4 z"
           class="st11"
           inkscape:connector-curvature="0"
           style="fill:#000000;stroke:none;stroke-width:0.35429999;stroke-miterlimit:10" />
        <path
           id="path4593"
           d="m 115,443.1 v 0.6 h -1.4 v -0.5 H 110 v 1.1 h 3.7 c 0.4,0 0.7,0.1 0.9,0.4 0.3,0.3 0.4,0.6 0.4,0.9 v 1.3 c 0,0.4 -0.1,0.7 -0.4,0.9 -0.3,0.2 -0.6,0.4 -0.9,0.4 h -3.8 c -0.4,0 -0.7,-0.1 -0.9,-0.4 -0.2,-0.3 -0.4,-0.6 -0.4,-0.9 v -0.6 h 1.4 v 0.5 h 3.6 v -1.1 h -3.7 c -0.4,0 -0.7,-0.1 -0.9,-0.4 -0.2,-0.3 -0.4,-0.6 -0.4,-0.9 v -1.3 c 0,-0.4 0.1,-0.7 0.4,-0.9 0.3,-0.2 0.6,-0.4 0.9,-0.4 h 3.8 c 0.4,0 0.7,0.1 0.9,0.4 0.2,0.3 0.4,0.5 0.4,0.9 z"
           class="st11"
           inkscape:connector-curvature="0"
           style="fill:#000000;stroke:none;stroke-width:0.35429999;stroke-miterlimit:10" />
        <path
           id="path4595"
           d="m 108.6,456.9 h 6.4 v 1.4 h -2.5 v 5 h -1.4 v -5 h -2.5 z"
           class="st11"
           inkscape:connector-curvature="0"
           style="fill:#000000;stroke:none;stroke-width:0.35429999;stroke-miterlimit:10" />
      </g>
      <path
         d="m 57.303726,392.40689 v 34.4655 l 90.108594,53.56686 v -35.29599"
         class="st12"
         id="SVGID_x5F_1_x5F_"
         inkscape:connector-curvature="0"
         style="fill:none;stroke-width:4.15247011" />
      <path
         id="path4724"
         d="m 195.58098,436.83832 c -1.24574,-1.24574 -2.90673,-2.07624 -4.56772,-2.49148 -0.83049,0 -1.66099,0 -2.49148,0.41524 l -27.82155,-27.4063 v -0.83049 c 0.41525,-3.73723 -2.49148,-7.0592 -6.22871,-7.47445 -1.66098,0 -3.73722,0.41525 -4.98296,1.66099 -1.24574,1.24574 -2.07624,2.90673 -2.49148,4.56772 0,1.66098 0.41524,3.73722 1.66099,4.98296 1.24574,1.24574 2.90672,2.07623 4.56771,2.49148 h 1.66099 l 28.65204,27.82155 v 0.41525 c 0,1.66099 0.41525,3.73722 1.66099,4.98296 1.24574,1.24574 2.90673,2.07624 4.56772,2.49148 h 0.41525 c 3.32197,0 6.64395,-2.49148 6.64395,-6.2287 0.41524,-2.07624 0,-4.15247 -1.24574,-5.39821 z m -41.5247,-28.2368 c -1.66099,0 -2.90673,-1.66099 -2.90673,-3.32197 0,-0.8305 0.41524,-1.66099 1.24574,-2.07624 0.41525,-0.41525 1.24574,-0.83049 2.07623,-0.83049 h 0.41525 c 1.66099,0 2.90673,1.66098 2.90673,3.32197 0,0.8305 -0.41525,1.66099 -1.24574,2.07624 -0.8305,0.83049 -1.66099,0.83049 -2.49148,0.83049 z m 38.20272,34.88075 c -0.41525,0.41525 -1.24574,0.83049 -2.07623,0.83049 -0.8305,0 -1.66099,-0.41524 -2.07624,-1.24574 -0.41525,-0.83049 -0.83049,-1.24574 -0.83049,-2.07623 0,-0.8305 0.41524,-1.66099 1.24574,-2.07624 0.41524,-0.41525 1.24574,-0.83049 2.07623,-0.83049 h 0.41525 c 0.83049,0 1.66099,0.41525 2.07623,1.24574 0.41525,0.83049 0.8305,1.24574 0.8305,2.07623 -0.41525,0.8305 -0.8305,1.66099 -1.66099,2.07624 z"
         class="st2"
         inkscape:connector-curvature="0"
         style="fill:#010202;stroke-width:4.15247011" />
      <path
         style="fill:#010202;stroke-width:4.15247011"
         inkscape:connector-curvature="0"
         class="st2"
         d="m 362.92552,398.22035 c -3.73722,-0.41525 -7.0592,2.49148 -7.47445,6.2287 v 2.49148 l -27.82155,27.82155 h -0.83049 c -1.66099,0 -3.73722,0.41525 -4.98296,1.66099 -1.24575,1.24574 -2.07624,2.90673 -2.49149,4.56772 -0.41524,3.73722 2.49149,7.0592 6.22871,7.47444 h 0.83049 c 3.32198,0 6.22871,-2.49148 6.64395,-6.2287 v -1.66099 l 28.2368,-28.2368 h 1.24574 c 3.32198,0 6.22871,-2.49148 6.64395,-6.2287 0.41525,-4.15247 -2.49148,-7.47445 -6.2287,-7.88969 z m -34.4655,45.26192 c -0.8305,0.41525 -1.24574,0.83049 -2.07624,0.83049 -1.66099,0 -2.90673,-1.66098 -2.90673,-3.32197 0,-0.8305 0.41525,-1.66099 1.24574,-2.07624 0.41525,-0.41525 1.24575,-0.83049 2.07624,-0.83049 h 0.41525 c 0.83049,0 1.66098,0.41525 2.07623,1.24574 0.41525,0.83049 0.8305,1.24574 0.8305,2.07623 -0.8305,0.8305 -1.24575,1.66099 -1.66099,2.07624 z m 33.635,-35.296 c -0.83049,0 -1.66098,-0.41524 -2.07623,-1.24574 -0.41525,-0.83049 -0.83049,-1.24574 -0.83049,-2.07623 0,-0.8305 0.41524,-1.66099 1.24574,-2.07624 0.41524,-0.41524 1.24574,-0.83049 2.07623,-0.83049 h 0.41525 c 1.66099,0 2.90673,1.66099 2.90673,3.32198 -0.8305,1.66098 -2.07624,2.90672 -3.73723,2.90672 z"
         id="path4732" />
      <path
         style="fill:#010202;stroke-width:4.15247011"
         inkscape:connector-curvature="0"
         class="st2"
         d="m 261.19,471.71906 -1.24574,-1.24574 v -19.5166 h -0.41524 c 0,0 0.41524,0 0.41524,-0.41525 2.90673,-2.49148 3.32198,-6.64395 0.8305,-9.55068 -1.24574,-1.24574 -2.90673,-2.07624 -4.56772,-2.49149 -1.66099,0 -3.73722,0.41525 -4.98296,1.66099 -1.24575,1.24574 -2.07624,2.90673 -2.49149,4.56772 -0.41524,1.66099 0.41525,3.73722 1.66099,4.98296 0.41525,0.8305 1.24574,1.24574 2.07624,1.66099 v 18.68612 c -0.41525,0 -0.41525,0.41524 -0.8305,0.41524 -2.90673,2.49149 -3.32197,6.64396 -0.83049,9.55068 1.24574,1.24575 2.90673,2.07624 4.56772,2.49149 h 0.83049 c 1.66099,0 3.32198,-0.41525 4.15247,-1.66099 1.24574,-1.24574 2.07623,-2.90673 2.49148,-4.56772 0,-1.24574 -0.41525,-2.90673 -1.66099,-4.56772 z m -7.47444,-28.23679 c 0.41524,-0.41525 1.24574,-0.83049 2.07623,-0.83049 h 0.41525 c 0.83049,0 1.66099,0.41524 2.07623,1.24574 1.24575,1.24574 0.8305,3.32197 -0.41524,4.15247 -1.24574,1.24574 -3.32198,0.83049 -4.15247,-0.41525 -0.41525,-0.83049 -0.8305,-1.24574 -0.8305,-2.07624 0,-0.83049 0.41525,-1.66098 0.8305,-2.07623 z m 4.15247,34.88075 c -0.41525,0.41524 -1.24574,0.83049 -2.07624,0.83049 -0.83049,0 -1.66099,-0.41525 -2.07623,-1.24574 -1.24574,-1.24574 -0.8305,-3.32198 0.41524,-4.15247 0.41525,-0.41525 1.24575,-0.83049 2.07624,-0.83049 0.83049,0 1.66099,0.41524 2.49148,1.24574 0.41525,0.83049 0.8305,1.24574 0.8305,2.07623 -0.41525,0.8305 -0.8305,1.66099 -1.66099,2.07624 z"
         id="path4740" />
      <g
         transform="matrix(4.15247,0,0,4.15247,-49.829996,-1560.915)"
         style="fill:#00bb31"
         id="g4620">
        <path
           style="fill:#00bb31"
           inkscape:connector-curvature="0"
           class="st6"
           d="m 89.7,443.1 c 0,-0.9 -0.7,-1.6 -1.6,-1.6 -0.9,0 -1.6,0.7 -1.6,1.6 0,0.6 0.3,1.1 0.8,1.4 l -0.1,23.6 -2.3,2.2 h -5.8 l -2.6,-2.6 v -4.4 c 0.4,-0.3 0.7,-0.8 0.7,-1.3 0,-0.9 -0.7,-1.6 -1.6,-1.6 -0.9,0 -1.6,0.7 -1.6,1.6 0,0.6 0.3,1 0.7,1.3 v 5.1 l 3.6,3.6 h 7.2 l 3.4,-3.2 0.1,-24.4 c 0.5,-0.3 0.7,-0.8 0.7,-1.3 z m -14,18.2 c 0.4,0 0.7,0.3 0.7,0.7 0,0.4 -0.3,0.7 -0.7,0.7 -0.4,0 -0.7,-0.3 -0.7,-0.7 0,-0.4 0.3,-0.7 0.7,-0.7 z m 12.4,-18.9 c 0.4,0 0.7,0.3 0.7,0.7 0,0.4 -0.3,0.7 -0.7,0.7 -0.4,0 -0.7,-0.3 -0.7,-0.7 0,-0.4 0.3,-0.7 0.7,-0.7 z"
           id="path4622" />
        <path
           style="fill:#00bb31"
           inkscape:connector-curvature="0"
           class="st6"
           d="m 71.9,460.4 c -0.9,0 -1.6,0.7 -1.6,1.6 0,0.5 0.3,1 0.6,1.3 v 4.6 l -2.5,2.4 h -5.8 l -2.4,-2.4 0.1,-16 c 0.4,-0.3 0.7,-0.8 0.7,-1.3 0,-0.9 -0.7,-1.6 -1.6,-1.6 -0.9,0 -1.6,0.7 -1.6,1.6 0,0.6 0.3,1 0.7,1.3 v 16.7 l 3.4,3.4 h 7.2 l 3.6,-3.5 v -5.2 c 0.5,-0.3 0.8,-0.8 0.8,-1.4 0,-0.8 -0.7,-1.5 -1.6,-1.5 z M 59.5,449.9 c 0.4,0 0.7,0.3 0.7,0.7 0,0.4 -0.3,0.7 -0.7,0.7 -0.4,0 -0.7,-0.3 -0.7,-0.7 0,-0.4 0.3,-0.7 0.7,-0.7 z m 12.4,11.4 c 0.4,0 0.7,0.3 0.7,0.7 0,0.4 -0.3,0.7 -0.7,0.7 -0.4,0 -0.7,-0.3 -0.7,-0.7 0,-0.4 0.3,-0.7 0.7,-0.7 z"
           id="path4624" />
      </g>
      <path
         style="fill:#00bb31;stroke-width:4.15247011"
         inkscape:connector-curvature="0"
         class="st6"
         d="m 312.68063,224.23185 c -2.49148,0 -4.56771,1.24574 -5.81345,3.32198 l -83.8799,0.41525 -17.85562,-18.27087 v -71.83773 l 17.85562,-17.85562 h 83.46465 c 1.24574,2.07623 3.32198,3.32197 5.81346,3.32197 3.73722,0 6.64395,-2.90673 6.64395,-6.64395 0,-3.73722 -2.90673,-6.64395 -6.64395,-6.64395 -2.07624,0 -4.15247,1.24574 -5.39821,2.49148 h -86.78663 l -22.42333,22.00809 v 78.06644 l 22.00809,22.42334 87.20187,-0.41525 v -0.41525 c 1.24574,1.66099 3.32197,2.90673 5.39821,2.90673 3.73722,0 6.64395,-2.90673 6.64395,-6.64395 0,-3.73723 -2.49148,-6.22871 -6.22871,-6.22871 z m -0.83049,-110.4557 c 1.66099,0 2.90673,1.24574 2.90673,2.90673 0,1.66099 -1.24574,2.90673 -2.90673,2.90673 -1.66099,0 -2.90673,-1.24574 -2.90673,-2.90673 0,-1.66099 1.24574,-2.90673 2.90673,-2.90673 z m 0.83049,120.00638 c -1.66098,0 -2.90672,-1.24574 -2.90672,-2.90673 0,-1.66098 1.24574,-2.90672 2.90672,-2.90672 1.66099,0 2.90673,1.24574 2.90673,2.90672 0,1.66099 -1.24574,2.90673 -2.90673,2.90673 z"
         id="path4638" />
      <g
         transform="matrix(4.15247,0,0,4.15247,-49.829996,-1560.915)"
         id="g4640">
        <path
           style="fill:#010202"
           inkscape:connector-curvature="0"
           class="st2"
           d="m 96.1,438.5 c 0,-0.9 -0.7,-1.7 -1.7,-1.7 -0.9,0 -1.7,0.7 -1.7,1.7 0,0.5 0.2,0.9 0.6,1.3 v 30.1 l -6.4,6.5 h -8.7 l -4.4,-4 -4.2,4 h -8.5 l -7.3,-7.1 v -17.7 c 0.4,-0.3 0.7,-0.8 0.7,-1.3 0,-0.9 -0.7,-1.7 -1.7,-1.7 -0.9,0 -1.7,0.7 -1.7,1.7 0,0.6 0.3,1.1 0.8,1.4 V 470 l 8.4,8.2 h 10 l 3.5,-3.3 3.7,3.3 h 10.2 l 7.5,-7.5 V 440 c 0.6,-0.3 0.9,-0.8 0.9,-1.5 z m -43.3,11 c 0.4,0 0.7,0.3 0.7,0.7 0,0.4 -0.3,0.7 -0.7,0.7 -0.4,0 -0.7,-0.3 -0.7,-0.7 0,-0.4 0.3,-0.7 0.7,-0.7 z m 41.7,-10.2 c -0.4,0 -0.7,-0.4 -0.7,-0.8 0,-0.4 0.3,-0.7 0.7,-0.7 0.4,0 0.7,0.3 0.7,0.7 0,0.4 -0.3,0.8 -0.7,0.8 z"
           id="path4642" />
        <g
           id="g4644">
          <path
             style="fill:#010202"
             inkscape:connector-curvature="0"
             class="st2"
             d="m 87.1,395.9 c -0.6,0 -1,0.3 -1.3,0.7 H 62.6 l -8.6,8.7 v 25.9 l 8.1,8 h 19.8 c 0.3,0.5 0.8,0.8 1.4,0.8 0.9,0 1.6,-0.7 1.6,-1.6 0,-0.9 -0.7,-1.6 -1.6,-1.6 -0.5,0 -1,0.3 -1.3,0.6 H 62.8 l -7.1,-7 v -24.5 l 7.6,-7.7 h 22.5 c 0.3,0.4 0.8,0.7 1.3,0.7 0.9,0 1.6,-0.7 1.6,-1.6 0,-0.9 -0.7,-1.4 -1.6,-1.4 z m -3.9,41.9 c 0.4,0 0.7,0.3 0.7,0.7 0,0.4 -0.3,0.7 -0.7,0.7 -0.4,0 -0.7,-0.3 -0.7,-0.7 0,-0.4 0.3,-0.7 0.7,-0.7 z m 3.9,-39.6 c -0.4,0 -0.7,-0.3 -0.7,-0.7 0,-0.4 0.3,-0.7 0.7,-0.7 0.4,0 0.7,0.3 0.7,0.7 0,0.4 -0.3,0.7 -0.7,0.7 z"
             id="path4646" />
        </g>
      </g>
      <g
         style="fill:#d0d0ce"
         transform="matrix(4.15247,0,0,4.15247,-49.829996,-1560.915)"
         id="g4684">
        <path
           style="fill:#d0d0ce"
           inkscape:connector-curvature="0"
           d="m 78.3,407.5 h 3.5 v 9.3 h -3.5 z"
           class="st17"
           id="rect4686" />
        <path
           style="fill:#d0d0ce"
           inkscape:connector-curvature="0"
           class="st14"
           d="m 82,417.1 h -4 v -9.9 h 4 z m -3.5,-0.5 h 3 v -8.8 h -3 z"
           id="path4688" />
      </g>
      <g
         id="g2157">
        <g
           id="g4634"
           transform="matrix(4.15247,0,0,4.15247,-49.829996,-1560.915)"
           style="fill:#d0d0ce;stroke:none">
          <path
             id="path4636"
             d="m 75.4,462.1 c -0.1,-0.2 -0.5,-2.3 -0.5,-3.1 v -2 h -1.7 c 0,0.6 0,1.9 -0.2,2.5 -0.2,0.9 -0.9,2.5 -1,2.6 l -0.5,-0.2 c 0,0 0.7,-1.7 0.9,-2.5 0.2,-0.7 0.1,-2.6 0.1,-2.6 v -0.3 h 2.7 v 2.6 c 0,0.7 0.4,2.6 0.4,2.8 z"
             class="st14"
             inkscape:connector-curvature="0"
             style="fill:#d0d0ce;stroke:none" />
        </g>
        <g
           id="g4650"
           transform="matrix(4.15247,0,0,4.15247,-49.829996,-1560.915)"
           style="fill:#d0d0ce;stroke:none">
          <path
             id="polygon4652"
             class="st14"
             d="m 83.2,414.6 h 9.3 v -16.9 h -5.4 v -0.5 h 6 v 18 h -9.9 z"
             inkscape:connector-curvature="0"
             style="fill:#d0d0ce;stroke:none" />
        </g>
        <g
           id="g4658"
           transform="matrix(4.15247,0,0,4.15247,-49.829996,-1560.915)"
           style="fill:#d0d0ce">
          <path
             id="rect4660"
             class="st16"
             d="m 69.6,407.5 h 12.2 v 9.3 H 69.6 Z"
             inkscape:connector-curvature="0"
             style="fill:#d0d0ce" />
          <path
             id="path4662"
             d="M 82,417.1 H 69.3 v -9.9 H 82 Z m -12.1,-0.5 h 11.6 v -8.8 H 69.9 Z"
             class="st14"
             inkscape:connector-curvature="0"
             style="fill:#d0d0ce" />
        </g>
        <g
           id="g4664"
           transform="matrix(4.15247,0,0,4.15247,-49.829996,-1560.915)"
           style="fill:#d0d0ce;stroke:none">
          <path
             id="polygon4666"
             class="st14"
             d="m 83.2,409.5 h 7 v -5.3 l -3.1,0.1 v -0.6 h 3.7 v 6.4 h -7.6 z"
             inkscape:connector-curvature="0"
             style="fill:#d0d0ce;stroke:none" />
        </g>
        <g
           id="g4668"
           transform="matrix(4.15247,0,0,4.15247,-49.829996,-1560.915)"
           style="fill:#d0d0ce">
          <path
             id="rect4670"
             class="st17"
             d="m 81.8,408.1 h 1.4 v 3.5 h -1.4 z"
             inkscape:connector-curvature="0"
             style="fill:#d0d0ce" />
          <path
             id="path4672"
             d="m 83.4,411.8 h -1.9 v -4 h 1.9 z M 82,411.3 h 0.8 v -3 H 82 Z"
             class="st14"
             inkscape:connector-curvature="0"
             style="fill:#d0d0ce" />
        </g>
        <g
           id="g4674"
           transform="matrix(4.15247,0,0,4.15247,-49.829996,-1560.915)"
           style="fill:#d0d0ce">
          <path
             id="rect4676"
             class="st17"
             d="m 81.8,413.6 h 1.4 v 2.7 h -1.4 z"
             inkscape:connector-curvature="0"
             style="fill:#d0d0ce" />
          <path
             id="path4678"
             d="m 83.4,416.5 h -1.9 v -3.2 h 1.9 z M 82,416 h 0.8 v -2.1 H 82 Z"
             class="st14"
             inkscape:connector-curvature="0"
             style="fill:#d0d0ce" />
        </g>
        <g
           id="g4690"
           transform="matrix(4.15247,0,0,4.15247,-49.829996,-1560.915)"
           style="fill:#d0d0ce;stroke:none">
          <path
             id="polygon4692"
             class="st14"
             d="m 95.5,437 -6.3,-6.5 -1.5,1.5 -0.4,-0.4 1.9,-1.9 7.1,7.3 -2.3,2.3 -0.4,-0.4 z"
             inkscape:connector-curvature="0"
             style="fill:#d0d0ce;stroke:none" />
        </g>
        <g
           id="g4694"
           transform="matrix(4.15247,0,0,4.15247,-49.829996,-1560.915)"
           style="fill:#d0d0ce;stroke:none">
          <path
             id="polygon4696"
             class="st14"
             d="M 59.2,448.1 H 53 v 2.5 h -0.5 v -3 h 7.3 v 3 h -0.6 z"
             inkscape:connector-curvature="0"
             style="fill:#d0d0ce;stroke:none" />
        </g>
        <path
           id="path4698"
           d="m 249.97834,336.34854 h 15.36414 v -12.45741 c 0,0 0,-8.72018 -7.47445,-8.72018 -7.47444,0 -7.47444,8.72018 -7.47444,8.72018 v 12.45741 z"
           class="st18"
           stroke-miterlimit="10"
           inkscape:connector-curvature="0"
           style="fill:#d0d0ce;stroke:none;stroke-width:1.83912897;stroke-miterlimit:10" />
        <g
           id="g4700"
           transform="matrix(4.15247,0,0,4.15247,-49.829996,-1560.915)"
           style="fill:#d0d0ce;stroke:none">
          <g
             id="g4702"
             style="fill:#d0d0ce;stroke:none">
            <path
               id="polygon4704"
               class="st14"
               d="m 89.7,441.1 -4.2,-4.2 -1.9,2 -0.4,-0.4 2.2,-2.3 5.1,4.9 -2.3,2.3 -0.3,-0.3 z"
               inkscape:connector-curvature="0"
               style="fill:#d0d0ce;stroke:none" />
          </g>
          <g
             id="g4706"
             style="fill:#d0d0ce;stroke:none">
            <path
               id="rect4708"
               class="st5"
               d="m 86.814,436.287 3.578,3.492 -1.676,1.716 -3.578,-3.492 z"
               inkscape:connector-curvature="0"
               style="fill:#d0d0ce;stroke:none" />
            <path
               id="path4710"
               d="m 88.7,441.8 -3.9,-3.8 2,-2.1 3.9,3.8 z m -3.1,-3.8 3.2,3.1 1.3,-1.3 -3.2,-3.2 z"
               class="st14"
               inkscape:connector-curvature="0"
               style="fill:#d0d0ce;stroke:none" />
          </g>
          <g
             id="g4712"
             style="fill:#d0d0ce;stroke:none">
            <path
               id="rect4714"
               class="st19"
               d="m 87.418,436.78 0.358,0.35 -1.675,1.718 -0.357,-0.35 z"
               inkscape:connector-curvature="0"
               style="fill:#d0d0ce;stroke:none" />
          </g>
          <g
             id="g4716"
             style="fill:#d0d0ce;stroke:none">
            <path
               id="rect4718"
               class="st19"
               d="m 87.84,437.164 0.358,0.35 -1.675,1.718 -0.358,-0.35 z"
               inkscape:connector-curvature="0"
               style="fill:#d0d0ce;stroke:none" />
          </g>
          <g
             id="g4720"
             style="fill:#d0d0ce;stroke:none">
            <path
               id="rect4722"
               class="st20"
               d="m 88.196,437.62 0.358,0.348 -1.675,1.72 -0.36,-0.35 z"
               inkscape:connector-curvature="0"
               style="fill:#d0d0ce;stroke:none" />
          </g>
        </g>
      </g>
    </g>
    <g
       transform="matrix(0.13070848,0,0,0.13070848,177.7625,146.9343)"
       fill="#d0d0ce"
       fill-rule="nonzero"
       stroke="none"
       stroke-width="1"
       stroke-linecap="butt"
       stroke-linejoin="miter"
       stroke-miterlimit="10"
       stroke-dasharray="none"
       stroke-dashoffset="0"
       font-family="none"
       font-weight="none"
       font-size="none"
       text-anchor="none"
       style="mix-blend-mode:normal"
       id="g24">
      <path
         d="m 151.05867,503.37333 c 6.52553,-17.59184 15.80737,-33.1578 27.84549,-46.69787 12.03813,-13.54007 26.88327,-24.2183 44.53542,-32.03469 4.23607,-1.87574 8.62562,-3.50054 13.16864,-4.8744 l -2.56283,1.65023 0.17082,14.01192 2.75318,11.9786 6.14918,14.76987 -0.76661,11.06062 -5.9863,9.20754 3.83471,13.35079 -6.21834,11.09106 -13.32914,3.78851 -7.87699,6.51662 -10.56313,-0.88029 -8.10389,-0.87934 -7.98269,-1.26327 -13.68058,7.0337 -14.23425,-0.46254 -10.88323,-6.29729 c 1.12406,-3.70551 2.36757,-7.39544 3.73054,-11.06978 z"
         id="path2-3" />
      <path
         d="m 327.59591,686.61087 c 14.31854,-1.1932 25.53831,-6.63088 33.65928,-16.31303 8.12098,-9.68216 13.7645,-20.66911 16.93057,-32.96086 l 77.81949,28.99358 c -2.05184,6.3867 -5.08545,14.6109 -9.10083,24.6726 -4.01538,10.0617 -10.27991,20.30113 -18.7936,30.71829 -8.51369,10.41716 -19.93558,20.01743 -34.2657,28.80082 -14.33011,8.78339 -32.69646,14.90003 -55.09905,18.34992 l -0.49417,0.0761 c -25.03819,3.85576 -46.64942,3.13663 -64.8337,-2.15738 -18.18428,-5.29401 -33.65733,-13.78795 -46.41917,-25.48183 -12.76183,-11.69387 -22.97075,-25.97309 -30.62675,-42.83765 -7.656,-16.86456 -13.44945,-34.77479 -17.38036,-53.73068 l -11.71948,-76.10292 c -1.9469,-14.37528 -2.16884,-28.85787 -0.66581,-43.44778 l 11.88437,4.10636 14.06125,-2.26034 12.08825,-9.51344 8.0771,-0.28217 8.12287,-0.68217 10.53715,-1.1502 6.48976,-7.89913 12.3621,-6.26078 3.98922,-12.07333 -6.31027,-12.37453 4.12062,-10.18013 -1.35666,-11.00384 -8.85287,-13.32622 -4.98691,-11.23376 -2.83968,-13.72222 2.20111,-2.10867 c 13.29448,-7.01509 28.58019,-11.85292 45.85711,-14.51348 l 0.49417,-0.0761 c 20.09644,-3.09476 37.82379,-2.95795 53.18206,0.41042 15.35827,3.36837 28.91114,8.70107 40.65862,15.9981 11.74748,7.29703 21.69583,16.05155 29.84505,26.26353 8.14922,10.21199 14.89827,20.63959 20.24717,31.28282 l -65.4912,51.06273 c -2.88991,-5.6257 -6.54644,-11.30196 -10.9696,-17.02881 -4.42316,-5.72684 -9.48612,-10.68064 -15.18887,-14.86138 -5.70275,-4.18074 -11.9122,-7.27167 -18.62836,-9.27278 -6.71615,-2.00111 -13.50808,-2.30423 -20.3758,-0.90938 -16.59901,3.90522 -28.99673,12.64397 -37.19317,26.21627 -8.19644,13.5723 -10.89948,29.41832 -8.10913,47.53806 l 11.03458,71.65534 c 2.79035,18.11974 10.24326,32.57043 22.35872,43.35205 12.11546,10.78163 26.67563,15.53763 43.6805,14.26801 z"
         id="path4-6" />
      <path
         d="m 672.12656,399.76928 70.42655,3.21727 3.4552,18.58962 -2.64945,0.72296 -8.79341,2.40449 -10.38805,-2.55619 -7.73433,-3.67964 -8.30258,-8.36146 -10.43969,3.11235 -10.96776,0.53682 -11.03558,-8.32406 -4.82075,-1.23366 z"
         id="path6" />
      <path
         d="m 744.4618,564.42283 41.52013,-166.39134 103.98812,1.5722 -111.11157,370.36262 -75.49137,-1.14135 -31.6227,-157.49605 -41.36896,156.39249 -80.4908,-1.21694 -89.86546,-373.40119 98.98869,1.49661 36.9709,167.57805 40.40607,-161.92675 4.85616,1.08591 11.28456,7.98329 10.94626,-0.8714 10.33981,-3.42961 8.55397,8.1041 7.84306,3.44181 10.46124,2.23787 8.71591,-2.67182 2.62614,-0.80351 z"
         id="path8-7" />
      <path
         d="m 888.79906,514.06639 c 6.26831,-18.99232 15.07205,-36.09478 26.41123,-51.30738 8.74708,-11.73505 18.6756,-21.67025 29.78555,-29.80559 l 3.52737,2.41805 -1.36091,18.82859 12.43977,6.14864 -1.70496,15.98759 -1.40105,11.80456 -7.03961,10.23311 0.84963,14.76502 -10.68457,8.29048 -5.05036,6.34079 -2.0305,13.16516 -12.55126,3.07008 -9.45308,9.58734 -10.78536,1.96094 -11.59921,7.0278 -13.19535,-1.28131 -1.87425,0.38671 z"
         id="path10-5" />
      <path
         d="m 1150.1378,605.10609 -32.0389,125.99011 c -8.356,7.16152 -17.8619,13.77269 -28.5176,19.8335 -10.6558,6.06081 -22.0136,10.82525 -34.0737,14.29332 -12.06,3.46807 -24.8619,5.45771 -38.4057,5.96891 -13.5437,0.5112 -27.26122,-0.99945 -41.15244,-4.53194 l -0.48458,-0.12323 c -21.64445,-5.50412 -39.80084,-13.9046 -54.46914,-25.20144 -14.66831,-11.29684 -25.97315,-24.66187 -33.91454,-40.09509 -7.94139,-15.43322 -12.76299,-32.65266 -14.46481,-51.65832 -1.70182,-19.00565 -0.24695,-38.92828 4.36461,-59.76789 l 6.61796,-26.02452 1.84273,-0.51643 13.25257,0.35832 11.08106,-7.81931 10.62242,-2.70804 8.76173,-10.22301 12.30671,-3.93759 1.10778,-13.27468 4.59604,-6.67744 10.08063,-9.01516 -1.87686,-14.66986 6.30911,-10.69896 0.57472,-11.87351 0.58628,-16.06755 -12.83814,-5.26648 0.045,-18.87765 -3.68736,-2.16626 c 3.11623,-2.63446 6.34698,-5.11848 9.69224,-7.45206 14.63392,-10.2083 31.33604,-17.05314 50.10638,-20.53452 18.7703,-3.48138 39.1392,-2.42894 61.1067,3.15734 l 0.4846,0.12323 c 21.721,6.55543 38.6044,14.89013 50.65,25.00411 12.0455,10.11398 21.0782,20.57959 27.098,31.39683 6.0197,10.81724 10.0204,21.12104 12.0019,30.9114 1.9816,9.79036 3.9716,17.51918 5.9698,23.18646 l -78.0853,27.09127 c -0.7116,-3.96432 -1.5422,-8.47484 -2.492,-13.53154 -0.9497,-5.0567 -2.7892,-9.99573 -5.5185,-14.81709 -2.7292,-4.82136 -6.4907,-9.30329 -11.2843,-13.44579 -4.7936,-4.14251 -11.39,-7.28172 -19.7894,-9.41765 -16.1525,-4.10755 -30.3699,-1.96194 -42.652,6.43683 -12.28206,8.39877 -20.68226,21.48207 -25.20057,39.24991 l -17.86786,70.26372 c -2.21808,8.72239 -2.83866,17.24912 -1.86175,25.5802 0.97691,8.33107 3.29127,15.79845 6.94308,22.40215 3.65181,6.60369 8.459,12.38338 14.42157,17.33907 5.96257,4.95569 12.982,8.46042 21.05833,10.5142 11.2246,3.19834 20.8438,3.5808 28.8573,1.14737 8.0136,-2.43342 14.6187,-6.42882 19.8153,-11.98619 l 4.5593,-17.92936 -38.2816,-9.7349 17.7447,-69.77914 z"
         id="path12" />
      <path
         d="m 1124.8236,431.72015 94.4782,-29.57819 10.6809,14.7993 0.7732,4.36158 2.5064,14.08029 2.6762,13.43787 -6.636,14.8176 -0.3137,14.7569 -8.204,7.94646 0.9085,13.42367 -13.0694,5.98783 -7.8449,7.69593 -8.0302,5.94855 -5.2085,3.60336 z"
         id="path14-3" />
      <path
         d="m 1328.2234,563.23122 37.3326,-172.78681 98.4692,-10.23743 -80.3914,382.363 -74.5979,7.75563 -109.0029,-256.25221 5.82,-2.49787 9.0512,-4.23634 9.2164,-5.98573 13.9978,-3.27466 1.7739,-13.33692 9.618,-6.16002 3.2365,-14.40104 9.445,-13.20566 0.044,-13.70169 0.3381,-14.29765 0.1079,-4.42826 z"
         id="path16-5" />
      <path
         d="m 1696.7282,498.27833 c 3.0616,11.99485 4.3019,22.97825 3.7209,32.95022 -0.581,9.97197 -0.6282,17.95271 -0.1415,23.94222 l -82.4125,6.2792 c 0.2174,-2.70144 0.4457,-5.65574 0.685,-8.86292 l 3.1291,-5.74592 11.5697,-9.04272 7.2345,-4.57441 5.2862,-14.93251 9.9812,-6.1458 6.092,-9.21753 5.004,-6.24189 8.8973,-9.52546 7.115,-12.20603 1.7481,-4.61253 c 5.7463,9.55686 9.7766,18.8689 12.091,27.9361 z"
         id="path18-6" />
      <path
         d="m 1731.1639,551.10529 7.5248,78.34176 -6.8898,-0.12374 -10.2591,-2.65065 -7.2804,-5.74016 -14.7615,-4.92196 -11.376,-1.11498 -5.1307,-8.01324 -8.8787,-11.82348 -14.1925,-9.17292 -5.3805,-8.29023 -1.6391,-9.73795 2.0494,-9.43205 z"
         id="path20-2" />
      <path
         d="m 1730.9879,676.05328 c -4.4651,10.05855 -10.2049,20.11459 -17.2195,30.16813 -7.0145,10.05354 -15.2204,19.23856 -24.6177,27.55505 -9.3972,8.3165 -20.0999,15.61716 -32.108,21.90199 -12.0082,6.28483 -25.0425,10.81894 -39.103,13.60233 l -0.4905,0.0971 c -21.9081,4.33691 -41.9125,4.55911 -60.0129,0.66661 -18.1005,-3.89251 -34.0535,-11.09843 -47.859,-21.61778 -13.8056,-10.51935 -25.5624,-23.99276 -35.2706,-40.42024 -9.7082,-16.42748 -16.9607,-35.04011 -21.7574,-55.83788 l -14.9526,-75.53422 c -3.8838,-19.61928 -4.6305,-38.84016 -2.2401,-57.66265 2.3903,-18.82249 7.997,-35.98802 16.82,-51.49658 8.823,-15.50856 20.9595,-28.86968 36.4093,-40.08335 15.4499,-11.21367 34.2924,-19.02133 56.5276,-23.42297 l 0.4905,-0.0971 c 22.4293,-3.42068 41.256,-3.1549 56.48,0.79733 3.7158,0.96464 7.2785,2.02537 10.6882,3.18218 l 1.6454,4.65015 2.4543,13.91354 -0.6379,13.01883 0.2127,7.99722 1.3045,10.97151 -3.6485,11.13925 5.6115,14.8133 -2.5671,8.16536 -2.9896,14.37671 1.3234,6.40748 c -0.9184,-1.26527 -1.8735,-2.57782 -2.8652,-3.93766 -3.0316,-4.15709 -6.816,-7.82536 -11.3531,-11.00482 -4.5371,-3.17946 -9.8602,-5.60869 -15.9692,-7.28767 -6.109,-1.67899 -13.4143,-1.67699 -21.916,0.006 -16.3494,3.2365 -28.263,11.28657 -35.7406,24.1502 -7.4777,12.86363 -9.4365,28.28762 -5.8764,46.27196 l 14.0788,71.11989 c 1.7477,8.82868 4.8536,16.79384 9.3177,23.89548 4.464,7.10165 9.7642,12.84846 15.9006,17.24045 6.1363,4.39199 12.9615,7.54325 20.4756,9.4538 7.514,1.91055 15.3584,2.0567 23.5331,0.43845 11.5093,-1.93856 20.3583,-5.72911 26.5471,-11.37165 6.1887,-5.64254 10.4342,-12.0897 12.7365,-19.34149 l -3.5925,-18.14783 -38.7481,7.6705 -13.9817,-70.6294 42.6083,-8.43467 -1.1006,9.58917 2.6,9.52651 6.1787,7.71366 15.0348,7.7151 10.0112,10.88128 5.9027,7.46291 11.4304,-0.0226 15.1781,3.42861 7.8155,4.9872 10.4719,1.61661 6.8679,-0.56248 z"
         id="path22" />
    </g>
    <path
       d="m 277.47598,257.36751 v -19.24288 h 122.30083 v 19.24288 z m 16.07866,-10.17334 h -4.4152 v 2.64911 h 1.45335 v 0.68068 c -0.13491,0.24529 -0.33422,0.44765 -0.5979,0.60709 -0.26368,0.15944 -0.61016,0.23302 -1.0394,0.22075 -0.30662,0 -0.5887,-0.0613 -0.84626,-0.18395 -0.25754,-0.12265 -0.48138,-0.28516 -0.67148,-0.48752 -0.19008,-0.20236 -0.34033,-0.44765 -0.45071,-0.73586 -0.11037,-0.28822 -0.16557,-0.5979 -0.16557,-0.92903 v -2.66752 c 0,-0.67454 0.1809,-1.21725 0.5427,-1.6281 0.36181,-0.41086 0.84932,-0.61629 1.46254,-0.61629 0.31887,0 0.58256,0.0521 0.79105,0.15638 0.20849,0.10424 0.38326,0.22996 0.52431,0.37712 0.14104,0.14717 0.25143,0.30661 0.33113,0.47832 0.0797,0.1717 0.15025,0.32501 0.21156,0.45992 l 2.53874,-1.6741 c -0.12265,-0.18397 -0.26368,-0.44152 -0.42312,-0.77266 -0.15945,-0.33114 -0.39553,-0.66228 -0.70828,-0.99342 -0.31273,-0.33114 -0.72973,-0.62241 -1.25096,-0.87384 -0.52124,-0.25142 -1.19885,-0.39552 -2.03283,-0.43232 h -0.0184 c -0.83398,0 -1.56985,0.14717 -2.2076,0.44152 -0.63775,0.29435 -1.17125,0.68988 -1.60051,1.18659 -0.42925,0.4967 -0.75426,1.0762 -0.97502,1.73848 -0.22076,0.66228 -0.33114,1.36135 -0.33114,2.09721 v 2.83309 c 0.0245,0.78492 0.15331,1.50853 0.38633,2.1708 0.23303,0.66228 0.5611,1.23257 0.98423,1.71088 0.42312,0.47832 0.94742,0.85238 1.57291,1.1222 0.62548,0.26981 1.34908,0.40472 2.1708,0.40472 h 0.0184 c 0.52738,0 1.03021,-0.0706 1.50853,-0.21156 0.4783,-0.14104 0.91675,-0.32807 1.31536,-0.56109 0.3986,-0.23302 0.76038,-0.50591 1.0854,-0.81865 0.32501,-0.31275 0.60401,-0.63468 0.83704,-0.96583 z m 11.25874,7.32185 -2.77789,-5.46379 c 0.15945,0 0.3802,-0.0828 0.66228,-0.24835 0.28208,-0.16557 0.5611,-0.41086 0.83705,-0.73587 0.27595,-0.32501 0.5151,-0.72667 0.71747,-1.20498 0.20235,-0.47831 0.30354,-1.02408 0.30354,-1.6373 0,-0.5887 -0.0674,-1.14979 -0.20237,-1.68329 -0.1349,-0.5335 -0.35873,-0.99955 -0.67147,-1.39815 -0.31275,-0.39859 -0.72974,-0.71747 -1.25097,-0.95662 -0.52123,-0.23916 -1.17431,-0.35874 -1.95924,-0.35874 h -4.17604 v 13.68709 h 3.09064 v -4.45197 h 0.0368 l 1.83967,4.45197 z m 12.0866,-13.70548 h -3.18263 v 8.00253 c 0,0.33115 -0.0337,0.64388 -0.10118,0.93823 -0.0674,0.29435 -0.17169,0.5519 -0.31274,0.77266 -0.14104,0.22076 -0.32195,0.39553 -0.5427,0.5243 -0.22076,0.12878 -0.48445,0.19317 -0.79106,0.19317 -0.30662,0 -0.5703,-0.0644 -0.79105,-0.19317 -0.22077,-0.12877 -0.40472,-0.30354 -0.5519,-0.5243 -0.14717,-0.22076 -0.25448,-0.47831 -0.32195,-0.77266 -0.0674,-0.29435 -0.10117,-0.60708 -0.10117,-0.93823 v -8.00253 h -3.18262 v 8.24169 c 0,0.7236 0.0889,1.41654 0.26675,2.07882 0.17784,0.66228 0.46298,1.2479 0.85545,1.75688 0.39244,0.50898 0.90143,0.91064 1.52692,1.20497 0.62548,0.29436 1.38587,0.43539 2.28117,0.42312 h 0.0184 c 0.80945,0.0123 1.52079,-0.11344 2.134,-0.37712 0.61323,-0.26368 1.12528,-0.63776 1.53613,-1.12219 0.41085,-0.48446 0.7236,-1.06394 0.93823,-1.73848 0.21463,-0.67455 0.32194,-1.41655 0.32194,-2.226 z m 10.48608,3.10903 v -3.09064 h -8.38887 v 13.68709 h 8.38887 v -3.09063 h -5.29823 v -2.20759 h 3.90007 v -3.09064 h -3.90007 v -2.20759 z m 8.83038,-3.09064 v 6.71478 l -3.66093,-6.71478 h -3.14583 v 13.68709 h 3.2746 v -6.73316 l 3.67933,6.73316 h 3.12743 v -13.68709 z m 14.68051,6.84355 c 0,-0.96889 -0.1349,-1.87339 -0.40472,-2.7135 -0.26983,-0.84012 -0.67455,-1.56372 -1.21418,-2.17081 -0.53963,-0.60708 -1.21418,-1.0854 -2.02364,-1.43493 -0.80944,-0.34954 -1.74767,-0.52431 -2.81467,-0.52431 h -2.7595 v 13.68709 h 3.16422 c 1.11606,0 2.06043,-0.18395 2.83308,-0.5519 0.77266,-0.36792 1.39815,-0.86463 1.87646,-1.49012 0.47831,-0.62548 0.82172,-1.35215 1.03021,-2.17999 0.20849,-0.82785 0.31274,-1.70169 0.31274,-2.62153 z m 12.43612,-6.86194 h -3.18261 v 8.00253 c 0,0.33115 -0.0338,0.64388 -0.10119,0.93823 -0.0674,0.29435 -0.17169,0.5519 -0.31273,0.77266 -0.14105,0.22076 -0.32195,0.39553 -0.54271,0.5243 -0.22075,0.12878 -0.48444,0.19317 -0.79105,0.19317 -0.30662,0 -0.5703,-0.0644 -0.79106,-0.19317 -0.22076,-0.12877 -0.40472,-0.30354 -0.5519,-0.5243 -0.14716,-0.22076 -0.25448,-0.47831 -0.32193,-0.77266 -0.0674,-0.29435 -0.10119,-0.60708 -0.10119,-0.93823 v -8.00253 h -3.18262 v 8.24169 c 0,0.7236 0.0889,1.41654 0.26675,2.07882 0.17785,0.66228 0.463,1.2479 0.85545,1.75688 0.39245,0.50898 0.90143,0.91064 1.52692,1.20497 0.62548,0.29436 1.38587,0.43539 2.28118,0.42312 h 0.0184 c 0.80946,0.0123 1.5208,-0.11344 2.13402,-0.37712 0.6132,-0.26368 1.12526,-0.63776 1.53611,-1.12219 0.41085,-0.48446 0.7236,-1.06394 0.93823,-1.73848 0.21463,-0.67455 0.32194,-1.41655 0.32194,-2.226 z m 8.81199,0.0184 v 6.71477 l -3.66093,-6.71477 h -3.14582 v 13.68709 h 3.2746 v -6.73317 l 3.67933,6.73317 h 3.12743 v -13.68709 z m 14.84609,6.36524 h -4.4152 v 2.64911 h 1.45334 v 0.68068 c -0.1349,0.24528 -0.33421,0.44765 -0.59789,0.60708 -0.26368,0.15944 -0.61016,0.23303 -1.0394,0.22077 -0.30662,0 -0.5887,-0.0613 -0.84626,-0.18397 -0.25754,-0.12265 -0.48138,-0.28515 -0.67147,-0.48752 -0.19009,-0.20235 -0.34034,-0.44765 -0.45072,-0.73586 -0.11037,-0.28821 -0.16557,-0.59789 -0.16557,-0.92903 v -2.66752 c 0,-0.67454 0.1809,-1.21724 0.5427,-1.62809 0.36181,-0.41086 0.84932,-0.61629 1.46254,-0.61629 0.31887,0 0.58256,0.0521 0.79105,0.15637 0.20849,0.10424 0.38326,0.22996 0.52431,0.37713 0.14104,0.14717 0.25142,0.30662 0.33113,0.47832 0.0797,0.1717 0.15025,0.32501 0.21156,0.45991 l 2.53874,-1.6741 c -0.12265,-0.18396 -0.26368,-0.44152 -0.42312,-0.77266 -0.15945,-0.33114 -0.39553,-0.66227 -0.70828,-0.99342 -0.31273,-0.33113 -0.72973,-0.62241 -1.25096,-0.87383 -0.52124,-0.25142 -1.19885,-0.39553 -2.03283,-0.43232 h -0.0184 c -0.83397,0 -1.56985,0.14717 -2.2076,0.44151 -0.63775,0.29435 -1.17126,0.68988 -1.60051,1.18659 -0.42925,0.49671 -0.75426,1.07621 -0.97502,1.73848 -0.22076,0.66228 -0.33113,1.36136 -0.33113,2.09722 v 2.83308 c 0.0245,0.78492 0.15329,1.50853 0.38632,2.17081 0.23303,0.66227 0.5611,1.23256 0.98422,1.71088 0.42312,0.47831 0.94743,0.85237 1.57291,1.12219 0.62549,0.26982 1.34909,0.40473 2.17081,0.40473 h 0.0184 c 0.52737,0 1.03021,-0.0705 1.50852,-0.21156 0.47831,-0.14104 0.91676,-0.32808 1.31537,-0.5611 0.3986,-0.23302 0.76038,-0.50591 1.0854,-0.81864 0.32501,-0.31275 0.60401,-0.63469 0.83704,-0.96584 z m 11.70026,3.88169 c 0,-0.69908 -0.12265,-1.3031 -0.36794,-1.81208 -0.24527,-0.50897 -0.57028,-0.96582 -0.97501,-1.37055 -0.40473,-0.40472 -0.86772,-0.76652 -1.38895,-1.0854 -0.52123,-0.31887 -1.06394,-0.63774 -1.6281,-0.95662 -0.40473,-0.29434 -0.70215,-0.53044 -0.89223,-0.70827 -0.1901,-0.17783 -0.28516,-0.38326 -0.28516,-0.61628 0,-0.30661 0.10118,-0.53657 0.30355,-0.68988 0.20236,-0.1533 0.4262,-0.22996 0.67147,-0.22996 0.23303,0 0.43845,0.0491 0.61629,0.14717 0.17784,0.0981 0.33115,0.2177 0.45992,0.35874 0.12878,0.14104 0.22996,0.29434 0.30354,0.45991 0.0736,0.16558 0.12878,0.31582 0.16557,0.45072 l 2.70431,-1.067 c -0.0613,-0.36794 -0.19009,-0.73893 -0.38633,-1.113 -0.19624,-0.37406 -0.46911,-0.70828 -0.81865,-1.00262 -0.34954,-0.29434 -0.77878,-0.53656 -1.28776,-0.72666 -0.50898,-0.1901 -1.10074,-0.28515 -1.77528,-0.28515 -0.56417,0.0123 -1.10992,0.0981 -1.63731,0.25755 -0.52737,0.15944 -0.99342,0.39246 -1.39814,0.69908 -0.40472,0.3066 -0.72973,0.6868 -0.97502,1.14058 -0.24528,0.45379 -0.36793,0.98115 -0.36793,1.58212 0,0.65001 0.11345,1.18964 0.34033,1.6189 0.22689,0.42925 0.53963,0.81558 0.93824,1.15898 0.39859,0.34341 0.86464,0.67149 1.39814,0.98423 0.5335,0.31274 1.11299,0.67761 1.73848,1.09459 0.28208,0.19624 0.49979,0.38327 0.65308,0.56111 0.1533,0.17782 0.23609,0.37099 0.24835,0.57949 0.0123,0.3434 -0.0828,0.59482 -0.28514,0.75426 -0.20236,0.15943 -0.4078,0.25143 -0.61629,0.27594 -0.24528,0.0368 -0.47524,-0.0153 -0.68987,-0.15636 -0.21463,-0.14104 -0.39553,-0.30048 -0.54271,-0.47831 -0.14716,-0.17783 -0.26062,-0.34647 -0.34033,-0.50591 -0.0797,-0.15944 -0.10731,-0.24529 -0.0828,-0.25755 l -2.94347,1.23257 c 0.12266,0.49057 0.32195,0.92902 0.59791,1.31536 0.27594,0.38633 0.61015,0.7144 1.0026,0.98422 0.39246,0.26982 0.83093,0.47831 1.31537,0.62548 0.48443,0.14718 1.00261,0.22076 1.55451,0.22076 0.71134,0 1.34908,-0.0828 1.91325,-0.24835 0.56417,-0.16557 1.04554,-0.39246 1.44414,-0.68067 0.3986,-0.28822 0.71134,-0.62549 0.93823,-1.01182 0.22688,-0.38633 0.3526,-0.80025 0.37713,-1.24177 z"
       fill="#fe5000"
       id="path18"
       style="font-family:none;mix-blend-mode:normal;fill-rule:nonzero;stroke:none;stroke-width:0.183966;stroke-linecap:butt;stroke-linejoin:miter;stroke-miterlimit:10;stroke-dasharray:none;stroke-dashoffset:0" />
    <path
       d="m 314.82406,278.73076 -1.34231,-19.19601 85.51948,-5.9801 1.34231,19.196 z m 14.33526,-17.58138 -9.28601,0.64934 0.21559,3.08311 3.10145,-0.21688 0.73918,10.57065 3.08309,-0.2156 -0.73916,-10.57063 3.10146,-0.21689 z m 11.52542,12.91459 -3.15226,-5.25672 c 0.15904,-0.0111 0.37348,-0.10911 0.64333,-0.29395 0.26986,-0.18485 0.53107,-0.449 0.78368,-0.79246 0.2526,-0.34347 0.46317,-0.76084 0.63167,-1.25209 0.1685,-0.49126 0.23137,-1.04276 0.1886,-1.65449 -0.0411,-0.58727 -0.14751,-1.14229 -0.31929,-1.66508 -0.17181,-0.52279 -0.4276,-0.97209 -0.76739,-1.3479 -0.33978,-0.3758 -0.77799,-0.66482 -1.31464,-0.86703 -0.53666,-0.20221 -1.19648,-0.27594 -1.97949,-0.22119 l -4.16587,0.2913 0.95477,13.65376 3.0831,-0.21559 -0.31056,-4.44115 0.0367,-0.003 2.14574,4.31281 z m 9.81312,-11.30855 -0.21559,-3.0831 -8.36843,0.58518 0.95477,13.65375 8.36842,-0.58517 -0.21559,-3.08311 -5.28533,0.36958 -0.15398,-2.20222 3.89057,-0.27205 -0.21558,-3.08311 -3.89058,0.27206 -0.154,-2.20222 z m 10.22196,-0.71478 -0.21559,-3.08311 -8.36843,0.58518 0.95477,13.65375 3.08311,-0.21559 -0.36959,-5.28532 3.89057,-0.27206 -0.21558,-3.08311 -3.89058,0.27206 -0.154,-2.20222 z m 9.94669,-0.69555 -0.21559,-3.0831 -8.36843,0.58518 0.95477,13.65375 3.08309,-0.21559 -0.36957,-5.28533 3.89057,-0.27205 -0.21558,-3.08311 -3.89058,0.27206 -0.15399,-2.20222 z m 10.20362,-0.7135 -0.21559,-3.08311 -8.36843,0.58518 0.95475,13.65376 8.36845,-0.58518 -0.21561,-3.0831 -5.28532,0.36958 -0.15399,-2.20222 3.89058,-0.27206 -0.21558,-3.0831 -3.8906,0.27206 -0.15399,-2.20223 z m 8.59327,-3.69908 0.46841,6.69841 -4.12042,-6.44304 -3.13815,0.21944 0.95477,13.65376 3.26661,-0.22842 -0.46968,-6.71677 4.14006,6.46011 3.1198,-0.21816 -0.95477,-13.65376 z"
       fill="#fe5000"
       id="path20"
       style="font-family:none;mix-blend-mode:normal;fill-rule:nonzero;stroke:none;stroke-width:0.183966;stroke-linecap:butt;stroke-linejoin:miter;stroke-miterlimit:10;stroke-dasharray:none;stroke-dashoffset:0" />
  </g>
  <style
     id="style4629"
     type="text/css">
	.st0{clip-path:url(#SVGID_4_);}
	.st1{clip-path:url(#SVGID_4_);fill:#3BAA37;}
</style>
  <style
     id="style4273">.st0{display:none;fill:#010202;} .st1{fill:#006633;} .st2{fill:#010202;} .st3{fill:#006633;stroke:#006633;stroke-width:0.8859;stroke-miterlimit:10;} .st4{fill:#1CA638;} .st5{fill:#FFFFFF;} .st6{fill:#F8DB76;} .st7{fill:#FFFFFF;stroke:#F8DB76;stroke-width:0.3543;stroke-miterlimit:10;} .st8{fill:#FFFFFF;stroke:#F8DB76;stroke-width:0.2658;stroke-miterlimit:10;} .st9{fill:#006633;stroke:#006633;stroke-width:0.3543;stroke-miterlimit:10;} .st10{fill:none;stroke:#000000;stroke-width:0.7087;stroke-miterlimit:10;} .st11{fill:#F8DB76;stroke:#7C7C7C;stroke-width:0.3543;stroke-miterlimit:10;} .st12{fill:none;} .st13{fill:#383838;} .st14{fill:#828281;} .st15{fill:none;stroke:#383838;stroke-width:0.4429;stroke-miterlimit:10;} .st16{fill:#353535;} .st17{fill:#A6A9B5;} .st18{fill:#1CA638;stroke:#FFFFFF;stroke-width:0.4429;stroke-miterlimit:10;} .st19{fill:#F28C40;} .st20{fill:#916D14;} .st21{fill:none;stroke:#010202;stroke-width:1.7703;stroke-miterlimit:10;}</style>
</svg>
